<?xml version="1.0" encoding="utf-8"?>
<!-- Generator: Adobe Illustrator 22.0.1, SVG Export Plug-In . SVG Version: 6.00 Build 0)  -->
<svg version="1.1" id="Layer_1" xmlns="http://www.w3.org/2000/svg" xmlns:xlink="http://www.w3.org/1999/xlink" x="0px" y="0px"
	 viewBox="0 0 320 320" style="enable-background:new 0 0 320 320;" xml:space="preserve">
<style type="text/css">
	.st0{fill:#E8E8E8;}
	.st1{fill:#6B30B7;}
	.st2{fill:#825FC0;}
	.st3{fill:#CFC3E8;}
	.st4{fill:#E6E6E6;}
	.st5{fill:#F2F2F2;}
	.st6{fill:#291347;}
	.st7{fill:#FFFFFF;stroke:#6B30B7;stroke-width:23.2527;stroke-miterlimit:10;}
	.st8{fill:#FFFFFF;}
	.st9{opacity:0.15;}
	.st10{opacity:0.1;fill:#6B30B7;}
	.st11{opacity:0.3;fill:#6B30B7;}
	.st12{opacity:0.6;fill:#6B30B7;}
	.st13{opacity:0.8;fill:#6B30B7;}
	.st14{fill:none;stroke:#6B30B7;stroke-width:3;stroke-miterlimit:10;}
	.st15{fill:#E11F21;}
	.st16{fill:#0B6FB6;}
	.st17{fill:#646464;}
	.st18{fill:url(#path1948_1_);}
	.st19{fill:url(#path1950_1_);}
	.st20{opacity:0.4438;fill:url(#path1894_1_);enable-background:new    ;}
	.st21{fill:#007ACC;}
	.st22{fill:#00599C;}
	.st23{fill:#004482;}
	.st24{fill:#659AD2;}
	.st25{fill:#A9B9CB;}
	.st26{fill:#7F8B99;}
	.st27{fill:none;stroke:#E6E6E6;stroke-miterlimit:10;}
	.st28{clip-path:url(#SVGID_3_);}
	.st29{opacity:0.3;fill:#291347;}
	.st30{opacity:0.2;}
	.st31{clip-path:url(#SVGID_6_);}
	.st32{fill:#FAFBFB;}
	.st33{fill:url(#SVGID_7_);}
	.st34{fill:url(#SVGID_8_);}
	.st35{fill:#FFBE98;}
	.st36{fill:url(#SVGID_9_);}
	.st37{clip-path:url(#SVGID_11_);fill:#F2F2F2;}
	.st38{fill:#FFA726;}
	.st39{fill:#263238;}
	.st40{clip-path:url(#SVGID_14_);}
	.st41{filter:url(#Adobe_OpacityMaskFilter);}
	.st42{filter:url(#Adobe_OpacityMaskFilter_1_);}
	.st43{mask:url(#SVGID_15_);fill:url(#SVGID_16_);}
	.st44{opacity:0.24;fill:#CFC3E8;}
	.st45{opacity:0.29;}
	.st46{fill:none;stroke:#FFFFFF;stroke-width:2;stroke-miterlimit:10;}
	.st47{opacity:0.7;}
	.st48{opacity:0.4;fill:url(#SVGID_17_);}
	.st49{opacity:0.4;}
	.st50{opacity:0.4;fill:url(#SVGID_18_);}
	.st51{fill:#312A91;}
	.st52{opacity:0.9;}
	.st53{opacity:0.4;fill:#FFFFFF;}
	.st54{opacity:0.4;fill:url(#SVGID_19_);}
	.st55{opacity:0.4;fill:url(#SVGID_20_);}
	.st56{opacity:0.7;fill:#291347;}
	.st57{opacity:0.7;fill:#825FC0;}
	.st58{opacity:0.7;fill:#6B30B7;}
	.st59{opacity:0.3;fill:#42E8E0;}
	.st60{opacity:0.4;fill:url(#SVGID_21_);}
	.st61{opacity:0.3;fill:#825FC0;}
	.st62{opacity:0.3;fill:#CFC3E8;}
	.st63{opacity:0.5;fill:#F2F2F2;}
	.st64{opacity:0.5;fill:#CFC3E8;}
	.st65{opacity:0.7;fill:url(#SVGID_22_);}
	.st66{opacity:0.9;fill:#FFFFFF;}
	.st67{opacity:0.3;fill:#FFFFFF;}
	.st68{opacity:0.2;fill:#FFFFFF;}
	.st69{opacity:0.4;fill:url(#SVGID_23_);}
	.st70{opacity:0.4;fill:url(#SVGID_24_);}
	.st71{opacity:0.4;fill:url(#SVGID_25_);}
	.st72{opacity:0.4;fill:url(#SVGID_26_);}
	.st73{opacity:0.4;fill:url(#SVGID_27_);}
	.st74{opacity:0.7;fill:url(#SVGID_28_);}
	.st75{opacity:0.4;fill:url(#SVGID_29_);}
	.st76{opacity:0.4;fill:url(#SVGID_30_);}
	.st77{opacity:0.4;fill:url(#SVGID_31_);}
	.st78{opacity:0.4;fill:url(#SVGID_32_);}
	.st79{opacity:0.4;fill:url(#SVGID_33_);}
	.st80{opacity:0.7;fill:url(#SVGID_34_);}
	.st81{opacity:0.4;fill:url(#SVGID_35_);}
	.st82{opacity:0.4;fill:url(#SVGID_36_);}
	.st83{opacity:0.4;fill:url(#SVGID_37_);}
	.st84{opacity:0.4;fill:url(#SVGID_38_);}
	.st85{opacity:0.4;fill:url(#SVGID_39_);}
	.st86{opacity:0.7;fill:url(#SVGID_40_);}
	.st87{opacity:0.4;fill:url(#SVGID_41_);}
	.st88{opacity:0.4;fill:url(#SVGID_42_);}
	.st89{opacity:0.4;fill:url(#SVGID_43_);}
	.st90{opacity:0.4;fill:url(#SVGID_44_);}
	.st91{opacity:0.4;fill:url(#SVGID_45_);}
	.st92{opacity:0.7;fill:url(#SVGID_46_);}
	.st93{opacity:0.4;fill:url(#SVGID_47_);}
	.st94{opacity:0.4;fill:url(#SVGID_48_);}
	.st95{opacity:0.4;fill:url(#SVGID_49_);}
	.st96{opacity:0.4;fill:url(#SVGID_50_);}
	.st97{opacity:0.4;fill:url(#SVGID_51_);}
	.st98{opacity:0.7;fill:url(#SVGID_52_);}
	.st99{opacity:0.48;fill:url(#SVGID_53_);}
	.st100{opacity:0.48;fill:url(#SVGID_54_);}
	.st101{opacity:5.000000e-02;}
	.st102{clip-path:url(#SVGID_57_);}
	.st103{opacity:0.75;}
	.st104{clip-path:url(#SVGID_60_);}
	.st105{filter:url(#Adobe_OpacityMaskFilter_2_);}
	.st106{filter:url(#Adobe_OpacityMaskFilter_3_);}
	.st107{mask:url(#SVGID_61_);fill:url(#SVGID_62_);}
	.st108{opacity:0.4;fill:url(#SVGID_63_);}
	.st109{opacity:0.4;fill:url(#SVGID_64_);}
	.st110{opacity:0.4;fill:url(#SVGID_65_);}
	.st111{opacity:0.4;fill:url(#SVGID_66_);}
	.st112{opacity:0.4;fill:url(#SVGID_67_);}
	.st113{opacity:0.7;fill:url(#SVGID_68_);}
	.st114{opacity:0.4;fill:url(#SVGID_69_);}
	.st115{opacity:0.4;fill:url(#SVGID_70_);}
	.st116{opacity:0.4;fill:url(#SVGID_71_);}
	.st117{opacity:0.4;fill:url(#SVGID_72_);}
	.st118{opacity:0.4;fill:url(#SVGID_73_);}
	.st119{opacity:0.7;fill:url(#SVGID_74_);}
	.st120{opacity:0.4;fill:url(#SVGID_75_);}
	.st121{opacity:0.4;fill:url(#SVGID_76_);}
	.st122{opacity:0.4;fill:url(#SVGID_77_);}
	.st123{opacity:0.4;fill:url(#SVGID_78_);}
	.st124{opacity:0.4;fill:url(#SVGID_79_);}
	.st125{opacity:0.7;fill:url(#SVGID_80_);}
	.st126{opacity:0.4;fill:url(#SVGID_81_);}
	.st127{opacity:0.4;fill:url(#SVGID_82_);}
	.st128{opacity:0.4;fill:url(#SVGID_83_);}
	.st129{opacity:0.4;fill:url(#SVGID_84_);}
	.st130{opacity:0.4;fill:url(#SVGID_85_);}
	.st131{opacity:0.7;fill:url(#SVGID_86_);}
	.st132{opacity:0.4;fill:url(#SVGID_87_);}
	.st133{opacity:0.4;fill:url(#SVGID_88_);}
	.st134{opacity:0.4;fill:url(#SVGID_89_);}
	.st135{opacity:0.4;fill:url(#SVGID_90_);}
	.st136{opacity:0.4;fill:url(#SVGID_91_);}
	.st137{opacity:0.7;fill:url(#SVGID_92_);}
	.st138{opacity:0.4;fill:url(#SVGID_93_);}
	.st139{opacity:0.4;fill:url(#SVGID_94_);}
	.st140{opacity:0.4;fill:url(#SVGID_95_);}
	.st141{opacity:0.4;fill:url(#SVGID_96_);}
	.st142{opacity:0.4;fill:url(#SVGID_97_);}
	.st143{opacity:0.7;fill:url(#SVGID_98_);}
	.st144{opacity:0.48;fill:url(#SVGID_99_);}
	.st145{opacity:0.48;fill:url(#SVGID_100_);}
	.st146{clip-path:url(#SVGID_103_);}
	.st147{clip-path:url(#SVGID_106_);}
	.st148{fill:none;stroke:#CFC3E8;stroke-width:5;stroke-miterlimit:10;}
	.st149{opacity:0.76;fill:#291347;}
	.st150{filter:url(#Adobe_OpacityMaskFilter_4_);}
	.st151{filter:url(#Adobe_OpacityMaskFilter_5_);}
	.st152{clip-path:url(#SVGID_109_);mask:url(#SVGID_110_);fill:url(#SVGID_111_);}
	.st153{opacity:0.24;clip-path:url(#SVGID_109_);fill:#CFC3E8;}
	.st154{opacity:0.29;clip-path:url(#SVGID_109_);}
	.st155{clip-path:url(#SVGID_109_);}
	.st156{opacity:0.4;fill:url(#SVGID_112_);}
	.st157{opacity:0.4;fill:url(#SVGID_113_);}
	.st158{opacity:0.4;fill:url(#SVGID_114_);}
	.st159{opacity:0.4;fill:url(#SVGID_115_);}
	.st160{opacity:0.4;fill:url(#SVGID_116_);}
	.st161{opacity:0.7;fill:url(#SVGID_117_);}
	.st162{opacity:0.4;fill:url(#SVGID_118_);}
	.st163{opacity:0.4;fill:url(#SVGID_119_);}
	.st164{opacity:0.4;fill:url(#SVGID_120_);}
	.st165{opacity:0.4;fill:url(#SVGID_121_);}
	.st166{opacity:0.4;fill:url(#SVGID_122_);}
	.st167{opacity:0.7;fill:url(#SVGID_123_);}
	.st168{opacity:0.4;fill:url(#SVGID_124_);}
	.st169{opacity:0.4;fill:url(#SVGID_125_);}
	.st170{opacity:0.4;fill:url(#SVGID_126_);}
	.st171{opacity:0.4;fill:url(#SVGID_127_);}
	.st172{opacity:0.4;fill:url(#SVGID_128_);}
	.st173{opacity:0.7;fill:url(#SVGID_129_);}
	.st174{opacity:0.4;fill:url(#SVGID_130_);}
	.st175{opacity:0.4;fill:url(#SVGID_131_);}
	.st176{opacity:0.4;fill:url(#SVGID_132_);}
	.st177{opacity:0.4;fill:url(#SVGID_133_);}
	.st178{opacity:0.4;fill:url(#SVGID_134_);}
	.st179{opacity:0.7;fill:url(#SVGID_135_);}
	.st180{opacity:0.75;clip-path:url(#SVGID_109_);}
	.st181{fill:none;stroke:#CFC3E8;stroke-width:4.9727;stroke-miterlimit:10;}
	.st182{opacity:0.4;fill:url(#SVGID_136_);}
	.st183{opacity:0.4;fill:url(#SVGID_137_);}
	.st184{opacity:0.4;fill:url(#SVGID_138_);}
	.st185{opacity:0.4;fill:url(#SVGID_139_);}
	.st186{opacity:0.4;fill:url(#SVGID_140_);}
	.st187{opacity:0.7;fill:url(#SVGID_141_);}
	.st188{clip-path:url(#SVGID_144_);fill:url(#);}
	.st189{clip-path:url(#SVGID_144_);}
	.st190{opacity:0.1;fill:#CFC3E8;}
	.st191{fill:#56AEEC;}
	.st192{opacity:0.65;fill:#2C65CC;}
	.st193{clip-path:url(#SVGID_147_);}
	.st194{fill:#D4DBD1;}
	.st195{fill:#CCD3C8;}
	.st196{clip-path:url(#SVGID_150_);}
	.st197{fill:none;stroke:#291347;stroke-width:1.7941;stroke-linecap:round;stroke-linejoin:round;stroke-miterlimit:10;}
	.st198{fill:none;stroke:#825FC0;stroke-width:1.7941;stroke-linecap:round;stroke-linejoin:round;stroke-miterlimit:10;}
	.st199{opacity:0.18;fill:#6F00FF;}
	.st200{fill:#FFDD92;stroke:#291347;stroke-width:7.1763;stroke-miterlimit:10;}
	.st201{fill:#CFC3E8;stroke:#291347;stroke-width:7.1763;stroke-miterlimit:10;}
	.st202{fill:none;stroke:#291347;stroke-width:7.1763;stroke-miterlimit:10;}
	
		.st203{fill:none;stroke:#825FC0;stroke-width:1.7941;stroke-linecap:round;stroke-linejoin:round;stroke-miterlimit:10;stroke-dasharray:3.5881,3.5881;}
	.st204{fill:none;stroke:#F2F2F2;stroke-width:3.5881;stroke-miterlimit:10;}
	.st205{fill:#CFC3E8;stroke:#291446;stroke-width:7.1763;stroke-miterlimit:10;}
	.st206{fill:none;stroke:#FFFFFF;stroke-miterlimit:10;}
	.st207{clip-path:url(#SVGID_153_);fill:url(#);}
	.st208{clip-path:url(#SVGID_153_);}
	.st209{clip-path:url(#SVGID_156_);}
	.st210{clip-path:url(#SVGID_159_);}
	.st211{fill:url(#SVGID_160_);}
	.st212{fill:url(#SVGID_161_);}
	.st213{fill:url(#SVGID_162_);}
	.st214{clip-path:url(#SVGID_164_);fill:#F2F2F2;}
	.st215{filter:url(#Adobe_OpacityMaskFilter_6_);}
	.st216{filter:url(#Adobe_OpacityMaskFilter_7_);}
	.st217{clip-path:url(#SVGID_167_);mask:url(#SVGID_168_);fill:url(#SVGID_169_);}
	.st218{opacity:0.24;clip-path:url(#SVGID_167_);fill:#CFC3E8;}
	.st219{opacity:0.29;clip-path:url(#SVGID_167_);}
	.st220{clip-path:url(#SVGID_167_);}
	.st221{opacity:0.4;fill:url(#SVGID_170_);}
	.st222{opacity:0.4;fill:url(#SVGID_171_);}
	.st223{opacity:0.4;fill:url(#SVGID_172_);}
	.st224{opacity:0.4;fill:url(#SVGID_173_);}
	.st225{opacity:0.4;fill:url(#SVGID_174_);}
	.st226{opacity:0.7;fill:url(#SVGID_175_);}
	.st227{opacity:0.4;fill:url(#SVGID_176_);}
	.st228{opacity:0.4;fill:url(#SVGID_177_);}
	.st229{opacity:0.4;fill:url(#SVGID_178_);}
	.st230{opacity:0.4;fill:url(#SVGID_179_);}
	.st231{opacity:0.4;fill:url(#SVGID_180_);}
	.st232{opacity:0.7;fill:url(#SVGID_181_);}
	.st233{opacity:0.4;fill:url(#SVGID_182_);}
	.st234{opacity:0.4;fill:url(#SVGID_183_);}
	.st235{opacity:0.4;fill:url(#SVGID_184_);}
	.st236{opacity:0.4;fill:url(#SVGID_185_);}
	.st237{opacity:0.4;fill:url(#SVGID_186_);}
	.st238{opacity:0.7;fill:url(#SVGID_187_);}
	.st239{opacity:0.4;fill:url(#SVGID_188_);}
	.st240{opacity:0.4;fill:url(#SVGID_189_);}
	.st241{opacity:0.4;fill:url(#SVGID_190_);}
	.st242{opacity:0.4;fill:url(#SVGID_191_);}
	.st243{opacity:0.4;fill:url(#SVGID_192_);}
	.st244{opacity:0.7;fill:url(#SVGID_193_);}
	.st245{opacity:0.75;clip-path:url(#SVGID_167_);}
	.st246{opacity:0.4;fill:url(#SVGID_194_);}
	.st247{opacity:0.4;fill:url(#SVGID_195_);}
	.st248{opacity:0.4;fill:url(#SVGID_196_);}
	.st249{opacity:0.4;fill:url(#SVGID_197_);}
	.st250{opacity:0.4;fill:url(#SVGID_198_);}
	.st251{opacity:0.7;fill:url(#SVGID_199_);}
	.st252{clip-path:url(#SVGID_202_);}
	.st253{clip-path:url(#SVGID_205_);}
</style>
<g>
	<defs>
		<circle id="SVGID_157_" cx="160" cy="160" r="160"/>
	</defs>
	<linearGradient id="SVGID_2_" gradientUnits="userSpaceOnUse" x1="160" y1="-4.933812e-06" x2="160" y2="320">
		<stop  offset="0" style="stop-color:#CFC3E8"/>
		<stop  offset="0.5" style="stop-color:#6B30B7"/>
		<stop  offset="1" style="stop-color:#291347"/>
	</linearGradient>
	<use xlink:href="#SVGID_157_"  style="overflow:visible;fill:url(#SVGID_2_);"/>
	<clipPath id="SVGID_3_">
		<use xlink:href="#SVGID_157_"  style="overflow:visible;"/>
	</clipPath>
	<g class="st28">
		<g>
			<g>
				
					<ellipse transform="matrix(0.7071 -0.7071 0.7071 0.7071 -40.4322 149.2959)" class="st3" cx="160" cy="123.5" rx="123.1" ry="123.1"/>
			</g>
		</g>
		<g>
			<g>
				<circle class="st2" cx="160" cy="40.2" r="19.2"/>
				<circle class="st32" cx="160" cy="40.2" r="17.1"/>
				<circle class="st2" cx="160" cy="40.2" r="0.7"/>
				<g>
					<g>
						<rect x="159.7" y="23.8" class="st2" width="0.7" height="3.1"/>
						<rect x="159.7" y="53.6" class="st2" width="0.7" height="3.1"/>
					</g>
					<g>
						
							<rect x="174.6" y="38.7" transform="matrix(4.497895e-11 1 -1 4.497895e-11 215.1479 -134.7036)" class="st2" width="0.7" height="3.1"/>
						
							<rect x="144.8" y="38.7" transform="matrix(4.497895e-11 1 -1 4.497895e-11 185.3354 -104.8911)" class="st2" width="0.7" height="3.1"/>
					</g>
				</g>
			</g>
			<polygon class="st2" points="159.6,39.7 160,28.9 160.4,39.7 			"/>
			<polygon class="st2" points="159.6,40.4 152.2,32.5 160.1,39.9 			"/>
		</g>
	</g>
	<g class="st28">
		<g>
			<g>
				<rect x="95.1" y="72.5" class="st1" width="35.4" height="35.3"/>
				<rect x="169.9" y="76.1" class="st2" width="48.7" height="10.9"/>
				<rect x="70.8" y="81.4" class="st5" width="19" height="26.2"/>
				<rect x="143.8" y="92.5" class="st5" width="71.9" height="15.4"/>
			</g>
		</g>
		<g>
			<g>
				<g>
					<path class="st6" d="M257.5,62.9c-4.2,0.1-5.9-4.5-9.4-6c-5.5-2.2-13.2-1.7-17.2,3.1c-1.1,1.3-2,3.7-3.4,4.7
						c-2.4,1.5-4.8,0.6-7,3c-4.9,5.6,2.8,13.1-0.3,19.6c-2.1,4.3-8.2,3.2-11.5,6.3c-3.4,3.2-4.6,7.4-2.6,11.5
						c0.9,1.8,4.1,5.4,1.1,6.8c-0.6,0.3-1.2,0.4-1.8,0.5c-5.8,1.2-11.5,4.8-14.1,10.3c-6.5,14,6.4,25.4,18.5,29.9
						c9.7,3.6,20.1,3.1,29.7-0.6c14.2-5.5,32.3-15.7,31.6-33.2c-0.2-4.3-3.5-8.6-1.9-12.8c1-2.8,3-5,4.3-7.6c1.4-2.8,2-5.9,1.9-9
						c-0.1-1.8-0.5-3.6-1.4-5.1c-1.7-3-4.9-3.3-7.1-5.7c-1.4-1.5-2.3-3.6-2.4-5.7c-0.1-2.2,1.1-4.3,0.3-6.5
						C263.6,63.5,260.2,62.9,257.5,62.9z"/>
					
						<linearGradient id="SVGID_5_" gradientUnits="userSpaceOnUse" x1="2459.2861" y1="116.2325" x2="2463.8887" y2="135.9211" gradientTransform="matrix(-1 0 0 1 2688.6594 0)">
						<stop  offset="3.613782e-02" style="stop-color:#B0BEC5"/>
						<stop  offset="1" style="stop-color:#546E7A"/>
					</linearGradient>
					<polygon style="fill:url(#SVGID_5_);" points="227.6,117 218,134.4 223.2,139 235.2,121.9 					"/>
					<path class="st1" d="M235.2,125c-0.6-0.5-8.8-7.2-8.8-8.3c1.7-0.5,0.5-1.1,1-2.2c0.4-0.8,1.7-0.6,1.4-1.9c1-0.6,1.4-1.9,2-2.9
						c0.8-1.4,2.1-2.4,3.2-3.4c2.1-1.8,4.3-2.4,6.6-2.1c2.2,0.3,3.9,0.8,4.9,2.9c1.3,2.5-0.5,5.5-2.1,8c-0.8,1.3-1.6,2.3-2.6,3.4
						c-0.7,0.8-0.7,1-0.6,2c-0.4,0.3-0.9,0.3-1.2,0.5c-0.5,0.4-0.2,1-0.9,1.3C238.1,122.9,236,125.2,235.2,125z"/>
					<g>
						<path class="st5" d="M230.2,169c14.2,5.1,26.3-0.1,32.4,7.3c3.9,4.8,2.1,15.3,2.5,18.2c2.3,15.3-2,24.8-5.4,44.5
							c7.9,4.2,13.1,13.6,14.3,20.5c0.5,3,1.8,7.2,3.3,11.5c2.3,6.8,5.3,14.1,7.2,18.6c-1.9,1.1-3.3,2-5.8,2.1
							c-2.5-5.8-5.9-11.5-9.5-17.2c-5.9-9.4-12.4-18.8-16.4-28.2c-7.7-7.9-15.9-36.3-18-47.1C233.2,191,231.8,179.3,230.2,169z"/>
						
							<linearGradient id="SVGID_6_" gradientUnits="userSpaceOnUse" x1="3108.4717" y1="-257.1821" x2="3108.4717" y2="-257.0622" gradientTransform="matrix(-0.9215 0.3883 0.3883 0.9215 3243.3408 -677.5745)">
							<stop  offset="0" style="stop-color:#FFCDD2"/>
							<stop  offset="1" style="stop-color:#E57373"/>
						</linearGradient>
						<path style="fill:url(#SVGID_6_);" d="M279,292.6C279,292.6,279,292.6,279,292.6C279,292.6,279,292.6,279,292.6z"/>
						<g>
							<polygon class="st1" points="288.9,295 293.4,308.7 292.7,308.9 287.7,298.8 							"/>
							<path class="st35" d="M279.6,302.5c-0.1-3.8,0.5-6.6-0.6-9.8c0.1,0.2,0.6,0.5,2.9-0.5c3-1.2,2.8-2,2.8-2
								c0.4,0.7,0.9,1.1,1.5,1.3c-1.3,6.4,2,12.4-0.2,19.1c-0.8,2.9-2.9,2.3-5.4,1.9c0-0.3,0-0.6,0.2-1.4
								C281.3,307.9,279.6,305.8,279.6,302.5z"/>
							<path class="st1" d="M285.9,310.6c2.1-6.7-1.1-12.7,0.2-19.1c1.1,0.4,2.2,0.2,2.9,1.8c1,2.1-0.3,3.7-1.2,5.6
								c-1.7,3.4-0.3,6.7,0,10.1c0.2,2.4-0.5,3.2-2.2,4.9c-1.6,1.5-2.6,1.5-5.2,2.5c-2.2,0.9-3.5-0.5-1.4-2.2c1.2-1,1.5-1.2,1.5-1.6
								C283.1,312.8,285.1,313.5,285.9,310.6z"/>
						</g>
					</g>
					<g>
						<path class="st8" d="M242,166.2c6.7,0.1,13.4-2.2,19.8-4.9c0.3,1.3,12.4,11.8,5,33c-4.7,19-11,36.9-13.1,52.1
							c5.6,6.9,6.8,17.7,5.3,24.5c-0.7,3-1.1,7.3-1.5,11.9c-0.5,7.2-0.6,15.1-0.6,19.9c-2.2,0.3-3.8,0.6-6.1-0.4
							c-0.1-6.3-1-12.9-2.1-19.6c-1.8-11-4.1-22.1-4.1-32.3c-4-10.3-4.6-56.6-5.3-64.4c-0.8-8.5-3.7-3-7.3-10.7
							c-1.7-3.6-2-10.1-2-11.7C233.4,165.5,237.6,166.1,242,166.2z"/>
						
							<linearGradient id="SVGID_7_" gradientUnits="userSpaceOnUse" x1="2437.9824" y1="303.0991" x2="2437.9824" y2="303.219" gradientTransform="matrix(-1 0 0 1 2688.6594 0)">
							<stop  offset="0" style="stop-color:#FFCDD2"/>
							<stop  offset="1" style="stop-color:#E57373"/>
						</linearGradient>
						<path class="st33" d="M250.7,303.1C250.7,303.2,250.7,303.2,250.7,303.1C250.7,303.2,250.7,303.1,250.7,303.1z"/>
						<g>
							<polygon class="st1" points="258.9,309.2 257.7,323.5 257,323.5 256.3,312.3 							"/>
							<path class="st35" d="M247.4,312.5c1.4-3.6,3-5.9,3.3-9.3c0,0.2,0.3,0.6,2.8,0.7c3.2,0.1,3.3-0.8,3.3-0.8
								c0.1,0.9,0.4,1.4,0.8,1.7c-3.7,5.4-3,12.2-7.6,17.6c-1.9,2.4-3.5,1-5.8-0.3c0.1-0.2,0.3-0.6,0.7-1.2
								C246.9,318.1,246.2,315.5,247.4,312.5z"/>
							<path class="st1" d="M250.1,322.4c4.6-5.3,3.9-12.2,7.6-17.6c0.8,0.8,1.9,1,2,2.7c0.1,2.3-1.7,3.3-3.3,4.7
								c-2.9,2.5-2.9,6.1-3.9,9.3c-0.8,2.3-1.7,2.8-3.9,3.7c-2,0.8-3,0.4-5.8,0.3c-2.4-0.1-3.1-1.9-0.4-2.6c1.5-0.4,1.8-0.5,2-0.9
								C246.6,323.4,248.2,324.8,250.1,322.4z"/>
						</g>
					</g>
					<path class="st2" d="M253.4,143.1c-0.1,2,5.7,12.4,8.4,18.1c-3,3.4-10.3,5.7-16.1,6c-4.9,0.2-11,0.2-15.8-1.6l2.3-29.6
						c0,0-10.7-3.2-5.7-11.4c4.6-7.6,12.1-22.8,17.2-22.8c1.3-1.4,3.2-2.1,5.1-2c5.9,0.5,8.6,2.4,11.4,7.2
						c2.5,4.3,5.3,10.5,3.9,15.2L253.4,143.1z"/>
					<g>
						<polygon class="st35" points="249.6,89.3 251,100.2 236.2,121 241.4,104.1 240.2,95.7 						"/>
						<path class="st35" d="M233,75.2c-0.1,3,0.8,5.8,3.7,8c2.2,1.7,8.9,4.1,12.3,1.5c0.1-0.1,0.1-0.2,0-0.3l0.1,0l-0.1-1.5
							c0-1.2,0.9-2.2,2.1-2.3l0.1,0c1.2-0.1,2.2,0.8,2.3,2l0.1,1.7c0.1,1.3-0.9,2.3-2.1,2.4c-0.8,0.1-1.3,0.8-1.3,1.6
							c0,0,0.1,0.9,0.1,0.9c0.3,3.3-14,11.4-15.5,8.1c-0.1-0.2-2.8-8.7-3.5-15.7c-0.2-1.8-0.1-3.9,0.1-5.7
							C232,75.7,232.5,75.4,233,75.2z"/>
					</g>
					<g>
						<path class="st35" d="M221.9,105.4l-6.6,28.7c-1.6,4.8,2.9,8.7,6.8,6.2c1.3-0.8,2-2.3,2-3.8c0.6-15.9,1.7-29.9,1.7-29.9
							L221.9,105.4z"/>
						<path class="st35" d="M226.5,100.6c0.8-0.7,1.7-1.4,2.7-1.1c0.7,0.1,1.2,0.7,1.5,1.2c0.3,0.6,0.4,1.3,0.6,1.9
							c0.2,1.2-3,5.2-5.5,4.1c-0.8-0.3-3.8-0.4-3.9-1.2C221.9,105.4,224.5,102.3,226.5,100.6z"/>
						<path class="st35" d="M227,101.1c0-1.5,7.8-4.9,7.7-4.1c0.2,0.8-3,2.1-3.5,2.5C229.9,100.3,229,102.2,227,101.1z"/>
						<path class="st35" d="M227,101.2c0.6-1.4,5-1.6,6.2-0.9c0.7,0.4,1.1,2,0.6,2.7c-0.8-0.1-0.5-1-0.9-1.5
							c-0.4-0.4-0.9-0.2-1.4-0.1C230,101.8,228.3,103.1,227,101.2z"/>
						<path class="st35" d="M226.1,103.8c0.3-1.5,4.4-2.8,5.8-2.4c0.8,0.2,1.5,1.7,1.2,2.5c-0.8,0.1-0.7-0.9-1.3-1.2
							c-0.4-0.3-0.9,0-1.4,0.3C229.1,103.6,227.9,105.3,226.1,103.8z"/>
						<path class="st35" d="M227.1,104.5c0.3-1.1,3.4-1.8,4.4-1.4c0.6,0.2,1,1.3,0.8,1.9c-0.6,0-0.5-0.7-0.9-1c-0.3-0.2-0.6,0-1,0.1
							C229.3,104.5,228.3,105.7,227.1,104.5z"/>
					</g>
					<g>
						<g>
							<path class="st35" d="M287,140.5l-19.4,25l3.4,2.2l28-23.8c1-0.7,1.3-2.1,0.6-3.1l-30.5-27.2l-8.1,8.7L287,140.5z"/>
							<path class="st35" d="M261.7,166.6c-1,0.3-2.1,0.6-2.5,1.6c-0.3,0.6-0.1,1.3,0.2,1.9c0.3,0.6,0.8,1.1,1.3,1.5
								c0.9,0.9,9.8-1.2,10.4-3.9c0.2-0.8-0.7-1-1.3-1.6C267.7,164.4,264.2,165.9,261.7,166.6z"/>
							<path class="st35" d="M259.9,167.4c-1.5,0.4-2.4,4.6-1.9,6c0.3,0.8,1.8,1.4,2.6,1c0-0.8-0.9-0.7-1.3-1.2
								c-0.3-0.4,0-0.9,0.2-1.4C259.9,170.4,261.5,169,259.9,167.4z"/>
							<path class="st35" d="M261.8,167.7c-1.5,0.4-2.4,4.6-1.9,6c0.3,0.8,1.8,1.4,2.6,1c0-0.8-0.9-0.7-1.3-1.2
								c-0.3-0.4,0-0.9,0.2-1.4C261.8,170.7,263.4,169.3,261.8,167.7z"/>
							<path class="st35" d="M263.3,167.9c-1.5,0.4-2.4,4.6-1.9,6c0.3,0.8,1.8,1.4,2.6,1c0-0.8-0.9-0.7-1.3-1.2
								c-0.3-0.4,0-0.9,0.2-1.4C263.3,171,264.9,169.6,263.3,167.9z"/>
							<path class="st35" d="M264.2,169c-1.1,0.3-1.8,3.4-1.4,4.4c0.2,0.6,1.3,1,1.9,0.8c0-0.6-0.7-0.5-1-0.9c-0.2-0.3,0-0.6,0.1-1
								C264.3,171.2,265.4,170.2,264.2,169z"/>
						</g>
						<path class="st1" d="M269.8,113.9c-0.6,0.6-1.5,1.9-2.2,2.7c-1.3,1.3-2.7,2.5-3.9,3.9c-0.6,0.7-2.1,3.3-3.2,3.2
							c0-1.7-0.9-0.6-1.8-1.2c-0.7-0.4,0-1.7-1.3-1.6c-0.3-1.1-1.4-1.6-2.2-2.2c-1.1-0.9-1.7-2.2-2.3-3.5c-1.1-2.3-1-4.4,0-6.7
							c1-2.1,2-3.7,4.3-4.5c2.8-1,5.1,1,7,2.8c1,0.9,1.7,1.8,2.5,2.8c0.6,0.8,0.7,0.8,1.7,0.8c0.2,0.4,0,0.9,0.1,1.3
							c0.3,0.5,0.9,0.3,0.9,1C270.1,112.7,270.2,113.2,269.8,113.9z"/>
					</g>
				</g>
			</g>
			<g>
				<g>
					<g>
						<g>
							<g>
								<defs>
									<path id="SVGID_163_" d="M170.1,170.8h-13.7l-2.2-20.2h8.4l4.5,8.5l4.9,9.4C172.6,169.5,171.6,170.8,170.1,170.8z"/>
								</defs>
								<clipPath id="SVGID_8_">
									<use xlink:href="#SVGID_163_"  style="overflow:visible;"/>
								</clipPath>
								<rect x="154.2" y="150.6" style="clip-path:url(#SVGID_8_);fill:#F2F2F2;" width="18.4" height="20.2"/>
							</g>
						</g>
						<g>
							<rect x="148.5" y="170.4" class="st4" width="11.6" height="0.8"/>
							<path class="st4" d="M172.5,168.3l-4.9-9.4c-0.1-0.2-0.4-0.3-0.7-0.2c-0.3,0.1-0.4,0.3-0.3,0.5l4.9,9.4
								c0.2,0.4,0.2,0.8-0.1,1.2c-0.3,0.4-0.8,0.6-1.3,0.6h-10v0.8h10c0.9,0,1.6-0.4,2.1-0.9C172.7,169.6,172.8,168.9,172.5,168.3z"
								/>
						</g>
						<g>
							<path class="st4" d="M195,159L195,159l5-45.7l0,0c0.6,0,1,0.5,0.9,1l-4.8,43.6C196.1,158.6,195.5,159,195,159z"/>
							<polygon class="st8" points="195,159 125.7,159 130.7,113.4 199.9,113.4 							"/>
							<polygon class="st6" points="194.2,154 127.6,154 131.8,115 198.4,115 							"/>
						</g>
					</g>
					<path class="st8" d="M212.6,171.2H106.8c-0.8,0-1.5,0.7-1.5,1.5c0,0.8,0.7,1.5,1.5,1.5h23.1v158.7c0,0.8,0.7,1.5,1.5,1.5
						c0.8,0,1.5-0.7,1.5-1.5V174.1h52.7v158.7c0,0.8,0.7,1.5,1.5,1.5c0.8,0,1.5-0.7,1.5-1.5V174.1h24.1c0.8,0,1.5-0.7,1.5-1.5
						C214,171.8,213.4,171.2,212.6,171.2z"/>
					<rect x="104.7" y="171.2" class="st8" width="109.4" height="4"/>
				</g>
			</g>
			<g>
				<g>
					<path class="st4" d="M80.7,192.7l23.9,63.7c0,0,2.9,32.8,4.6,52.7c0,0.1,0,0.2,0,0.3c0.1,0.1,0.1,0.2,0.2,0.4
						c0.5,2.7-1.4,4,0.9,5.8c0,0.1,0,0.2,0,0.4c-0.1,0.5-0.2,1-0.4,1.6c0.1,0.1,0.1,0.2,0.2,0.3c0.6,1.3,1.1,2.5,0.2,4.2
						c0,0.1,0,0.2,0,0.3c0.1,1,0.1,1,0.1,1l-5.8,0.6c0,0,0-0.1-0.1-0.2c-0.4-0.9-3-0.2-2.3-2.2c0.6-0.6,0.6-1.3,0.7-2
						c0-0.1-0.1-0.2-0.1-0.3c-1.3-0.6-1.7-1.4-1.8-2.5c0-0.3,0-0.5,0-0.8c-0.8-0.9,0.5-2.2-0.7-3.1c0-0.1-0.1-0.2-0.1-0.3
						c-3.2-8.4-7-18.3-7-18.3c-1.9-6.1-2.7-12.6-2.4-19l0.3-8.9l-39.2-59.2L80.7,192.7z"/>
				</g>
				<g>
					<path class="st1" d="M86.3,223.2H65l0,0l0,0H46.2c-0.7,0-1.3,0.5-1.3,1.2c0,0.7,0.6,1.2,1.3,1.2h17.5v38.9h2.5v-38.9h20
						c0.7,0,1.3-0.5,1.3-1.2C87.5,223.8,87,223.2,86.3,223.2z"/>
					<path class="st4" d="M67.6,268.4v-3.9h-5.2v3.9l0,1v36.8H49.6c-0.5,0-1,0.4-1,1l0,0c0,0.5,0.4,1,1,1h12.8V328h5.2v-19.9h12.8
						c0.5,0,1-0.4,1-1l0,0c0-0.5-0.4-1-1-1H67.6v-36.8L67.6,268.4z"/>
					<path class="st6" d="M84.9,223.2H47.2c-3.5,0-6.4-2.8-6.4-6.4v-1.8c0-3.5,2.8-6.4,6.4-6.4h37.7c3.5,0,6.4,2.8,6.4,6.4v1.8
						C91.2,220.4,88.4,223.2,84.9,223.2z"/>
				</g>
				<g>
					<g>
						<polygon class="st35" points="80.8,159.5 115.3,166.8 115.2,171.2 78.3,173.7 						"/>
						<path class="st35" d="M120,162.2c0.8-0.7,1.9-1.4,3-1.2c0.7,0.2,1.3,0.7,1.6,1.4c0.3,0.6,0.5,1.4,0.6,2.1
							c0.2,1.3-7.2,8-9.9,6.8c-0.8-0.4-0.5-1.2-0.6-2.1C114.3,166.3,117.8,164.1,120,162.2z"/>
						<path class="st35" d="M121.8,161.1c1.2-1.1,5.6,0.7,6.5,2c0.5,0.7,0.1,2.5-0.7,3c-0.7-0.5,0-1.3-0.2-1.9
							c-0.2-0.5-0.8-0.6-1.3-0.7C124.5,163,122.3,163.6,121.8,161.1z"/>
						<path class="st35" d="M120.9,163c1.2-1.1,5.6,0.7,6.5,2c0.5,0.7,0.1,2.5-0.7,3c-0.7-0.5,0-1.3-0.2-1.9
							c-0.2-0.5-0.8-0.6-1.3-0.7C123.5,164.9,121.3,165.5,120.9,163z"/>
						<path class="st35" d="M120.2,164.5c1.2-1.1,5.6,0.7,6.5,2c0.5,0.7,0.1,2.5-0.7,3c-0.7-0.5,0-1.3-0.2-1.9
							c-0.2-0.5-0.8-0.6-1.3-0.7C122.9,166.4,120.6,167,120.2,164.5z"/>
						<path class="st35" d="M120.5,166c0.9-0.8,4.1,0.5,4.8,1.5c0.4,0.5,0.1,1.8-0.5,2.2c-0.5-0.4,0-0.9-0.2-1.4
							c-0.1-0.4-0.6-0.4-1-0.5C122.5,167.4,120.9,167.8,120.5,166z"/>
					</g>
					<path class="st35" d="M119.6,163.8c0.6,1.6,5.4-1,6.6-1.3c1,1.3-2.3,2.4-3,3c-0.8,0.6-0.9,2-1.9,2.6c-0.9,0.6-1.8,0.5-2.7,0.3
						c-0.4-0.1-0.9-0.3-1.4-0.1"/>
				</g>
				<path class="st5" d="M80.7,192.7c-3.4-3.4-3.4-5.3-2.6-10.2l-33.3-1.1c-2.4,9.7-4.2,18.4,1.9,25.7c6.8,8,47.3,29.6,46.5,33.1
					c-0.8,3.9-10.8,19.2-20.2,31.8c-0.1,0.1-0.1,0.2-0.2,0.3c-0.4,2.3-2.9,2.3-4.4,3.9c-0.1,0.1-0.1,0.2-0.2,0.4
					c-0.3,0.9-0.1,2.1-0.7,2.5c-0.1,0.1-0.1,0.1-0.2,0.2c-0.5,0.6-0.9,1.1-1.4,1.6c1.9,2.5,2.7,3.6,4.7,6.1c0.1,0,0.3-0.2,0.6-0.5
					c0.1-0.1,0.2-0.1,0.3-0.2c2.8,0.6,2.8-0.7,3.3-2.6c0.1-0.1,0.2-0.2,0.3-0.3c0.1-0.1,0.2-0.1,0.3-0.2c2.8,0.4,2.2-0.9,3.5-2.8
					c0.1-0.1,0.2-0.2,0.4-0.3c12.2-9.8,34-27.4,41.6-34.4c1.5-1.4,1.7-3.8,0.4-5.4C109.6,226.1,84.4,196.5,80.7,192.7z"/>
				<path class="st1" d="M67.5,103.8L67.5,103.8c-13.9,0-26.6,11.3-28.4,25.2l3.9,51.2c0.2,3.7-0.8,7.7,2,10.1
					c8.9,7.8,33.1-1.6,33.1-1.6c3.4,0,0.6-4.4,1-7.7l4-47.9C84.3,122.5,78.1,103.8,67.5,103.8z"/>
				<g>
					<polygon class="st35" points="63.4,95.1 61,105.5 72.6,114.3 75.1,112.7 75.8,101.4 					"/>
					<path class="st2" d="M90.8,69.6c-0.5-3.3-3.4-5.2-6.5-5.5c-1.3-0.1-2.7,0.1-3.9,0.5c-0.4,0.1-3.3,1.5-3,1.8
						c-3.5-3.7-11.2-2.3-11.8,3.6c0,0-1.4-0.1-1.5-0.1c-2.5,0-5.1,1.8-6.3,4c-1.2,2.2-1.2,4.5,0.2,6.5c0.3,0.4,1,1.4,1.4,1.4
						c-0.2,0.3,0.1,0.9,0.1,1.3c0.1,0.8,3.2,10.3,3.3,12c0.9,0.1,1.5,0.1,1.8,0.2c0-1.3,1-3.7,1.7-4.7c0.2-0.3,0.4-0.6,0.5-0.8
						c0-0.1,0-0.3,0-0.5c0.4-1.6,0-3.7,1.3-5c0.4-0.4,1.2-0.6,1.5-1c0.3-0.4,0-5.4,0.7-6.5c0.7-1.2,11.2-1.3,12.1-0.5
						c0.9,0.9,0.8,8.6,0.9,8.5c0.2-0.3,0.2-0.7,0.2-1c0.3-1.9,1.2-3.6,1.4-5.5c0.1-1.3,1.4-1.4,2.4-1.8
						C89.9,75.3,91.2,72.3,90.8,69.6z"/>
					<path class="st35" d="M84,99.8L83.8,75h-15l-0.5,6.2l-1.5,1.7l-1.2,6.9l-1.3,0l-0.1-1.5c-0.1-1.3-1.1-2.5-2.5-2.4
						c0,0,0,0-0.1,0c-1.3,0-2.4,1.2-2.4,2.5v1.7c0,1.4,1.1,2.4,2.5,2.4c0.8,0,1.5,0.7,1.5,1.6c0,0,0,2.3,0,2.3
						c0,3.5,19.5,11.2,20.6,4.8C84,100.7,84,100.3,84,99.8z"/>
					<path class="st39" d="M83.7,82.6h-3.6c-0.9,0-1.6,0.7-1.8,1.5h-0.7c-0.2-0.9-1-1.5-1.9-1.5h-4.1c-0.9,0-1.7,0.7-1.9,1.5h-6.3
						c-1.7,0-3.3,0.6-4.6,1.7l-0.2,0.2c-0.2,0.2-0.2,0.5,0,0.6c0.2,0.2,0.5,0.2,0.6,0l0.2-0.2c1.1-1,2.5-1.5,4-1.5h6.3l0,0.7
						c0.1,2.2,1.8,3.9,4,3.9h0.6c1.9,0,3.5-1.6,3.5-3.5v-1.1h0.6l0,0.7c0.1,2.2,1.6,3.9,3.6,3.9h0.5c1.7,0,3.2-1.6,3.2-3.5v-1.6
						C85.6,83.5,84.8,82.6,83.7,82.6z M76.8,86.2c0,1.4-1.1,2.5-2.5,2.5h-0.6c-1.7,0-3-1.3-3.1-3l0-1.2c0-0.6,0.5-1.1,1.1-1.1h4.1
						c0.6,0,1.1,0.5,1.1,1.1V86.2z M84.7,86.2c0,1.4-1,2.5-2.2,2.5h-0.5c-1.5,0-2.7-1.3-2.7-3l0-1.2c0-0.6,0.4-1.1,0.9-1.1h3.6
						c0.5,0,0.9,0.5,0.9,1.1V86.2z"/>
				</g>
				<g>
					<g>
						<path class="st6" d="M103.9,117.9l-1.2,0.2l-0.2-1.5l1.2-0.2l0.2,0l11.9-1.7l0.2,0l0.3,0c0.1,0,0.1,0,0.3,0l0.3,0
							c0.9,0,2.4,0.1,2.4,0.4s-1.3,0.8-2.2,1l-0.3,0.1c-0.1,0-0.2,0-0.3,0.1l-0.3,0l-0.2,0l-11.9,1.7L103.9,117.9z"/>
					</g>
				</g>
				<path class="st2" d="M79.4,145.1c-0.8,0.4-1.6,0.7-2.4,0.4c-0.6-0.2-1.1-0.7-1.8-0.9c-0.6-0.2-3.4-7.7-3.7-8.3
					c-0.2-0.5-0.8-0.7-1-1.1c-0.3-0.4-0.3-1-0.3-1.5c-0.2-1.6-1-3-1.8-4.5c-1.6-3-2.6-6.2-3.5-9.4c0-0.1-0.1-0.2-0.1-0.3
					c-2.4-7.9-12.5-10.5-18.1-4.5c-1,1-1.7,2.3-2.2,3.7c-2,5.8,0.8,11.9,3.2,17.6c0.3,0.6,0.5,1.2,0.4,1.9c-0.1,0.9-0.9,1.7-0.8,2.7
					c0.2,1.5,2.5,1.7,3.1,3.1c0.3,0.7,0.1,1.4,0.3,2.1c0.2,0.5,0.6,1,0.9,1.4c2.4,2.8,4.4,5.9,6,9.3c0.9,2,5.6,8.4,7,10.1
					c1.4,1.7,3.6,2.9,5.7,2.3c3-0.8,5.1-5,8.1-4.1c0.3,0.1,0.6,0.2,0.9,0.2c1.3,0.1,1.7-1.7,1.7-3c0,0,0,0,0,0
					c1,0.2,1.9-0.4,2.2-1.4c0.1-0.3,0.3-0.6,0.5-0.9c0.6-0.7,1.4-1.2,2-1.9c0.1-0.2,0.3-0.4,0.4-0.5
					C85.2,154.9,80.4,147.8,79.4,145.1z"/>
				<g>
					<polygon class="st35" points="79.3,145.1 105.2,126.2 108.4,129.2 85.6,158.3 					"/>
					<path class="st35" d="M104.9,119.6c0-1.1,0.2-2.4,1.1-3c0.6-0.4,1.4-0.5,2.1-0.3c0.7,0.2,1.3,0.6,1.9,1
						c1.1,0.7,1.1,10.7-1.6,11.9c-0.8,0.4-1.2-0.5-2-1C104.1,126.6,104.8,122.5,104.9,119.6z"/>
					<path class="st35" d="M105.3,117.5c0-1.6,4.3-3.7,5.9-3.5c0.9,0.1,1.9,1.6,1.7,2.5c-0.8,0.2-1-0.8-1.6-1.1
						c-0.5-0.2-0.9,0.2-1.4,0.5C108.5,116.8,107.4,118.8,105.3,117.5z"/>
					<path class="st35" d="M106.1,119.5c0-1.6,4.3-3.7,5.9-3.5c0.9,0.1,1.9,1.6,1.7,2.5c-0.8,0.2-1-0.8-1.6-1.1
						c-0.5-0.2-0.9,0.2-1.4,0.5C109.3,118.8,108.2,120.8,106.1,119.5z"/>
					<path class="st35" d="M106.7,121c0-1.6,4.3-3.7,5.9-3.5c0.9,0.1,1.9,1.6,1.7,2.5c-0.8,0.2-1-0.8-1.6-1.1
						c-0.5-0.2-0.9,0.2-1.4,0.5C109.9,120.3,108.8,122.3,106.7,121z"/>
					<path class="st35" d="M108.1,121.8c0-1.2,3.2-2.7,4.3-2.6c0.7,0.1,1.4,1.2,1.3,1.8c-0.6,0.1-0.7-0.6-1.2-0.8
						c-0.4-0.2-0.7,0.1-1.1,0.4C110.4,121.2,109.6,122.7,108.1,121.8z"/>
				</g>
				<path class="st2" d="M73,300.3c0.4-0.6-0.1-1-0.6-1.3c0.1,0,0.1-0.1,0.1-0.2c0.3-0.4,0.2-1-0.1-1.3c-2.1-2.1-3.3-8.9-2.6-10.1
					c0.1-0.1,0.2-0.2,0.2-0.4c-1.6-1.8-3.2-3.6-4.8-5.5c-2.4,0.9-6.3,1.8-6.6,3.3c-0.4,1.6,0.2,4.8,1,6.1c1.6,2.6,3.1,5.2,4.6,7.9
					c0.9,1.7,1.3,4.7,2.7,5.8c1.3,1.1,9.5,2.1,10.9,0.8C79.9,303.7,73.9,301.2,73,300.3z"/>
			</g>
		</g>
	</g>
</g>
<g>
	<defs>
		<circle id="SVGID_165_" cx="160" cy="550" r="160"/>
	</defs>
	<linearGradient id="SVGID_9_" gradientUnits="userSpaceOnUse" x1="160" y1="390.039" x2="160" y2="710.039">
		<stop  offset="0" style="stop-color:#CFC3E8"/>
		<stop  offset="0.5" style="stop-color:#6B30B7"/>
		<stop  offset="1" style="stop-color:#291347"/>
	</linearGradient>
	<use xlink:href="#SVGID_165_"  style="overflow:visible;fill:url(#SVGID_9_);"/>
	<clipPath id="SVGID_11_">
		<use xlink:href="#SVGID_165_"  style="overflow:visible;"/>
	</clipPath>
	<defs>
		<filter id="Adobe_OpacityMaskFilter" filterUnits="userSpaceOnUse" x="-134.3" y="291.6" width="600" height="450.1">
			<feFlood  style="flood-color:white;flood-opacity:1" result="back"/>
			<feBlend  in="SourceGraphic" in2="back" mode="normal"/>
		</filter>
	</defs>
	<mask maskUnits="userSpaceOnUse" x="-134.3" y="291.6" width="600" height="450.1" id="SVGID_13_">
		<g class="st41">
			<defs>
				<filter id="Adobe_OpacityMaskFilter_1_" filterUnits="userSpaceOnUse" x="-134.3" y="291.6" width="600" height="450.1">
					<feFlood  style="flood-color:white;flood-opacity:1" result="back"/>
					<feBlend  in="SourceGraphic" in2="back" mode="normal"/>
				</filter>
			</defs>
			<mask maskUnits="userSpaceOnUse" x="-134.3" y="291.6" width="600" height="450.1" id="SVGID_13_">
			</mask>
			<radialGradient id="SVGID_14_" cx="-135.2644" cy="292.9922" r="791.1426" gradientUnits="userSpaceOnUse">
				<stop  offset="0" style="stop-color:#FFFFFF"/>
				<stop  offset="7.400915e-02" style="stop-color:#E4E4E4"/>
				<stop  offset="0.2336" style="stop-color:#9E9E9E"/>
				<stop  offset="0.4651" style="stop-color:#2F2F2F"/>
				<stop  offset="0.4821" style="stop-color:#262626"/>
				<stop  offset="0.6125" style="stop-color:#292929"/>
				<stop  offset="0.687" style="stop-color:#313131"/>
				<stop  offset="0.7474" style="stop-color:#3F3F3F"/>
				<stop  offset="0.8003" style="stop-color:#535353"/>
				<stop  offset="0.8482" style="stop-color:#6C6C6C"/>
				<stop  offset="0.8926" style="stop-color:#8C8C8C"/>
				<stop  offset="0.9342" style="stop-color:#B2B2B2"/>
				<stop  offset="0.9727" style="stop-color:#DCDCDC"/>
				<stop  offset="1" style="stop-color:#FFFFFF"/>
			</radialGradient>
			<path style="clip-path:url(#SVGID_11_);mask:url(#SVGID_13_);fill:url(#SVGID_14_);" d="M461.9,292.1
				c-10.3,5.9-20.6,11.9-30.9,17.8c-10.3-5.9-20.6-11.9-30.9-17.8l0.6-0.4c-0.4-0.2-0.8-0.1-1.1,0.1c-0.3-0.2-0.7-0.2-1.1-0.1
				l0.6,0.4c-10.3,5.9-20.6,11.9-30.9,17.8c-10.3-5.9-20.6-11.9-30.9-17.8l0.6-0.4c-0.4-0.2-0.8-0.1-1.1,0.1
				c-0.3-0.2-0.7-0.2-1.1-0.1l0.6,0.4c-10.3,5.9-20.6,11.9-30.9,17.8c-10.3-5.9-20.6-11.9-30.9-17.8l0.6-0.4
				c-0.4-0.2-0.8-0.1-1.1,0.1c-0.3-0.2-0.7-0.2-1.1-0.1l0.6,0.4c-10.3,5.9-20.6,11.9-30.9,17.8c-10.3-5.9-20.6-11.9-30.9-17.8
				l0.6-0.4c-0.4-0.2-0.8-0.1-1.1,0.1c-0.3-0.2-0.7-0.2-1.1-0.1l0.6,0.4c-10.3,5.9-20.6,11.9-30.9,17.8
				c-10.3-5.9-20.6-11.9-30.9-17.8l0.6-0.4c-0.4-0.2-0.8-0.1-1.1,0.1c-0.3-0.2-0.7-0.2-1.1-0.1l0.6,0.4
				c-10.3,5.9-20.6,11.9-30.9,17.8c-10.3-5.9-20.6-11.9-30.9-17.8l0.6-0.4c-0.4-0.2-0.8-0.1-1.1,0.1c-0.3-0.2-0.7-0.2-1.1-0.1
				l0.6,0.4C74.7,298.1,64.4,304,54.1,310c-10.3-5.9-20.6-11.9-30.9-17.8l0.6-0.4c-0.4-0.2-0.8-0.1-1.1,0.1
				c-0.3-0.2-0.7-0.2-1.1-0.1l0.6,0.4C11.9,298.1,1.6,304-8.7,310c-10.3-5.9-20.6-11.9-30.9-17.8l0.6-0.4c-0.4-0.2-0.8-0.1-1.1,0.1
				c-0.3-0.2-0.7-0.2-1.1-0.1l0.6,0.4c-10.3,5.9-20.6,11.9-30.9,17.8c-10.3-5.9-20.6-11.9-30.9-17.8l0.6-0.4
				c-0.4-0.2-0.8-0.1-1.1,0.1c-0.3-0.2-0.7-0.2-1.1-0.1l0.6,0.4c-10.3,5.9-20.6,11.9-30.9,17.8v0.6c10.3,5.9,20.6,11.9,30.9,17.8
				c-10.3,5.9-20.6,11.9-30.9,17.8v0.6c10.3,5.9,20.6,11.9,30.9,17.8c-10.3,5.9-20.6,11.9-30.9,17.8v0.6
				c10.3,5.9,20.6,11.9,30.9,17.8c-10.3,5.9-20.6,11.9-30.9,17.8v0.6c10.3,5.9,20.6,11.9,30.9,17.8c-10.3,5.9-20.6,11.9-30.9,17.8
				v0.6c10.3,5.9,20.6,11.9,30.9,17.8c-10.3,5.9-20.6,11.9-30.9,17.8v0.6c10.3,5.9,20.6,11.9,30.9,17.8
				c-10.3,5.9-20.6,11.9-30.9,17.8v0.6c10.3,5.9,20.6,11.9,30.9,17.8c-10.3,5.9-20.6,11.9-30.9,17.8v0.6
				c10.3,5.9,20.6,11.9,30.9,17.8c-10.3,5.9-20.6,11.9-30.9,17.8v0.6c10.3,5.9,20.6,11.9,30.9,17.8c-10.3,5.9-20.6,11.9-30.9,17.8
				v0.6c10.3,5.9,20.6,11.9,30.9,17.8c-10.3,5.9-20.6,11.9-30.9,17.8v0.6c10.3,5.9,20.6,11.9,30.9,17.8
				c-10.3,5.9-20.6,11.9-30.9,17.8v0.6c10.3,5.9,20.6,11.9,30.9,17.8c-8.3,4.8-16.7,9.6-25,14.4c8.6-4,17.1-9.3,25.5-14.2
				c8.4,4.8,16.9,10.1,25.5,14.2c-8.3-4.8-16.7-9.6-25-14.4c10.3-5.9,20.6-11.9,30.9-17.8c10.3,5.9,20.6,11.9,30.9,17.8
				c-8.3,4.8-16.7,9.6-25,14.4c8.6-4,17.1-9.3,25.5-14.2c8.4,4.8,16.9,10.1,25.5,14.2c-8.3-4.8-16.7-9.6-25-14.4
				c10.3-5.9,20.6-11.9,30.9-17.8c10.3,5.9,20.6,11.9,30.9,17.8c-8.3,4.8-16.7,9.6-25,14.4c8.6-4,17.1-9.3,25.5-14.2
				c8.4,4.8,16.9,10.1,25.5,14.2c-8.3-4.8-16.7-9.6-25-14.4c10.3-5.9,20.6-11.9,30.9-17.8c10.3,5.9,20.6,11.9,30.9,17.8
				c-8.3,4.8-16.7,9.6-25,14.4c8.6-4,17.1-9.3,25.5-14.2c8.4,4.8,16.9,10.1,25.5,14.2c-8.3-4.8-16.7-9.6-25-14.4
				c10.3-5.9,20.6-11.9,30.9-17.8c10.3,5.9,20.6,11.9,30.9,17.8c-8.3,4.8-16.7,9.6-25,14.4c8.6-4,17.1-9.3,25.5-14.2
				c8.4,4.8,16.9,10.1,25.5,14.2c-8.3-4.8-16.7-9.6-25-14.4c10.3-5.9,20.6-11.9,30.9-17.8c10.3,5.9,20.6,11.9,30.9,17.8
				c-8.3,4.8-16.7,9.6-25,14.4c8.6-4,17.1-9.3,25.5-14.2c8.4,4.8,16.9,10.1,25.5,14.2c-8.3-4.8-16.7-9.6-25-14.4
				c10.3-5.9,20.6-11.9,30.9-17.8c10.3,5.9,20.6,11.9,30.9,17.8c-8.3,4.8-16.7,9.6-25,14.4c8.6-4,17.1-9.3,25.5-14.2
				c8.4,4.8,16.9,10.1,25.5,14.2c-8.3-4.8-16.7-9.6-25-14.4c10.3-5.9,20.6-11.9,30.9-17.8c10.3,5.9,20.6,11.9,30.9,17.8
				c-8.3,4.8-16.7,9.6-25,14.4c8.6-4,17.1-9.3,25.5-14.2c8.4,4.8,16.9,10.1,25.5,14.2c-8.3-4.8-16.7-9.6-25-14.4
				c10.3-5.9,20.6-11.9,30.9-17.8c10.3,5.9,20.6,11.9,30.9,17.8c-8.3,4.8-16.7,9.6-25,14.4c8.6-4,17.1-9.3,25.5-14.1
				c8.4,4.8,16.9,10.1,25.5,14.1c-8.3-4.8-16.7-9.6-25-14.4c10.3-5.9,20.6-11.9,30.9-17.8c10.3,5.9,20.6,11.9,30.9,17.8
				c-8.3,4.8-16.7,9.6-25,14.4c8.6-4,17.1-9.3,25.5-14.1l3.3,1.9v-0.6l-2.8-1.6l2.8-1.6v-0.6l-3.3,1.9
				c-10.3-5.9-20.6-11.9-30.9-17.8c10.3-5.9,20.6-11.9,30.9-17.8l3.3,1.9v-0.6l-2.8-1.6l2.8-1.6v-0.6l-3.3,1.9
				c-10.3-5.9-20.6-11.9-30.9-17.8c10.3-5.9,20.6-11.9,30.9-17.8l3.3,1.9v-0.6l-2.8-1.6l2.8-1.6v-0.6l-3.3,1.9
				c-10.3-5.9-20.6-11.9-30.9-17.8c10.3-5.9,20.6-11.9,30.9-17.8l3.3,1.9v-0.6l-2.8-1.6l2.8-1.6v-0.6l-3.3,1.9
				c-10.3-5.9-20.6-11.9-30.9-17.8c10.3-5.9,20.6-11.9,30.9-17.8l3.3,1.9v-0.6l-2.8-1.6l2.8-1.6v-0.6l-3.3,1.9
				c-10.3-5.9-20.6-11.9-30.9-17.8c10.3-5.9,20.6-11.9,30.9-17.8l3.3,1.9v-0.6l-2.8-1.6l2.8-1.6v-0.6l-3.3,1.9
				c-10.3-5.9-20.6-11.9-30.9-17.8c10.3-5.9,20.6-11.9,30.9-17.8l3.3,1.9v-0.6l-2.8-1.6l2.8-1.6v-0.6l-3.3,1.9
				c-10.3-5.9-20.6-11.9-30.9-17.8c10.3-5.9,20.6-11.9,30.9-17.8l3.3,1.9v-0.6l-2.8-1.6l2.8-1.6v-0.6l-3.3,1.9
				c-10.3-5.9-20.6-11.9-30.9-17.8c10.3-5.9,20.6-11.9,30.9-17.8l3.3,1.9v-0.6l-2.8-1.6l2.8-1.6V435l-3.3,1.9
				c-10.3-5.9-20.6-11.9-30.9-17.8c10.3-5.9,20.6-11.9,30.9-17.8l3.3,1.9v-0.6l-2.8-1.6l2.8-1.6v-0.6l-3.3,1.9
				c-10.3-5.9-20.6-11.9-30.9-17.8c10.3-5.9,20.6-11.9,30.9-17.8l3.3,1.9v-0.6l-2.8-1.6l2.8-1.6v-0.6l-3.3,1.9
				c-10.3-5.9-20.6-11.9-30.9-17.8c10.3-5.9,20.6-11.9,30.9-17.8l3.3,1.9V330l-2.8-1.6l2.8-1.6v-0.6l-3.3,1.9
				c-10.3-5.9-20.6-11.9-30.9-17.8c10.3-5.9,20.6-11.9,30.9-17.8l3.3,1.9v-0.6l-2.8-1.6l0.6-0.4c-0.4-0.2-0.8-0.1-1.1,0.1
				c-0.3-0.2-0.7-0.2-1.1-0.1L461.9,292.1z M384.1,301.3l15.5-8.9c10.3,5.9,20.6,11.9,30.9,17.8c-10.3,5.9-20.6,11.9-30.9,17.8
				c-10.3-5.9-20.6-11.9-30.9-17.8L384.1,301.3z M69.6,500.8l15.5,8.9c-10.3,5.9-20.6,11.9-30.9,17.8c-10.3-5.9-20.6-11.9-30.9-17.8
				c10.3-5.9,20.6-11.9,30.9-17.8L69.6,500.8z M54.6,491.6c10.3-5.9,20.6-11.9,30.9-17.8c10.3,5.9,20.6,11.9,30.9,17.8
				c-10.3,5.9-20.6,11.9-30.9,17.8C75.2,503.5,64.9,497.5,54.6,491.6z M70.1,518.9l15.5-8.9c10.3,5.9,20.6,11.9,30.9,17.8
				c-10.3,5.9-20.6,11.9-30.9,17.8c-10.3-5.9-20.6-11.9-30.9-17.8L70.1,518.9z M101.5,518.6L86,509.7c10.3-5.9,20.6-11.9,30.9-17.8
				c10.3,5.9,20.6,11.9,30.9,17.8c-10.3,5.9-20.6,11.9-30.9,17.8L101.5,518.6z M117.4,491.6c10.3-5.9,20.6-11.9,30.9-17.8
				c10.3,5.9,20.6,11.9,30.9,17.8c-10.3,5.9-20.6,11.9-30.9,17.8C138,503.5,127.7,497.5,117.4,491.6z M132.9,518.9l15.5-8.9
				c10.3,5.9,20.6,11.9,30.9,17.8c-10.3,5.9-20.6,11.9-30.9,17.8c-10.3-5.9-20.6-11.9-30.9-17.8L132.9,518.9z M164.3,518.6
				l-15.5-8.9c10.3-5.9,20.6-11.9,30.9-17.8c10.3,5.9,20.6,11.9,30.9,17.8c-10.3,5.9-20.6,11.9-30.9,17.8L164.3,518.6z M180.3,491.6
				c10.3-5.9,20.6-11.9,30.9-17.8c10.3,5.9,20.6,11.9,30.9,17.8c-10.3,5.9-20.6,11.9-30.9,17.8C200.9,503.5,190.6,497.5,180.3,491.6
				z M195.7,518.9l15.5-8.9c10.3,5.9,20.6,11.9,30.9,17.8c-10.3,5.9-20.6,11.9-30.9,17.8c-10.3-5.9-20.6-11.9-30.9-17.8L195.7,518.9
				z M227.1,518.6l-15.5-8.9c10.3-5.9,20.6-11.9,30.9-17.8c10.3,5.9,20.6,11.9,30.9,17.8c-10.3,5.9-20.6,11.9-30.9,17.8L227.1,518.6
				z M258.5,518.9L274,510c10.3,5.9,20.6,11.9,30.9,17.8c-10.3,5.9-20.6,11.9-30.9,17.8c-10.3-5.9-20.6-11.9-30.9-17.8L258.5,518.9z
				 M258.5,500.5l-15.5-8.9c10.3-5.9,20.6-11.9,30.9-17.8c10.3,5.9,20.6,11.9,30.9,17.8c-10.3,5.9-20.6,11.9-30.9,17.8L258.5,500.5z
				 M258.5,464.2l-15.5-8.9c10.3-5.9,20.6-11.9,30.9-17.8c10.3,5.9,20.6,11.9,30.9,17.8c-10.3,5.9-20.6,11.9-30.9,17.8L258.5,464.2z
				 M258,464.5l15.5,8.9c-10.3,5.9-20.6,11.9-30.9,17.8c-10.3-5.9-20.6-11.9-30.9-17.8c10.3-5.9,20.6-11.9,30.9-17.8L258,464.5z
				 M226.6,464.2l-15.5,8.9c-10.3-5.9-20.6-11.9-30.9-17.8c10.3-5.9,20.6-11.9,30.9-17.8c10.3,5.9,20.6,11.9,30.9,17.8L226.6,464.2z
				 M195.2,464.5l15.5,8.9c-10.3,5.9-20.6,11.9-30.9,17.8c-10.3-5.9-20.6-11.9-30.9-17.8c10.3-5.9,20.6-11.9,30.9-17.8L195.2,464.5z
				 M163.8,464.2l-15.5,8.9c-10.3-5.9-20.6-11.9-30.9-17.8c10.3-5.9,20.6-11.9,30.9-17.8c10.3,5.9,20.6,11.9,30.9,17.8L163.8,464.2z
				 M132.4,464.5l15.5,8.9c-10.3,5.9-20.6,11.9-30.9,17.8c-10.3-5.9-20.6-11.9-30.9-17.8c10.3-5.9,20.6-11.9,30.9-17.8L132.4,464.5z
				 M101,464.2l-15.5,8.9c-10.3-5.9-20.6-11.9-30.9-17.8c10.3-5.9,20.6-11.9,30.9-17.8c10.3,5.9,20.6,11.9,30.9,17.8L101,464.2z
				 M69.6,464.5l15.5,8.9c-10.3,5.9-20.6,11.9-30.9,17.8c-10.3-5.9-20.6-11.9-30.9-17.8c10.3-5.9,20.6-11.9,30.9-17.8L69.6,464.5z
				 M38.2,464.2l-15.5,8.9c-10.3-5.9-20.6-11.9-30.9-17.8c10.3-5.9,20.6-11.9,30.9-17.8c10.3,5.9,20.6,11.9,30.9,17.8L38.2,464.2z
				 M38.2,482.7l15.5,8.9c-10.3,5.9-20.6,11.9-30.9,17.8c-10.3-5.9-20.6-11.9-30.9-17.8c10.3-5.9,20.6-11.9,30.9-17.8L38.2,482.7z
				 M38.2,518.9l15.5,8.9c-10.3,5.9-20.6,11.9-30.9,17.8c-10.3-5.9-20.6-11.9-30.9-17.8C2.1,521.9,12.4,516,22.7,510L38.2,518.9z
				 M38.2,555.2l15.5,8.9C43.3,570.1,33,576,22.7,582C12.4,576,2.1,570.1-8.2,564.1c10.3-5.9,20.6-11.9,30.9-17.8L38.2,555.2z
				 M38.7,554.9L23.2,546c10.3-5.9,20.6-11.9,30.9-17.8C64.4,534.1,74.7,540,85,546c-10.3,5.9-20.6,11.9-30.9,17.8L38.7,554.9z
				 M70.1,555.2l15.5-8.9c10.3,5.9,20.6,11.9,30.9,17.8c-10.3,5.9-20.6,11.9-30.9,17.8c-10.3-5.9-20.6-11.9-30.9-17.8L70.1,555.2z
				 M101.5,554.9L86,546c10.3-5.9,20.6-11.9,30.9-17.8c10.3,5.9,20.6,11.9,30.9,17.8c-10.3,5.9-20.6,11.9-30.9,17.8L101.5,554.9z
				 M132.9,555.2l15.5-8.9c10.3,5.9,20.6,11.9,30.9,17.8c-10.3,5.9-20.6,11.9-30.9,17.8c-10.3-5.9-20.6-11.9-30.9-17.8L132.9,555.2z
				 M164.3,554.9l-15.5-8.9c10.3-5.9,20.6-11.9,30.9-17.8c10.3,5.9,20.6,11.9,30.9,17.8c-10.3,5.9-20.6,11.9-30.9,17.8L164.3,554.9z
				 M195.7,555.2l15.5-8.9c10.3,5.9,20.6,11.9,30.9,17.8c-10.3,5.9-20.6,11.9-30.9,17.8c-10.3-5.9-20.6-11.9-30.9-17.8L195.7,555.2z
				 M227.1,554.9l-15.5-8.9c10.3-5.9,20.6-11.9,30.9-17.8c10.3,5.9,20.6,11.9,30.9,17.8c-10.3,5.9-20.6,11.9-30.9,17.8L227.1,554.9z
				 M258.5,555.2l15.5-8.9c10.3,5.9,20.6,11.9,30.9,17.8c-10.3,5.9-20.6,11.9-30.9,17.8c-10.3-5.9-20.6-11.9-30.9-17.8L258.5,555.2z
				 M289.9,554.9l-15.5-8.9c10.3-5.9,20.6-11.9,30.9-17.8c10.3,5.9,20.6,11.9,30.9,17.8c-10.3,5.9-20.6,11.9-30.9,17.8L289.9,554.9z
				 M289.9,518.6l-15.5-8.9c10.3-5.9,20.6-11.9,30.9-17.8c10.3,5.9,20.6,11.9,30.9,17.8c-10.3,5.9-20.6,11.9-30.9,17.8L289.9,518.6z
				 M289.9,482.4l-15.5-8.9c10.3-5.9,20.6-11.9,30.9-17.8c10.3,5.9,20.6,11.9,30.9,17.8c-10.3,5.9-20.6,11.9-30.9,17.8L289.9,482.4z
				 M289.9,446.1l-15.5-8.9c10.3-5.9,20.6-11.9,30.9-17.8c10.3,5.9,20.6,11.9,30.9,17.8c-10.3,5.9-20.6,11.9-30.9,17.8L289.9,446.1z
				 M289.4,428l-15.5,8.9c-10.3-5.9-20.6-11.9-30.9-17.8c10.3-5.9,20.6-11.9,30.9-17.8c10.3,5.9,20.6,11.9,30.9,17.8L289.4,428z
				 M258,428.3l15.5,8.9c-10.3,5.9-20.6,11.9-30.9,17.8c-10.3-5.9-20.6-11.9-30.9-17.8c10.3-5.9,20.6-11.9,30.9-17.8L258,428.3z
				 M226.6,428l-15.5,8.9c-10.3-5.9-20.6-11.9-30.9-17.8c10.3-5.9,20.6-11.9,30.9-17.8c10.3,5.9,20.6,11.9,30.9,17.8L226.6,428z
				 M195.2,428.3l15.5,8.9c-10.3,5.9-20.6,11.9-30.9,17.8c-10.3-5.9-20.6-11.9-30.9-17.8c10.3-5.9,20.6-11.9,30.9-17.8L195.2,428.3z
				 M163.8,428l-15.5,8.9c-10.3-5.9-20.6-11.9-30.9-17.8c10.3-5.9,20.6-11.9,30.9-17.8c10.3,5.9,20.6,11.9,30.9,17.8L163.8,428z
				 M132.4,428.3l15.5,8.9c-10.3,5.9-20.6,11.9-30.9,17.8c-10.3-5.9-20.6-11.9-30.9-17.8c10.3-5.9,20.6-11.9,30.9-17.8L132.4,428.3z
				 M101,428l-15.5,8.9c-10.3-5.9-20.6-11.9-30.9-17.8c10.3-5.9,20.6-11.9,30.9-17.8c10.3,5.9,20.6,11.9,30.9,17.8L101,428z
				 M69.6,428.3l15.5,8.9c-10.3,5.9-20.6,11.9-30.9,17.8c-10.3-5.9-20.6-11.9-30.9-17.8c10.3-5.9,20.6-11.9,30.9-17.8L69.6,428.3z
				 M38.2,428l-15.5,8.9C12.4,430.9,2.1,425-8.2,419.1c10.3-5.9,20.6-11.9,30.9-17.8c10.3,5.9,20.6,11.9,30.9,17.8L38.2,428z
				 M6.8,428.3l15.5,8.9C11.9,443.1,1.6,449.1-8.7,455c-10.3-5.9-20.6-11.9-30.9-17.8c10.3-5.9,20.6-11.9,30.9-17.8L6.8,428.3z
				 M6.8,464.5l15.5,8.9c-10.3,5.9-20.6,11.9-30.9,17.8c-10.3-5.9-20.6-11.9-30.9-17.8c10.3-5.9,20.6-11.9,30.9-17.8L6.8,464.5z
				 M6.8,500.8l15.5,8.9c-10.3,5.9-20.6,11.9-30.9,17.8c-10.3-5.9-20.6-11.9-30.9-17.8c10.3-5.9,20.6-11.9,30.9-17.8L6.8,500.8z
				 M6.8,537.1l15.5,8.9c-10.3,5.9-20.6,11.9-30.9,17.8c-10.3-5.9-20.6-11.9-30.9-17.8c10.3-5.9,20.6-11.9,30.9-17.8L6.8,537.1z
				 M6.8,573.3l15.5,8.9c-10.3,5.9-20.6,11.9-30.9,17.8c-10.3-5.9-20.6-11.9-30.9-17.8c10.3-5.9,20.6-11.9,30.9-17.8L6.8,573.3z
				 M7.3,591.5l15.5-8.9c10.3,5.9,20.6,11.9,30.9,17.8c-10.3,5.9-20.6,11.9-30.9,17.8c-10.3-5.9-20.6-11.9-30.9-17.8L7.3,591.5z
				 M38.7,591.2l-15.5-8.9c10.3-5.9,20.6-11.9,30.9-17.8c10.3,5.9,20.6,11.9,30.9,17.8c-10.3,5.9-20.6,11.9-30.9,17.8L38.7,591.2z
				 M70.1,591.5l15.5-8.9c10.3,5.9,20.6,11.9,30.9,17.8c-10.3,5.9-20.6,11.9-30.9,17.8c-10.3-5.9-20.6-11.9-30.9-17.8L70.1,591.5z
				 M101.5,591.2L86,582.3c10.3-5.9,20.6-11.9,30.9-17.8c10.3,5.9,20.6,11.9,30.9,17.8c-10.3,5.9-20.6,11.9-30.9,17.8L101.5,591.2z
				 M132.9,591.5l15.5-8.9c10.3,5.9,20.6,11.9,30.9,17.8c-10.3,5.9-20.6,11.9-30.9,17.8c-10.3-5.9-20.6-11.9-30.9-17.8L132.9,591.5z
				 M164.3,591.2l-15.5-8.9c10.3-5.9,20.6-11.9,30.9-17.8c10.3,5.9,20.6,11.9,30.9,17.8c-10.3,5.9-20.6,11.9-30.9,17.8L164.3,591.2z
				 M195.7,591.5l15.5-8.9c10.3,5.9,20.6,11.9,30.9,17.8c-10.3,5.9-20.6,11.9-30.9,17.8c-10.3-5.9-20.6-11.9-30.9-17.8L195.7,591.5z
				 M227.1,591.2l-15.5-8.9c10.3-5.9,20.6-11.9,30.9-17.8c10.3,5.9,20.6,11.9,30.9,17.8c-10.3,5.9-20.6,11.9-30.9,17.8L227.1,591.2z
				 M258.5,591.5l15.5-8.9c10.3,5.9,20.6,11.9,30.9,17.8c-10.3,5.9-20.6,11.9-30.9,17.8c-10.3-5.9-20.6-11.9-30.9-17.8L258.5,591.5z
				 M289.9,591.2l-15.5-8.9c10.3-5.9,20.6-11.9,30.9-17.8c10.3,5.9,20.6,11.9,30.9,17.8c-10.3,5.9-20.6,11.9-30.9,17.8L289.9,591.2z
				 M321.3,591.5l15.5-8.9c10.3,5.9,20.6,11.9,30.9,17.8c-10.3,5.9-20.6,11.9-30.9,17.8c-10.3-5.9-20.6-11.9-30.9-17.8L321.3,591.5z
				 M321.3,573l-15.5-8.9c10.3-5.9,20.6-11.9,30.9-17.8c10.3,5.9,20.6,11.9,30.9,17.8c-10.3,5.9-20.6,11.9-30.9,17.8L321.3,573z
				 M321.3,536.8l-15.5-8.9c10.3-5.9,20.6-11.9,30.9-17.8c10.3,5.9,20.6,11.9,30.9,17.8c-10.3,5.9-20.6,11.9-30.9,17.8L321.3,536.8z
				 M321.3,500.5l-15.5-8.9c10.3-5.9,20.6-11.9,30.9-17.8c10.3,5.9,20.6,11.9,30.9,17.8c-10.3,5.9-20.6,11.9-30.9,17.8L321.3,500.5z
				 M321.3,464.2l-15.5-8.9c10.3-5.9,20.6-11.9,30.9-17.8c10.3,5.9,20.6,11.9,30.9,17.8c-10.3,5.9-20.6,11.9-30.9,17.8L321.3,464.2z
				 M321.3,428l-15.5-8.9c10.3-5.9,20.6-11.9,30.9-17.8c10.3,5.9,20.6,11.9,30.9,17.8c-10.3,5.9-20.6,11.9-30.9,17.8L321.3,428z
				 M321.3,391.7l-15.5-8.9c10.3-5.9,20.6-11.9,30.9-17.8c10.3,5.9,20.6,11.9,30.9,17.8c-10.3,5.9-20.6,11.9-30.9,17.8L321.3,391.7z
				 M320.8,392l15.5,8.9c-10.3,5.9-20.6,11.9-30.9,17.8c-10.3-5.9-20.6-11.9-30.9-17.8c10.3-5.9,20.6-11.9,30.9-17.8L320.8,392z
				 M289.4,391.7l-15.5,8.9c-10.3-5.9-20.6-11.9-30.9-17.8c10.3-5.9,20.6-11.9,30.9-17.8c10.3,5.9,20.6,11.9,30.9,17.8L289.4,391.7z
				 M258,392l15.5,8.9c-10.3,5.9-20.6,11.9-30.9,17.8c-10.3-5.9-20.6-11.9-30.9-17.8c10.3-5.9,20.6-11.9,30.9-17.8L258,392z
				 M226.6,391.7l-15.5,8.9c-10.3-5.9-20.6-11.9-30.9-17.8c10.3-5.9,20.6-11.9,30.9-17.8c10.3,5.9,20.6,11.9,30.9,17.8L226.6,391.7z
				 M195.2,392l15.5,8.9c-10.3,5.9-20.6,11.9-30.9,17.8c-10.3-5.9-20.6-11.9-30.9-17.8c10.3-5.9,20.6-11.9,30.9-17.8L195.2,392z
				 M163.8,391.7l-15.5,8.9c-10.3-5.9-20.6-11.9-30.9-17.8c10.3-5.9,20.6-11.9,30.9-17.8c10.3,5.9,20.6,11.9,30.9,17.8L163.8,391.7z
				 M132.4,392l15.5,8.9c-10.3,5.9-20.6,11.9-30.9,17.8c-10.3-5.9-20.6-11.9-30.9-17.8c10.3-5.9,20.6-11.9,30.9-17.8L132.4,392z
				 M101,391.7l-15.5,8.9c-10.3-5.9-20.6-11.9-30.9-17.8c10.3-5.9,20.6-11.9,30.9-17.8c10.3,5.9,20.6,11.9,30.9,17.8L101,391.7z
				 M69.6,392l15.5,8.9c-10.3,5.9-20.6,11.9-30.9,17.8c-10.3-5.9-20.6-11.9-30.9-17.8c10.3-5.9,20.6-11.9,30.9-17.8L69.6,392z
				 M38.2,391.7l-15.5,8.9c-10.3-5.9-20.6-11.9-30.9-17.8c10.3-5.9,20.6-11.9,30.9-17.8c10.3,5.9,20.6,11.9,30.9,17.8L38.2,391.7z
				 M6.8,392l15.5,8.9c-10.3,5.9-20.6,11.9-30.9,17.8c-10.3-5.9-20.6-11.9-30.9-17.8C-29.3,395-19,389-8.7,383.1L6.8,392z
				 M-24.6,391.7l-15.5,8.9c-10.3-5.9-20.6-11.9-30.9-17.8c10.3-5.9,20.6-11.9,30.9-17.8c10.3,5.9,20.6,11.9,30.9,17.8L-24.6,391.7z
				 M-24.6,410.1l15.5,8.9c-10.3,5.9-20.6,11.9-30.9,17.8c-10.3-5.9-20.6-11.9-30.9-17.8c10.3-5.9,20.6-11.9,30.9-17.8L-24.6,410.1z
				 M-24.6,446.4l15.5,8.9c-10.3,5.9-20.6,11.9-30.9,17.8c-10.3-5.9-20.6-11.9-30.9-17.8c10.3-5.9,20.6-11.9,30.9-17.8L-24.6,446.4z
				 M-24.6,482.7l15.5,8.9c-10.3,5.9-20.6,11.9-30.9,17.8c-10.3-5.9-20.6-11.9-30.9-17.8c10.3-5.9,20.6-11.9,30.9-17.8L-24.6,482.7z
				 M-24.6,518.9l15.5,8.9c-10.3,5.9-20.6,11.9-30.9,17.8c-10.3-5.9-20.6-11.9-30.9-17.8c10.3-5.9,20.6-11.9,30.9-17.8L-24.6,518.9z
				 M-24.6,555.2l15.5,8.9c-10.3,5.9-20.6,11.9-30.9,17.8c-10.3-5.9-20.6-11.9-30.9-17.8c10.3-5.9,20.6-11.9,30.9-17.8L-24.6,555.2z
				 M-24.6,591.5l15.5,8.9c-10.3,5.9-20.6,11.9-30.9,17.8c-10.3-5.9-20.6-11.9-30.9-17.8c10.3-5.9,20.6-11.9,30.9-17.8L-24.6,591.5z
				 M-24.6,627.7l15.5,8.9c-10.3,5.9-20.6,11.9-30.9,17.8c-10.3-5.9-20.6-11.9-30.9-17.8c10.3-5.9,20.6-11.9,30.9-17.8L-24.6,627.7z
				 M-24.1,627.4l-15.5-8.9c10.3-5.9,20.6-11.9,30.9-17.8c10.3,5.9,20.6,11.9,30.9,17.8c-10.3,5.9-20.6,11.9-30.9,17.8L-24.1,627.4z
				 M7.3,627.7l15.5-8.9c10.3,5.9,20.6,11.9,30.9,17.8c-10.3,5.9-20.6,11.9-30.9,17.8c-10.3-5.9-20.6-11.9-30.9-17.8L7.3,627.7z
				 M38.7,627.4l-15.5-8.9c10.3-5.9,20.6-11.9,30.9-17.8c10.3,5.9,20.6,11.9,30.9,17.8c-10.3,5.9-20.6,11.9-30.9,17.8L38.7,627.4z
				 M70.1,627.7l15.5-8.9c10.3,5.9,20.6,11.9,30.9,17.8c-10.3,5.9-20.6,11.9-30.9,17.8c-10.3-5.9-20.6-11.9-30.9-17.8L70.1,627.7z
				 M101.5,627.4L86,618.5c10.3-5.9,20.6-11.9,30.9-17.8c10.3,5.9,20.6,11.9,30.9,17.8c-10.3,5.9-20.6,11.9-30.9,17.8L101.5,627.4z
				 M132.9,627.7l15.5-8.9c10.3,5.9,20.6,11.9,30.9,17.8c-10.3,5.9-20.6,11.9-30.9,17.8c-10.3-5.9-20.6-11.9-30.9-17.8L132.9,627.7z
				 M164.3,627.4l-15.5-8.9c10.3-5.9,20.6-11.9,30.9-17.8c10.3,5.9,20.6,11.9,30.9,17.8c-10.3,5.9-20.6,11.9-30.9,17.8L164.3,627.4z
				 M195.7,627.7l15.5-8.9c10.3,5.9,20.6,11.9,30.9,17.8c-10.3,5.9-20.6,11.9-30.9,17.8c-10.3-5.9-20.6-11.9-30.9-17.8L195.7,627.7z
				 M227.1,627.4l-15.5-8.9c10.3-5.9,20.6-11.9,30.9-17.8c10.3,5.9,20.6,11.9,30.9,17.8c-10.3,5.9-20.6,11.9-30.9,17.8L227.1,627.4z
				 M258.5,627.7l15.5-8.9c10.3,5.9,20.6,11.9,30.9,17.8c-10.3,5.9-20.6,11.9-30.9,17.8c-10.3-5.9-20.6-11.9-30.9-17.8L258.5,627.7z
				 M289.9,627.4l-15.5-8.9c10.3-5.9,20.6-11.9,30.9-17.8c10.3,5.9,20.6,11.9,30.9,17.8c-10.3,5.9-20.6,11.9-30.9,17.8L289.9,627.4z
				 M321.3,627.7l15.5-8.9c10.3,5.9,20.6,11.9,30.9,17.8c-10.3,5.9-20.6,11.9-30.9,17.8c-10.3-5.9-20.6-11.9-30.9-17.8L321.3,627.7z
				 M352.7,627.4l-15.5-8.9c10.3-5.9,20.6-11.9,30.9-17.8c10.3,5.9,20.6,11.9,30.9,17.8c-10.3,5.9-20.6,11.9-30.9,17.8L352.7,627.4z
				 M352.7,591.2l-15.5-8.9c10.3-5.9,20.6-11.9,30.9-17.8c10.3,5.9,20.6,11.9,30.9,17.8c-10.3,5.9-20.6,11.9-30.9,17.8L352.7,591.2z
				 M352.7,554.9l-15.5-8.9c10.3-5.9,20.6-11.9,30.9-17.8c10.3,5.9,20.6,11.9,30.9,17.8c-10.3,5.9-20.6,11.9-30.9,17.8L352.7,554.9z
				 M352.7,518.6l-15.5-8.9c10.3-5.9,20.6-11.9,30.9-17.8c10.3,5.9,20.6,11.9,30.9,17.8c-10.3,5.9-20.6,11.9-30.9,17.8L352.7,518.6z
				 M352.7,482.4l-15.5-8.9c10.3-5.9,20.6-11.9,30.9-17.8c10.3,5.9,20.6,11.9,30.9,17.8c-10.3,5.9-20.6,11.9-30.9,17.8L352.7,482.4z
				 M352.7,446.1l-15.5-8.9c10.3-5.9,20.6-11.9,30.9-17.8c10.3,5.9,20.6,11.9,30.9,17.8c-10.3,5.9-20.6,11.9-30.9,17.8L352.7,446.1z
				 M352.7,409.8l-15.5-8.9c10.3-5.9,20.6-11.9,30.9-17.8c10.3,5.9,20.6,11.9,30.9,17.8c-10.3,5.9-20.6,11.9-30.9,17.8L352.7,409.8z
				 M352.7,373.6l-15.5-8.9c10.3-5.9,20.6-11.9,30.9-17.8c10.3,5.9,20.6,11.9,30.9,17.8c-10.3,5.9-20.6,11.9-30.9,17.8L352.7,373.6z
				 M352.2,355.4l-15.5,8.9c-10.3-5.9-20.6-11.9-30.9-17.8c10.3-5.9,20.6-11.9,30.9-17.8c10.3,5.9,20.6,11.9,30.9,17.8L352.2,355.4z
				 M320.8,355.7l15.5,8.9c-10.3,5.9-20.6,11.9-30.9,17.8c-10.3-5.9-20.6-11.9-30.9-17.8c10.3-5.9,20.6-11.9,30.9-17.8L320.8,355.7z
				 M289.4,355.4l-15.5,8.9c-10.3-5.9-20.6-11.9-30.9-17.8c10.3-5.9,20.6-11.9,30.9-17.8c10.3,5.9,20.6,11.9,30.9,17.8L289.4,355.4z
				 M258,355.7l15.5,8.9c-10.3,5.9-20.6,11.9-30.9,17.8c-10.3-5.9-20.6-11.9-30.9-17.8c10.3-5.9,20.6-11.9,30.9-17.8L258,355.7z
				 M226.6,355.4l-15.5,8.9c-10.3-5.9-20.6-11.9-30.9-17.8c10.3-5.9,20.6-11.9,30.9-17.8c10.3,5.9,20.6,11.9,30.9,17.8L226.6,355.4z
				 M195.2,355.7l15.5,8.9c-10.3,5.9-20.6,11.9-30.9,17.8c-10.3-5.9-20.6-11.9-30.9-17.8c10.3-5.9,20.6-11.9,30.9-17.8L195.2,355.7z
				 M163.8,355.4l-15.5,8.9c-10.3-5.9-20.6-11.9-30.9-17.8c10.3-5.9,20.6-11.9,30.9-17.8c10.3,5.9,20.6,11.9,30.9,17.8L163.8,355.4z
				 M132.4,355.7l15.5,8.9c-10.3,5.9-20.6,11.9-30.9,17.8c-10.3-5.9-20.6-11.9-30.9-17.8c10.3-5.9,20.6-11.9,30.9-17.8L132.4,355.7z
				 M101,355.4l-15.5,8.9c-10.3-5.9-20.6-11.9-30.9-17.8c10.3-5.9,20.6-11.9,30.9-17.8c10.3,5.9,20.6,11.9,30.9,17.8L101,355.4z
				 M69.6,355.7l15.5,8.9c-10.3,5.9-20.6,11.9-30.9,17.8c-10.3-5.9-20.6-11.9-30.9-17.8c10.3-5.9,20.6-11.9,30.9-17.8L69.6,355.7z
				 M38.2,355.4l-15.5,8.9c-10.3-5.9-20.6-11.9-30.9-17.8c10.3-5.9,20.6-11.9,30.9-17.8c10.3,5.9,20.6,11.9,30.9,17.8L38.2,355.4z
				 M6.8,355.7l15.5,8.9c-10.3,5.9-20.6,11.9-30.9,17.8c-10.3-5.9-20.6-11.9-30.9-17.8c10.3-5.9,20.6-11.9,30.9-17.8L6.8,355.7z
				 M-24.6,355.4l-15.5,8.9c-10.3-5.9-20.6-11.9-30.9-17.8c10.3-5.9,20.6-11.9,30.9-17.8c10.3,5.9,20.6,11.9,30.9,17.8L-24.6,355.4z
				 M-56.1,355.7l15.5,8.9c-10.3,5.9-20.6,11.9-30.9,17.8c-10.3-5.9-20.6-11.9-30.9-17.8c10.3-5.9,20.6-11.9,30.9-17.8L-56.1,355.7z
				 M-56.1,392l15.5,8.9c-10.3,5.9-20.6,11.9-30.9,17.8c-10.3-5.9-20.6-11.9-30.9-17.8c10.3-5.9,20.6-11.9,30.9-17.8L-56.1,392z
				 M-56.1,428.3l15.5,8.9c-10.3,5.9-20.6,11.9-30.9,17.8c-10.3-5.9-20.6-11.9-30.9-17.8c10.3-5.9,20.6-11.9,30.9-17.8L-56.1,428.3z
				 M-56.1,464.5l15.5,8.9c-10.3,5.9-20.6,11.9-30.9,17.8c-10.3-5.9-20.6-11.9-30.9-17.8c10.3-5.9,20.6-11.9,30.9-17.8L-56.1,464.5z
				 M-56.1,500.8l15.5,8.9c-10.3,5.9-20.6,11.9-30.9,17.8c-10.3-5.9-20.6-11.9-30.9-17.8c10.3-5.9,20.6-11.9,30.9-17.8L-56.1,500.8z
				 M-56.1,537.1l15.5,8.9c-10.3,5.9-20.6,11.9-30.9,17.8c-10.3-5.9-20.6-11.9-30.9-17.8c10.3-5.9,20.6-11.9,30.9-17.8L-56.1,537.1z
				 M-56.1,573.3l15.5,8.9c-10.3,5.9-20.6,11.9-30.9,17.8c-10.3-5.9-20.6-11.9-30.9-17.8c10.3-5.9,20.6-11.9,30.9-17.8L-56.1,573.3z
				 M-56.1,609.6l15.5,8.9c-10.3,5.9-20.6,11.9-30.9,17.8c-10.3-5.9-20.6-11.9-30.9-17.8c10.3-5.9,20.6-11.9,30.9-17.8L-56.1,609.6z
				 M-56,645.9l15.5,8.9c-10.3,5.9-20.6,11.9-30.9,17.8c-10.3-5.9-20.6-11.9-30.9-17.8c10.3-5.9,20.6-11.9,30.9-17.8L-56,645.9z
				 M-55.5,664l15.5-8.9c10.3,5.9,20.6,11.9,30.9,17.8c-10.3,5.9-20.6,11.9-30.9,17.8c-10.3-5.9-20.6-11.9-30.9-17.8L-55.5,664z
				 M-24.1,663.7l-15.5-8.9c10.3-5.9,20.6-11.9,30.9-17.8c10.3,5.9,20.6,11.9,30.9,17.8c-10.3,5.9-20.6,11.9-30.9,17.8L-24.1,663.7z
				 M7.3,664l15.5-8.9C33,661,43.3,667,53.6,672.9c-10.3,5.9-20.6,11.9-30.9,17.8c-10.3-5.9-20.6-11.9-30.9-17.8L7.3,664z
				 M38.7,663.7l-15.5-8.9c10.3-5.9,20.6-11.9,30.9-17.8c10.3,5.9,20.6,11.9,30.9,17.8c-10.3,5.9-20.6,11.9-30.9,17.8L38.7,663.7z
				 M70.1,664l15.5-8.9c10.3,5.9,20.6,11.9,30.9,17.8c-10.3,5.9-20.6,11.9-30.9,17.8c-10.3-5.9-20.6-11.9-30.9-17.8L70.1,664z
				 M101.5,663.7L86,654.8c10.3-5.9,20.6-11.9,30.9-17.8c10.3,5.9,20.6,11.9,30.9,17.8c-10.3,5.9-20.6,11.9-30.9,17.8L101.5,663.7z
				 M132.9,664l15.5-8.9c10.3,5.9,20.6,11.9,30.9,17.8c-10.3,5.9-20.6,11.9-30.9,17.8c-10.3-5.9-20.6-11.9-30.9-17.8L132.9,664z
				 M164.3,663.7l-15.5-8.9c10.3-5.9,20.6-11.9,30.9-17.8c10.3,5.9,20.6,11.9,30.9,17.8c-10.3,5.9-20.6,11.9-30.9,17.8L164.3,663.7z
				 M195.7,664l15.5-8.9c10.3,5.9,20.6,11.9,30.9,17.8c-10.3,5.9-20.6,11.9-30.9,17.8c-10.3-5.9-20.6-11.9-30.9-17.8L195.7,664z
				 M227.1,663.7l-15.5-8.9c10.3-5.9,20.6-11.9,30.9-17.8c10.3,5.9,20.6,11.9,30.9,17.8c-10.3,5.9-20.6,11.9-30.9,17.8L227.1,663.7z
				 M258.5,664l15.5-8.9c10.3,5.9,20.6,11.9,30.9,17.8c-10.3,5.9-20.6,11.9-30.9,17.8c-10.3-5.9-20.6-11.9-30.9-17.8L258.5,664z
				 M289.9,663.7l-15.5-8.9c10.3-5.9,20.6-11.9,30.9-17.8c10.3,5.9,20.6,11.9,30.9,17.8c-10.3,5.9-20.6,11.9-30.9,17.8L289.9,663.7z
				 M321.3,664l15.5-8.9c10.3,5.9,20.6,11.9,30.9,17.8c-10.3,5.9-20.6,11.9-30.9,17.8c-10.3-5.9-20.6-11.9-30.9-17.8L321.3,664z
				 M352.7,663.7l-15.5-8.9c10.3-5.9,20.6-11.9,30.9-17.8c10.3,5.9,20.6,11.9,30.9,17.8c-10.3,5.9-20.6,11.9-30.9,17.8L352.7,663.7z
				 M384.2,664l15.5-8.9c10.3,5.9,20.6,11.9,30.9,17.8c-10.3,5.9-20.6,11.9-30.9,17.8c-10.3-5.9-20.6-11.9-30.9-17.8L384.2,664z
				 M384.2,645.6l-15.5-8.9c10.3-5.9,20.6-11.9,30.9-17.8c10.3,5.9,20.6,11.9,30.9,17.8c-10.3,5.9-20.6,11.9-30.9,17.8L384.2,645.6z
				 M384.2,609.3l-15.5-8.9c10.3-5.9,20.6-11.9,30.9-17.8c10.3,5.9,20.6,11.9,30.9,17.8c-10.3,5.9-20.6,11.9-30.9,17.8L384.2,609.3z
				 M384.2,573l-15.5-8.9c10.3-5.9,20.6-11.9,30.9-17.8c10.3,5.9,20.6,11.9,30.9,17.8c-10.3,5.9-20.6,11.9-30.9,17.8L384.2,573z
				 M384.2,536.8l-15.5-8.9c10.3-5.9,20.6-11.9,30.9-17.8c10.3,5.9,20.6,11.9,30.9,17.8c-10.3,5.9-20.6,11.9-30.9,17.8L384.2,536.8z
				 M384.2,500.5l-15.5-8.9c10.3-5.9,20.6-11.9,30.9-17.8c10.3,5.9,20.6,11.9,30.9,17.8c-10.3,5.9-20.6,11.9-30.9,17.8L384.2,500.5z
				 M384.1,464.2l-15.5-8.9c10.3-5.9,20.6-11.9,30.9-17.8c10.3,5.9,20.6,11.9,30.9,17.8c-10.3,5.9-20.6,11.9-30.9,17.8L384.1,464.2z
				 M384.1,428l-15.5-8.9c10.3-5.9,20.6-11.9,30.9-17.8c10.3,5.9,20.6,11.9,30.9,17.8c-10.3,5.9-20.6,11.9-30.9,17.8L384.1,428z
				 M384.1,391.7l-15.5-8.9c10.3-5.9,20.6-11.9,30.9-17.8c10.3,5.9,20.6,11.9,30.9,17.8c-10.3,5.9-20.6,11.9-30.9,17.8L384.1,391.7z
				 M384.1,355.4l-15.5-8.9c10.3-5.9,20.6-11.9,30.9-17.8c10.3,5.9,20.6,11.9,30.9,17.8c-10.3,5.9-20.6,11.9-30.9,17.8L384.1,355.4z
				 M383.6,319.5l15.5,8.9c-10.3,5.9-20.6,11.9-30.9,17.8c-10.3-5.9-20.6-11.9-30.9-17.8c10.3-5.9,20.6-11.9,30.9-17.8L383.6,319.5z
				 M321.3,301.3l15.5-8.9c10.3,5.9,20.6,11.9,30.9,17.8c-10.3,5.9-20.6,11.9-30.9,17.8c-10.3-5.9-20.6-11.9-30.9-17.8L321.3,301.3z
				 M320.8,319.5l15.5,8.9c-10.3,5.9-20.6,11.9-30.9,17.8c-10.3-5.9-20.6-11.9-30.9-17.8c10.3-5.9,20.6-11.9,30.9-17.8L320.8,319.5z
				 M258.5,301.3l15.5-8.9c10.3,5.9,20.6,11.9,30.9,17.8c-10.3,5.9-20.6,11.9-30.9,17.8c-10.3-5.9-20.6-11.9-30.9-17.8L258.5,301.3z
				 M258,319.5l15.5,8.9c-10.3,5.9-20.6,11.9-30.9,17.8c-10.3-5.9-20.6-11.9-30.9-17.8c10.3-5.9,20.6-11.9,30.9-17.8L258,319.5z
				 M195.7,301.3l15.5-8.9c10.3,5.9,20.6,11.9,30.9,17.8c-10.3,5.9-20.6,11.9-30.9,17.8c-10.3-5.9-20.6-11.9-30.9-17.8L195.7,301.3z
				 M195.2,319.5l15.5,8.9c-10.3,5.9-20.6,11.9-30.9,17.8c-10.3-5.9-20.6-11.9-30.9-17.8c10.3-5.9,20.6-11.9,30.9-17.8L195.2,319.5z
				 M132.9,301.3l15.5-8.9c10.3,5.9,20.6,11.9,30.9,17.8c-10.3,5.9-20.6,11.9-30.9,17.8c-10.3-5.9-20.6-11.9-30.9-17.8L132.9,301.3z
				 M132.4,319.5l15.5,8.9c-10.3,5.9-20.6,11.9-30.9,17.8c-10.3-5.9-20.6-11.9-30.9-17.8c10.3-5.9,20.6-11.9,30.9-17.8L132.4,319.5z
				 M70.1,301.3l15.5-8.9c10.3,5.9,20.6,11.9,30.9,17.8c-10.3,5.9-20.6,11.9-30.9,17.8c-10.3-5.9-20.6-11.9-30.9-17.8L70.1,301.3z
				 M69.6,319.5l15.5,8.9c-10.3,5.9-20.6,11.9-30.9,17.8c-10.3-5.9-20.6-11.9-30.9-17.8c10.3-5.9,20.6-11.9,30.9-17.8L69.6,319.5z
				 M7.3,301.3l15.5-8.9c10.3,5.9,20.6,11.9,30.9,17.8c-10.3,5.9-20.6,11.9-30.9,17.8c-10.3-5.9-20.6-11.9-30.9-17.8L7.3,301.3z
				 M6.8,319.5l15.5,8.9c-10.3,5.9-20.6,11.9-30.9,17.8c-10.3-5.9-20.6-11.9-30.9-17.8c10.3-5.9,20.6-11.9,30.9-17.8L6.8,319.5z
				 M-55.6,301.3l15.5-8.9c10.3,5.9,20.6,11.9,30.9,17.8c-10.3,5.9-20.6,11.9-30.9,17.8c-10.3-5.9-20.6-11.9-30.9-17.8L-55.6,301.3z
				 M-56.1,319.5l15.5,8.9c-10.3,5.9-20.6,11.9-30.9,17.8c-10.3-5.9-20.6-11.9-30.9-17.8c10.3-5.9,20.6-11.9,30.9-17.8L-56.1,319.5z
				 M-118.4,319.2l-15.5-8.9c10.3-5.9,20.6-11.9,30.9-17.8c10.3,5.9,20.6,11.9,30.9,17.8c-10.3,5.9-20.6,11.9-30.9,17.8
				L-118.4,319.2z M-118.4,355.4l-15.5-8.9c10.3-5.9,20.6-11.9,30.9-17.8c10.3,5.9,20.6,11.9,30.9,17.8
				c-10.3,5.9-20.6,11.9-30.9,17.8L-118.4,355.4z M-118.4,391.7l-15.5-8.9c10.3-5.9,20.6-11.9,30.9-17.8
				c10.3,5.9,20.6,11.9,30.9,17.8c-10.3,5.9-20.6,11.9-30.9,17.8L-118.4,391.7z M-118.4,428l-15.5-8.9c10.3-5.9,20.6-11.9,30.9-17.8
				c10.3,5.9,20.6,11.9,30.9,17.8c-10.3,5.9-20.6,11.9-30.9,17.8L-118.4,428z M-118.4,464.2l-15.5-8.9c10.3-5.9,20.6-11.9,30.9-17.8
				c10.3,5.9,20.6,11.9,30.9,17.8c-10.3,5.9-20.6,11.9-30.9,17.8L-118.4,464.2z M-118.4,500.5l-15.5-8.9
				c10.3-5.9,20.6-11.9,30.9-17.8c10.3,5.9,20.6,11.9,30.9,17.8c-10.3,5.9-20.6,11.9-30.9,17.8L-118.4,500.5z M-118.4,536.8
				l-15.5-8.9c10.3-5.9,20.6-11.9,30.9-17.8c10.3,5.9,20.6,11.9,30.9,17.8c-10.3,5.9-20.6,11.9-30.9,17.8L-118.4,536.8z M-118.4,573
				l-15.5-8.9c10.3-5.9,20.6-11.9,30.9-17.8c10.3,5.9,20.6,11.9,30.9,17.8c-10.3,5.9-20.6,11.9-30.9,17.8L-118.4,573z M-118.4,609.3
				l-15.5-8.9c10.3-5.9,20.6-11.9,30.9-17.8c10.3,5.9,20.6,11.9,30.9,17.8c-10.3,5.9-20.6,11.9-30.9,17.8L-118.4,609.3z
				 M-118.4,645.6l-15.5-8.9c10.3-5.9,20.6-11.9,30.9-17.8c10.3,5.9,20.6,11.9,30.9,17.8c-10.3,5.9-20.6,11.9-30.9,17.8
				L-118.4,645.6z M-118.4,681.8l-15.5-8.9c10.3-5.9,20.6-11.9,30.9-17.8C-92.6,661-82.3,667-72,672.9
				c-10.3,5.9-20.6,11.9-30.9,17.8L-118.4,681.8z M-87.5,718.1l-15.5,8.9c-10.3-5.9-20.6-11.9-30.9-17.8
				c10.3-5.9,20.6-11.9,30.9-17.8c10.3,5.9,20.6,11.9,30.9,17.8L-87.5,718.1z M-87,700l-15.5-8.9c10.3-5.9,20.6-11.9,30.9-17.8
				c10.3,5.9,20.6,11.9,30.9,17.8c-10.3,5.9-20.6,11.9-30.9,17.8L-87,700z M-24.6,718.1l-15.5,8.9c-10.3-5.9-20.6-11.9-30.9-17.8
				c10.3-5.9,20.6-11.9,30.9-17.8c10.3,5.9,20.6,11.9,30.9,17.8L-24.6,718.1z M-24.1,700l-15.5-8.9c10.3-5.9,20.6-11.9,30.9-17.8
				c10.3,5.9,20.6,11.9,30.9,17.8C11.9,697,1.6,702.9-8.7,708.9L-24.1,700z M38.2,718.1L22.7,727c-10.3-5.9-20.6-11.9-30.9-17.8
				c10.3-5.9,20.6-11.9,30.9-17.8c10.3,5.9,20.6,11.9,30.9,17.8L38.2,718.1z M38.7,700L23.2,691c10.3-5.9,20.6-11.9,30.9-17.8
				c10.3,5.9,20.6,11.9,30.9,17.8c-10.3,5.9-20.6,11.9-30.9,17.8L38.7,700z M101,718.1L85.5,727c-10.3-5.9-20.6-11.9-30.9-17.8
				c10.3-5.9,20.6-11.9,30.9-17.8c10.3,5.9,20.6,11.9,30.9,17.8L101,718.1z M101.5,700L86,691c10.3-5.9,20.6-11.9,30.9-17.8
				c10.3,5.9,20.6,11.9,30.9,17.8c-10.3,5.9-20.6,11.9-30.9,17.8L101.5,700z M163.8,718.1l-15.5,8.9c-10.3-5.9-20.6-11.9-30.9-17.8
				c10.3-5.9,20.6-11.9,30.9-17.8c10.3,5.9,20.6,11.9,30.9,17.8L163.8,718.1z M164.3,700l-15.5-8.9c10.3-5.9,20.6-11.9,30.9-17.8
				c10.3,5.9,20.6,11.9,30.9,17.8c-10.3,5.9-20.6,11.9-30.9,17.8L164.3,700z M226.6,718.1l-15.5,8.9c-10.3-5.9-20.6-11.9-30.9-17.8
				c10.3-5.9,20.6-11.9,30.9-17.8c10.3,5.9,20.6,11.9,30.9,17.8L226.6,718.1z M227.1,700l-15.5-8.9c10.3-5.9,20.6-11.9,30.9-17.8
				c10.3,5.9,20.6,11.9,30.9,17.8c-10.3,5.9-20.6,11.9-30.9,17.8L227.1,700z M289.4,718.1L274,727c-10.3-5.9-20.6-11.9-30.9-17.8
				c10.3-5.9,20.6-11.9,30.9-17.8c10.3,5.9,20.6,11.9,30.9,17.8L289.4,718.1z M289.9,700l-15.5-8.9c10.3-5.9,20.6-11.9,30.9-17.8
				c10.3,5.9,20.6,11.9,30.9,17.8c-10.3,5.9-20.6,11.9-30.9,17.8L289.9,700z M352.2,718.1l-15.5,8.9c-10.3-5.9-20.6-11.9-30.9-17.8
				c10.3-5.9,20.6-11.9,30.9-17.8c10.3,5.9,20.6,11.9,30.9,17.8L352.2,718.1z M352.7,700l-15.5-8.9c10.3-5.9,20.6-11.9,30.9-17.8
				c10.3,5.9,20.6,11.9,30.9,17.8c-10.3,5.9-20.6,11.9-30.9,17.8L352.7,700z M415.1,718.1l-15.5,8.9c-10.3-5.9-20.6-11.9-30.9-17.8
				c10.3-5.9,20.6-11.9,30.9-17.8c10.3,5.9,20.6,11.9,30.9,17.8L415.1,718.1z M446.5,682.1l15.5,8.9c-10.3,5.9-20.6,11.9-30.9,17.8
				c-10.3-5.9-20.6-11.9-30.9-17.8c10.3-5.9,20.6-11.9,30.9-17.8L446.5,682.1z M446.5,645.9l15.5,8.9c-10.3,5.9-20.6,11.9-30.9,17.8
				c-10.3-5.9-20.6-11.9-30.9-17.8c10.3-5.9,20.6-11.9,30.9-17.8L446.5,645.9z M446.5,609.6l15.5,8.9c-10.3,5.9-20.6,11.9-30.9,17.8
				c-10.3-5.9-20.6-11.9-30.9-17.8c10.3-5.9,20.6-11.9,30.9-17.8L446.5,609.6z M446.5,573.3l15.5,8.9c-10.3,5.9-20.6,11.9-30.9,17.8
				c-10.3-5.9-20.6-11.9-30.9-17.8c10.3-5.9,20.6-11.9,30.9-17.8L446.5,573.3z M446.5,537.1l15.5,8.9c-10.3,5.9-20.6,11.9-30.9,17.8
				c-10.3-5.9-20.6-11.9-30.9-17.8c10.3-5.9,20.6-11.9,30.9-17.8L446.5,537.1z M446.5,500.8l15.5,8.9c-10.3,5.9-20.6,11.9-30.9,17.8
				c-10.3-5.9-20.6-11.9-30.9-17.8c10.3-5.9,20.6-11.9,30.9-17.8L446.5,500.8z M446.5,464.5l15.5,8.9c-10.3,5.9-20.6,11.9-30.9,17.8
				c-10.3-5.9-20.6-11.9-30.9-17.8c10.3-5.9,20.6-11.9,30.9-17.8L446.5,464.5z M446.5,428.3l15.5,8.9c-10.3,5.9-20.6,11.9-30.9,17.8
				c-10.3-5.9-20.6-11.9-30.9-17.8c10.3-5.9,20.6-11.9,30.9-17.8L446.5,428.3z M446.5,392l15.5,8.9c-10.3,5.9-20.6,11.9-30.9,17.8
				c-10.3-5.9-20.6-11.9-30.9-17.8c10.3-5.9,20.6-11.9,30.9-17.8L446.5,392z M446.5,355.7l15.5,8.9c-10.3,5.9-20.6,11.9-30.9,17.8
				c-10.3-5.9-20.6-11.9-30.9-17.8c10.3-5.9,20.6-11.9,30.9-17.8L446.5,355.7z M446.5,319.5l15.5,8.9c-10.3,5.9-20.6,11.9-30.9,17.8
				c-10.3-5.9-20.6-11.9-30.9-17.8c10.3-5.9,20.6-11.9,30.9-17.8L446.5,319.5z"/>
		</g>
	</mask>
	<path style="opacity:0.24;clip-path:url(#SVGID_11_);fill:#CFC3E8;" d="M461.9,292.1c-10.3,5.9-20.6,11.9-30.9,17.8
		c-10.3-5.9-20.6-11.9-30.9-17.8l0.6-0.4c-0.4-0.2-0.8-0.1-1.1,0.1c-0.3-0.2-0.7-0.2-1.1-0.1l0.6,0.4c-10.3,5.9-20.6,11.9-30.9,17.8
		c-10.3-5.9-20.6-11.9-30.9-17.8l0.6-0.4c-0.4-0.2-0.8-0.1-1.1,0.1c-0.3-0.2-0.7-0.2-1.1-0.1l0.6,0.4c-10.3,5.9-20.6,11.9-30.9,17.8
		c-10.3-5.9-20.6-11.9-30.9-17.8l0.6-0.4c-0.4-0.2-0.8-0.1-1.1,0.1c-0.3-0.2-0.7-0.2-1.1-0.1l0.6,0.4c-10.3,5.9-20.6,11.9-30.9,17.8
		c-10.3-5.9-20.6-11.9-30.9-17.8l0.6-0.4c-0.4-0.2-0.8-0.1-1.1,0.1c-0.3-0.2-0.7-0.2-1.1-0.1l0.6,0.4c-10.3,5.9-20.6,11.9-30.9,17.8
		c-10.3-5.9-20.6-11.9-30.9-17.8l0.6-0.4c-0.4-0.2-0.8-0.1-1.1,0.1c-0.3-0.2-0.7-0.2-1.1-0.1l0.6,0.4c-10.3,5.9-20.6,11.9-30.9,17.8
		c-10.3-5.9-20.6-11.9-30.9-17.8l0.6-0.4c-0.4-0.2-0.8-0.1-1.1,0.1c-0.3-0.2-0.7-0.2-1.1-0.1l0.6,0.4C74.7,298.1,64.4,304,54.1,310
		c-10.3-5.9-20.6-11.9-30.9-17.8l0.6-0.4c-0.4-0.2-0.8-0.1-1.1,0.1c-0.3-0.2-0.7-0.2-1.1-0.1l0.6,0.4C11.9,298.1,1.6,304-8.7,310
		c-10.3-5.9-20.6-11.9-30.9-17.8l0.6-0.4c-0.4-0.2-0.8-0.1-1.1,0.1c-0.3-0.2-0.7-0.2-1.1-0.1l0.6,0.4c-10.3,5.9-20.6,11.9-30.9,17.8
		c-10.3-5.9-20.6-11.9-30.9-17.8l0.6-0.4c-0.4-0.2-0.8-0.1-1.1,0.1c-0.3-0.2-0.7-0.2-1.1-0.1l0.6,0.4c-10.3,5.9-20.6,11.9-30.9,17.8
		v0.6c10.3,5.9,20.6,11.9,30.9,17.8c-10.3,5.9-20.6,11.9-30.9,17.8v0.6c10.3,5.9,20.6,11.9,30.9,17.8c-10.3,5.9-20.6,11.9-30.9,17.8
		v0.6c10.3,5.9,20.6,11.9,30.9,17.8c-10.3,5.9-20.6,11.9-30.9,17.8v0.6c10.3,5.9,20.6,11.9,30.9,17.8c-10.3,5.9-20.6,11.9-30.9,17.8
		v0.6c10.3,5.9,20.6,11.9,30.9,17.8c-10.3,5.9-20.6,11.9-30.9,17.8v0.6c10.3,5.9,20.6,11.9,30.9,17.8c-10.3,5.9-20.6,11.9-30.9,17.8
		v0.6c10.3,5.9,20.6,11.9,30.9,17.8c-10.3,5.9-20.6,11.9-30.9,17.8v0.6c10.3,5.9,20.6,11.9,30.9,17.8c-10.3,5.9-20.6,11.9-30.9,17.8
		v0.6c10.3,5.9,20.6,11.9,30.9,17.8c-10.3,5.9-20.6,11.9-30.9,17.8v0.6c10.3,5.9,20.6,11.9,30.9,17.8c-10.3,5.9-20.6,11.9-30.9,17.8
		v0.6c10.3,5.9,20.6,11.9,30.9,17.8c-10.3,5.9-20.6,11.9-30.9,17.8v0.6c10.3,5.9,20.6,11.9,30.9,17.8c-8.3,4.8-16.7,9.6-25,14.4
		c8.6-4,17.1-9.3,25.5-14.2c8.4,4.8,16.9,10.1,25.5,14.2c-8.3-4.8-16.7-9.6-25-14.4c10.3-5.9,20.6-11.9,30.9-17.8
		c10.3,5.9,20.6,11.9,30.9,17.8c-8.3,4.8-16.7,9.6-25,14.4c8.6-4,17.1-9.3,25.5-14.2c8.4,4.8,16.9,10.1,25.5,14.2
		c-8.3-4.8-16.7-9.6-25-14.4c10.3-5.9,20.6-11.9,30.9-17.8c10.3,5.9,20.6,11.9,30.9,17.8c-8.3,4.8-16.7,9.6-25,14.4
		c8.6-4,17.1-9.3,25.5-14.2c8.4,4.8,16.9,10.1,25.5,14.2c-8.3-4.8-16.7-9.6-25-14.4c10.3-5.9,20.6-11.9,30.9-17.8
		c10.3,5.9,20.6,11.9,30.9,17.8c-8.3,4.8-16.7,9.6-25,14.4c8.6-4,17.1-9.3,25.5-14.2c8.4,4.8,16.9,10.1,25.5,14.2
		c-8.3-4.8-16.7-9.6-25-14.4c10.3-5.9,20.6-11.9,30.9-17.8c10.3,5.9,20.6,11.9,30.9,17.8c-8.3,4.8-16.7,9.6-25,14.4
		c8.6-4,17.1-9.3,25.5-14.2c8.4,4.8,16.9,10.1,25.5,14.2c-8.3-4.8-16.7-9.6-25-14.4c10.3-5.9,20.6-11.9,30.9-17.8
		c10.3,5.9,20.6,11.9,30.9,17.8c-8.3,4.8-16.7,9.6-25,14.4c8.6-4,17.1-9.3,25.5-14.2c8.4,4.8,16.9,10.1,25.5,14.2
		c-8.3-4.8-16.7-9.6-25-14.4c10.3-5.9,20.6-11.9,30.9-17.8c10.3,5.9,20.6,11.9,30.9,17.8c-8.3,4.8-16.7,9.6-25,14.4
		c8.6-4,17.1-9.3,25.5-14.2c8.4,4.8,16.9,10.1,25.5,14.2c-8.3-4.8-16.7-9.6-25-14.4c10.3-5.9,20.6-11.9,30.9-17.8
		c10.3,5.9,20.6,11.9,30.9,17.8c-8.3,4.8-16.7,9.6-25,14.4c8.6-4,17.1-9.3,25.5-14.2c8.4,4.8,16.9,10.1,25.5,14.2
		c-8.3-4.8-16.7-9.6-25-14.4c10.3-5.9,20.6-11.9,30.9-17.8c10.3,5.9,20.6,11.9,30.9,17.8c-8.3,4.8-16.7,9.6-25,14.4
		c8.6-4,17.1-9.3,25.5-14.1c8.4,4.8,16.9,10.1,25.5,14.1c-8.3-4.8-16.7-9.6-25-14.4c10.3-5.9,20.6-11.9,30.9-17.8
		c10.3,5.9,20.6,11.9,30.9,17.8c-8.3,4.8-16.7,9.6-25,14.4c8.6-4,17.1-9.3,25.5-14.1l3.3,1.9v-0.6l-2.8-1.6l2.8-1.6v-0.6l-3.3,1.9
		c-10.3-5.9-20.6-11.9-30.9-17.8c10.3-5.9,20.6-11.9,30.9-17.8l3.3,1.9v-0.6l-2.8-1.6l2.8-1.6v-0.6l-3.3,1.9
		c-10.3-5.9-20.6-11.9-30.9-17.8c10.3-5.9,20.6-11.9,30.9-17.8l3.3,1.9v-0.6l-2.8-1.6l2.8-1.6v-0.6l-3.3,1.9
		c-10.3-5.9-20.6-11.9-30.9-17.8c10.3-5.9,20.6-11.9,30.9-17.8l3.3,1.9v-0.6l-2.8-1.6l2.8-1.6v-0.6l-3.3,1.9
		c-10.3-5.9-20.6-11.9-30.9-17.8c10.3-5.9,20.6-11.9,30.9-17.8l3.3,1.9v-0.6l-2.8-1.6l2.8-1.6v-0.6l-3.3,1.9
		c-10.3-5.9-20.6-11.9-30.9-17.8c10.3-5.9,20.6-11.9,30.9-17.8l3.3,1.9v-0.6l-2.8-1.6l2.8-1.6v-0.6l-3.3,1.9
		c-10.3-5.9-20.6-11.9-30.9-17.8c10.3-5.9,20.6-11.9,30.9-17.8l3.3,1.9v-0.6l-2.8-1.6l2.8-1.6v-0.6l-3.3,1.9
		c-10.3-5.9-20.6-11.9-30.9-17.8c10.3-5.9,20.6-11.9,30.9-17.8l3.3,1.9v-0.6l-2.8-1.6l2.8-1.6v-0.6l-3.3,1.9
		c-10.3-5.9-20.6-11.9-30.9-17.8c10.3-5.9,20.6-11.9,30.9-17.8l3.3,1.9v-0.6l-2.8-1.6l2.8-1.6V435l-3.3,1.9
		c-10.3-5.9-20.6-11.9-30.9-17.8c10.3-5.9,20.6-11.9,30.9-17.8l3.3,1.9v-0.6l-2.8-1.6l2.8-1.6v-0.6l-3.3,1.9
		c-10.3-5.9-20.6-11.9-30.9-17.8c10.3-5.9,20.6-11.9,30.9-17.8l3.3,1.9v-0.6l-2.8-1.6l2.8-1.6v-0.6l-3.3,1.9
		c-10.3-5.9-20.6-11.9-30.9-17.8c10.3-5.9,20.6-11.9,30.9-17.8l3.3,1.9V330l-2.8-1.6l2.8-1.6v-0.6l-3.3,1.9
		c-10.3-5.9-20.6-11.9-30.9-17.8c10.3-5.9,20.6-11.9,30.9-17.8l3.3,1.9v-0.6l-2.8-1.6l0.6-0.4c-0.4-0.2-0.8-0.1-1.1,0.1
		c-0.3-0.2-0.7-0.2-1.1-0.1L461.9,292.1z M384.1,301.3l15.5-8.9c10.3,5.9,20.6,11.9,30.9,17.8c-10.3,5.9-20.6,11.9-30.9,17.8
		c-10.3-5.9-20.6-11.9-30.9-17.8L384.1,301.3z M69.6,500.8l15.5,8.9c-10.3,5.9-20.6,11.9-30.9,17.8c-10.3-5.9-20.6-11.9-30.9-17.8
		c10.3-5.9,20.6-11.9,30.9-17.8L69.6,500.8z M54.6,491.6c10.3-5.9,20.6-11.9,30.9-17.8c10.3,5.9,20.6,11.9,30.9,17.8
		c-10.3,5.9-20.6,11.9-30.9,17.8C75.2,503.5,64.9,497.5,54.6,491.6z M70.1,518.9l15.5-8.9c10.3,5.9,20.6,11.9,30.9,17.8
		c-10.3,5.9-20.6,11.9-30.9,17.8c-10.3-5.9-20.6-11.9-30.9-17.8L70.1,518.9z M101.5,518.6L86,509.7c10.3-5.9,20.6-11.9,30.9-17.8
		c10.3,5.9,20.6,11.9,30.9,17.8c-10.3,5.9-20.6,11.9-30.9,17.8L101.5,518.6z M117.4,491.6c10.3-5.9,20.6-11.9,30.9-17.8
		c10.3,5.9,20.6,11.9,30.9,17.8c-10.3,5.9-20.6,11.9-30.9,17.8C138,503.5,127.7,497.5,117.4,491.6z M132.9,518.9l15.5-8.9
		c10.3,5.9,20.6,11.9,30.9,17.8c-10.3,5.9-20.6,11.9-30.9,17.8c-10.3-5.9-20.6-11.9-30.9-17.8L132.9,518.9z M164.3,518.6l-15.5-8.9
		c10.3-5.9,20.6-11.9,30.9-17.8c10.3,5.9,20.6,11.9,30.9,17.8c-10.3,5.9-20.6,11.9-30.9,17.8L164.3,518.6z M180.3,491.6
		c10.3-5.9,20.6-11.9,30.9-17.8c10.3,5.9,20.6,11.9,30.9,17.8c-10.3,5.9-20.6,11.9-30.9,17.8C200.9,503.5,190.6,497.5,180.3,491.6z
		 M195.7,518.9l15.5-8.9c10.3,5.9,20.6,11.9,30.9,17.8c-10.3,5.9-20.6,11.9-30.9,17.8c-10.3-5.9-20.6-11.9-30.9-17.8L195.7,518.9z
		 M227.1,518.6l-15.5-8.9c10.3-5.9,20.6-11.9,30.9-17.8c10.3,5.9,20.6,11.9,30.9,17.8c-10.3,5.9-20.6,11.9-30.9,17.8L227.1,518.6z
		 M258.5,518.9L274,510c10.3,5.9,20.6,11.9,30.9,17.8c-10.3,5.9-20.6,11.9-30.9,17.8c-10.3-5.9-20.6-11.9-30.9-17.8L258.5,518.9z
		 M258.5,500.5l-15.5-8.9c10.3-5.9,20.6-11.9,30.9-17.8c10.3,5.9,20.6,11.9,30.9,17.8c-10.3,5.9-20.6,11.9-30.9,17.8L258.5,500.5z
		 M258.5,464.2l-15.5-8.9c10.3-5.9,20.6-11.9,30.9-17.8c10.3,5.9,20.6,11.9,30.9,17.8c-10.3,5.9-20.6,11.9-30.9,17.8L258.5,464.2z
		 M258,464.5l15.5,8.9c-10.3,5.9-20.6,11.9-30.9,17.8c-10.3-5.9-20.6-11.9-30.9-17.8c10.3-5.9,20.6-11.9,30.9-17.8L258,464.5z
		 M226.6,464.2l-15.5,8.9c-10.3-5.9-20.6-11.9-30.9-17.8c10.3-5.9,20.6-11.9,30.9-17.8c10.3,5.9,20.6,11.9,30.9,17.8L226.6,464.2z
		 M195.2,464.5l15.5,8.9c-10.3,5.9-20.6,11.9-30.9,17.8c-10.3-5.9-20.6-11.9-30.9-17.8c10.3-5.9,20.6-11.9,30.9-17.8L195.2,464.5z
		 M163.8,464.2l-15.5,8.9c-10.3-5.9-20.6-11.9-30.9-17.8c10.3-5.9,20.6-11.9,30.9-17.8c10.3,5.9,20.6,11.9,30.9,17.8L163.8,464.2z
		 M132.4,464.5l15.5,8.9c-10.3,5.9-20.6,11.9-30.9,17.8c-10.3-5.9-20.6-11.9-30.9-17.8c10.3-5.9,20.6-11.9,30.9-17.8L132.4,464.5z
		 M101,464.2l-15.5,8.9c-10.3-5.9-20.6-11.9-30.9-17.8c10.3-5.9,20.6-11.9,30.9-17.8c10.3,5.9,20.6,11.9,30.9,17.8L101,464.2z
		 M69.6,464.5l15.5,8.9c-10.3,5.9-20.6,11.9-30.9,17.8c-10.3-5.9-20.6-11.9-30.9-17.8c10.3-5.9,20.6-11.9,30.9-17.8L69.6,464.5z
		 M38.2,464.2l-15.5,8.9c-10.3-5.9-20.6-11.9-30.9-17.8c10.3-5.9,20.6-11.9,30.9-17.8c10.3,5.9,20.6,11.9,30.9,17.8L38.2,464.2z
		 M38.2,482.7l15.5,8.9c-10.3,5.9-20.6,11.9-30.9,17.8c-10.3-5.9-20.6-11.9-30.9-17.8c10.3-5.9,20.6-11.9,30.9-17.8L38.2,482.7z
		 M38.2,518.9l15.5,8.9c-10.3,5.9-20.6,11.9-30.9,17.8c-10.3-5.9-20.6-11.9-30.9-17.8C2.1,521.9,12.4,516,22.7,510L38.2,518.9z
		 M38.2,555.2l15.5,8.9C43.3,570.1,33,576,22.7,582C12.4,576,2.1,570.1-8.2,564.1c10.3-5.9,20.6-11.9,30.9-17.8L38.2,555.2z
		 M38.7,554.9L23.2,546c10.3-5.9,20.6-11.9,30.9-17.8C64.4,534.1,74.7,540,85,546c-10.3,5.9-20.6,11.9-30.9,17.8L38.7,554.9z
		 M70.1,555.2l15.5-8.9c10.3,5.9,20.6,11.9,30.9,17.8c-10.3,5.9-20.6,11.9-30.9,17.8c-10.3-5.9-20.6-11.9-30.9-17.8L70.1,555.2z
		 M101.5,554.9L86,546c10.3-5.9,20.6-11.9,30.9-17.8c10.3,5.9,20.6,11.9,30.9,17.8c-10.3,5.9-20.6,11.9-30.9,17.8L101.5,554.9z
		 M132.9,555.2l15.5-8.9c10.3,5.9,20.6,11.9,30.9,17.8c-10.3,5.9-20.6,11.9-30.9,17.8c-10.3-5.9-20.6-11.9-30.9-17.8L132.9,555.2z
		 M164.3,554.9l-15.5-8.9c10.3-5.9,20.6-11.9,30.9-17.8c10.3,5.9,20.6,11.9,30.9,17.8c-10.3,5.9-20.6,11.9-30.9,17.8L164.3,554.9z
		 M195.7,555.2l15.5-8.9c10.3,5.9,20.6,11.9,30.9,17.8c-10.3,5.9-20.6,11.9-30.9,17.8c-10.3-5.9-20.6-11.9-30.9-17.8L195.7,555.2z
		 M227.1,554.9l-15.5-8.9c10.3-5.9,20.6-11.9,30.9-17.8c10.3,5.9,20.6,11.9,30.9,17.8c-10.3,5.9-20.6,11.9-30.9,17.8L227.1,554.9z
		 M258.5,555.2l15.5-8.9c10.3,5.9,20.6,11.9,30.9,17.8c-10.3,5.9-20.6,11.9-30.9,17.8c-10.3-5.9-20.6-11.9-30.9-17.8L258.5,555.2z
		 M289.9,554.9l-15.5-8.9c10.3-5.9,20.6-11.9,30.9-17.8c10.3,5.9,20.6,11.9,30.9,17.8c-10.3,5.9-20.6,11.9-30.9,17.8L289.9,554.9z
		 M289.9,518.6l-15.5-8.9c10.3-5.9,20.6-11.9,30.9-17.8c10.3,5.9,20.6,11.9,30.9,17.8c-10.3,5.9-20.6,11.9-30.9,17.8L289.9,518.6z
		 M289.9,482.4l-15.5-8.9c10.3-5.9,20.6-11.9,30.9-17.8c10.3,5.9,20.6,11.9,30.9,17.8c-10.3,5.9-20.6,11.9-30.9,17.8L289.9,482.4z
		 M289.9,446.1l-15.5-8.9c10.3-5.9,20.6-11.9,30.9-17.8c10.3,5.9,20.6,11.9,30.9,17.8c-10.3,5.9-20.6,11.9-30.9,17.8L289.9,446.1z
		 M289.4,428l-15.5,8.9c-10.3-5.9-20.6-11.9-30.9-17.8c10.3-5.9,20.6-11.9,30.9-17.8c10.3,5.9,20.6,11.9,30.9,17.8L289.4,428z
		 M258,428.3l15.5,8.9c-10.3,5.9-20.6,11.9-30.9,17.8c-10.3-5.9-20.6-11.9-30.9-17.8c10.3-5.9,20.6-11.9,30.9-17.8L258,428.3z
		 M226.6,428l-15.5,8.9c-10.3-5.9-20.6-11.9-30.9-17.8c10.3-5.9,20.6-11.9,30.9-17.8c10.3,5.9,20.6,11.9,30.9,17.8L226.6,428z
		 M195.2,428.3l15.5,8.9c-10.3,5.9-20.6,11.9-30.9,17.8c-10.3-5.9-20.6-11.9-30.9-17.8c10.3-5.9,20.6-11.9,30.9-17.8L195.2,428.3z
		 M163.8,428l-15.5,8.9c-10.3-5.9-20.6-11.9-30.9-17.8c10.3-5.9,20.6-11.9,30.9-17.8c10.3,5.9,20.6,11.9,30.9,17.8L163.8,428z
		 M132.4,428.3l15.5,8.9c-10.3,5.9-20.6,11.9-30.9,17.8c-10.3-5.9-20.6-11.9-30.9-17.8c10.3-5.9,20.6-11.9,30.9-17.8L132.4,428.3z
		 M101,428l-15.5,8.9c-10.3-5.9-20.6-11.9-30.9-17.8c10.3-5.9,20.6-11.9,30.9-17.8c10.3,5.9,20.6,11.9,30.9,17.8L101,428z
		 M69.6,428.3l15.5,8.9c-10.3,5.9-20.6,11.9-30.9,17.8c-10.3-5.9-20.6-11.9-30.9-17.8c10.3-5.9,20.6-11.9,30.9-17.8L69.6,428.3z
		 M38.2,428l-15.5,8.9C12.4,430.9,2.1,425-8.2,419.1c10.3-5.9,20.6-11.9,30.9-17.8c10.3,5.9,20.6,11.9,30.9,17.8L38.2,428z
		 M6.8,428.3l15.5,8.9C11.9,443.1,1.6,449.1-8.7,455c-10.3-5.9-20.6-11.9-30.9-17.8c10.3-5.9,20.6-11.9,30.9-17.8L6.8,428.3z
		 M6.8,464.5l15.5,8.9c-10.3,5.9-20.6,11.9-30.9,17.8c-10.3-5.9-20.6-11.9-30.9-17.8c10.3-5.9,20.6-11.9,30.9-17.8L6.8,464.5z
		 M6.8,500.8l15.5,8.9c-10.3,5.9-20.6,11.9-30.9,17.8c-10.3-5.9-20.6-11.9-30.9-17.8c10.3-5.9,20.6-11.9,30.9-17.8L6.8,500.8z
		 M6.8,537.1l15.5,8.9c-10.3,5.9-20.6,11.9-30.9,17.8c-10.3-5.9-20.6-11.9-30.9-17.8c10.3-5.9,20.6-11.9,30.9-17.8L6.8,537.1z
		 M6.8,573.3l15.5,8.9c-10.3,5.9-20.6,11.9-30.9,17.8c-10.3-5.9-20.6-11.9-30.9-17.8c10.3-5.9,20.6-11.9,30.9-17.8L6.8,573.3z
		 M7.3,591.5l15.5-8.9c10.3,5.9,20.6,11.9,30.9,17.8c-10.3,5.9-20.6,11.9-30.9,17.8c-10.3-5.9-20.6-11.9-30.9-17.8L7.3,591.5z
		 M38.7,591.2l-15.5-8.9c10.3-5.9,20.6-11.9,30.9-17.8c10.3,5.9,20.6,11.9,30.9,17.8c-10.3,5.9-20.6,11.9-30.9,17.8L38.7,591.2z
		 M70.1,591.5l15.5-8.9c10.3,5.9,20.6,11.9,30.9,17.8c-10.3,5.9-20.6,11.9-30.9,17.8c-10.3-5.9-20.6-11.9-30.9-17.8L70.1,591.5z
		 M101.5,591.2L86,582.3c10.3-5.9,20.6-11.9,30.9-17.8c10.3,5.9,20.6,11.9,30.9,17.8c-10.3,5.9-20.6,11.9-30.9,17.8L101.5,591.2z
		 M132.9,591.5l15.5-8.9c10.3,5.9,20.6,11.9,30.9,17.8c-10.3,5.9-20.6,11.9-30.9,17.8c-10.3-5.9-20.6-11.9-30.9-17.8L132.9,591.5z
		 M164.3,591.2l-15.5-8.9c10.3-5.9,20.6-11.9,30.9-17.8c10.3,5.9,20.6,11.9,30.9,17.8c-10.3,5.9-20.6,11.9-30.9,17.8L164.3,591.2z
		 M195.7,591.5l15.5-8.9c10.3,5.9,20.6,11.9,30.9,17.8c-10.3,5.9-20.6,11.9-30.9,17.8c-10.3-5.9-20.6-11.9-30.9-17.8L195.7,591.5z
		 M227.1,591.2l-15.5-8.9c10.3-5.9,20.6-11.9,30.9-17.8c10.3,5.9,20.6,11.9,30.9,17.8c-10.3,5.9-20.6,11.9-30.9,17.8L227.1,591.2z
		 M258.5,591.5l15.5-8.9c10.3,5.9,20.6,11.9,30.9,17.8c-10.3,5.9-20.6,11.9-30.9,17.8c-10.3-5.9-20.6-11.9-30.9-17.8L258.5,591.5z
		 M289.9,591.2l-15.5-8.9c10.3-5.9,20.6-11.9,30.9-17.8c10.3,5.9,20.6,11.9,30.9,17.8c-10.3,5.9-20.6,11.9-30.9,17.8L289.9,591.2z
		 M321.3,591.5l15.5-8.9c10.3,5.9,20.6,11.9,30.9,17.8c-10.3,5.9-20.6,11.9-30.9,17.8c-10.3-5.9-20.6-11.9-30.9-17.8L321.3,591.5z
		 M321.3,573l-15.5-8.9c10.3-5.9,20.6-11.9,30.9-17.8c10.3,5.9,20.6,11.9,30.9,17.8c-10.3,5.9-20.6,11.9-30.9,17.8L321.3,573z
		 M321.3,536.8l-15.5-8.9c10.3-5.9,20.6-11.9,30.9-17.8c10.3,5.9,20.6,11.9,30.9,17.8c-10.3,5.9-20.6,11.9-30.9,17.8L321.3,536.8z
		 M321.3,500.5l-15.5-8.9c10.3-5.9,20.6-11.9,30.9-17.8c10.3,5.9,20.6,11.9,30.9,17.8c-10.3,5.9-20.6,11.9-30.9,17.8L321.3,500.5z
		 M321.3,464.2l-15.5-8.9c10.3-5.9,20.6-11.9,30.9-17.8c10.3,5.9,20.6,11.9,30.9,17.8c-10.3,5.9-20.6,11.9-30.9,17.8L321.3,464.2z
		 M321.3,428l-15.5-8.9c10.3-5.9,20.6-11.9,30.9-17.8c10.3,5.9,20.6,11.9,30.9,17.8c-10.3,5.9-20.6,11.9-30.9,17.8L321.3,428z
		 M321.3,391.7l-15.5-8.9c10.3-5.9,20.6-11.9,30.9-17.8c10.3,5.9,20.6,11.9,30.9,17.8c-10.3,5.9-20.6,11.9-30.9,17.8L321.3,391.7z
		 M320.8,392l15.5,8.9c-10.3,5.9-20.6,11.9-30.9,17.8c-10.3-5.9-20.6-11.9-30.9-17.8c10.3-5.9,20.6-11.9,30.9-17.8L320.8,392z
		 M289.4,391.7l-15.5,8.9c-10.3-5.9-20.6-11.9-30.9-17.8c10.3-5.9,20.6-11.9,30.9-17.8c10.3,5.9,20.6,11.9,30.9,17.8L289.4,391.7z
		 M258,392l15.5,8.9c-10.3,5.9-20.6,11.9-30.9,17.8c-10.3-5.9-20.6-11.9-30.9-17.8c10.3-5.9,20.6-11.9,30.9-17.8L258,392z
		 M226.6,391.7l-15.5,8.9c-10.3-5.9-20.6-11.9-30.9-17.8c10.3-5.9,20.6-11.9,30.9-17.8c10.3,5.9,20.6,11.9,30.9,17.8L226.6,391.7z
		 M195.2,392l15.5,8.9c-10.3,5.9-20.6,11.9-30.9,17.8c-10.3-5.9-20.6-11.9-30.9-17.8c10.3-5.9,20.6-11.9,30.9-17.8L195.2,392z
		 M163.8,391.7l-15.5,8.9c-10.3-5.9-20.6-11.9-30.9-17.8c10.3-5.9,20.6-11.9,30.9-17.8c10.3,5.9,20.6,11.9,30.9,17.8L163.8,391.7z
		 M132.4,392l15.5,8.9c-10.3,5.9-20.6,11.9-30.9,17.8c-10.3-5.9-20.6-11.9-30.9-17.8c10.3-5.9,20.6-11.9,30.9-17.8L132.4,392z
		 M101,391.7l-15.5,8.9c-10.3-5.9-20.6-11.9-30.9-17.8c10.3-5.9,20.6-11.9,30.9-17.8c10.3,5.9,20.6,11.9,30.9,17.8L101,391.7z
		 M69.6,392l15.5,8.9c-10.3,5.9-20.6,11.9-30.9,17.8c-10.3-5.9-20.6-11.9-30.9-17.8c10.3-5.9,20.6-11.9,30.9-17.8L69.6,392z
		 M38.2,391.7l-15.5,8.9c-10.3-5.9-20.6-11.9-30.9-17.8c10.3-5.9,20.6-11.9,30.9-17.8c10.3,5.9,20.6,11.9,30.9,17.8L38.2,391.7z
		 M6.8,392l15.5,8.9c-10.3,5.9-20.6,11.9-30.9,17.8c-10.3-5.9-20.6-11.9-30.9-17.8C-29.3,395-19,389-8.7,383.1L6.8,392z
		 M-24.6,391.7l-15.5,8.9c-10.3-5.9-20.6-11.9-30.9-17.8c10.3-5.9,20.6-11.9,30.9-17.8c10.3,5.9,20.6,11.9,30.9,17.8L-24.6,391.7z
		 M-24.6,410.1l15.5,8.9c-10.3,5.9-20.6,11.9-30.9,17.8c-10.3-5.9-20.6-11.9-30.9-17.8c10.3-5.9,20.6-11.9,30.9-17.8L-24.6,410.1z
		 M-24.6,446.4l15.5,8.9c-10.3,5.9-20.6,11.9-30.9,17.8c-10.3-5.9-20.6-11.9-30.9-17.8c10.3-5.9,20.6-11.9,30.9-17.8L-24.6,446.4z
		 M-24.6,482.7l15.5,8.9c-10.3,5.9-20.6,11.9-30.9,17.8c-10.3-5.9-20.6-11.9-30.9-17.8c10.3-5.9,20.6-11.9,30.9-17.8L-24.6,482.7z
		 M-24.6,518.9l15.5,8.9c-10.3,5.9-20.6,11.9-30.9,17.8c-10.3-5.9-20.6-11.9-30.9-17.8c10.3-5.9,20.6-11.9,30.9-17.8L-24.6,518.9z
		 M-24.6,555.2l15.5,8.9c-10.3,5.9-20.6,11.9-30.9,17.8c-10.3-5.9-20.6-11.9-30.9-17.8c10.3-5.9,20.6-11.9,30.9-17.8L-24.6,555.2z
		 M-24.6,591.5l15.5,8.9c-10.3,5.9-20.6,11.9-30.9,17.8c-10.3-5.9-20.6-11.9-30.9-17.8c10.3-5.9,20.6-11.9,30.9-17.8L-24.6,591.5z
		 M-24.6,627.7l15.5,8.9c-10.3,5.9-20.6,11.9-30.9,17.8c-10.3-5.9-20.6-11.9-30.9-17.8c10.3-5.9,20.6-11.9,30.9-17.8L-24.6,627.7z
		 M-24.1,627.4l-15.5-8.9c10.3-5.9,20.6-11.9,30.9-17.8c10.3,5.9,20.6,11.9,30.9,17.8c-10.3,5.9-20.6,11.9-30.9,17.8L-24.1,627.4z
		 M7.3,627.7l15.5-8.9c10.3,5.9,20.6,11.9,30.9,17.8c-10.3,5.9-20.6,11.9-30.9,17.8c-10.3-5.9-20.6-11.9-30.9-17.8L7.3,627.7z
		 M38.7,627.4l-15.5-8.9c10.3-5.9,20.6-11.9,30.9-17.8c10.3,5.9,20.6,11.9,30.9,17.8c-10.3,5.9-20.6,11.9-30.9,17.8L38.7,627.4z
		 M70.1,627.7l15.5-8.9c10.3,5.9,20.6,11.9,30.9,17.8c-10.3,5.9-20.6,11.9-30.9,17.8c-10.3-5.9-20.6-11.9-30.9-17.8L70.1,627.7z
		 M101.5,627.4L86,618.5c10.3-5.9,20.6-11.9,30.9-17.8c10.3,5.9,20.6,11.9,30.9,17.8c-10.3,5.9-20.6,11.9-30.9,17.8L101.5,627.4z
		 M132.9,627.7l15.5-8.9c10.3,5.9,20.6,11.9,30.9,17.8c-10.3,5.9-20.6,11.9-30.9,17.8c-10.3-5.9-20.6-11.9-30.9-17.8L132.9,627.7z
		 M164.3,627.4l-15.5-8.9c10.3-5.9,20.6-11.9,30.9-17.8c10.3,5.9,20.6,11.9,30.9,17.8c-10.3,5.9-20.6,11.9-30.9,17.8L164.3,627.4z
		 M195.7,627.7l15.5-8.9c10.3,5.9,20.6,11.9,30.9,17.8c-10.3,5.9-20.6,11.9-30.9,17.8c-10.3-5.9-20.6-11.9-30.9-17.8L195.7,627.7z
		 M227.1,627.4l-15.5-8.9c10.3-5.9,20.6-11.9,30.9-17.8c10.3,5.9,20.6,11.9,30.9,17.8c-10.3,5.9-20.6,11.9-30.9,17.8L227.1,627.4z
		 M258.5,627.7l15.5-8.9c10.3,5.9,20.6,11.9,30.9,17.8c-10.3,5.9-20.6,11.9-30.9,17.8c-10.3-5.9-20.6-11.9-30.9-17.8L258.5,627.7z
		 M289.9,627.4l-15.5-8.9c10.3-5.9,20.6-11.9,30.9-17.8c10.3,5.9,20.6,11.9,30.9,17.8c-10.3,5.9-20.6,11.9-30.9,17.8L289.9,627.4z
		 M321.3,627.7l15.5-8.9c10.3,5.9,20.6,11.9,30.9,17.8c-10.3,5.9-20.6,11.9-30.9,17.8c-10.3-5.9-20.6-11.9-30.9-17.8L321.3,627.7z
		 M352.7,627.4l-15.5-8.9c10.3-5.9,20.6-11.9,30.9-17.8c10.3,5.9,20.6,11.9,30.9,17.8c-10.3,5.9-20.6,11.9-30.9,17.8L352.7,627.4z
		 M352.7,591.2l-15.5-8.9c10.3-5.9,20.6-11.9,30.9-17.8c10.3,5.9,20.6,11.9,30.9,17.8c-10.3,5.9-20.6,11.9-30.9,17.8L352.7,591.2z
		 M352.7,554.9l-15.5-8.9c10.3-5.9,20.6-11.9,30.9-17.8c10.3,5.9,20.6,11.9,30.9,17.8c-10.3,5.9-20.6,11.9-30.9,17.8L352.7,554.9z
		 M352.7,518.6l-15.5-8.9c10.3-5.9,20.6-11.9,30.9-17.8c10.3,5.9,20.6,11.9,30.9,17.8c-10.3,5.9-20.6,11.9-30.9,17.8L352.7,518.6z
		 M352.7,482.4l-15.5-8.9c10.3-5.9,20.6-11.9,30.9-17.8c10.3,5.9,20.6,11.9,30.9,17.8c-10.3,5.9-20.6,11.9-30.9,17.8L352.7,482.4z
		 M352.7,446.1l-15.5-8.9c10.3-5.9,20.6-11.9,30.9-17.8c10.3,5.9,20.6,11.9,30.9,17.8c-10.3,5.9-20.6,11.9-30.9,17.8L352.7,446.1z
		 M352.7,409.8l-15.5-8.9c10.3-5.9,20.6-11.9,30.9-17.8c10.3,5.9,20.6,11.9,30.9,17.8c-10.3,5.9-20.6,11.9-30.9,17.8L352.7,409.8z
		 M352.7,373.6l-15.5-8.9c10.3-5.9,20.6-11.9,30.9-17.8c10.3,5.9,20.6,11.9,30.9,17.8c-10.3,5.9-20.6,11.9-30.9,17.8L352.7,373.6z
		 M352.2,355.4l-15.5,8.9c-10.3-5.9-20.6-11.9-30.9-17.8c10.3-5.9,20.6-11.9,30.9-17.8c10.3,5.9,20.6,11.9,30.9,17.8L352.2,355.4z
		 M320.8,355.7l15.5,8.9c-10.3,5.9-20.6,11.9-30.9,17.8c-10.3-5.9-20.6-11.9-30.9-17.8c10.3-5.9,20.6-11.9,30.9-17.8L320.8,355.7z
		 M289.4,355.4l-15.5,8.9c-10.3-5.9-20.6-11.9-30.9-17.8c10.3-5.9,20.6-11.9,30.9-17.8c10.3,5.9,20.6,11.9,30.9,17.8L289.4,355.4z
		 M258,355.7l15.5,8.9c-10.3,5.9-20.6,11.9-30.9,17.8c-10.3-5.9-20.6-11.9-30.9-17.8c10.3-5.9,20.6-11.9,30.9-17.8L258,355.7z
		 M226.6,355.4l-15.5,8.9c-10.3-5.9-20.6-11.9-30.9-17.8c10.3-5.9,20.6-11.9,30.9-17.8c10.3,5.9,20.6,11.9,30.9,17.8L226.6,355.4z
		 M195.2,355.7l15.5,8.9c-10.3,5.9-20.6,11.9-30.9,17.8c-10.3-5.9-20.6-11.9-30.9-17.8c10.3-5.9,20.6-11.9,30.9-17.8L195.2,355.7z
		 M163.8,355.4l-15.5,8.9c-10.3-5.9-20.6-11.9-30.9-17.8c10.3-5.9,20.6-11.9,30.9-17.8c10.3,5.9,20.6,11.9,30.9,17.8L163.8,355.4z
		 M132.4,355.7l15.5,8.9c-10.3,5.9-20.6,11.9-30.9,17.8c-10.3-5.9-20.6-11.9-30.9-17.8c10.3-5.9,20.6-11.9,30.9-17.8L132.4,355.7z
		 M101,355.4l-15.5,8.9c-10.3-5.9-20.6-11.9-30.9-17.8c10.3-5.9,20.6-11.9,30.9-17.8c10.3,5.9,20.6,11.9,30.9,17.8L101,355.4z
		 M69.6,355.7l15.5,8.9c-10.3,5.9-20.6,11.9-30.9,17.8c-10.3-5.9-20.6-11.9-30.9-17.8c10.3-5.9,20.6-11.9,30.9-17.8L69.6,355.7z
		 M38.2,355.4l-15.5,8.9c-10.3-5.9-20.6-11.9-30.9-17.8c10.3-5.9,20.6-11.9,30.9-17.8c10.3,5.9,20.6,11.9,30.9,17.8L38.2,355.4z
		 M6.8,355.7l15.5,8.9c-10.3,5.9-20.6,11.9-30.9,17.8c-10.3-5.9-20.6-11.9-30.9-17.8c10.3-5.9,20.6-11.9,30.9-17.8L6.8,355.7z
		 M-24.6,355.4l-15.5,8.9c-10.3-5.9-20.6-11.9-30.9-17.8c10.3-5.9,20.6-11.9,30.9-17.8c10.3,5.9,20.6,11.9,30.9,17.8L-24.6,355.4z
		 M-56.1,355.7l15.5,8.9c-10.3,5.9-20.6,11.9-30.9,17.8c-10.3-5.9-20.6-11.9-30.9-17.8c10.3-5.9,20.6-11.9,30.9-17.8L-56.1,355.7z
		 M-56.1,392l15.5,8.9c-10.3,5.9-20.6,11.9-30.9,17.8c-10.3-5.9-20.6-11.9-30.9-17.8c10.3-5.9,20.6-11.9,30.9-17.8L-56.1,392z
		 M-56.1,428.3l15.5,8.9c-10.3,5.9-20.6,11.9-30.9,17.8c-10.3-5.9-20.6-11.9-30.9-17.8c10.3-5.9,20.6-11.9,30.9-17.8L-56.1,428.3z
		 M-56.1,464.5l15.5,8.9c-10.3,5.9-20.6,11.9-30.9,17.8c-10.3-5.9-20.6-11.9-30.9-17.8c10.3-5.9,20.6-11.9,30.9-17.8L-56.1,464.5z
		 M-56.1,500.8l15.5,8.9c-10.3,5.9-20.6,11.9-30.9,17.8c-10.3-5.9-20.6-11.9-30.9-17.8c10.3-5.9,20.6-11.9,30.9-17.8L-56.1,500.8z
		 M-56.1,537.1l15.5,8.9c-10.3,5.9-20.6,11.9-30.9,17.8c-10.3-5.9-20.6-11.9-30.9-17.8c10.3-5.9,20.6-11.9,30.9-17.8L-56.1,537.1z
		 M-56.1,573.3l15.5,8.9c-10.3,5.9-20.6,11.9-30.9,17.8c-10.3-5.9-20.6-11.9-30.9-17.8c10.3-5.9,20.6-11.9,30.9-17.8L-56.1,573.3z
		 M-56.1,609.6l15.5,8.9c-10.3,5.9-20.6,11.9-30.9,17.8c-10.3-5.9-20.6-11.9-30.9-17.8c10.3-5.9,20.6-11.9,30.9-17.8L-56.1,609.6z
		 M-56,645.9l15.5,8.9c-10.3,5.9-20.6,11.9-30.9,17.8c-10.3-5.9-20.6-11.9-30.9-17.8c10.3-5.9,20.6-11.9,30.9-17.8L-56,645.9z
		 M-55.5,664l15.5-8.9c10.3,5.9,20.6,11.9,30.9,17.8c-10.3,5.9-20.6,11.9-30.9,17.8c-10.3-5.9-20.6-11.9-30.9-17.8L-55.5,664z
		 M-24.1,663.7l-15.5-8.9c10.3-5.9,20.6-11.9,30.9-17.8c10.3,5.9,20.6,11.9,30.9,17.8c-10.3,5.9-20.6,11.9-30.9,17.8L-24.1,663.7z
		 M7.3,664l15.5-8.9C33,661,43.3,667,53.6,672.9c-10.3,5.9-20.6,11.9-30.9,17.8c-10.3-5.9-20.6-11.9-30.9-17.8L7.3,664z M38.7,663.7
		l-15.5-8.9c10.3-5.9,20.6-11.9,30.9-17.8c10.3,5.9,20.6,11.9,30.9,17.8c-10.3,5.9-20.6,11.9-30.9,17.8L38.7,663.7z M70.1,664
		l15.5-8.9c10.3,5.9,20.6,11.9,30.9,17.8c-10.3,5.9-20.6,11.9-30.9,17.8c-10.3-5.9-20.6-11.9-30.9-17.8L70.1,664z M101.5,663.7
		L86,654.8c10.3-5.9,20.6-11.9,30.9-17.8c10.3,5.9,20.6,11.9,30.9,17.8c-10.3,5.9-20.6,11.9-30.9,17.8L101.5,663.7z M132.9,664
		l15.5-8.9c10.3,5.9,20.6,11.9,30.9,17.8c-10.3,5.9-20.6,11.9-30.9,17.8c-10.3-5.9-20.6-11.9-30.9-17.8L132.9,664z M164.3,663.7
		l-15.5-8.9c10.3-5.9,20.6-11.9,30.9-17.8c10.3,5.9,20.6,11.9,30.9,17.8c-10.3,5.9-20.6,11.9-30.9,17.8L164.3,663.7z M195.7,664
		l15.5-8.9c10.3,5.9,20.6,11.9,30.9,17.8c-10.3,5.9-20.6,11.9-30.9,17.8c-10.3-5.9-20.6-11.9-30.9-17.8L195.7,664z M227.1,663.7
		l-15.5-8.9c10.3-5.9,20.6-11.9,30.9-17.8c10.3,5.9,20.6,11.9,30.9,17.8c-10.3,5.9-20.6,11.9-30.9,17.8L227.1,663.7z M258.5,664
		l15.5-8.9c10.3,5.9,20.6,11.9,30.9,17.8c-10.3,5.9-20.6,11.9-30.9,17.8c-10.3-5.9-20.6-11.9-30.9-17.8L258.5,664z M289.9,663.7
		l-15.5-8.9c10.3-5.9,20.6-11.9,30.9-17.8c10.3,5.9,20.6,11.9,30.9,17.8c-10.3,5.9-20.6,11.9-30.9,17.8L289.9,663.7z M321.3,664
		l15.5-8.9c10.3,5.9,20.6,11.9,30.9,17.8c-10.3,5.9-20.6,11.9-30.9,17.8c-10.3-5.9-20.6-11.9-30.9-17.8L321.3,664z M352.7,663.7
		l-15.5-8.9c10.3-5.9,20.6-11.9,30.9-17.8c10.3,5.9,20.6,11.9,30.9,17.8c-10.3,5.9-20.6,11.9-30.9,17.8L352.7,663.7z M384.2,664
		l15.5-8.9c10.3,5.9,20.6,11.9,30.9,17.8c-10.3,5.9-20.6,11.9-30.9,17.8c-10.3-5.9-20.6-11.9-30.9-17.8L384.2,664z M384.2,645.6
		l-15.5-8.9c10.3-5.9,20.6-11.9,30.9-17.8c10.3,5.9,20.6,11.9,30.9,17.8c-10.3,5.9-20.6,11.9-30.9,17.8L384.2,645.6z M384.2,609.3
		l-15.5-8.9c10.3-5.9,20.6-11.9,30.9-17.8c10.3,5.9,20.6,11.9,30.9,17.8c-10.3,5.9-20.6,11.9-30.9,17.8L384.2,609.3z M384.2,573
		l-15.5-8.9c10.3-5.9,20.6-11.9,30.9-17.8c10.3,5.9,20.6,11.9,30.9,17.8c-10.3,5.9-20.6,11.9-30.9,17.8L384.2,573z M384.2,536.8
		l-15.5-8.9c10.3-5.9,20.6-11.9,30.9-17.8c10.3,5.9,20.6,11.9,30.9,17.8c-10.3,5.9-20.6,11.9-30.9,17.8L384.2,536.8z M384.2,500.5
		l-15.5-8.9c10.3-5.9,20.6-11.9,30.9-17.8c10.3,5.9,20.6,11.9,30.9,17.8c-10.3,5.9-20.6,11.9-30.9,17.8L384.2,500.5z M384.1,464.2
		l-15.5-8.9c10.3-5.9,20.6-11.9,30.9-17.8c10.3,5.9,20.6,11.9,30.9,17.8c-10.3,5.9-20.6,11.9-30.9,17.8L384.1,464.2z M384.1,428
		l-15.5-8.9c10.3-5.9,20.6-11.9,30.9-17.8c10.3,5.9,20.6,11.9,30.9,17.8c-10.3,5.9-20.6,11.9-30.9,17.8L384.1,428z M384.1,391.7
		l-15.5-8.9c10.3-5.9,20.6-11.9,30.9-17.8c10.3,5.9,20.6,11.9,30.9,17.8c-10.3,5.9-20.6,11.9-30.9,17.8L384.1,391.7z M384.1,355.4
		l-15.5-8.9c10.3-5.9,20.6-11.9,30.9-17.8c10.3,5.9,20.6,11.9,30.9,17.8c-10.3,5.9-20.6,11.9-30.9,17.8L384.1,355.4z M383.6,319.5
		l15.5,8.9c-10.3,5.9-20.6,11.9-30.9,17.8c-10.3-5.9-20.6-11.9-30.9-17.8c10.3-5.9,20.6-11.9,30.9-17.8L383.6,319.5z M321.3,301.3
		l15.5-8.9c10.3,5.9,20.6,11.9,30.9,17.8c-10.3,5.9-20.6,11.9-30.9,17.8c-10.3-5.9-20.6-11.9-30.9-17.8L321.3,301.3z M320.8,319.5
		l15.5,8.9c-10.3,5.9-20.6,11.9-30.9,17.8c-10.3-5.9-20.6-11.9-30.9-17.8c10.3-5.9,20.6-11.9,30.9-17.8L320.8,319.5z M258.5,301.3
		l15.5-8.9c10.3,5.9,20.6,11.9,30.9,17.8c-10.3,5.9-20.6,11.9-30.9,17.8c-10.3-5.9-20.6-11.9-30.9-17.8L258.5,301.3z M258,319.5
		l15.5,8.9c-10.3,5.9-20.6,11.9-30.9,17.8c-10.3-5.9-20.6-11.9-30.9-17.8c10.3-5.9,20.6-11.9,30.9-17.8L258,319.5z M195.7,301.3
		l15.5-8.9c10.3,5.9,20.6,11.9,30.9,17.8c-10.3,5.9-20.6,11.9-30.9,17.8c-10.3-5.9-20.6-11.9-30.9-17.8L195.7,301.3z M195.2,319.5
		l15.5,8.9c-10.3,5.9-20.6,11.9-30.9,17.8c-10.3-5.9-20.6-11.9-30.9-17.8c10.3-5.9,20.6-11.9,30.9-17.8L195.2,319.5z M132.9,301.3
		l15.5-8.9c10.3,5.9,20.6,11.9,30.9,17.8c-10.3,5.9-20.6,11.9-30.9,17.8c-10.3-5.9-20.6-11.9-30.9-17.8L132.9,301.3z M132.4,319.5
		l15.5,8.9c-10.3,5.9-20.6,11.9-30.9,17.8c-10.3-5.9-20.6-11.9-30.9-17.8c10.3-5.9,20.6-11.9,30.9-17.8L132.4,319.5z M70.1,301.3
		l15.5-8.9c10.3,5.9,20.6,11.9,30.9,17.8c-10.3,5.9-20.6,11.9-30.9,17.8c-10.3-5.9-20.6-11.9-30.9-17.8L70.1,301.3z M69.6,319.5
		l15.5,8.9c-10.3,5.9-20.6,11.9-30.9,17.8c-10.3-5.9-20.6-11.9-30.9-17.8c10.3-5.9,20.6-11.9,30.9-17.8L69.6,319.5z M7.3,301.3
		l15.5-8.9c10.3,5.9,20.6,11.9,30.9,17.8c-10.3,5.9-20.6,11.9-30.9,17.8c-10.3-5.9-20.6-11.9-30.9-17.8L7.3,301.3z M6.8,319.5
		l15.5,8.9c-10.3,5.9-20.6,11.9-30.9,17.8c-10.3-5.9-20.6-11.9-30.9-17.8c10.3-5.9,20.6-11.9,30.9-17.8L6.8,319.5z M-55.6,301.3
		l15.5-8.9c10.3,5.9,20.6,11.9,30.9,17.8c-10.3,5.9-20.6,11.9-30.9,17.8c-10.3-5.9-20.6-11.9-30.9-17.8L-55.6,301.3z M-56.1,319.5
		l15.5,8.9c-10.3,5.9-20.6,11.9-30.9,17.8c-10.3-5.9-20.6-11.9-30.9-17.8c10.3-5.9,20.6-11.9,30.9-17.8L-56.1,319.5z M-118.4,319.2
		l-15.5-8.9c10.3-5.9,20.6-11.9,30.9-17.8c10.3,5.9,20.6,11.9,30.9,17.8c-10.3,5.9-20.6,11.9-30.9,17.8L-118.4,319.2z M-118.4,355.4
		l-15.5-8.9c10.3-5.9,20.6-11.9,30.9-17.8c10.3,5.9,20.6,11.9,30.9,17.8c-10.3,5.9-20.6,11.9-30.9,17.8L-118.4,355.4z M-118.4,391.7
		l-15.5-8.9c10.3-5.9,20.6-11.9,30.9-17.8c10.3,5.9,20.6,11.9,30.9,17.8c-10.3,5.9-20.6,11.9-30.9,17.8L-118.4,391.7z M-118.4,428
		l-15.5-8.9c10.3-5.9,20.6-11.9,30.9-17.8c10.3,5.9,20.6,11.9,30.9,17.8c-10.3,5.9-20.6,11.9-30.9,17.8L-118.4,428z M-118.4,464.2
		l-15.5-8.9c10.3-5.9,20.6-11.9,30.9-17.8c10.3,5.9,20.6,11.9,30.9,17.8c-10.3,5.9-20.6,11.9-30.9,17.8L-118.4,464.2z M-118.4,500.5
		l-15.5-8.9c10.3-5.9,20.6-11.9,30.9-17.8c10.3,5.9,20.6,11.9,30.9,17.8c-10.3,5.9-20.6,11.9-30.9,17.8L-118.4,500.5z M-118.4,536.8
		l-15.5-8.9c10.3-5.9,20.6-11.9,30.9-17.8c10.3,5.9,20.6,11.9,30.9,17.8c-10.3,5.9-20.6,11.9-30.9,17.8L-118.4,536.8z M-118.4,573
		l-15.5-8.9c10.3-5.9,20.6-11.9,30.9-17.8c10.3,5.9,20.6,11.9,30.9,17.8c-10.3,5.9-20.6,11.9-30.9,17.8L-118.4,573z M-118.4,609.3
		l-15.5-8.9c10.3-5.9,20.6-11.9,30.9-17.8c10.3,5.9,20.6,11.9,30.9,17.8c-10.3,5.9-20.6,11.9-30.9,17.8L-118.4,609.3z M-118.4,645.6
		l-15.5-8.9c10.3-5.9,20.6-11.9,30.9-17.8c10.3,5.9,20.6,11.9,30.9,17.8c-10.3,5.9-20.6,11.9-30.9,17.8L-118.4,645.6z M-118.4,681.8
		l-15.5-8.9c10.3-5.9,20.6-11.9,30.9-17.8C-92.6,661-82.3,667-72,672.9c-10.3,5.9-20.6,11.9-30.9,17.8L-118.4,681.8z M-87.5,718.1
		l-15.5,8.9c-10.3-5.9-20.6-11.9-30.9-17.8c10.3-5.9,20.6-11.9,30.9-17.8c10.3,5.9,20.6,11.9,30.9,17.8L-87.5,718.1z M-87,700
		l-15.5-8.9c10.3-5.9,20.6-11.9,30.9-17.8c10.3,5.9,20.6,11.9,30.9,17.8c-10.3,5.9-20.6,11.9-30.9,17.8L-87,700z M-24.6,718.1
		l-15.5,8.9c-10.3-5.9-20.6-11.9-30.9-17.8c10.3-5.9,20.6-11.9,30.9-17.8c10.3,5.9,20.6,11.9,30.9,17.8L-24.6,718.1z M-24.1,700
		l-15.5-8.9c10.3-5.9,20.6-11.9,30.9-17.8c10.3,5.9,20.6,11.9,30.9,17.8C11.9,697,1.6,702.9-8.7,708.9L-24.1,700z M38.2,718.1
		L22.7,727c-10.3-5.9-20.6-11.9-30.9-17.8c10.3-5.9,20.6-11.9,30.9-17.8c10.3,5.9,20.6,11.9,30.9,17.8L38.2,718.1z M38.7,700
		L23.2,691c10.3-5.9,20.6-11.9,30.9-17.8c10.3,5.9,20.6,11.9,30.9,17.8c-10.3,5.9-20.6,11.9-30.9,17.8L38.7,700z M101,718.1
		L85.5,727c-10.3-5.9-20.6-11.9-30.9-17.8c10.3-5.9,20.6-11.9,30.9-17.8c10.3,5.9,20.6,11.9,30.9,17.8L101,718.1z M101.5,700L86,691
		c10.3-5.9,20.6-11.9,30.9-17.8c10.3,5.9,20.6,11.9,30.9,17.8c-10.3,5.9-20.6,11.9-30.9,17.8L101.5,700z M163.8,718.1l-15.5,8.9
		c-10.3-5.9-20.6-11.9-30.9-17.8c10.3-5.9,20.6-11.9,30.9-17.8c10.3,5.9,20.6,11.9,30.9,17.8L163.8,718.1z M164.3,700l-15.5-8.9
		c10.3-5.9,20.6-11.9,30.9-17.8c10.3,5.9,20.6,11.9,30.9,17.8c-10.3,5.9-20.6,11.9-30.9,17.8L164.3,700z M226.6,718.1l-15.5,8.9
		c-10.3-5.9-20.6-11.9-30.9-17.8c10.3-5.9,20.6-11.9,30.9-17.8c10.3,5.9,20.6,11.9,30.9,17.8L226.6,718.1z M227.1,700l-15.5-8.9
		c10.3-5.9,20.6-11.9,30.9-17.8c10.3,5.9,20.6,11.9,30.9,17.8c-10.3,5.9-20.6,11.9-30.9,17.8L227.1,700z M289.4,718.1L274,727
		c-10.3-5.9-20.6-11.9-30.9-17.8c10.3-5.9,20.6-11.9,30.9-17.8c10.3,5.9,20.6,11.9,30.9,17.8L289.4,718.1z M289.9,700l-15.5-8.9
		c10.3-5.9,20.6-11.9,30.9-17.8c10.3,5.9,20.6,11.9,30.9,17.8c-10.3,5.9-20.6,11.9-30.9,17.8L289.9,700z M352.2,718.1l-15.5,8.9
		c-10.3-5.9-20.6-11.9-30.9-17.8c10.3-5.9,20.6-11.9,30.9-17.8c10.3,5.9,20.6,11.9,30.9,17.8L352.2,718.1z M352.7,700l-15.5-8.9
		c10.3-5.9,20.6-11.9,30.9-17.8c10.3,5.9,20.6,11.9,30.9,17.8c-10.3,5.9-20.6,11.9-30.9,17.8L352.7,700z M415.1,718.1l-15.5,8.9
		c-10.3-5.9-20.6-11.9-30.9-17.8c10.3-5.9,20.6-11.9,30.9-17.8c10.3,5.9,20.6,11.9,30.9,17.8L415.1,718.1z M446.5,682.1l15.5,8.9
		c-10.3,5.9-20.6,11.9-30.9,17.8c-10.3-5.9-20.6-11.9-30.9-17.8c10.3-5.9,20.6-11.9,30.9-17.8L446.5,682.1z M446.5,645.9l15.5,8.9
		c-10.3,5.9-20.6,11.9-30.9,17.8c-10.3-5.9-20.6-11.9-30.9-17.8c10.3-5.9,20.6-11.9,30.9-17.8L446.5,645.9z M446.5,609.6l15.5,8.9
		c-10.3,5.9-20.6,11.9-30.9,17.8c-10.3-5.9-20.6-11.9-30.9-17.8c10.3-5.9,20.6-11.9,30.9-17.8L446.5,609.6z M446.5,573.3l15.5,8.9
		c-10.3,5.9-20.6,11.9-30.9,17.8c-10.3-5.9-20.6-11.9-30.9-17.8c10.3-5.9,20.6-11.9,30.9-17.8L446.5,573.3z M446.5,537.1l15.5,8.9
		c-10.3,5.9-20.6,11.9-30.9,17.8c-10.3-5.9-20.6-11.9-30.9-17.8c10.3-5.9,20.6-11.9,30.9-17.8L446.5,537.1z M446.5,500.8l15.5,8.9
		c-10.3,5.9-20.6,11.9-30.9,17.8c-10.3-5.9-20.6-11.9-30.9-17.8c10.3-5.9,20.6-11.9,30.9-17.8L446.5,500.8z M446.5,464.5l15.5,8.9
		c-10.3,5.9-20.6,11.9-30.9,17.8c-10.3-5.9-20.6-11.9-30.9-17.8c10.3-5.9,20.6-11.9,30.9-17.8L446.5,464.5z M446.5,428.3l15.5,8.9
		c-10.3,5.9-20.6,11.9-30.9,17.8c-10.3-5.9-20.6-11.9-30.9-17.8c10.3-5.9,20.6-11.9,30.9-17.8L446.5,428.3z M446.5,392l15.5,8.9
		c-10.3,5.9-20.6,11.9-30.9,17.8c-10.3-5.9-20.6-11.9-30.9-17.8c10.3-5.9,20.6-11.9,30.9-17.8L446.5,392z M446.5,355.7l15.5,8.9
		c-10.3,5.9-20.6,11.9-30.9,17.8c-10.3-5.9-20.6-11.9-30.9-17.8c10.3-5.9,20.6-11.9,30.9-17.8L446.5,355.7z M446.5,319.5l15.5,8.9
		c-10.3,5.9-20.6,11.9-30.9,17.8c-10.3-5.9-20.6-11.9-30.9-17.8c10.3-5.9,20.6-11.9,30.9-17.8L446.5,319.5z"/>
</g>
</svg>
