<?xml version="1.0" encoding="utf-8"?>
<!-- Generator: Adobe Illustrator 22.0.1, SVG Export Plug-In . SVG Version: 6.00 Build 0)  -->
<svg version="1.1" id="Layer_1" xmlns="http://www.w3.org/2000/svg" xmlns:xlink="http://www.w3.org/1999/xlink" x="0px" y="0px"
	 viewBox="0 0 320 320" style="enable-background:new 0 0 320 320;" xml:space="preserve">
<style type="text/css">
	.st0{fill:#E8E8E8;}
	.st1{fill:#6B30B7;}
	.st2{fill:#825FC0;}
	.st3{fill:#CFC3E8;}
	.st4{fill:#E6E6E6;}
	.st5{fill:#F2F2F2;}
	.st6{fill:#291347;}
	.st7{fill:#FFFFFF;stroke:#6B30B7;stroke-width:23.2527;stroke-miterlimit:10;}
	.st8{fill:#FFFFFF;}
	.st9{opacity:0.15;}
	.st10{opacity:0.1;fill:#6B30B7;}
	.st11{opacity:0.3;fill:#6B30B7;}
	.st12{opacity:0.6;fill:#6B30B7;}
	.st13{opacity:0.8;fill:#6B30B7;}
	.st14{fill:none;stroke:#6B30B7;stroke-width:3;stroke-miterlimit:10;}
	.st15{fill:#E11F21;}
	.st16{fill:#0B6FB6;}
	.st17{fill:#646464;}
	.st18{fill:url(#path1948_1_);}
	.st19{fill:url(#path1950_1_);}
	.st20{opacity:0.4438;fill:url(#path1894_1_);enable-background:new    ;}
	.st21{fill:#007ACC;}
	.st22{fill:#00599C;}
	.st23{fill:#004482;}
	.st24{fill:#659AD2;}
	.st25{fill:#A9B9CB;}
	.st26{fill:#7F8B99;}
	.st27{fill:none;stroke:#E6E6E6;stroke-miterlimit:10;}
	.st28{clip-path:url(#SVGID_3_);}
	.st29{opacity:0.3;fill:#291347;}
	.st30{opacity:0.2;}
	.st31{clip-path:url(#SVGID_6_);}
	.st32{fill:#FAFBFB;}
	.st33{fill:url(#SVGID_7_);}
	.st34{fill:url(#SVGID_8_);}
	.st35{fill:#FFBE98;}
	.st36{fill:url(#SVGID_9_);}
	.st37{clip-path:url(#SVGID_11_);fill:#F2F2F2;}
	.st38{fill:#FFA726;}
	.st39{fill:#263238;}
	.st40{clip-path:url(#SVGID_14_);}
	.st41{filter:url(#Adobe_OpacityMaskFilter);}
	.st42{filter:url(#Adobe_OpacityMaskFilter_1_);}
	.st43{mask:url(#SVGID_15_);fill:url(#SVGID_16_);}
	.st44{opacity:0.24;fill:#CFC3E8;}
	.st45{opacity:0.29;}
	.st46{fill:none;stroke:#FFFFFF;stroke-width:2;stroke-miterlimit:10;}
	.st47{opacity:0.7;}
	.st48{opacity:0.4;fill:url(#SVGID_17_);}
	.st49{opacity:0.4;}
	.st50{opacity:0.4;fill:url(#SVGID_18_);}
	.st51{fill:#312A91;}
	.st52{opacity:0.9;}
	.st53{opacity:0.4;fill:#FFFFFF;}
	.st54{opacity:0.4;fill:url(#SVGID_19_);}
	.st55{opacity:0.4;fill:url(#SVGID_20_);}
	.st56{opacity:0.7;fill:#291347;}
	.st57{opacity:0.7;fill:#825FC0;}
	.st58{opacity:0.7;fill:#6B30B7;}
	.st59{opacity:0.3;fill:#42E8E0;}
	.st60{opacity:0.4;fill:url(#SVGID_21_);}
	.st61{opacity:0.3;fill:#825FC0;}
	.st62{opacity:0.3;fill:#CFC3E8;}
	.st63{opacity:0.5;fill:#F2F2F2;}
	.st64{opacity:0.5;fill:#CFC3E8;}
	.st65{opacity:0.7;fill:url(#SVGID_22_);}
	.st66{opacity:0.9;fill:#FFFFFF;}
	.st67{opacity:0.3;fill:#FFFFFF;}
	.st68{opacity:0.2;fill:#FFFFFF;}
	.st69{opacity:0.4;fill:url(#SVGID_23_);}
	.st70{opacity:0.4;fill:url(#SVGID_24_);}
	.st71{opacity:0.4;fill:url(#SVGID_25_);}
	.st72{opacity:0.4;fill:url(#SVGID_26_);}
	.st73{opacity:0.4;fill:url(#SVGID_27_);}
	.st74{opacity:0.7;fill:url(#SVGID_28_);}
	.st75{opacity:0.4;fill:url(#SVGID_29_);}
	.st76{opacity:0.4;fill:url(#SVGID_30_);}
	.st77{opacity:0.4;fill:url(#SVGID_31_);}
	.st78{opacity:0.4;fill:url(#SVGID_32_);}
	.st79{opacity:0.4;fill:url(#SVGID_33_);}
	.st80{opacity:0.7;fill:url(#SVGID_34_);}
	.st81{opacity:0.4;fill:url(#SVGID_35_);}
	.st82{opacity:0.4;fill:url(#SVGID_36_);}
	.st83{opacity:0.4;fill:url(#SVGID_37_);}
	.st84{opacity:0.4;fill:url(#SVGID_38_);}
	.st85{opacity:0.4;fill:url(#SVGID_39_);}
	.st86{opacity:0.7;fill:url(#SVGID_40_);}
	.st87{opacity:0.4;fill:url(#SVGID_41_);}
	.st88{opacity:0.4;fill:url(#SVGID_42_);}
	.st89{opacity:0.4;fill:url(#SVGID_43_);}
	.st90{opacity:0.4;fill:url(#SVGID_44_);}
	.st91{opacity:0.4;fill:url(#SVGID_45_);}
	.st92{opacity:0.7;fill:url(#SVGID_46_);}
	.st93{opacity:0.4;fill:url(#SVGID_47_);}
	.st94{opacity:0.4;fill:url(#SVGID_48_);}
	.st95{opacity:0.4;fill:url(#SVGID_49_);}
	.st96{opacity:0.4;fill:url(#SVGID_50_);}
	.st97{opacity:0.4;fill:url(#SVGID_51_);}
	.st98{opacity:0.7;fill:url(#SVGID_52_);}
	.st99{opacity:0.48;fill:url(#SVGID_53_);}
	.st100{opacity:0.48;fill:url(#SVGID_54_);}
	.st101{opacity:5.000000e-02;}
	.st102{clip-path:url(#SVGID_57_);}
	.st103{opacity:0.75;}
	.st104{clip-path:url(#SVGID_60_);}
	.st105{filter:url(#Adobe_OpacityMaskFilter_2_);}
	.st106{filter:url(#Adobe_OpacityMaskFilter_3_);}
	.st107{mask:url(#SVGID_61_);fill:url(#SVGID_62_);}
	.st108{opacity:0.4;fill:url(#SVGID_63_);}
	.st109{opacity:0.4;fill:url(#SVGID_64_);}
	.st110{opacity:0.4;fill:url(#SVGID_65_);}
	.st111{opacity:0.4;fill:url(#SVGID_66_);}
	.st112{opacity:0.4;fill:url(#SVGID_67_);}
	.st113{opacity:0.7;fill:url(#SVGID_68_);}
	.st114{opacity:0.4;fill:url(#SVGID_69_);}
	.st115{opacity:0.4;fill:url(#SVGID_70_);}
	.st116{opacity:0.4;fill:url(#SVGID_71_);}
	.st117{opacity:0.4;fill:url(#SVGID_72_);}
	.st118{opacity:0.4;fill:url(#SVGID_73_);}
	.st119{opacity:0.7;fill:url(#SVGID_74_);}
	.st120{opacity:0.4;fill:url(#SVGID_75_);}
	.st121{opacity:0.4;fill:url(#SVGID_76_);}
	.st122{opacity:0.4;fill:url(#SVGID_77_);}
	.st123{opacity:0.4;fill:url(#SVGID_78_);}
	.st124{opacity:0.4;fill:url(#SVGID_79_);}
	.st125{opacity:0.7;fill:url(#SVGID_80_);}
	.st126{opacity:0.4;fill:url(#SVGID_81_);}
	.st127{opacity:0.4;fill:url(#SVGID_82_);}
	.st128{opacity:0.4;fill:url(#SVGID_83_);}
	.st129{opacity:0.4;fill:url(#SVGID_84_);}
	.st130{opacity:0.4;fill:url(#SVGID_85_);}
	.st131{opacity:0.7;fill:url(#SVGID_86_);}
	.st132{opacity:0.4;fill:url(#SVGID_87_);}
	.st133{opacity:0.4;fill:url(#SVGID_88_);}
	.st134{opacity:0.4;fill:url(#SVGID_89_);}
	.st135{opacity:0.4;fill:url(#SVGID_90_);}
	.st136{opacity:0.4;fill:url(#SVGID_91_);}
	.st137{opacity:0.7;fill:url(#SVGID_92_);}
	.st138{opacity:0.4;fill:url(#SVGID_93_);}
	.st139{opacity:0.4;fill:url(#SVGID_94_);}
	.st140{opacity:0.4;fill:url(#SVGID_95_);}
	.st141{opacity:0.4;fill:url(#SVGID_96_);}
	.st142{opacity:0.4;fill:url(#SVGID_97_);}
	.st143{opacity:0.7;fill:url(#SVGID_98_);}
	.st144{opacity:0.48;fill:url(#SVGID_99_);}
	.st145{opacity:0.48;fill:url(#SVGID_100_);}
	.st146{clip-path:url(#SVGID_103_);}
	.st147{clip-path:url(#SVGID_106_);}
	.st148{fill:none;stroke:#CFC3E8;stroke-width:5;stroke-miterlimit:10;}
	.st149{opacity:0.76;fill:#291347;}
	.st150{filter:url(#Adobe_OpacityMaskFilter_4_);}
	.st151{filter:url(#Adobe_OpacityMaskFilter_5_);}
	.st152{clip-path:url(#SVGID_109_);mask:url(#SVGID_110_);fill:url(#SVGID_111_);}
	.st153{opacity:0.24;clip-path:url(#SVGID_109_);fill:#CFC3E8;}
	.st154{opacity:0.29;clip-path:url(#SVGID_109_);}
	.st155{clip-path:url(#SVGID_109_);}
	.st156{opacity:0.4;fill:url(#SVGID_112_);}
	.st157{opacity:0.4;fill:url(#SVGID_113_);}
	.st158{opacity:0.4;fill:url(#SVGID_114_);}
	.st159{opacity:0.4;fill:url(#SVGID_115_);}
	.st160{opacity:0.4;fill:url(#SVGID_116_);}
	.st161{opacity:0.7;fill:url(#SVGID_117_);}
	.st162{opacity:0.4;fill:url(#SVGID_118_);}
	.st163{opacity:0.4;fill:url(#SVGID_119_);}
	.st164{opacity:0.4;fill:url(#SVGID_120_);}
	.st165{opacity:0.4;fill:url(#SVGID_121_);}
	.st166{opacity:0.4;fill:url(#SVGID_122_);}
	.st167{opacity:0.7;fill:url(#SVGID_123_);}
	.st168{opacity:0.4;fill:url(#SVGID_124_);}
	.st169{opacity:0.4;fill:url(#SVGID_125_);}
	.st170{opacity:0.4;fill:url(#SVGID_126_);}
	.st171{opacity:0.4;fill:url(#SVGID_127_);}
	.st172{opacity:0.4;fill:url(#SVGID_128_);}
	.st173{opacity:0.7;fill:url(#SVGID_129_);}
	.st174{opacity:0.4;fill:url(#SVGID_130_);}
	.st175{opacity:0.4;fill:url(#SVGID_131_);}
	.st176{opacity:0.4;fill:url(#SVGID_132_);}
	.st177{opacity:0.4;fill:url(#SVGID_133_);}
	.st178{opacity:0.4;fill:url(#SVGID_134_);}
	.st179{opacity:0.7;fill:url(#SVGID_135_);}
	.st180{opacity:0.75;clip-path:url(#SVGID_109_);}
	.st181{fill:none;stroke:#CFC3E8;stroke-width:4.9727;stroke-miterlimit:10;}
	.st182{opacity:0.4;fill:url(#SVGID_136_);}
	.st183{opacity:0.4;fill:url(#SVGID_137_);}
	.st184{opacity:0.4;fill:url(#SVGID_138_);}
	.st185{opacity:0.4;fill:url(#SVGID_139_);}
	.st186{opacity:0.4;fill:url(#SVGID_140_);}
	.st187{opacity:0.7;fill:url(#SVGID_141_);}
	.st188{clip-path:url(#SVGID_144_);fill:url(#);}
	.st189{clip-path:url(#SVGID_144_);}
	.st190{opacity:0.1;fill:#CFC3E8;}
	.st191{fill:#56AEEC;}
	.st192{opacity:0.65;fill:#2C65CC;}
	.st193{clip-path:url(#SVGID_147_);}
	.st194{fill:#D4DBD1;}
	.st195{fill:#CCD3C8;}
	.st196{clip-path:url(#SVGID_150_);}
	.st197{fill:none;stroke:#291347;stroke-width:1.7941;stroke-linecap:round;stroke-linejoin:round;stroke-miterlimit:10;}
	.st198{fill:none;stroke:#825FC0;stroke-width:1.7941;stroke-linecap:round;stroke-linejoin:round;stroke-miterlimit:10;}
	.st199{opacity:0.18;fill:#6F00FF;}
	.st200{fill:#FFDD92;stroke:#291347;stroke-width:7.1763;stroke-miterlimit:10;}
	.st201{fill:#CFC3E8;stroke:#291347;stroke-width:7.1763;stroke-miterlimit:10;}
	.st202{fill:none;stroke:#291347;stroke-width:7.1763;stroke-miterlimit:10;}
	
		.st203{fill:none;stroke:#825FC0;stroke-width:1.7941;stroke-linecap:round;stroke-linejoin:round;stroke-miterlimit:10;stroke-dasharray:3.5881,3.5881;}
	.st204{fill:none;stroke:#F2F2F2;stroke-width:3.5881;stroke-miterlimit:10;}
	.st205{fill:#CFC3E8;stroke:#291446;stroke-width:7.1763;stroke-miterlimit:10;}
	.st206{fill:none;stroke:#FFFFFF;stroke-miterlimit:10;}
	.st207{clip-path:url(#SVGID_153_);fill:url(#);}
	.st208{clip-path:url(#SVGID_153_);}
	.st209{clip-path:url(#SVGID_156_);}
	.st210{clip-path:url(#SVGID_159_);}
	.st211{fill:url(#SVGID_160_);}
	.st212{fill:url(#SVGID_161_);}
	.st213{fill:url(#SVGID_162_);}
	.st214{clip-path:url(#SVGID_164_);fill:#F2F2F2;}
	.st215{filter:url(#Adobe_OpacityMaskFilter_6_);}
	.st216{filter:url(#Adobe_OpacityMaskFilter_7_);}
	.st217{clip-path:url(#SVGID_167_);mask:url(#SVGID_168_);fill:url(#SVGID_169_);}
	.st218{opacity:0.24;clip-path:url(#SVGID_167_);fill:#CFC3E8;}
	.st219{opacity:0.29;clip-path:url(#SVGID_167_);}
	.st220{clip-path:url(#SVGID_167_);}
	.st221{opacity:0.4;fill:url(#SVGID_170_);}
	.st222{opacity:0.4;fill:url(#SVGID_171_);}
	.st223{opacity:0.4;fill:url(#SVGID_172_);}
	.st224{opacity:0.4;fill:url(#SVGID_173_);}
	.st225{opacity:0.4;fill:url(#SVGID_174_);}
	.st226{opacity:0.7;fill:url(#SVGID_175_);}
	.st227{opacity:0.4;fill:url(#SVGID_176_);}
	.st228{opacity:0.4;fill:url(#SVGID_177_);}
	.st229{opacity:0.4;fill:url(#SVGID_178_);}
	.st230{opacity:0.4;fill:url(#SVGID_179_);}
	.st231{opacity:0.4;fill:url(#SVGID_180_);}
	.st232{opacity:0.7;fill:url(#SVGID_181_);}
	.st233{opacity:0.4;fill:url(#SVGID_182_);}
	.st234{opacity:0.4;fill:url(#SVGID_183_);}
	.st235{opacity:0.4;fill:url(#SVGID_184_);}
	.st236{opacity:0.4;fill:url(#SVGID_185_);}
	.st237{opacity:0.4;fill:url(#SVGID_186_);}
	.st238{opacity:0.7;fill:url(#SVGID_187_);}
	.st239{opacity:0.4;fill:url(#SVGID_188_);}
	.st240{opacity:0.4;fill:url(#SVGID_189_);}
	.st241{opacity:0.4;fill:url(#SVGID_190_);}
	.st242{opacity:0.4;fill:url(#SVGID_191_);}
	.st243{opacity:0.4;fill:url(#SVGID_192_);}
	.st244{opacity:0.7;fill:url(#SVGID_193_);}
	.st245{opacity:0.75;clip-path:url(#SVGID_167_);}
	.st246{opacity:0.4;fill:url(#SVGID_194_);}
	.st247{opacity:0.4;fill:url(#SVGID_195_);}
	.st248{opacity:0.4;fill:url(#SVGID_196_);}
	.st249{opacity:0.4;fill:url(#SVGID_197_);}
	.st250{opacity:0.4;fill:url(#SVGID_198_);}
	.st251{opacity:0.7;fill:url(#SVGID_199_);}
	.st252{clip-path:url(#SVGID_202_);}
	.st253{clip-path:url(#SVGID_205_);}
</style>
<g>
	<defs>
		<circle id="SVGID_154_" cx="160" cy="160" r="160"/>
	</defs>
	<linearGradient id="SVGID_2_" gradientUnits="userSpaceOnUse" x1="160" y1="-4.933812e-06" x2="160" y2="320">
		<stop  offset="0" style="stop-color:#CFC3E8"/>
		<stop  offset="0.5" style="stop-color:#6B30B7"/>
		<stop  offset="1" style="stop-color:#291347"/>
	</linearGradient>
	<use xlink:href="#SVGID_154_"  style="overflow:visible;fill:url(#SVGID_2_);"/>
	<clipPath id="SVGID_3_">
		<use xlink:href="#SVGID_154_"  style="overflow:visible;"/>
	</clipPath>
	<g class="st28">
		<path class="st5" d="M43.5,101.5c-1.3-0.4-2.6-0.8-3.9-1.3c-0.8,4.3-1.4,8.7-1.8,13.2c7.5-1.2,15.5-4,22.4-7.2
			C54.6,104.7,49,103.2,43.5,101.5z"/>
		<path class="st3" d="M103.1,232.5c17.1,9.1,36.7,14.2,57.4,14.2c33.9,0,64.6-13.7,86.9-35.9C205.7,238.9,151.2,247.3,103.1,232.5z
			"/>
		<path class="st3" d="M260.5,51.9c-10.7-14.9-24.6-27.3-40.8-36.2c-29.9,16.5-66.4,15.4-100.8,13.8c-7-0.3-25.5,1.3-31.2-5.2
			c-10.4,7.6-19.5,16.8-27,27.2c21.7,3.4,42.8,5.7,65,6.5C170.7,59.6,216.6,61,260.5,51.9z"/>
		<path class="st3" d="M162.5,11.6c-7.8,6-17.7,9.2-27.5,8.8c25.8,0,52.5-0.2,76.7-8.8c-15.6-7.1-32.9-11.1-51.1-11.1
			c-20.3,0-39.4,4.9-56.3,13.6c1,0.2,1.8,0.4,2.5,0.5C125,18.6,144.1,15.1,162.5,11.6z"/>
		<path class="st3" d="M255.8,148.9c-23.5,10.3-49.9,11.7-75.6,11.6c8.9-3.5,17.3-8.2,25-13.8c-53.4,5.2-118,0.2-167.8-24.8
			c0,0.6,0,1.2,0,1.8c0,8.1,0.8,15.9,2.3,23.5C86.3,172.3,141,180.5,194,177.8c24.5-1.3,49.4-4.9,71.3-15.9
			c2.3-1.2,9.2-6.2,14.6-8.1c1.9-7.6,3.1-15.5,3.6-23.7C275.4,138.2,265.5,144.6,255.8,148.9z"/>
		<path class="st3" d="M64.8,171.5c-8.3-3.5-16.5-8.1-22.8-14.3c1.2,4.2,2.6,8.4,4.2,12.4c0.4,0,0.8,0.1,1.2,0.1
			c8,1.2,19.2,11,26.9,14.6c9.3,4.2,18.8,7.8,28.6,10.8c39.7,12.1,82.7,13.6,123,3.5c-6.3,7.4-16.4,10.1-25.9,12.1
			c-22.8,4.6-46,7-69.2,7c24.9,7.5,52,5.6,76.7-2.5c22.1-7.2,42.4-19,61.1-32.7c1.9-3.5,3.7-7.1,5.2-10.8c-5.9,3-12.4,5.3-15.9,6.4
			C197.6,197,123.3,196,64.8,171.5z"/>
		<path class="st5" d="M205.2,146.7c-7.7,5.7-16.1,10.3-25,13.8c25.7,0.1,52.1-1.3,75.6-11.6c9.8-4.3,19.6-10.7,27.7-18.8
			c0.1-2.1,0.2-4.3,0.2-6.5c0-13.2-2.1-25.8-5.9-37.7c-7,6.4-16.6,10.3-25.7,13.4c-61.5,20.6-128.9,22.9-191.8,6.9
			c-6.9,3.3-14.9,6-22.4,7.2c-0.2,2.8-0.4,5.7-0.4,8.5C87.2,146.9,151.8,151.9,205.2,146.7z"/>
		<path class="st5" d="M113.1,85.3c53.6,10.2,109.5,8.2,162.3-5.9c-2.1-5.4-4.5-10.6-7.3-15.7c-15.7,9.8-37.2,12.7-56.5,14.2
			C178.7,80.3,145.9,82.8,113.1,85.3z"/>
		<path class="st5" d="M60.2,106.1c5.9-2.8,10.9-6,14-8.7c-3.4-5-7.8-9.5-11.9-14.2c-1.5-1.7-3-4.1-1.9-6c0.8-1.4,2.6-1.7,4.2-1.9
			c46.6-6.3,93.8-5.4,140.6-10c11.6-1.1,23.2-2.6,34.7-4.6c5.7-1,14.4-4.5,22.2-6.5c-0.5-0.8-1.1-1.6-1.7-2.3
			c-43.9,9.1-89.8,7.7-134.8,6.1c-22.1-0.8-43.3-3.1-65-6.5c-10.3,14.2-17.6,30.7-21.1,48.6c1.3,0.5,2.6,0.9,3.9,1.3
			C49,103.2,54.6,104.7,60.2,106.1z"/>
		<path class="st3" d="M113.1,85.3c32.8-2.5,65.6-4.9,98.4-7.4c19.2-1.4,40.8-4.4,56.5-14.2c-1.8-3.3-3.8-6.4-5.9-9.5
			c-7.8,2-16.5,5.5-22.2,6.5c-11.5,2-23.1,3.4-34.7,4.6c-46.8,4.6-94,3.7-140.6,10c-1.6,0.2-3.4,0.6-4.2,1.9c-1.2,1.9,0.4,4.3,1.9,6
			c4,4.6,8.4,9.2,11.9,14.2c-3,2.8-8.1,5.9-14,8.7c62.8,16,130.3,13.7,191.8-6.9c9.2-3.1,18.7-7,25.7-13.4c-0.7-2.2-1.5-4.4-2.3-6.6
			C222.6,93.4,166.7,95.5,113.1,85.3z"/>
		<path class="st5" d="M130.8,217.6c23.2,0,46.5-2.4,69.2-7c9.5-1.9,19.6-4.7,25.9-12.1c-40.3,10.2-83.3,8.6-123-3.5
			c-9.7-3-19.3-6.6-28.6-10.8c-7.7-3.5-18.9-13.3-26.9-14.6c-0.4-0.1-0.8-0.1-1.2-0.1c4,9.8,9.1,19,15.3,27.4c0.8,0.5,1.6,1,2.1,1.2
			c8.5,4.3,17.4,7.9,26.4,10.9c3.2,1.1,26,4.9,26.9,6.9c0.7,1.7-1.5,3.2-3.3,3.7c-9.1,2.6-18.7,3.1-28.1,1.6
			c5.5,4.2,11.3,8,17.5,11.2c48.1,14.8,102.7,6.3,144.3-21.7c8.4-8.4,15.6-17.9,21.3-28.4c-18.8,13.7-39.1,25.5-61.1,32.7
			C182.8,223.2,155.7,225.1,130.8,217.6z"/>
		<path class="st5" d="M194,177.8c-53.1,2.7-107.7-5.5-154.4-30.6c0.7,3.4,1.5,6.7,2.4,10c6.3,6.2,14.5,10.9,22.8,14.3
			C123.3,196,197.6,197,258,178c3.6-1.1,10-3.4,15.9-6.4c2.4-5.7,4.4-11.7,6-17.8c-5.4,1.9-12.3,7-14.6,8.1
			C243.4,172.9,218.5,176.5,194,177.8z"/>
		<path class="st5" d="M118.9,29.5c34.3,1.6,70.9,2.6,100.8-13.8c-2.6-1.4-5.3-2.8-8.1-4c-24.2,8.6-50.8,8.8-76.7,8.8
			c9.8,0.4,19.8-2.8,27.5-8.8c-18.4,3.5-37.5,7-55.8,3c-0.7-0.1-1.5-0.3-2.5-0.5c-5.8,3-11.3,6.4-16.5,10.2
			C93.5,30.8,112,29.2,118.9,29.5z"/>
		<path class="st3" d="M85.6,221.3c9.3,1.5,19,1,28.1-1.6c1.8-0.5,4.1-2,3.3-3.7c-0.8-2-23.7-5.9-26.9-6.9c-9-3-17.9-6.7-26.4-10.9
			c-0.6-0.3-1.3-0.7-2.1-1.2C68.4,206.1,76.5,214.3,85.6,221.3z"/>
	</g>
	<g class="st28">
		<g>
			<path class="st1" d="M91.2,274.3c-15.7,4.3-21.6,6.3-21.3,7.4l1.5,5.3c0.3,1.1,6.6,0.9,22.4-3.4c15.7-4.3,28.2-8.7,27.9-9.8
				l-1.5-5.3C119.9,267.4,106.9,270,91.2,274.3z"/>
			<path class="st1" d="M278.8,296.6c14,8.3,24.9,15.9,24.3,16.9l-2.8,4.8c-0.6,1-12.4-5-26.4-13.4c-14-8.3-24.9-15.9-24.3-16.9
				l2.8-4.8C253,282.3,264.8,288.3,278.8,296.6z"/>
			<path class="st1" d="M213.5,271.7c7.4,1.7,13.3,3.5,13.2,4l-0.6,2.5c-0.1,0.5-6.2-0.5-13.6-2.2c-7.4-1.7-13.3-3.5-13.2-4l0.6-2.5
				C200,269,206.1,270,213.5,271.7z"/>
			<path class="st194" d="M29.7,301c6.5-3.9,12-6.7,12.2-6.3l1.3,2.2c0.3,0.4-4.8,4-11.3,7.9c-6.5,3.9-12,6.7-12.2,6.3l-1.3-2.2
				C18.2,308.4,23.2,304.9,29.7,301z"/>
			<path class="st2" d="M308.8,320.5v24H5.8v-23.1c14.3-12.5,31.1-23.2,49.8-31.7c30-13.6,65-21.4,102.2-21.4
				c36.4,0,70.5,7.4,100,20.4c0,0,0,0,0,0C277,297.2,294.2,307.9,308.8,320.5z"/>
		</g>
	</g>
	<g class="st28">
		<g>
			<ellipse class="st1" cx="159.2" cy="295" rx="52.8" ry="8.8"/>
			<path class="st1" d="M86.8,290.5c0,0.8-3.5,1.4-7.8,1.4c-4.3,0-7.8-0.6-7.8-1.4c0-0.8,3.5-1.4,7.8-1.4
				C83.3,289.1,86.8,289.7,86.8,290.5z"/>
			<g>
				<path class="st2" d="M86.4,150.4c-0.7-2.2-3.6-2.5-5.9-1.9c-2.1-1.7-5.1-3.8-6.6-3.3c-1.6,0.5-2.2,2.2-1.7,3.7
					c-0.4,0-0.7,0-0.9,0.1c-1.8,0.8-1.9,3.3-0.6,4.8c-0.1,0-0.2,0.1-0.3,0.1c-1.8,0.8-1.7,3.5,0,4.7c-0.1,0-0.1,0.1-0.1,0.1
					c-1.6,1.3-0.4,4,1.8,4.2c1.3,0.2,2.6,0.6,3.8,0.6c1.4,1.2,4.6,2.9,9.8,0.9l1.7-3.8C87.3,160.6,87.3,153.5,86.4,150.4z"/>
				<g>
					<g>
						<path class="st6" d="M123.3,293.6v1.4c0,0.8,0.5,1.6,1.3,1.9c1.7,0.6,5,1.4,9.1,1.1c5.2-0.3,11.4-2,14.8-3.8
							c1-0.5,1.5-1.5,1.5-2.6l0,0L123.3,293.6z"/>
						<path class="st8" d="M137,277.9c0,0,0.6,5.6-2.9,8.2c0,0-8.1-0.7-10.7,7.4c3.7,5.1,20.8,2.2,26.7-2l0.8-13.6H137z"/>
					</g>
					<path class="st6" d="M137.9,289.5c0,0-1.1-2.1-3.8-3.4l0.7-0.7C134.8,285.4,137.5,286,137.9,289.5z"/>
				</g>
				<g>
					<g>
						<path class="st6" d="M197.6,293.6v1.4c0,0.8-0.5,1.6-1.3,1.9c-1.7,0.6-5,1.4-9.1,1.1c-5.2-0.3-11.4-2-14.8-3.8
							c-1-0.5-1.5-1.5-1.5-2.6l0,0L197.6,293.6z"/>
						<path class="st8" d="M184,277.9c0,0-0.6,5.6,2.9,8.2c0,0,8.1-0.7,10.7,7.4c-3.7,5.1-20.8,2.2-26.7-2l-0.8-13.6H184z"/>
					</g>
					<path class="st6" d="M183.1,289.5c0,0,1.1-2.1,3.8-3.4l-0.7-0.7C186.1,285.4,183.4,286,183.1,289.5z"/>
				</g>
				<g>
					<g>
						<g>
							<g>
								<path class="st8" d="M182.2,203.9v75.9c0,0-6,3.8-12.4,0l-0.4-3.7l-1.3-12.5l-1.7-15.9l-0.8-7.8l-1.9-17.9l-0.4-3.8
									c-0.4,0-0.8,0.1-1.2,0.1c0,0-0.1,0-0.1,0c-0.2,0-0.4,0-0.7,0c-0.3,0-0.6,0-0.9,0c-0.2,0-0.4,0-0.5,0c0,0,0,0,0,0
									c-1.1,0-2.2-0.1-3.3-0.2l-0.4,3.9l-1.8,16.9l-0.1,1.1l-0.6,6.2l-0.2,1.5l-3,28.3l0,0.1l-0.4,3.7c-3.4,2.1-6.7,1.9-9.1,1.3
									c-0.6-0.1-1.1-0.3-1.5-0.5c-1.1-0.4-1.8-0.9-1.8-0.9v-70.3l0-0.6l0.2-5H182.2z"/>
							</g>
						</g>
					</g>
					<g>
						<path class="st2" d="M154.4,240l-0.6,6.2l-0.2,1.5c-4.6,0.3-10,0.3-15.8-0.3v-7.7C142.8,240,148.6,240.2,154.4,240z"/>
						<g>
							<path class="st2" d="M137.8,237.5v11.1c-0.5,0-1.1-0.1-1.5-0.4c-0.9-0.5-1.5-1.5-1.5-2.7v-4.9c0-1.1,0.6-2.1,1.5-2.7
								C136.8,237.6,137.3,237.5,137.8,237.5z"/>
							<path class="st1" d="M137.8,237.5v11.1c-0.5,0-1.1-0.1-1.5-0.4v-10.2C136.8,237.6,137.3,237.5,137.8,237.5z"/>
						</g>
					</g>
					<g>
						<path class="st2" d="M182.2,239.7v7.5c-4.4,0.5-9.8,0.8-15.7,0.4l-0.8-7.8C170.9,240.2,176.7,240.2,182.2,239.7z"/>
						<g>
							<path class="st2" d="M182.2,237.5v11.1c0.5,0,1.1-0.1,1.5-0.4c0.9-0.5,1.5-1.5,1.5-2.7v-4.9c0-1.1-0.6-2.1-1.5-2.7
								C183.3,237.6,182.8,237.5,182.2,237.5z"/>
							<path class="st1" d="M182.2,237.5v11.1c0.5,0,1.1-0.1,1.5-0.4v-10.2C183.3,237.6,182.8,237.5,182.2,237.5z"/>
						</g>
					</g>
				</g>
				<path class="st6" d="M136.3,276.4v3.2c0,0.2,0.1,0.5,0.3,0.6c5,2.7,10,2.7,15,0c0.2-0.1,0.3-0.3,0.3-0.6v-3.2
					c0-0.4-0.4-0.7-0.8-0.6c-4.6,1.5-9.3,1.5-13.9,0C136.8,275.7,136.3,276,136.3,276.4z"/>
				<path class="st6" d="M169,276.4v3.2c0,0.2,0.1,0.5,0.3,0.6c5,2.7,10,2.7,15,0c0.2-0.1,0.3-0.3,0.3-0.6v-3.2
					c0-0.4-0.4-0.7-0.8-0.6c-4.6,1.5-9.3,1.5-13.9,0C169.4,275.7,169,276,169,276.4z"/>
				<path class="st8" d="M182.9,150.6v57.9c-15.5,4.8-30.4,5.2-44.9,0v-57.9c0-0.6,0.1-1.2,0.3-1.8v0c0.3-1,0.9-1.9,1.8-2.6
					c0,0,0,0,0,0c0.1-0.1,0.2-0.2,0.4-0.3c0,0,0,0,0.1,0c0.9-0.7,2.1-1.1,3.3-1.1h33.3c1.2,0,2.3,0.4,3.3,1c0.2,0.1,0.3,0.2,0.5,0.4
					c0,0,0,0,0,0c0,0,0,0,0,0c0.8,0.7,1.4,1.6,1.7,2.6C182.8,149.4,182.9,150,182.9,150.6z"/>
				<g>
					<path class="st1" d="M180.9,146.2c-0.4,1.7-1,3.7-2,5.8c-2.4,4.7-7.4,10.4-17.9,10.4c-10.5,0-15.6-5.6-18.1-10.3
						c-1.2-2.2-1.8-4.4-2.3-6.1c0.8-0.6,1.7-0.9,2.7-1c0.2,0,0.4,0,0.6,0h1.5c0.3,1.4,0.9,3.2,1.9,5c2.7,5,7.3,7.5,13.7,7.5
						c6.4,0,10.9-2.6,13.5-7.6c0.9-1.7,1.4-3.5,1.7-4.9h1c0.5,0,1,0.1,1.5,0.2C179.5,145.3,180.2,145.7,180.9,146.2z"/>
				</g>
				<g>
					<path class="st2" d="M180.9,146.2c-0.4,1.7-1,3.7-2,5.8c-2.4,4.7-7.4,10.4-17.9,10.4c-10.5,0-15.6-5.6-18.1-10.3
						c-1.2-2.2-1.8-4.4-2.3-6.1c0.8-0.6,1.7-0.9,2.7-1c0.4,1.6,1,3.5,2,5.3c3.2,5.8,8.5,8.7,15.9,8.7c7.4,0,12.7-3,15.7-8.9
						c0.9-1.8,1.4-3.5,1.8-5C179.5,145.3,180.2,145.7,180.9,146.2z"/>
				</g>
				<path class="st2" d="M182.9,170.6v5.4c-7.9-4.6-8.1-19.9-8.1-19.9c2.2-5.1,4.1-8.3,5.5-10.2c0.2,0.1,0.3,0.2,0.5,0.4
					c0,0,0,0,0,0c0,0,0,0,0,0c0.1,0.1,0.9,0.7,2,1.6c-0.1,0.3-0.2,0.7-0.3,1C181.1,154.8,182.1,166.1,182.9,170.6z"/>
				<path class="st2" d="M146.1,156.1c0,0-0.1,12.9-6.3,18.6c-0.1,0.1-0.3,0.3-0.5,0.4c-0.4,0.3-0.8,0.6-1.3,0.9v-12.8
					c0-0.1,0-0.1,0.1-0.2c1-3.9,1.1-9.5,0.2-14.1v0c0.3-1,0.9-1.9,1.8-2.6c0,0,0,0,0,0c0.1-0.1,0.2-0.2,0.4-0.3c0,0,0.1-0.1,0.1-0.1
					C142,147.8,143.9,151,146.1,156.1z"/>
				<ellipse class="st6" cx="160.9" cy="148.1" rx="9.6" ry="6.6"/>
				<g>
					<g>
						<path class="st2" d="M173.8,146.1c0,0.8-0.3,1.6-0.8,2.1c-0.5,0.5-1.2,0.9-2,0.9h-20.5c-1.6,0-2.8-1.4-2.8-3c0,0,0-0.1,0-0.1
							c0-0.8,0.3-1.5,0.8-2c0.5-0.5,1.2-0.9,2-0.9h20.5c1.5,0,2.8,1.3,2.8,2.9C173.8,146,173.8,146,173.8,146.1z"/>
						<path class="st6" d="M173.8,145.9c-0.5,0.4-1.1,0.7-1.8,0.7h-22.7c-0.7,0-1.3-0.2-1.8-0.7c0-0.8,0.3-1.5,0.8-2
							c0.5-0.5,1.2-0.9,2-0.9h20.5C172.5,143,173.7,144.3,173.8,145.9z"/>
					</g>
					<g>
						<path class="st2" d="M173.8,142.2c0,0.8-0.3,1.6-0.8,2.1c-0.5,0.5-1.2,0.9-2,0.9h-20.5c-1.6,0-2.8-1.4-2.8-3
							c0-0.3,0-0.6,0.1-0.9c0.1-0.5,0.4-0.9,0.7-1.2c0.5-0.5,1.2-0.9,2-0.9h20.5c1.3,0,2.4,0.9,2.7,2.2
							C173.7,141.6,173.8,141.9,173.8,142.2z"/>
						<path class="st6" d="M173.7,141.4c-1.8,1.2-4.2,2.1-13,2.1c-9,0-11.2-1.2-13-2.2c0.1-0.5,0.4-0.9,0.7-1.2
							c0.5-0.5,1.2-0.9,2-0.9h20.5C172.2,139.2,173.3,140.1,173.7,141.4z"/>
					</g>
				</g>
				<g>
					<rect x="186.5" y="99" class="st1" width="0.7" height="13.5"/>
				</g>
				<g>
					<g>
						<path class="st1" d="M190.3,115.2v8.5c0,2.3-1.8,4.1-4.1,4.1h-3.5c-0.2,0-0.4,0-0.6-0.1v-16.4c0.2-0.1,0.4-0.1,0.6-0.1h3.5
							C188.4,111.1,190.3,112.9,190.3,115.2z"/>
					</g>
					<circle class="st3" cx="187.8" cy="116.5" r="1.3"/>
					<path class="st6" d="M188.7,116.5c0,0.2-0.1,0.4-0.1,0.5c0,0,0,0,0,0c-0.2,0.3-0.5,0.5-0.8,0.5c-0.4,0-0.7-0.2-0.8-0.5
						c0,0,0,0,0,0c-0.1-0.1-0.1-0.3-0.1-0.5c0-0.5,0.4-1,1-1C188.3,115.6,188.7,116,188.7,116.5z"/>
					<circle class="st3" cx="187.8" cy="122.1" r="1.9"/>
					<path class="st6" d="M189.1,122.1c0,0.3-0.1,0.5-0.2,0.7c0,0,0,0,0,0c-0.2,0.4-0.7,0.7-1.2,0.7c-0.5,0-0.9-0.3-1.2-0.7
						c0,0,0,0,0,0c-0.1-0.2-0.2-0.5-0.2-0.7c0-0.8,0.6-1.4,1.4-1.4C188.5,120.7,189.1,121.3,189.1,122.1z"/>
				</g>
				<g>
					<g>
						<g>
							<g>
								<path class="st1" d="M130.5,115.2v8.5c0,2.3,1.8,4.1,4.1,4.1h3.5c0.2,0,0.4,0,0.6-0.1v-16.4c-0.2-0.1-0.4-0.1-0.6-0.1h-3.5
									C132.3,111.1,130.5,112.9,130.5,115.2z"/>
							</g>
						</g>
					</g>
					<circle class="st3" cx="133" cy="116.5" r="1.3"/>
					<path class="st6" d="M132,116.5c0,0.2,0.1,0.4,0.1,0.5c0,0,0,0,0,0c0.2,0.3,0.5,0.5,0.8,0.5c0.4,0,0.7-0.2,0.8-0.5c0,0,0,0,0,0
						c0.1-0.1,0.1-0.3,0.1-0.5c0-0.5-0.4-1-1-1C132.5,115.6,132,116,132,116.5z"/>
					<circle class="st3" cx="133" cy="122.1" r="1.9"/>
					<path class="st6" d="M131.6,122.1c0,0.3,0.1,0.5,0.2,0.7c0,0,0,0,0,0c0.2,0.4,0.7,0.7,1.2,0.7c0.5,0,0.9-0.3,1.2-0.7
						c0,0,0,0,0,0c0.1-0.2,0.2-0.5,0.2-0.7c0-0.8-0.6-1.4-1.4-1.4C132.2,120.7,131.6,121.3,131.6,122.1z"/>
				</g>
				<g>
					<g>
						<g>
							<path class="st2" d="M188.8,99.1c0,0,0,0.1,0,0.1c0,0,0,0,0,0c-0.1,1-0.9,1.8-1.9,1.8c-1,0-1.9-0.8-1.9-1.9s0.8-1.9,1.9-1.9
								C187.9,97.3,188.8,98.1,188.8,99.1z"/>
						</g>
					</g>
				</g>
				<path class="st8" d="M185.7,117.9L185.7,117.9l0,2.8c0,11.8-9.6,21.5-21.5,21.5h-7.6c-11.8,0-21.5-9.6-21.5-21.5v-2.8h0
					c0-0.2,0-0.4,0-0.7c0-3.9,1-7.6,2.8-10.9c0.3-0.5,0.6-1,0.9-1.5c4.4-6.8,12.4-11.3,21.5-11.3c14,0,25.3,10.6,25.3,23.6
					C185.7,117.4,185.7,117.7,185.7,117.9z"/>
				<path class="st8" d="M143.1,100.1L143.1,100.1c-0.3-0.6-1.1-0.7-1.6-0.3c-0.8,0.7-2,1.8-3,3.4c-0.2,0.4-0.2,0.9,0.1,1.2l3.2,3.9
					c0,0,2.8-2.8,3.8-3.8L143.1,100.1z"/>
				<g>
					<path class="st6" d="M181.1,115.5c0,0.1,0,0.3,0,0.4c0,0.2,0,0.4,0,0.6c-0.5,8.9-8,16-17,16h-7.2c-9,0-16.5-7-17-16
						c0-0.2,0-0.4,0-0.6c0-0.1,0-0.3,0-0.4c0-0.1,0-0.3,0-0.4c0.2-6.9,5.6-12.4,12.2-12.4h17c6.6,0,12,5.5,12.2,12.4
						C181.1,115.2,181.1,115.3,181.1,115.5z"/>
					<path class="st6" d="M181.1,116.4c-0.5,8.9-8,16-17,16l-1.9,0.3c-1.1,0.1-2.2,0.1-3.4,0l-1.9-0.3c-9,0-16.5-7-17-16
						c0.4-6.7,5.8-11.4,12.2-11.4l17-0.1C175.4,105,180.7,109.7,181.1,116.4z"/>
					<path class="st1" d="M154.5,106.1c-1.1-0.3-2.4-0.3-3.5,0c-2.6,0.7-8.4,5.1-8.1,10.2c0.4,7.4,8.1,2.8,12.5-2.1
						C159.2,109.7,157.3,106.9,154.5,106.1z"/>
					<path class="st1" d="M158,117.4c-0.8-0.8-2.1-0.6-2.9-0.2c-1.7,0.9-4.9,3.4-4.7,5.7c0.3,3.3,4.6,2.4,7.3-1.7
						C158.9,119.4,158.8,118.1,158,117.4z"/>
				</g>
				<path class="st6" d="M179,123.8c0,0-3.6,9.5-18.5,9.5c-14.6,0-18.9-10.3-18.9-10.3c3.1,4.4,9.5,9.4,15.3,9.4l0,0
					c2.4,0.3,4.8,0.3,7.2,0l0,0C170.4,132.4,176,128.9,179,123.8C179,123.8,179,123.8,179,123.8z"/>
				<path class="st2" d="M142.4,109l-1,1.7l-3.4-4.3c0.3-0.5,0.6-1,0.9-1.5L142.4,109z"/>
				<path class="st8" d="M177.8,100.1L177.8,100.1c0.3-0.6,1.1-0.7,1.6-0.3c0.8,0.7,2,1.8,3,3.4c0.2,0.4,0.2,0.9-0.1,1.2l-3.2,3.9
					c0,0-2.8-2.8-3.8-3.8L177.8,100.1z"/>
				<g>
					<path class="st1" d="M154.6,174.2c0,0-0.6,0.3-1.5,0.9c-0.1,0-0.1,0.1-0.2,0.1c-3.3,2-10.5,6.8-14.9,12.6
						c-2,2.6-3.4,5.3-3.6,8.1c-0.2,2.6,0.5,5,2.3,7.2c0.1,0.1,0.2,0.2,0.3,0.4c0.3,0.3,0.7,0.7,0.9,1l-0.1,2.9
						c-0.2-0.2-0.5-0.4-0.8-0.7c-0.1-0.1-0.2-0.2-0.3-0.3c-3.4-3.2-4.9-6.9-4.5-10.8c0.3-3.7,2.3-7.5,5.8-11.4
						c1.5-1.7,3.3-3.4,5.4-5.1c2.2-1.8,4.3-3.3,6-4.5c0,0,0,0,0,0c1.2-0.8,2.3-1.5,3-1.9c0.5-0.3,0.8-0.5,0.9-0.5
						c0.1,0,0.1-0.1,0.1-0.1l0,0.1l0.3,0.5L154.6,174.2z"/>
				</g>
				<path class="st2" d="M181.1,115.5c0,0.1,0,0.3,0,0.4c-0.1,2.9-0.8,5.6-2.2,7.9c1.1-2.1,1.7-4.5,1.8-7.1c0-0.1,0-0.3,0-0.4
					c0-0.1,0-0.3,0-0.4c-0.1-6.8-5.5-12.2-11.9-12.2h-16.7c-6.4,0-11.8,5.4-11.9,12.2c0,0.1,0,0.3,0,0.4c0,0.1,0,0.3,0,0.4
					c0.1,2.6,0.7,5,1.8,7.1c-1.3-2.3-2.1-5-2.2-7.9c0-0.1,0-0.3,0-0.4c0-0.1,0-0.3,0-0.4c0.2-6.9,5.6-12.4,12.2-12.4h17
					c6.6,0,12,5.5,12.2,12.4C181.1,115.2,181.1,115.3,181.1,115.5z"/>
				<path class="st2" d="M178.5,109l1,1.7l3.4-4.3c-0.3-0.5-0.6-1-0.9-1.5L178.5,109z"/>
				<g>
					<g>
						<path class="st1" d="M183.9,207.4c-0.5,0.5-1.1,1-1.6,1.5l-0.1-1.7l0-0.9c0,0,0,0,0,0c0.6-0.5,1.2-1.1,1.7-1.6
							c2.5-2.7,3.9-5.7,3.6-8.6c-0.9-9.1-13.8-17.8-18.5-20.7c-0.1,0-0.1-0.1-0.2-0.1c-0.9-0.6-1.5-0.9-1.5-0.9l0.7-1.4l0.3-0.5
							l0-0.1c0,0,0.1,0,0.1,0.1c0.2,0.1,0.5,0.3,0.9,0.5c0.7,0.4,1.8,1.1,3,1.9c0,0,0,0,0,0c1.7,1.2,3.9,2.7,6,4.5
							c6.9,5.7,10.7,11.3,11.2,16.5C190,199.6,187.3,204,183.9,207.4z"/>
					</g>
				</g>
				<g>
					<path class="st2" d="M169.9,176.4h-18.1c-1.4,0-2.4-1.1-2.4-2.4v-7c0-1.4,1.1-2.4,2.4-2.4h18.1c1.4,0,2.4,1.1,2.4,2.4v7
						C172.4,175.3,171.3,176.4,169.9,176.4z"/>
					<path class="st8" d="M150.9,173.8v-6.8c0-0.6,0.5-1.1,1.1-1.1h17.8c0.6,0,1.1,0.5,1.1,1.1v6.8c0,0.6-0.5,1.1-1.1,1.1H152
						C151.4,174.9,150.9,174.5,150.9,173.8z"/>
					<g>
						<path class="st1" d="M154.9,172.2c0,0.7-0.6,1.2-1.2,1.2c-0.7,0-1.2-0.6-1.2-1.2c0-0.7,0.6-1.2,1.2-1.2
							C154.3,170.9,154.9,171.5,154.9,172.2z"/>
						<path class="st3" d="M158.3,172.2c0,0.7-0.6,1.2-1.2,1.2c-0.7,0-1.2-0.6-1.2-1.2c0-0.7,0.6-1.2,1.2-1.2
							C157.7,170.9,158.3,171.5,158.3,172.2z"/>
						<path class="st2" d="M161.7,172.2c0,0.7-0.6,1.2-1.2,1.2s-1.2-0.6-1.2-1.2c0-0.7,0.6-1.2,1.2-1.2S161.7,171.5,161.7,172.2z"/>
					</g>
					<g>
						<path class="st6" d="M169.3,168h-16.5c-0.2,0-0.4-0.2-0.4-0.4v-0.1c0-0.2,0.2-0.4,0.4-0.4h16.5c0.2,0,0.4,0.2,0.4,0.4v0.1
							C169.7,167.8,169.5,168,169.3,168z"/>
						<path class="st6" d="M169.3,169.9h-16.5c-0.2,0-0.4-0.2-0.4-0.4v-0.1c0-0.2,0.2-0.4,0.4-0.4h16.5c0.2,0,0.4,0.2,0.4,0.4v0.1
							C169.7,169.7,169.5,169.9,169.3,169.9z"/>
					</g>
					<g>
						<path class="st6" d="M169.3,171.7h-6.2c-0.2,0-0.4-0.2-0.4-0.4v-0.1c0-0.2,0.2-0.4,0.4-0.4h6.2c0.2,0,0.4,0.2,0.4,0.4v0.1
							C169.7,171.5,169.5,171.7,169.3,171.7z"/>
						<path class="st6" d="M169.3,173.6h-6.2c-0.2,0-0.4-0.2-0.4-0.4v-0.1c0-0.2,0.2-0.4,0.4-0.4h6.2c0.2,0,0.4,0.2,0.4,0.4v0.1
							C169.7,173.4,169.5,173.6,169.3,173.6z"/>
					</g>
				</g>
				<path class="st8" d="M209,187.3c-4.4,12.1-22.9,21.1-22.9,21.1c-2.8-1.9-4.4-4.6-4-8.5c0,0,1.6-1.5,2.2-2.1
					c2.4-2.4,3.7-3.5,5.5-5.3c5.6-5.5,4.9-6.2,7.7-9.9c0,0-6.1-3.5-10.6-7.6c-0.5-0.5-1.1-1-1.5-1.5c-1-1-1.8-2-2.4-2.9
					c-0.1-0.2-0.2-0.3-0.3-0.5c0,0-2.9-7.1-1.7-23.8c0,0,0,0,0,0c0.1,0.1,0.8,0.7,2,1.7c1.6,1.4,4.1,3.5,6.9,6.1
					c0.5,0.5,1.1,1,1.6,1.6c3.6,3.6,7.7,8,11.2,12.8c2.2,3,4.2,6.1,5.9,9.3C210.1,181,210.1,184.2,209,187.3z"/>
				<g>
					<path class="st8" d="M138,167.2c-1.3,1.2-1,0.8-2.5,1.8c-0.6,0.4-1.2,0.8-1.7,1.1c-0.6,0.4-1.2,0.8-1.8,1.3
						c-0.6,0.4-1.1,0.9-1.7,1.3c-3.4,2.4-7,4.3-10.1,5.6h0c-2,0.9-3.8,1.5-5.1,2c-1.8,0.6-3.6,0.6-5.4,0c-1.4-0.5-2.9-1.1-4.4-1.9
						c-7.2-3.6-15.8-9.8-21.3-13.4c1-3.1,0.9-4,3.1-7.2c3.1,1,7.7,2.3,13.8,4.6c9.4,3.7,10.6,6,10.6,6c3.7-3.8,9.2-8.1,14.4-11.9
						c0.6-0.4,1.2-0.9,1.7-1.3c0.5-0.4,1.1-0.8,1.6-1.1c0.7-0.5,1.4-1,2.1-1.5c4.5-3.2,7.9-5.4,7.9-5.4
						C140.9,155.1,138,167.2,138,167.2z"/>
				</g>
				<path class="st1" d="M84.5,153.5c0,0.3-0.5,4-2.5,4.6c-1.2,0.4-2.1-0.1-2.6-0.8c0,0.8-0.2,1.8-0.9,2.3c0,0,0.8,4-2.8,4
					c0,0,1.4-0.3,1.9-1.9c0.6-1.7-0.6-2.4-0.6-2.4s0.7-0.1,1.4-1.4c0.7-1.3-0.8-2.9-0.8-2.9s2-0.2,1.5-3c0,0,0.2,0.4,0.4,0.9
					c0.4-1.3,1.3-1.8,1.3-1.8c-0.7,1.4-1,2.5-1.1,3.1v0c-0.1,0.3-0.1,0.5-0.2,0.7c0,0,0,0,0,0c-0.1,0.5-0.1,1.7,1.5,2.1
					C83,157.6,84.3,154.7,84.5,153.5z"/>
				<path class="st6" d="M183,201.4h-45.2c-1.1-2.4-1.1-4.9,0-7.3H183C183.9,196.6,184,199.1,183,201.4z"/>
				<g>
					<path class="st2" d="M178.8,195.5c0,0-4.8-6.1-6-7c-1.1-0.8-3.9,2.6-6.6,2.9c-0.5,0-0.9,0.4-1,0.9l0,0
						c-0.2,0.8,0.5,1.5,1.3,1.5c1.6-0.2,3.9-0.6,5.3-1.5l1.9,1.7C173.6,194,175.8,196.4,178.8,195.5z"/>
				</g>
				<path class="st2" d="M186,208.4c0,0-3.3,1-5.9,0.8h0c-0.7-0.1-1.4-0.2-2-0.5c-2.4-1.4-3-5.4-3-5.4c0,0-0.1,0.1-0.1,0.1
					c0,0,0,0,0,0c-1.8,1.2-3.9,1.5-5,1.6c0,0-0.1,0-0.1,0c-0.4,0-0.7-0.2-0.8-0.6c-0.2-0.4,0-0.9,0.5-1.1c1.3-0.5,2.8-1.5,3.5-2
					c-1.7,1.1-4,1.6-5.4,1.8c-0.1,0-0.1,0-0.2,0c-0.6,0-1.2-0.5-1.3-1.1c-0.1-0.7,0.2-1.3,0.8-1.5c2.2-0.9,5.8-3.1,5.9-3.2l-5.4,1.3
					c-0.1,0-0.2,0-0.4,0c-0.6,0-1.1-0.3-1.3-0.9c-0.4-0.8,0-1.7,0.8-2c2.9-1.2,8-4.3,9.7-3.1c1.3,0.9,4,4.6,5.9,7.1l0,0
					c-0.3,0.4-0.4,0.9-0.3,1.4C183.2,206.3,186,208.3,186,208.4L186,208.4z"/>
				<path class="st195" d="M175,203.3c0,0,0.1-0.1,0.1-0.1C175.1,203.2,175,203.3,175,203.3z"/>
				<path class="st1" d="M87.2,157.3c0,0-4,2.5-3.1,7.7c0,0,0.9,1.2,2,1.3c0,0,0.3-6,3-8C88.7,157.6,88,157.3,87.2,157.3z"/>
				<g>
					<path class="st2" d="M120.3,178.3c-0.9,0.4-1.7,0.7-2.5,1c-1,0.4-1.9,0.7-2.6,0.9c-1.8,0.6-3.6,0.6-5.4,0
						c-0.7-0.2-1.4-0.5-2.1-0.8c-0.7-0.3-1.5-0.7-2.3-1.1C105.4,178.3,112,174.6,120.3,178.3z"/>
					<path class="st1" d="M117.8,179.3c-1,0.4-1.9,0.7-2.6,0.9c-1.8,0.6-3.6,0.6-5.4,0c-0.7-0.2-1.4-0.5-2.1-0.8
						c1.3-0.4,3.2-0.7,5.2-0.7C114.8,178.7,116.5,178.9,117.8,179.3z"/>
				</g>
				<g>
					<path class="st2" d="M209.7,184.3c0,0.2,0,0.4-0.1,0.6c-0.1,0.8-0.3,1.6-0.6,2.4c-2.6-0.1-5.6-3.5-7.1-8.3
						c-1.4-4.5-1.1-8.8,0.7-10.6c0.8,1.1,1.7,2.3,2.5,3.5c0,0,0.1,0.1,0.1,0.1c1.2,1.9,2.3,3.8,3.3,5.7
						C209.6,179.9,209.9,182.2,209.7,184.3z"/>
					<path class="st1" d="M209.7,184.3c0,0.2,0,0.4-0.1,0.6c-1.5-0.9-3.1-3.2-4-6.1c-0.9-2.6-1-5.2-0.5-6.8c1.2,1.9,2.3,3.8,3.3,5.7
						C209.6,179.9,209.9,182.2,209.7,184.3z"/>
				</g>
				<path class="st1" d="M183.4,198.6c0,0-1.4,0.5-1.7,1.5c-0.2,1.1,1.1,5.8,4.4,8.3c0,0,1.4,0,1.8-1.1
					C188,207.4,183.2,201.9,183.4,198.6z"/>
			</g>
		</g>
		<g>
			<path class="st8" d="M78,92.9v53.8c0.7,0.5,1.4,1,2,1.5V92.9c0-0.6-0.5-1-1-1l0,0C78.4,91.8,78,92.3,78,92.9z M79.4,150.1
				c0,0.8-0.2,1.8-0.9,2.4c0,0,0.4,1.9-0.5,3.1v135.2c0.8,0.3,1.2,0.3,2,0V150.7C79.8,150.5,79.6,150.3,79.4,150.1z"/>
			<path class="st6" d="M80.5,130.7c0,0.3-0.1,0.6-0.3,0.9c-0.2,0.2-0.4,0.4-0.7,0.4c-0.6,0.1-1.2,0.1-1.8,0.1
				c-2.2,0-4.3-0.5-6.3-1.5c-3.6-1.8-11.1-3.5-24.7,1.2c-4,1.4-7.6,2.3-10.7,2.8c-0.4,0.1-0.7,0.1-1.1,0.2
				c-10.5,1.5-15.7-1.3-15.7-1.3v-33.2c5.3,4.4,13.6,3.7,22.1,1.7c0.4-0.1,0.8-0.2,1.2-0.3c3.1-0.8,6.2-1.6,9.2-2.5
				c0.3-0.1,0.5-0.1,0.8-0.2c0,0,0,0,0,0c0,0,0,0,0,0v0c0.7-0.2,1.3-0.4,2-0.6c12.5-3.5,19.7-1.8,19.7-1.8l5.2,0.7
				c0.5,0.1,0.9,0.6,0.9,1.3c0,0.3-0.1,0.6-0.3,0.9c-0.2,0.2-0.4,0.4-0.7,0.4l-5.2,0.7v28.2l5.2,0.7C80.1,129.5,80.5,130,80.5,130.7
				z"/>
			<g>
				<path class="st8" d="M56,114.9c0,4.3-3.5,7.8-7.8,7.8c-2,0-3.9-0.8-5.3-2.1v6.9h-2.5v-16.6h2.5v4c0,2.9,2.4,5.3,5.3,5.3
					c2.9,0,5.3-2.4,5.3-5.3c0-2.9-2.4-5.3-5.3-5.3v-2.5C52.5,107.1,56,110.6,56,114.9z"/>
			</g>
		</g>
	</g>
</g>
</svg>
