<?xml version="1.0" encoding="utf-8"?>
<!-- Generator: Adobe Illustrator 22.0.1, SVG Export Plug-In . SVG Version: 6.00 Build 0)  -->
<svg version="1.1" id="Layer_1" xmlns="http://www.w3.org/2000/svg" xmlns:xlink="http://www.w3.org/1999/xlink" x="0px" y="0px"
	 viewBox="0 0 320 320" style="enable-background:new 0 0 320 320;" xml:space="preserve">
<style type="text/css">
	.st0{fill:none;}
	.st1{fill:#CFC3E8;}
	.st2{fill:#E8E8E8;}
	.st3{fill:#6B30B7;}
	.st4{fill:#825FC0;}
	.st5{fill:#E6E6E6;}
	.st6{fill:#F2F2F2;}
	.st7{fill:#291347;}
	.st8{fill:#FFFFFF;stroke:#6B30B7;stroke-width:23.2527;stroke-miterlimit:10;}
	.st9{fill:#FFFFFF;}
	.st10{opacity:0.15;}
	.st11{opacity:0.1;fill:#6B30B7;}
	.st12{opacity:0.3;fill:#6B30B7;}
	.st13{opacity:0.6;fill:#6B30B7;}
	.st14{opacity:0.8;fill:#6B30B7;}
	.st15{fill:none;stroke:#6B30B7;stroke-width:3;stroke-miterlimit:10;}
	.st16{fill:#E11F21;}
	.st17{fill:#0B6FB6;}
	.st18{fill:#646464;}
	.st19{fill:url(#path1948_1_);}
	.st20{fill:url(#path1950_1_);}
	.st21{opacity:0.4438;fill:url(#path1894_1_);enable-background:new    ;}
	.st22{fill:#007ACC;}
	.st23{fill:#00599C;}
	.st24{fill:#004482;}
	.st25{fill:#659AD2;}
	.st26{fill:#A9B9CB;}
	.st27{fill:#7F8B99;}
	.st28{fill:none;stroke:#E6E6E6;stroke-miterlimit:10;}
	.st29{clip-path:url(#SVGID_3_);}
	.st30{opacity:0.3;fill:#291347;}
	.st31{opacity:0.2;}
	.st32{clip-path:url(#SVGID_6_);}
	.st33{fill:#FAFBFB;}
	.st34{fill:url(#SVGID_7_);}
	.st35{fill:url(#SVGID_8_);}
	.st36{fill:#FFBE98;}
	.st37{fill:url(#SVGID_9_);}
	.st38{clip-path:url(#SVGID_11_);fill:#F2F2F2;}
	.st39{fill:#FFA726;}
	.st40{fill:#263238;}
	.st41{clip-path:url(#SVGID_14_);}
	.st42{filter:url(#Adobe_OpacityMaskFilter);}
	.st43{filter:url(#Adobe_OpacityMaskFilter_1_);}
	.st44{mask:url(#SVGID_15_);fill:url(#SVGID_16_);}
	.st45{opacity:0.24;fill:#CFC3E8;}
	.st46{opacity:0.29;}
	.st47{fill:none;stroke:#FFFFFF;stroke-width:2;stroke-miterlimit:10;}
	.st48{opacity:0.7;}
	.st49{opacity:0.4;fill:url(#SVGID_17_);}
	.st50{opacity:0.4;}
	.st51{opacity:0.4;fill:url(#SVGID_18_);}
	.st52{fill:#312A91;}
	.st53{opacity:0.9;}
	.st54{opacity:0.4;fill:#FFFFFF;}
	.st55{opacity:0.4;fill:url(#SVGID_19_);}
	.st56{opacity:0.4;fill:url(#SVGID_20_);}
	.st57{opacity:0.7;fill:#291347;}
	.st58{opacity:0.7;fill:#825FC0;}
	.st59{opacity:0.7;fill:#6B30B7;}
	.st60{opacity:0.3;fill:#42E8E0;}
	.st61{opacity:0.4;fill:url(#SVGID_21_);}
	.st62{opacity:0.3;fill:#825FC0;}
	.st63{opacity:0.3;fill:#CFC3E8;}
	.st64{opacity:0.5;fill:#F2F2F2;}
	.st65{opacity:0.5;fill:#CFC3E8;}
	.st66{opacity:0.7;fill:url(#SVGID_22_);}
	.st67{opacity:0.9;fill:#FFFFFF;}
	.st68{opacity:0.3;fill:#FFFFFF;}
	.st69{opacity:0.2;fill:#FFFFFF;}
	.st70{opacity:0.4;fill:url(#SVGID_23_);}
	.st71{opacity:0.4;fill:url(#SVGID_24_);}
	.st72{opacity:0.4;fill:url(#SVGID_25_);}
	.st73{opacity:0.4;fill:url(#SVGID_26_);}
	.st74{opacity:0.4;fill:url(#SVGID_27_);}
	.st75{opacity:0.7;fill:url(#SVGID_28_);}
	.st76{opacity:0.4;fill:url(#SVGID_29_);}
	.st77{opacity:0.4;fill:url(#SVGID_30_);}
	.st78{opacity:0.4;fill:url(#SVGID_31_);}
	.st79{opacity:0.4;fill:url(#SVGID_32_);}
	.st80{opacity:0.4;fill:url(#SVGID_33_);}
	.st81{opacity:0.7;fill:url(#SVGID_34_);}
	.st82{opacity:0.4;fill:url(#SVGID_35_);}
	.st83{opacity:0.4;fill:url(#SVGID_36_);}
	.st84{opacity:0.4;fill:url(#SVGID_37_);}
	.st85{opacity:0.4;fill:url(#SVGID_38_);}
	.st86{opacity:0.4;fill:url(#SVGID_39_);}
	.st87{opacity:0.7;fill:url(#SVGID_40_);}
	.st88{opacity:0.4;fill:url(#SVGID_41_);}
	.st89{opacity:0.4;fill:url(#SVGID_42_);}
	.st90{opacity:0.4;fill:url(#SVGID_43_);}
	.st91{opacity:0.4;fill:url(#SVGID_44_);}
	.st92{opacity:0.4;fill:url(#SVGID_45_);}
	.st93{opacity:0.7;fill:url(#SVGID_46_);}
	.st94{opacity:0.4;fill:url(#SVGID_47_);}
	.st95{opacity:0.4;fill:url(#SVGID_48_);}
	.st96{opacity:0.4;fill:url(#SVGID_49_);}
	.st97{opacity:0.4;fill:url(#SVGID_50_);}
	.st98{opacity:0.4;fill:url(#SVGID_51_);}
	.st99{opacity:0.7;fill:url(#SVGID_52_);}
	.st100{opacity:0.48;fill:url(#SVGID_53_);}
	.st101{opacity:0.48;fill:url(#SVGID_54_);}
	.st102{opacity:5.000000e-02;}
	.st103{clip-path:url(#SVGID_57_);}
	.st104{opacity:0.75;}
	.st105{clip-path:url(#SVGID_60_);}
	.st106{filter:url(#Adobe_OpacityMaskFilter_2_);}
	.st107{filter:url(#Adobe_OpacityMaskFilter_3_);}
	.st108{mask:url(#SVGID_61_);fill:url(#SVGID_62_);}
	.st109{opacity:0.4;fill:url(#SVGID_63_);}
	.st110{opacity:0.4;fill:url(#SVGID_64_);}
	.st111{opacity:0.4;fill:url(#SVGID_65_);}
	.st112{opacity:0.4;fill:url(#SVGID_66_);}
	.st113{opacity:0.4;fill:url(#SVGID_67_);}
	.st114{opacity:0.7;fill:url(#SVGID_68_);}
	.st115{opacity:0.4;fill:url(#SVGID_69_);}
	.st116{opacity:0.4;fill:url(#SVGID_70_);}
	.st117{opacity:0.4;fill:url(#SVGID_71_);}
	.st118{opacity:0.4;fill:url(#SVGID_72_);}
	.st119{opacity:0.4;fill:url(#SVGID_73_);}
	.st120{opacity:0.7;fill:url(#SVGID_74_);}
	.st121{opacity:0.4;fill:url(#SVGID_75_);}
	.st122{opacity:0.4;fill:url(#SVGID_76_);}
	.st123{opacity:0.4;fill:url(#SVGID_77_);}
	.st124{opacity:0.4;fill:url(#SVGID_78_);}
	.st125{opacity:0.4;fill:url(#SVGID_79_);}
	.st126{opacity:0.7;fill:url(#SVGID_80_);}
	.st127{opacity:0.4;fill:url(#SVGID_81_);}
	.st128{opacity:0.4;fill:url(#SVGID_82_);}
	.st129{opacity:0.4;fill:url(#SVGID_83_);}
	.st130{opacity:0.4;fill:url(#SVGID_84_);}
	.st131{opacity:0.4;fill:url(#SVGID_85_);}
	.st132{opacity:0.7;fill:url(#SVGID_86_);}
	.st133{opacity:0.4;fill:url(#SVGID_87_);}
	.st134{opacity:0.4;fill:url(#SVGID_88_);}
	.st135{opacity:0.4;fill:url(#SVGID_89_);}
	.st136{opacity:0.4;fill:url(#SVGID_90_);}
	.st137{opacity:0.4;fill:url(#SVGID_91_);}
	.st138{opacity:0.7;fill:url(#SVGID_92_);}
	.st139{opacity:0.4;fill:url(#SVGID_93_);}
	.st140{opacity:0.4;fill:url(#SVGID_94_);}
	.st141{opacity:0.4;fill:url(#SVGID_95_);}
	.st142{opacity:0.4;fill:url(#SVGID_96_);}
	.st143{opacity:0.4;fill:url(#SVGID_97_);}
	.st144{opacity:0.7;fill:url(#SVGID_98_);}
	.st145{opacity:0.48;fill:url(#SVGID_99_);}
	.st146{opacity:0.48;fill:url(#SVGID_100_);}
	.st147{clip-path:url(#SVGID_103_);}
	.st148{clip-path:url(#SVGID_106_);}
	.st149{fill:none;stroke:#CFC3E8;stroke-width:5;stroke-miterlimit:10;}
	.st150{opacity:0.76;fill:#291347;}
	.st151{filter:url(#Adobe_OpacityMaskFilter_4_);}
	.st152{filter:url(#Adobe_OpacityMaskFilter_5_);}
	.st153{clip-path:url(#SVGID_109_);mask:url(#SVGID_110_);fill:url(#SVGID_111_);}
	.st154{opacity:0.24;clip-path:url(#SVGID_109_);fill:#CFC3E8;}
	.st155{opacity:0.29;clip-path:url(#SVGID_109_);}
	.st156{clip-path:url(#SVGID_109_);}
	.st157{opacity:0.4;fill:url(#SVGID_112_);}
	.st158{opacity:0.4;fill:url(#SVGID_113_);}
	.st159{opacity:0.4;fill:url(#SVGID_114_);}
	.st160{opacity:0.4;fill:url(#SVGID_115_);}
	.st161{opacity:0.4;fill:url(#SVGID_116_);}
	.st162{opacity:0.7;fill:url(#SVGID_117_);}
	.st163{opacity:0.4;fill:url(#SVGID_118_);}
	.st164{opacity:0.4;fill:url(#SVGID_119_);}
	.st165{opacity:0.4;fill:url(#SVGID_120_);}
	.st166{opacity:0.4;fill:url(#SVGID_121_);}
	.st167{opacity:0.4;fill:url(#SVGID_122_);}
	.st168{opacity:0.7;fill:url(#SVGID_123_);}
	.st169{opacity:0.4;fill:url(#SVGID_124_);}
	.st170{opacity:0.4;fill:url(#SVGID_125_);}
	.st171{opacity:0.4;fill:url(#SVGID_126_);}
	.st172{opacity:0.4;fill:url(#SVGID_127_);}
	.st173{opacity:0.4;fill:url(#SVGID_128_);}
	.st174{opacity:0.7;fill:url(#SVGID_129_);}
	.st175{opacity:0.4;fill:url(#SVGID_130_);}
	.st176{opacity:0.4;fill:url(#SVGID_131_);}
	.st177{opacity:0.4;fill:url(#SVGID_132_);}
	.st178{opacity:0.4;fill:url(#SVGID_133_);}
	.st179{opacity:0.4;fill:url(#SVGID_134_);}
	.st180{opacity:0.7;fill:url(#SVGID_135_);}
	.st181{opacity:0.75;clip-path:url(#SVGID_109_);}
	.st182{fill:none;stroke:#CFC3E8;stroke-width:4.9727;stroke-miterlimit:10;}
	.st183{opacity:0.4;fill:url(#SVGID_136_);}
	.st184{opacity:0.4;fill:url(#SVGID_137_);}
	.st185{opacity:0.4;fill:url(#SVGID_138_);}
	.st186{opacity:0.4;fill:url(#SVGID_139_);}
	.st187{opacity:0.4;fill:url(#SVGID_140_);}
	.st188{opacity:0.7;fill:url(#SVGID_141_);}
	.st189{clip-path:url(#SVGID_144_);fill:url(#SVGID_145_);}
	.st190{clip-path:url(#SVGID_144_);}
	.st191{opacity:0.1;fill:#CFC3E8;}
	.st192{fill:#56AEEC;}
	.st193{opacity:0.65;fill:#2C65CC;}
	.st194{clip-path:url(#SVGID_148_);}
	.st195{fill:#D4DBD1;}
	.st196{fill:#CCD3C8;}
	.st197{clip-path:url(#SVGID_151_);}
	.st198{fill:none;stroke:#291347;stroke-width:1.7941;stroke-linecap:round;stroke-linejoin:round;stroke-miterlimit:10;}
	.st199{fill:none;stroke:#825FC0;stroke-width:1.7941;stroke-linecap:round;stroke-linejoin:round;stroke-miterlimit:10;}
	.st200{opacity:0.18;fill:#6F00FF;}
	.st201{fill:#FFDD92;stroke:#291347;stroke-width:7.1763;stroke-miterlimit:10;}
	.st202{fill:#CFC3E8;stroke:#291347;stroke-width:7.1763;stroke-miterlimit:10;}
	.st203{fill:none;stroke:#291347;stroke-width:7.1763;stroke-miterlimit:10;}
	
		.st204{fill:none;stroke:#825FC0;stroke-width:1.7941;stroke-linecap:round;stroke-linejoin:round;stroke-miterlimit:10;stroke-dasharray:3.5881,3.5881;}
	.st205{fill:none;stroke:#F2F2F2;stroke-width:3.5881;stroke-miterlimit:10;}
	.st206{fill:#CFC3E8;stroke:#291446;stroke-width:7.1763;stroke-miterlimit:10;}
	.st207{fill:none;stroke:#FFFFFF;stroke-miterlimit:10;}
	.st208{clip-path:url(#SVGID_154_);fill:url(#SVGID_155_);}
	.st209{clip-path:url(#SVGID_154_);}
	.st210{clip-path:url(#SVGID_158_);}
	.st211{clip-path:url(#SVGID_161_);}
	.st212{fill:url(#SVGID_162_);}
	.st213{fill:url(#SVGID_163_);}
	.st214{fill:url(#SVGID_164_);}
	.st215{clip-path:url(#SVGID_166_);fill:#F2F2F2;}
	.st216{filter:url(#Adobe_OpacityMaskFilter_6_);}
	.st217{filter:url(#Adobe_OpacityMaskFilter_7_);}
	.st218{clip-path:url(#SVGID_169_);mask:url(#SVGID_170_);fill:url(#SVGID_171_);}
	.st219{opacity:0.24;clip-path:url(#SVGID_169_);fill:#CFC3E8;}
	.st220{opacity:0.29;clip-path:url(#SVGID_169_);}
	.st221{clip-path:url(#SVGID_169_);}
	.st222{opacity:0.4;fill:url(#SVGID_172_);}
	.st223{opacity:0.4;fill:url(#SVGID_173_);}
	.st224{opacity:0.4;fill:url(#SVGID_174_);}
	.st225{opacity:0.4;fill:url(#SVGID_175_);}
	.st226{opacity:0.4;fill:url(#SVGID_176_);}
	.st227{opacity:0.7;fill:url(#SVGID_177_);}
	.st228{opacity:0.4;fill:url(#SVGID_178_);}
	.st229{opacity:0.4;fill:url(#SVGID_179_);}
	.st230{opacity:0.4;fill:url(#SVGID_180_);}
	.st231{opacity:0.4;fill:url(#SVGID_181_);}
	.st232{opacity:0.4;fill:url(#SVGID_182_);}
	.st233{opacity:0.7;fill:url(#SVGID_183_);}
	.st234{opacity:0.4;fill:url(#SVGID_184_);}
	.st235{opacity:0.4;fill:url(#SVGID_185_);}
	.st236{opacity:0.4;fill:url(#SVGID_186_);}
	.st237{opacity:0.4;fill:url(#SVGID_187_);}
	.st238{opacity:0.4;fill:url(#SVGID_188_);}
	.st239{opacity:0.7;fill:url(#SVGID_189_);}
	.st240{opacity:0.4;fill:url(#SVGID_190_);}
	.st241{opacity:0.4;fill:url(#SVGID_191_);}
	.st242{opacity:0.4;fill:url(#SVGID_192_);}
	.st243{opacity:0.4;fill:url(#SVGID_193_);}
	.st244{opacity:0.4;fill:url(#SVGID_194_);}
	.st245{opacity:0.7;fill:url(#SVGID_195_);}
	.st246{opacity:0.75;clip-path:url(#SVGID_169_);}
	.st247{opacity:0.4;fill:url(#SVGID_196_);}
	.st248{opacity:0.4;fill:url(#SVGID_197_);}
	.st249{opacity:0.4;fill:url(#SVGID_198_);}
	.st250{opacity:0.4;fill:url(#SVGID_199_);}
	.st251{opacity:0.4;fill:url(#SVGID_200_);}
	.st252{opacity:0.7;fill:url(#SVGID_201_);}
	.st253{clip-path:url(#SVGID_204_);}
	.st254{clip-path:url(#SVGID_207_);}
</style>
<pattern  x="632" y="-1513.2" width="69.5" height="80" patternUnits="userSpaceOnUse" id="New_Pattern_2" viewBox="0 -80 69.5 80" style="overflow:visible;">
	<g>
		<rect y="-80" class="st0" width="69.5" height="80"/>
		<path class="st1" d="M40.2-21.2h-0.3c-7.4,0-13.5-6-13.5-13.5v-8.2c0-1.9,1.5-3.4,3.4-3.4H32v-4.5c0-4.4,3.6-8,8-8s8,3.6,8,8v4.5
			h2.2c1.9,0,3.4,1.5,3.4,3.4v8.2C53.6-27.2,47.6-21.2,40.2-21.2z M34-46.3H46v-4.5c0-3.3-2.7-6-6-6s-6,2.7-6,6V-46.3z M39.8-23.2
			h0.3c6.3,0,11.5-5.1,11.5-11.5v-8.2c0-0.8-0.6-1.4-1.4-1.4H29.8c-0.8,0-1.4,0.6-1.4,1.4v8.2C28.4-28.3,33.5-23.2,39.8-23.2z"/>
		<path class="st1" d="M40-27.2c-0.6,0-1-0.4-1-1v-4.4c-1.9-0.5-3.3-2.1-3.3-4.2c0-2.4,1.9-4.3,4.3-4.3s4.3,1.9,4.3,4.3
			c0,2-1.4,3.7-3.3,4.2v4.4C41-27.6,40.6-27.2,40-27.2z M40-34.4c1.3,0,2.3-1,2.3-2.3S41.3-39,40-39s-2.3,1-2.3,2.3
			S38.7-34.4,40-34.4z"/>
		<path class="st1" d="M58.6-73.7l-7.8,9.3c9.1,4,15.5,13,15.8,23.5h2.9v2h-2.9c-0.4,10.5-7,19.4-16.1,23.4l7.9,9.3h11.1v2H58
			c-0.3,0-0.6-0.1-0.8-0.3l-8.7-10.3C45.8-14,43-13.5,40-13.5c-3,0-5.8-0.5-8.5-1.4L22.8-4.6c-0.2,0.2-0.5,0.4-0.8,0.4H10.4
			C10-1.8,7.8,0,5.3,0C2.4,0,0-2.4,0-5.3c0-2.9,2.4-5.3,5.3-5.3c2.6,0,4.7,1.8,5.2,4.3h11.2l7.9-9.4c-9.2-4-15.7-12.9-16.1-23.4
			h-2.9c-0.4,2.5-2.6,4.4-5.2,4.4C2.4-34.7,0-37,0-39.9c0-2.9,2.4-5.3,5.3-5.3c2.5,0,4.6,1.8,5.1,4.2h2.9
			c0.4-10.5,6.8-19.4,15.9-23.5l-7.9-9.3H10.4c-0.5,2.4-2.6,4.3-5.2,4.3c-2.9,0-5.3-2.4-5.3-5.3C0-77.6,2.4-80,5.3-80
			c2.6,0,4.7,1.8,5.2,4.3h11.4c0.3,0,0.6,0.1,0.8,0.4l8.6,10.1c2.8-1,5.7-1.5,8.8-1.5c3.1,0,6.1,0.5,8.8,1.5l8.6-10.1
			c0.2-0.2,0.5-0.4,0.8-0.4h11.4v2H58.6z M8.5-74.7c0-1.8-1.5-3.3-3.3-3.3S2-76.5,2-74.7c0,1.8,1.5,3.3,3.3,3.3S8.5-72.9,8.5-74.7z
			 M8.5-39.9c0-1.8-1.5-3.3-3.3-3.3S2-41.7,2-39.9c0,1.8,1.5,3.3,3.3,3.3S8.5-38.1,8.5-39.9z M8.5-5.3c0-1.8-1.5-3.3-3.3-3.3
			S2-7.1,2-5.3C2-3.5,3.5-2,5.3-2S8.5-3.5,8.5-5.3z M40-64.8c-13.6,0-24.7,11.1-24.7,24.7c0,13.6,11.1,24.6,24.7,24.6
			c13.6,0,24.7-11.1,24.7-24.6C64.7-53.7,53.6-64.8,40-64.8z"/>
	</g>
</pattern>
<g>
	<defs>
		<circle id="SVGID_152_" cx="160" cy="160" r="160"/>
	</defs>
	<linearGradient id="SVGID_2_" gradientUnits="userSpaceOnUse" x1="160" y1="-4.933812e-06" x2="160" y2="320">
		<stop  offset="0" style="stop-color:#CFC3E8"/>
		<stop  offset="0.5" style="stop-color:#6B30B7"/>
		<stop  offset="1" style="stop-color:#291347"/>
	</linearGradient>
	<use xlink:href="#SVGID_152_"  style="overflow:visible;fill:url(#SVGID_2_);"/>
	<clipPath id="SVGID_3_">
		<use xlink:href="#SVGID_152_"  style="overflow:visible;"/>
	</clipPath>
	<pattern  id="SVGID_5_" xlink:href="#New_Pattern_2" patternTransform="matrix(0.5382 0 0 0.5382 -3618.7046 -2194.3362)">
	</pattern>
	<circle style="clip-path:url(#SVGID_3_);fill:url(#SVGID_5_);" cx="160" cy="123.1" r="123.1"/>
	<g class="st29">
		<ellipse class="st191" cx="163.8" cy="303" rx="80.5" ry="24.1"/>
		<ellipse class="st191" cx="163.8" cy="296.7" rx="58.9" ry="17.7"/>
		<ellipse class="st191" cx="163.8" cy="295.4" rx="44.1" ry="13.2"/>
		<path class="st9" d="M268.8,180.8c-0.9,1.8-1.9,3.5-3,5.3H54.2c-1-1.7-2-3.5-3-5.3H268.8z"/>
		<path class="st9" d="M238,168.8H85.4c-2.5,0-4.5-2-4.5-4.5V63.1c0-2.5,2-4.5,4.5-4.5H238c2.5,0,4.5,2,4.5,4.5v101.2
			C242.5,166.8,240.5,168.8,238,168.8z"/>
		<path class="st9" d="M238,58.6H85.4c-2.5,0-4.5,2-4.5,4.5v94.4h161.7V63.1C242.5,60.6,240.5,58.6,238,58.6z"/>
		<path class="st192" d="M238,58.6H85.4c-2.5,0-4.5,2-4.5,4.5v0.3c0-2.5,2-4.5,4.5-4.5H238c2.5,0,4.5,2,4.5,4.5v-0.3
			C242.5,60.6,240.5,58.6,238,58.6z"/>
		<rect x="87.1" y="65.5" class="st7" width="149.1" height="88.3"/>
		<g>
			<g>
				<path class="st9" d="M192,81.6h-84.3c-0.6,0-1-0.5-1-1v0c0-0.6,0.5-1,1-1H192c0.6,0,1,0.5,1,1v0C193.1,81.1,192.6,81.6,192,81.6
					z"/>
				<path class="st9" d="M147.1,75.2H93.3c-0.7,0-1.3-0.6-1.3-1.3v0c0-0.7,0.6-1.3,1.3-1.3h53.7c0.7,0,1.3,0.6,1.3,1.3v0
					C148.4,74.6,147.8,75.2,147.1,75.2z"/>
				<path class="st9" d="M98.5,81.6H93c-0.6,0-1-0.5-1-1v0c0-0.6,0.5-1,1-1h5.4c0.6,0,1,0.5,1,1v0C99.5,81.1,99,81.6,98.5,81.6z"/>
				<path class="st9" d="M137,87.3H93.5c-0.4,0-0.6-0.3-0.6-0.6l0,0c0-0.4,0.3-0.6,0.6-0.6H137c0.4,0,0.6,0.3,0.6,0.6l0,0
					C137.6,87,137.3,87.3,137,87.3z"/>
				<path class="st9" d="M137,92.6H93.5c-0.4,0-0.6-0.3-0.6-0.6l0,0c0-0.4,0.3-0.6,0.6-0.6H137c0.4,0,0.6,0.3,0.6,0.6l0,0
					C137.6,92.3,137.3,92.6,137,92.6z"/>
				<path class="st9" d="M137,97.9H93.5c-0.4,0-0.6-0.3-0.6-0.6v0c0-0.4,0.3-0.6,0.6-0.6H137c0.4,0,0.6,0.3,0.6,0.6v0
					C137.6,97.6,137.3,97.9,137,97.9z"/>
				<path class="st9" d="M137,103.1H93.5c-0.4,0-0.6-0.3-0.6-0.6l0,0c0-0.4,0.3-0.6,0.6-0.6H137c0.4,0,0.6,0.3,0.6,0.6l0,0
					C137.6,102.8,137.3,103.1,137,103.1z"/>
				<path class="st9" d="M100.2,108.4h-6.6c-0.4,0-0.6-0.3-0.6-0.6l0,0c0-0.4,0.3-0.6,0.6-0.6h6.6c0.4,0,0.6,0.3,0.6,0.6l0,0
					C100.8,108.1,100.5,108.4,100.2,108.4z"/>
				<path class="st9" d="M111.7,108.4h-6.6c-0.4,0-0.6-0.3-0.6-0.6l0,0c0-0.4,0.3-0.6,0.6-0.6h6.6c0.4,0,0.6,0.3,0.6,0.6l0,0
					C112.4,108.1,112.1,108.4,111.7,108.4z"/>
				<path class="st9" d="M123.3,108.4h-6.6c-0.4,0-0.6-0.3-0.6-0.6l0,0c0-0.4,0.3-0.6,0.6-0.6h6.6c0.4,0,0.6,0.3,0.6,0.6l0,0
					C123.9,108.1,123.6,108.4,123.3,108.4z"/>
				<path class="st9" d="M134.8,108.4h-6.6c-0.4,0-0.6-0.3-0.6-0.6l0,0c0-0.4,0.3-0.6,0.6-0.6h6.6c0.4,0,0.6,0.3,0.6,0.6l0,0
					C135.5,108.1,135.2,108.4,134.8,108.4z"/>
				<path class="st9" d="M146.4,108.4h-6.6c-0.4,0-0.6-0.3-0.6-0.6l0,0c0-0.4,0.3-0.6,0.6-0.6h6.6c0.4,0,0.6,0.3,0.6,0.6l0,0
					C147.1,108.1,146.8,108.4,146.4,108.4z"/>
				<path class="st9" d="M158,108.4h-6.6c-0.4,0-0.6-0.3-0.6-0.6l0,0c0-0.4,0.3-0.6,0.6-0.6h6.6c0.4,0,0.6,0.3,0.6,0.6l0,0
					C158.6,108.1,158.3,108.4,158,108.4z"/>
				<path class="st9" d="M137,113.7H93.5c-0.4,0-0.6-0.3-0.6-0.6l0,0c0-0.4,0.3-0.6,0.6-0.6H137c0.4,0,0.6,0.3,0.6,0.6l0,0
					C137.6,113.4,137.3,113.7,137,113.7z"/>
				<path class="st9" d="M226.3,96.1H173c-0.5,0-0.9-0.4-0.9-0.9v0c0-0.5,0.4-0.9,0.9-0.9h53.3c0.5,0,0.9,0.4,0.9,0.9v0
					C227.2,95.7,226.8,96.1,226.3,96.1z"/>
				<path class="st9" d="M226.3,104H173c-0.5,0-0.9-0.4-0.9-0.9v0c0-0.5,0.4-0.9,0.9-0.9h53.3c0.5,0,0.9,0.4,0.9,0.9v0
					C227.2,103.6,226.8,104,226.3,104z"/>
				<path class="st9" d="M226.3,111.4H173c-0.5,0-0.9-0.4-0.9-0.9l0,0c0-0.5,0.4-0.9,0.9-0.9h53.3c0.5,0,0.9,0.4,0.9,0.9l0,0
					C227.2,111,226.8,111.4,226.3,111.4z"/>
				<path class="st9" d="M226.3,118.8H173c-0.5,0-0.9-0.4-0.9-0.9l0,0c0-0.5,0.4-0.9,0.9-0.9h53.3c0.5,0,0.9,0.4,0.9,0.9l0,0
					C227.2,118.4,226.8,118.8,226.3,118.8z"/>
				<path class="st9" d="M226.3,126.2H173c-0.5,0-0.9-0.4-0.9-0.9l0,0c0-0.5,0.4-0.9,0.9-0.9h53.3c0.5,0,0.9,0.4,0.9,0.9l0,0
					C227.2,125.8,226.8,126.2,226.3,126.2z"/>
				<path class="st9" d="M200.4,133.6H173c-0.5,0-0.9-0.4-0.9-0.9l0,0c0-0.5,0.4-0.9,0.9-0.9h27.4c0.5,0,0.9,0.4,0.9,0.9l0,0
					C201.3,133.2,200.9,133.6,200.4,133.6z"/>
				<path class="st9" d="M218.3,138.7h-27.4c-0.5,0-0.9-0.4-0.9-0.9l0,0c0-0.5,0.4-0.9,0.9-0.9h27.4c0.5,0,0.9,0.4,0.9,0.9l0,0
					C219.2,138.3,218.8,138.7,218.3,138.7z"/>
				<path class="st9" d="M218.3,143.9h-27.4c-0.5,0-0.9-0.4-0.9-0.9l0,0c0-0.5,0.4-0.9,0.9-0.9h27.4c0.5,0,0.9,0.4,0.9,0.9l0,0
					C219.2,143.5,218.8,143.9,218.3,143.9z"/>
				<path class="st9" d="M113,143.9h-12.8c-0.5,0-0.9-0.4-0.9-0.9l0,0c0-0.5,0.4-0.9,0.9-0.9H113c0.5,0,0.9,0.4,0.9,0.9l0,0
					C113.9,143.5,113.5,143.9,113,143.9z"/>
				<path class="st9" d="M113,139.6h-12.8c-0.5,0-0.9-0.4-0.9-0.9v0c0-0.5,0.4-0.9,0.9-0.9H113c0.5,0,0.9,0.4,0.9,0.9v0
					C113.9,139.2,113.5,139.6,113,139.6z"/>
				<path class="st9" d="M113,135.3h-12.8c-0.5,0-0.9-0.4-0.9-0.9l0,0c0-0.5,0.4-0.9,0.9-0.9H113c0.5,0,0.9,0.4,0.9,0.9l0,0
					C113.9,134.9,113.5,135.3,113,135.3z"/>
				<path class="st9" d="M113,130.9h-12.8c-0.5,0-0.9-0.4-0.9-0.9l0,0c0-0.5,0.4-0.9,0.9-0.9H113c0.5,0,0.9,0.4,0.9,0.9l0,0
					C113.9,130.5,113.5,130.9,113,130.9z"/>
				<path class="st9" d="M125.1,130.9h-3.9c-0.5,0-0.9-0.4-0.9-0.9l0,0c0-0.5,0.4-0.9,0.9-0.9h3.9c0.5,0,0.9,0.4,0.9,0.9l0,0
					C126,130.5,125.6,130.9,125.1,130.9z"/>
				<path class="st9" d="M125.1,140.5h-3.9c-0.5,0-0.9-0.4-0.9-0.9v0c0-0.5,0.4-0.9,0.9-0.9h3.9c0.5,0,0.9,0.4,0.9,0.9v0
					C126,140.1,125.6,140.5,125.1,140.5z"/>
			</g>
		</g>
		<g>
			<rect x="153.9" y="125.3" class="st36" width="16.6" height="12.5"/>
			<path class="st9" d="M181.9,224h-39.6c-4.3,0-7.8-3.5-7.8-7.8v-7.7c0-4.3,3.5-7.8,7.8-7.8h39.6c4.3,0,7.8,3.5,7.8,7.8v7.7
				C189.6,220.5,186.1,224,181.9,224z"/>
			<g>
				<g>
					<path class="st4" d="M164.8,88.4l11.6-11.6c0,0,2.9,5.4-0.4,11.6l4.8-4.8c0,0,2.1,6.4-2.2,10l3.9-3.9c0,0,2.5,7.3-6.7,12.9
						L164.8,88.4z"/>
					<circle class="st36" cx="176" cy="113" r="5.1"/>
					<circle class="st36" cx="148.4" cy="113" r="5.1"/>
					<path class="st4" d="M162.2,132.7L162.2,132.7c-8.8,0-16-7.2-16-16v-12.6c0-8.8,7.2-16,16-16h0c8.8,0,16,7.2,16,16v12.6
						C178.1,125.5,170.9,132.7,162.2,132.7z"/>
					<polygon class="st3" points="149.4,114.2 149.4,118.1 151.4,116.2 153,117.8 154.6,116.2 156,117.7 156,113.2 155.5,115.9 
						154.6,114.9 153,116.7 151.4,114.9 150.2,116.2 					"/>
					<polygon class="st3" points="157,107.1 157,112.1 159.5,109.6 161.6,111.7 163.5,109.7 165.4,111.5 165.4,105.8 164.7,109.3 
						163.6,108 161.6,110.3 159.4,108 157.9,109.7 					"/>
					<polygon class="st3" points="169.5,119 169.5,122.1 171,120.5 172.3,121.8 173.6,120.6 174.7,121.7 174.7,118.1 174.3,120.3 
						173.6,119.5 172.3,120.9 171,119.5 170.1,120.5 					"/>
					<polygon class="st4" points="158.8,130.8 158.8,134.9 160,133.8 161.2,135 162.4,133.8 163.7,135.1 163.7,130.8 					"/>
					<polygon class="st4" points="163.1,130.5 163.7,134 164.6,133 165.7,134.1 166.7,133.1 167.7,134.1 167.7,130.5 					"/>
					<polygon class="st4" points="154.8,130.5 154.8,134 155.7,133 156.8,134.1 157.8,133.1 158.8,134.1 159.2,130.5 					"/>
					<polygon class="st4" points="151.9,92.8 148.3,89.2 148.3,92.8 144.9,92.8 147.4,95.3 144.9,95.3 147.7,98.1 151.9,98.1 					
						"/>
				</g>
				<polyline class="st36" points="124.9,169.7 123.1,180.8 133.7,180.8 133.7,168.3 126.2,166.8 				"/>
				<path class="st4" d="M143.6,141.1c-7.5,3.7-14.2,4.8-22.7,27.3l12.8,4.3C133.7,172.6,142.1,151.6,143.6,141.1z"/>
				<polyline class="st36" points="198.5,169.7 200.3,180.8 189.8,180.8 189.8,168.3 197.2,166.8 				"/>
				<path class="st4" d="M179.9,141.1c7.5,3.7,14.2,4.8,22.7,27.3l-12.8,4.3C189.8,172.6,181.3,151.6,179.9,141.1z"/>
				<path class="st3" d="M165.8,215h-8.3c-14.1,0-22.8-6.7-22.8-22.2l-2.8-30.3c0-14.1,11.5-25.6,25.6-25.6h8.3
					c14.1,0,25.6,11.5,25.6,25.6l-4.4,28.5C187.1,208.9,179.9,215,165.8,215z"/>
			</g>
			<g>
				<path class="st4" d="M142.5,292.5c0,2.3,3.2,1.9,7.2,1.9s7.2,0.3,7.2-1.9c0-2.3-3.2-4.1-7.2-4.1S142.5,290.2,142.5,292.5z"/>
				<path class="st9" d="M137.9,224l11.6,67.4c0,0,3.3,1.2,7.3,0v-51.2L137.9,224z"/>
				<path class="st4" d="M181.7,292.5c0,2.3-3.2,1.9-7.2,1.9s-7.2,0.3-7.2-1.9c0-2.3,3.2-4.1,7.2-4.1S181.7,290.2,181.7,292.5z"/>
				<path class="st9" d="M186.3,224l-11.6,67.4c0,0-3.3,1.2-7.3,0v-51.2L186.3,224z"/>
			</g>
			<g>
				<path class="st5" d="M163.9,238.6v43.5c0,0.7-0.6,1.3-1.3,1.3h-1.1c-0.7,0-1.3-0.6-1.3-1.3v-43.5c0-0.7,0.6-1.3,1.3-1.3h1.1
					C163.4,237.4,163.9,237.9,163.9,238.6z"/>
				<path class="st3" d="M162.1,258.4L162.1,258.4c-3.3,0-6-2.7-6-6v-10.3c0-3.3,2.7-6,6-6h1.2c2.7,0,4.8,2.2,4.8,4.8v11.5
					C168.1,255.7,165.4,258.4,162.1,258.4z"/>
				<path class="st193" d="M168.1,242.3c-3.7-1.7-8.3-1.7-12,0c0-1.4,0-2.9,0-4.3c3.7-1.7,8.3-1.7,12,0
					C168.1,239.4,168.1,240.9,168.1,242.3z"/>
				<g>
					<g>
						<g>
							<g>
								<path class="st5" d="M134.5,224.9h-7.6c-10.2,0-18.5-8.3-18.5-18.5c0-9.9,7.8-17.9,17.5-18.5c0.1,0,0.2,0,0.3,0h0.7
									c1.1,0,2.1,0.9,2.1,2.1s-0.9,2.1-2.1,2.1c-7.9,0-14.4,6.4-14.4,14.4c0,7.9,6.4,14.4,14.4,14.4h7.6c1.1,0,2.1,0.9,2.1,2.1
									S135.7,224.9,134.5,224.9z"/>
							</g>
						</g>
					</g>
					<g>
						<g>
							<g>
								<g>
									<path class="st7" d="M128.8,192.7h-6.7c-1.9,0-3.4-1.6-3.4-3.4v0c0-1.9,1.6-3.4,3.4-3.4h6.7c1.9,0,3.4,1.6,3.4,3.4v0
										C132.3,191.2,130.7,192.7,128.8,192.7z"/>
								</g>
							</g>
						</g>
					</g>
				</g>
				<g>
					<g>
						<g>
							<g>
								<path class="st5" d="M188.8,224.9h7.6c10.2,0,18.5-8.3,18.5-18.5c0-9.9-7.8-17.9-17.5-18.5c-0.1,0-0.2,0-0.3,0h-0.7
									c-1.1,0-2.1,0.9-2.1,2.1s0.9,2.1,2.1,2.1c7.9,0,14.4,6.4,14.4,14.4c0,7.9-6.4,14.4-14.4,14.4h-7.6c-1.1,0-2.1,0.9-2.1,2.1
									S187.6,224.9,188.8,224.9z"/>
							</g>
						</g>
					</g>
					<g>
						<g>
							<g>
								<g>
									<path class="st7" d="M194.5,192.7h6.7c1.9,0,3.4-1.6,3.4-3.4v0c0-1.9-1.6-3.4-3.4-3.4h-6.7c-1.9,0-3.4,1.6-3.4,3.4v0
										C191,191.2,192.6,192.7,194.5,192.7z"/>
								</g>
							</g>
						</g>
					</g>
				</g>
				<path class="st7" d="M191.9,235.6h-59.7c-4.6,0-8.3-3.7-8.3-8.3v0c0-4.6,3.7-8.3,8.3-8.3h59.7c4.6,0,8.3,3.7,8.3,8.3v0
					C200.2,231.9,196.5,235.6,191.9,235.6z"/>
				<path class="st7" d="M172.2,211.6h-21.5c-8.6,0-15.6-7-15.6-15.6l-3.9-33.8c0-8.6,7-15.6,15.6-15.6h30.7c8.6,0,15.6,7,15.6,15.6
					l-5.2,33.8C187.9,204.6,180.8,211.6,172.2,211.6z"/>
				<path class="st6" d="M188.4,238.7h-52.7c-2,0-3.7-1.7-3.7-3.7v0c0-2,1.7-3.7,3.7-3.7h52.7c2,0,3.7,1.7,3.7,3.7v0
					C192.1,237.1,190.5,238.7,188.4,238.7z"/>
				<path class="st7" d="M175.5,246h-26.9c-1.4,0-2.5-1.1-2.5-2.5v-2.3c0-1.4,1.1-2.5,2.5-2.5h26.9c1.4,0,2.5,1.1,2.5,2.5v2.3
					C178.1,244.8,176.9,246,175.5,246z"/>
				<path class="st5" d="M185.2,237.1c1,0,1.8,0.8,1.8,1.8l0,0c0,1-0.8,1.8-1.8,1.8H139c-1,0-1.8-0.8-1.8-1.8l0,0
					c0-1,0.8-1.8,1.8-1.8"/>
				<path class="st3" d="M158.8,286.3v-5.7c0-1.8,1.5-3.3,3.3-3.3l0,0c1.8,0,3.3,1.5,3.3,3.3v5.7"/>
				<g>
					<g>
						<path class="st5" d="M137.1,292.4c-0.5,0-1-0.3-1.2-0.8c-0.3-0.7,0-1.4,0.7-1.7c16.6-7.5,35.7-7.5,52.3,0
							c0.7,0.3,0.9,1.1,0.7,1.7c-0.3,0.7-1.1,1-1.7,0.7c-16-7.2-34.3-7.2-50.2,0C137.5,292.4,137.3,292.4,137.1,292.4z"/>
					</g>
				</g>
				<path class="st4" d="M166.6,287.7h-8.5c-0.8,0-1.5-0.7-1.5-1.5v-1.3c0-0.8,0.7-1.5,1.5-1.5h8.5c0.8,0,1.5,0.7,1.5,1.5v1.3
					C168.1,287.1,167.5,287.7,166.6,287.7z"/>
				<path class="st5" d="M162.4,297.1L162.4,297.1c-0.5,0-0.9-0.4-0.9-0.9v-9.7c0-0.5,0.4-0.9,0.9-0.9l0,0c0.5,0,0.9,0.4,0.9,0.9
					v9.7C163.3,296.7,162.9,297.1,162.4,297.1z"/>
				<path class="st1" d="M162.4,303L162.4,303c-1.4,0-2.5-1.1-2.5-2.5v-4.7c0-1.4,1.1-2.5,2.5-2.5l0,0c1.4,0,2.5,1.1,2.5,2.5v4.7
					C164.8,301.9,163.7,303,162.4,303z"/>
				<g>
					<circle class="st1" cx="190.7" cy="293.9" r="4.7"/>
					<circle class="st4" cx="190.7" cy="293.9" r="2.8"/>
					<circle class="st3" cx="190.7" cy="293.9" r="1.1"/>
				</g>
				<g>
					<circle class="st1" cx="135.8" cy="293.9" r="4.7"/>
					<circle class="st4" cx="135.8" cy="293.9" r="2.8"/>
					<circle class="st3" cx="135.8" cy="293.9" r="1.1"/>
				</g>
				<path class="st3" d="M170.4,183.3h-16.6c-4.2,0-7.7-3.4-7.7-7.7v0c0-4.2,3.4-7.7,7.7-7.7h16.6c4.2,0,7.7,3.4,7.7,7.7v0
					C178.1,179.9,174.6,183.3,170.4,183.3z"/>
				<path class="st5" d="M163.2,235.1H161c-1.4,0-2.5-1.1-2.5-2.5v-56.3c0-1.4,1.1-2.5,2.5-2.5h2.3c1.4,0,2.5,1.1,2.5,2.5v56.3
					C165.7,234,164.6,235.1,163.2,235.1z"/>
				<g>
					<path class="st9" d="M164.4,179.2h-4.7c-0.3,0-0.5-0.2-0.5-0.5v-0.5c0-0.3,0.2-0.5,0.5-0.5h4.7c0.3,0,0.5,0.2,0.5,0.5v0.5
						C165,179,164.7,179.2,164.4,179.2z"/>
				</g>
				<g>
					<path class="st9" d="M164.4,183.5h-4.7c-0.3,0-0.5-0.2-0.5-0.5v-0.5c0-0.3,0.2-0.5,0.5-0.5h4.7c0.3,0,0.5,0.2,0.5,0.5v0.5
						C165,183.3,164.7,183.5,164.4,183.5z"/>
				</g>
				<g>
					<path class="st9" d="M164.4,187.7h-4.7c-0.3,0-0.5-0.2-0.5-0.5v-0.5c0-0.3,0.2-0.5,0.5-0.5h4.7c0.3,0,0.5,0.2,0.5,0.5v0.5
						C165,187.4,164.7,187.7,164.4,187.7z"/>
				</g>
				<g>
					<path class="st9" d="M164.4,191.8h-4.7c-0.3,0-0.5-0.2-0.5-0.5v-0.5c0-0.3,0.2-0.5,0.5-0.5h4.7c0.3,0,0.5,0.2,0.5,0.5v0.5
						C165,191.6,164.7,191.8,164.4,191.8z"/>
				</g>
				<g>
					<path class="st9" d="M164.4,195.9h-4.7c-0.3,0-0.5-0.2-0.5-0.5v-0.5c0-0.3,0.2-0.5,0.5-0.5h4.7c0.3,0,0.5,0.2,0.5,0.5v0.5
						C165,195.7,164.7,195.9,164.4,195.9z"/>
				</g>
				<g>
					<path class="st9" d="M164.4,200h-4.7c-0.3,0-0.5-0.2-0.5-0.5V199c0-0.3,0.2-0.5,0.5-0.5h4.7c0.3,0,0.5,0.2,0.5,0.5v0.5
						C165,199.8,164.7,200,164.4,200z"/>
				</g>
				<g>
					<path class="st9" d="M164.4,204.2h-4.7c-0.3,0-0.5-0.2-0.5-0.5v-0.5c0-0.3,0.2-0.5,0.5-0.5h4.7c0.3,0,0.5,0.2,0.5,0.5v0.5
						C165,203.9,164.7,204.2,164.4,204.2z"/>
				</g>
				<g>
					<path class="st9" d="M164.4,208.3h-4.7c-0.3,0-0.5-0.2-0.5-0.5v-0.5c0-0.3,0.2-0.5,0.5-0.5h4.7c0.3,0,0.5,0.2,0.5,0.5v0.5
						C165,208.1,164.7,208.3,164.4,208.3z"/>
				</g>
				<g>
					<path class="st9" d="M164.4,212.4h-4.7c-0.3,0-0.5-0.2-0.5-0.5v-0.5c0-0.3,0.2-0.5,0.5-0.5h4.7c0.3,0,0.5,0.2,0.5,0.5v0.5
						C165,212.2,164.7,212.4,164.4,212.4z"/>
				</g>
				<g>
					<path class="st9" d="M164.4,216.6h-4.7c-0.3,0-0.5-0.2-0.5-0.5v-0.5c0-0.3,0.2-0.5,0.5-0.5h4.7c0.3,0,0.5,0.2,0.5,0.5v0.5
						C165,216.3,164.7,216.6,164.4,216.6z"/>
				</g>
				<g>
					<path class="st9" d="M164.4,220.7h-4.7c-0.3,0-0.5-0.2-0.5-0.5v-0.5c0-0.3,0.2-0.5,0.5-0.5h4.7c0.3,0,0.5,0.2,0.5,0.5v0.5
						C165,220.4,164.7,220.7,164.4,220.7z"/>
				</g>
				<g>
					<path class="st9" d="M164.4,224.8h-4.7c-0.3,0-0.5-0.2-0.5-0.5v-0.5c0-0.3,0.2-0.5,0.5-0.5h4.7c0.3,0,0.5,0.2,0.5,0.5v0.5
						C165,224.6,164.7,224.8,164.4,224.8z"/>
				</g>
				<g>
					<path class="st9" d="M164.4,228.9h-4.7c-0.3,0-0.5-0.2-0.5-0.5v-0.5c0-0.3,0.2-0.5,0.5-0.5h4.7c0.3,0,0.5,0.2,0.5,0.5v0.5
						C165,228.7,164.7,228.9,164.4,228.9z"/>
				</g>
			</g>
		</g>
	</g>
</g>
</svg>
