<?xml version="1.0" encoding="utf-8"?>
<!-- Generator: Adobe Illustrator 22.0.1, SVG Export Plug-In . SVG Version: 6.00 Build 0)  -->
<svg version="1.1" id="Layer_1" xmlns="http://www.w3.org/2000/svg" xmlns:xlink="http://www.w3.org/1999/xlink" x="0px" y="0px"
	 viewBox="0 0 320 320" style="enable-background:new 0 0 320 320;" xml:space="preserve">
<style type="text/css">
	.st0{fill:#E8E8E8;}
	.st1{fill:#6B30B7;}
	.st2{fill:#825FC0;}
	.st3{fill:#CFC3E8;}
	.st4{fill:#E6E6E6;}
	.st5{fill:#F2F2F2;}
	.st6{fill:#291347;}
	.st7{fill:#FFFFFF;stroke:#6B30B7;stroke-width:23.2527;stroke-miterlimit:10;}
	.st8{fill:#FFFFFF;}
	.st9{opacity:0.15;}
	.st10{opacity:0.1;fill:#6B30B7;}
	.st11{opacity:0.3;fill:#6B30B7;}
	.st12{opacity:0.6;fill:#6B30B7;}
	.st13{opacity:0.8;fill:#6B30B7;}
	.st14{fill:none;stroke:#6B30B7;stroke-width:3;stroke-miterlimit:10;}
	.st15{fill:#E11F21;}
	.st16{fill:#0B6FB6;}
	.st17{fill:#646464;}
	.st18{fill:url(#path1948_1_);}
	.st19{fill:url(#path1950_1_);}
	.st20{opacity:0.4438;fill:url(#path1894_1_);enable-background:new    ;}
	.st21{fill:#007ACC;}
	.st22{fill:#00599C;}
	.st23{fill:#004482;}
	.st24{fill:#659AD2;}
	.st25{fill:#A9B9CB;}
	.st26{fill:#7F8B99;}
	.st27{fill:none;stroke:#E6E6E6;stroke-miterlimit:10;}
	.st28{clip-path:url(#SVGID_3_);}
	.st29{opacity:0.3;fill:#291347;}
	.st30{opacity:0.2;}
	.st31{clip-path:url(#SVGID_6_);}
	.st32{fill:#FAFBFB;}
	.st33{fill:url(#SVGID_7_);}
	.st34{fill:url(#SVGID_8_);}
	.st35{fill:#FFBE98;}
	.st36{fill:url(#SVGID_9_);}
	.st37{clip-path:url(#SVGID_11_);fill:#F2F2F2;}
	.st38{fill:#FFA726;}
	.st39{fill:#263238;}
	.st40{clip-path:url(#SVGID_14_);}
	.st41{filter:url(#Adobe_OpacityMaskFilter);}
	.st42{filter:url(#Adobe_OpacityMaskFilter_1_);}
	.st43{mask:url(#SVGID_15_);fill:url(#SVGID_16_);}
	.st44{opacity:0.24;fill:#CFC3E8;}
	.st45{opacity:0.29;}
	.st46{fill:none;stroke:#FFFFFF;stroke-width:2;stroke-miterlimit:10;}
	.st47{opacity:0.7;}
	.st48{opacity:0.4;fill:url(#SVGID_17_);}
	.st49{opacity:0.4;}
	.st50{opacity:0.4;fill:url(#SVGID_18_);}
	.st51{fill:#312A91;}
	.st52{opacity:0.9;}
	.st53{opacity:0.4;fill:#FFFFFF;}
	.st54{opacity:0.4;fill:url(#SVGID_19_);}
	.st55{opacity:0.4;fill:url(#SVGID_20_);}
	.st56{opacity:0.7;fill:#291347;}
	.st57{opacity:0.7;fill:#825FC0;}
	.st58{opacity:0.7;fill:#6B30B7;}
	.st59{opacity:0.3;fill:#42E8E0;}
	.st60{opacity:0.4;fill:url(#SVGID_21_);}
	.st61{opacity:0.3;fill:#825FC0;}
	.st62{opacity:0.3;fill:#CFC3E8;}
	.st63{opacity:0.5;fill:#F2F2F2;}
	.st64{opacity:0.5;fill:#CFC3E8;}
	.st65{opacity:0.7;fill:url(#SVGID_22_);}
	.st66{opacity:0.9;fill:#FFFFFF;}
	.st67{opacity:0.3;fill:#FFFFFF;}
	.st68{opacity:0.2;fill:#FFFFFF;}
	.st69{opacity:0.4;fill:url(#SVGID_23_);}
	.st70{opacity:0.4;fill:url(#SVGID_24_);}
	.st71{opacity:0.4;fill:url(#SVGID_25_);}
	.st72{opacity:0.4;fill:url(#SVGID_26_);}
	.st73{opacity:0.4;fill:url(#SVGID_27_);}
	.st74{opacity:0.7;fill:url(#SVGID_28_);}
	.st75{opacity:0.4;fill:url(#SVGID_29_);}
	.st76{opacity:0.4;fill:url(#SVGID_30_);}
	.st77{opacity:0.4;fill:url(#SVGID_31_);}
	.st78{opacity:0.4;fill:url(#SVGID_32_);}
	.st79{opacity:0.4;fill:url(#SVGID_33_);}
	.st80{opacity:0.7;fill:url(#SVGID_34_);}
	.st81{opacity:0.4;fill:url(#SVGID_35_);}
	.st82{opacity:0.4;fill:url(#SVGID_36_);}
	.st83{opacity:0.4;fill:url(#SVGID_37_);}
	.st84{opacity:0.4;fill:url(#SVGID_38_);}
	.st85{opacity:0.4;fill:url(#SVGID_39_);}
	.st86{opacity:0.7;fill:url(#SVGID_40_);}
	.st87{opacity:0.4;fill:url(#SVGID_41_);}
	.st88{opacity:0.4;fill:url(#SVGID_42_);}
	.st89{opacity:0.4;fill:url(#SVGID_43_);}
	.st90{opacity:0.4;fill:url(#SVGID_44_);}
	.st91{opacity:0.4;fill:url(#SVGID_45_);}
	.st92{opacity:0.7;fill:url(#SVGID_46_);}
	.st93{opacity:0.4;fill:url(#SVGID_47_);}
	.st94{opacity:0.4;fill:url(#SVGID_48_);}
	.st95{opacity:0.4;fill:url(#SVGID_49_);}
	.st96{opacity:0.4;fill:url(#SVGID_50_);}
	.st97{opacity:0.4;fill:url(#SVGID_51_);}
	.st98{opacity:0.7;fill:url(#SVGID_52_);}
	.st99{opacity:0.48;fill:url(#SVGID_53_);}
	.st100{opacity:0.48;fill:url(#SVGID_54_);}
	.st101{opacity:5.000000e-02;}
	.st102{clip-path:url(#SVGID_57_);}
	.st103{opacity:0.75;}
	.st104{clip-path:url(#SVGID_60_);}
	.st105{filter:url(#Adobe_OpacityMaskFilter_2_);}
	.st106{filter:url(#Adobe_OpacityMaskFilter_3_);}
	.st107{mask:url(#SVGID_61_);fill:url(#SVGID_62_);}
	.st108{opacity:0.4;fill:url(#SVGID_63_);}
	.st109{opacity:0.4;fill:url(#SVGID_64_);}
	.st110{opacity:0.4;fill:url(#SVGID_65_);}
	.st111{opacity:0.4;fill:url(#SVGID_66_);}
	.st112{opacity:0.4;fill:url(#SVGID_67_);}
	.st113{opacity:0.7;fill:url(#SVGID_68_);}
	.st114{opacity:0.4;fill:url(#SVGID_69_);}
	.st115{opacity:0.4;fill:url(#SVGID_70_);}
	.st116{opacity:0.4;fill:url(#SVGID_71_);}
	.st117{opacity:0.4;fill:url(#SVGID_72_);}
	.st118{opacity:0.4;fill:url(#SVGID_73_);}
	.st119{opacity:0.7;fill:url(#SVGID_74_);}
	.st120{opacity:0.4;fill:url(#SVGID_75_);}
	.st121{opacity:0.4;fill:url(#SVGID_76_);}
	.st122{opacity:0.4;fill:url(#SVGID_77_);}
	.st123{opacity:0.4;fill:url(#SVGID_78_);}
	.st124{opacity:0.4;fill:url(#SVGID_79_);}
	.st125{opacity:0.7;fill:url(#SVGID_80_);}
	.st126{opacity:0.4;fill:url(#SVGID_81_);}
	.st127{opacity:0.4;fill:url(#SVGID_82_);}
	.st128{opacity:0.4;fill:url(#SVGID_83_);}
	.st129{opacity:0.4;fill:url(#SVGID_84_);}
	.st130{opacity:0.4;fill:url(#SVGID_85_);}
	.st131{opacity:0.7;fill:url(#SVGID_86_);}
	.st132{opacity:0.4;fill:url(#SVGID_87_);}
	.st133{opacity:0.4;fill:url(#SVGID_88_);}
	.st134{opacity:0.4;fill:url(#SVGID_89_);}
	.st135{opacity:0.4;fill:url(#SVGID_90_);}
	.st136{opacity:0.4;fill:url(#SVGID_91_);}
	.st137{opacity:0.7;fill:url(#SVGID_92_);}
	.st138{opacity:0.4;fill:url(#SVGID_93_);}
	.st139{opacity:0.4;fill:url(#SVGID_94_);}
	.st140{opacity:0.4;fill:url(#SVGID_95_);}
	.st141{opacity:0.4;fill:url(#SVGID_96_);}
	.st142{opacity:0.4;fill:url(#SVGID_97_);}
	.st143{opacity:0.7;fill:url(#SVGID_98_);}
	.st144{opacity:0.48;fill:url(#SVGID_99_);}
	.st145{opacity:0.48;fill:url(#SVGID_100_);}
	.st146{clip-path:url(#SVGID_103_);}
	.st147{clip-path:url(#SVGID_106_);}
	.st148{fill:none;stroke:#CFC3E8;stroke-width:5;stroke-miterlimit:10;}
	.st149{opacity:0.76;fill:#291347;}
	.st150{filter:url(#Adobe_OpacityMaskFilter_4_);}
	.st151{filter:url(#Adobe_OpacityMaskFilter_5_);}
	.st152{clip-path:url(#SVGID_109_);mask:url(#SVGID_110_);fill:url(#SVGID_111_);}
	.st153{opacity:0.24;clip-path:url(#SVGID_109_);fill:#CFC3E8;}
	.st154{opacity:0.29;clip-path:url(#SVGID_109_);}
	.st155{clip-path:url(#SVGID_109_);}
	.st156{opacity:0.4;fill:url(#SVGID_112_);}
	.st157{opacity:0.4;fill:url(#SVGID_113_);}
	.st158{opacity:0.4;fill:url(#SVGID_114_);}
	.st159{opacity:0.4;fill:url(#SVGID_115_);}
	.st160{opacity:0.4;fill:url(#SVGID_116_);}
	.st161{opacity:0.7;fill:url(#SVGID_117_);}
	.st162{opacity:0.4;fill:url(#SVGID_118_);}
	.st163{opacity:0.4;fill:url(#SVGID_119_);}
	.st164{opacity:0.4;fill:url(#SVGID_120_);}
	.st165{opacity:0.4;fill:url(#SVGID_121_);}
	.st166{opacity:0.4;fill:url(#SVGID_122_);}
	.st167{opacity:0.7;fill:url(#SVGID_123_);}
	.st168{opacity:0.4;fill:url(#SVGID_124_);}
	.st169{opacity:0.4;fill:url(#SVGID_125_);}
	.st170{opacity:0.4;fill:url(#SVGID_126_);}
	.st171{opacity:0.4;fill:url(#SVGID_127_);}
	.st172{opacity:0.4;fill:url(#SVGID_128_);}
	.st173{opacity:0.7;fill:url(#SVGID_129_);}
	.st174{opacity:0.4;fill:url(#SVGID_130_);}
	.st175{opacity:0.4;fill:url(#SVGID_131_);}
	.st176{opacity:0.4;fill:url(#SVGID_132_);}
	.st177{opacity:0.4;fill:url(#SVGID_133_);}
	.st178{opacity:0.4;fill:url(#SVGID_134_);}
	.st179{opacity:0.7;fill:url(#SVGID_135_);}
	.st180{opacity:0.75;clip-path:url(#SVGID_109_);}
	.st181{fill:none;stroke:#CFC3E8;stroke-width:4.9727;stroke-miterlimit:10;}
	.st182{opacity:0.4;fill:url(#SVGID_136_);}
	.st183{opacity:0.4;fill:url(#SVGID_137_);}
	.st184{opacity:0.4;fill:url(#SVGID_138_);}
	.st185{opacity:0.4;fill:url(#SVGID_139_);}
	.st186{opacity:0.4;fill:url(#SVGID_140_);}
	.st187{opacity:0.7;fill:url(#SVGID_141_);}
	.st188{clip-path:url(#SVGID_144_);fill:url(#);}
	.st189{clip-path:url(#SVGID_144_);}
	.st190{opacity:0.1;fill:#CFC3E8;}
	.st191{fill:#56AEEC;}
	.st192{opacity:0.65;fill:#2C65CC;}
	.st193{clip-path:url(#SVGID_147_);}
	.st194{fill:#D4DBD1;}
	.st195{fill:#CCD3C8;}
	.st196{clip-path:url(#SVGID_150_);}
	.st197{fill:none;stroke:#291347;stroke-width:1.7941;stroke-linecap:round;stroke-linejoin:round;stroke-miterlimit:10;}
	.st198{fill:none;stroke:#825FC0;stroke-width:1.7941;stroke-linecap:round;stroke-linejoin:round;stroke-miterlimit:10;}
	.st199{opacity:0.18;fill:#6F00FF;}
	.st200{fill:#FFDD92;stroke:#291347;stroke-width:7.1763;stroke-miterlimit:10;}
	.st201{fill:#CFC3E8;stroke:#291347;stroke-width:7.1763;stroke-miterlimit:10;}
	.st202{fill:none;stroke:#291347;stroke-width:7.1763;stroke-miterlimit:10;}
	
		.st203{fill:none;stroke:#825FC0;stroke-width:1.7941;stroke-linecap:round;stroke-linejoin:round;stroke-miterlimit:10;stroke-dasharray:3.5881,3.5881;}
	.st204{fill:none;stroke:#F2F2F2;stroke-width:3.5881;stroke-miterlimit:10;}
	.st205{fill:#CFC3E8;stroke:#291446;stroke-width:7.1763;stroke-miterlimit:10;}
	.st206{fill:none;stroke:#FFFFFF;stroke-miterlimit:10;}
	.st207{clip-path:url(#SVGID_153_);fill:url(#);}
	.st208{clip-path:url(#SVGID_153_);}
	.st209{clip-path:url(#SVGID_156_);}
	.st210{clip-path:url(#SVGID_159_);}
	.st211{fill:url(#SVGID_160_);}
	.st212{fill:url(#SVGID_161_);}
	.st213{fill:url(#SVGID_162_);}
	.st214{clip-path:url(#SVGID_164_);fill:#F2F2F2;}
	.st215{filter:url(#Adobe_OpacityMaskFilter_6_);}
	.st216{filter:url(#Adobe_OpacityMaskFilter_7_);}
	.st217{clip-path:url(#SVGID_167_);mask:url(#SVGID_168_);fill:url(#SVGID_169_);}
	.st218{opacity:0.24;clip-path:url(#SVGID_167_);fill:#CFC3E8;}
	.st219{opacity:0.29;clip-path:url(#SVGID_167_);}
	.st220{clip-path:url(#SVGID_167_);}
	.st221{opacity:0.4;fill:url(#SVGID_170_);}
	.st222{opacity:0.4;fill:url(#SVGID_171_);}
	.st223{opacity:0.4;fill:url(#SVGID_172_);}
	.st224{opacity:0.4;fill:url(#SVGID_173_);}
	.st225{opacity:0.4;fill:url(#SVGID_174_);}
	.st226{opacity:0.7;fill:url(#SVGID_175_);}
	.st227{opacity:0.4;fill:url(#SVGID_176_);}
	.st228{opacity:0.4;fill:url(#SVGID_177_);}
	.st229{opacity:0.4;fill:url(#SVGID_178_);}
	.st230{opacity:0.4;fill:url(#SVGID_179_);}
	.st231{opacity:0.4;fill:url(#SVGID_180_);}
	.st232{opacity:0.7;fill:url(#SVGID_181_);}
	.st233{opacity:0.4;fill:url(#SVGID_182_);}
	.st234{opacity:0.4;fill:url(#SVGID_183_);}
	.st235{opacity:0.4;fill:url(#SVGID_184_);}
	.st236{opacity:0.4;fill:url(#SVGID_185_);}
	.st237{opacity:0.4;fill:url(#SVGID_186_);}
	.st238{opacity:0.7;fill:url(#SVGID_187_);}
	.st239{opacity:0.4;fill:url(#SVGID_188_);}
	.st240{opacity:0.4;fill:url(#SVGID_189_);}
	.st241{opacity:0.4;fill:url(#SVGID_190_);}
	.st242{opacity:0.4;fill:url(#SVGID_191_);}
	.st243{opacity:0.4;fill:url(#SVGID_192_);}
	.st244{opacity:0.7;fill:url(#SVGID_193_);}
	.st245{opacity:0.75;clip-path:url(#SVGID_167_);}
	.st246{opacity:0.4;fill:url(#SVGID_194_);}
	.st247{opacity:0.4;fill:url(#SVGID_195_);}
	.st248{opacity:0.4;fill:url(#SVGID_196_);}
	.st249{opacity:0.4;fill:url(#SVGID_197_);}
	.st250{opacity:0.4;fill:url(#SVGID_198_);}
	.st251{opacity:0.7;fill:url(#SVGID_199_);}
	.st252{clip-path:url(#SVGID_202_);}
	.st253{clip-path:url(#SVGID_205_);}
</style>
<g>
	<defs>
		<circle id="SVGID_200_" cx="160" cy="160" r="160"/>
	</defs>
	<linearGradient id="SVGID_2_" gradientUnits="userSpaceOnUse" x1="160" y1="-4.933812e-06" x2="160" y2="320">
		<stop  offset="0" style="stop-color:#CFC3E8"/>
		<stop  offset="0.5" style="stop-color:#6B30B7"/>
		<stop  offset="1" style="stop-color:#291347"/>
	</linearGradient>
	<use xlink:href="#SVGID_200_"  style="overflow:visible;fill:url(#SVGID_2_);"/>
	<clipPath id="SVGID_3_">
		<use xlink:href="#SVGID_200_"  style="overflow:visible;"/>
	</clipPath>
	<g class="st28">
		<path class="st3" d="M234.3,25.2H85.8C106.4,9.6,132.1,0.3,160,0.3C187.9,0.3,213.6,9.6,234.3,25.2z"/>
		<path class="st3" d="M258.7,49.9H61.3c6.2-8.4,13.5-15.9,21.6-22.4h154.2C245.2,34,252.5,41.5,258.7,49.9z"/>
		<path class="st3" d="M273,74.5H47c3-7,6.7-13.6,10.9-19.8h204.2C266.3,60.9,270,67.5,273,74.5z"/>
		<path class="st3" d="M280.7,99.1H39.3c1.2-5.9,2.8-11.7,4.8-17.2h231.8C277.9,87.5,279.5,93.2,280.7,99.1z"/>
		<path class="st3" d="M81.1,218h157.8c-1.8,1.5-3.6,2.9-5.5,4.3H86.5C84.7,220.9,82.9,219.5,81.1,218z"/>
		<path class="st3" d="M56.9,190.7h206.3c-1.5,2.4-3.2,4.7-4.9,6.9H61.7C60,195.4,58.4,193.1,56.9,190.7z"/>
		<path class="st3" d="M43.5,163.5h232.9c-1.1,3.2-2.4,6.4-3.7,9.5H47.3C45.9,169.9,44.7,166.8,43.5,163.5z"/>
		<path class="st3" d="M37.5,136.3h244.9c-0.4,4.1-1,8.1-1.9,12.1H39.4C38.6,144.4,38,140.4,37.5,136.3z"/>
		<path class="st3" d="M36.9,123.8v-0.3c0-4.9,0.3-9.7,0.8-14.4h244.6c0.5,4.7,0.8,9.5,0.8,14.4v0.3H36.9z"/>
	</g>
	<g class="st28">
		<polygon class="st4" points="93.4,99.3 99.7,99 103.8,97.3 104.8,99.5 100,102.7 93.6,103.3 		"/>
		<g>
			<path class="st197" d="M152.4,116.6c0,14.4-4.5,21.5-14.4,31.4c-21.5,21.5,4.3,47.3,17.9,56.5c2,1.3,3.7,2.2,4.5,2.7"/>
			<path class="st198" d="M147,116.6c-14.6,15.9-16.4,23.5-5.6,39.8c11.1,16.7-1.7,36,5.6,55.3"/>
		</g>
		<g>
			<g>
				<path class="st1" d="M168.4,120.3c4.2-5.8,6.3-12.4,5.9-19c-0.2-3.3-1-6.7-2.4-9.9c-1-2.2-2.3-4.4-4.3-6.2
					c-6.8-6.1-21.8-6.8-30.7-2.8c-10.7,4.8-12.5,12.8-13.8,20.7c-1.3,7.8,2.1,18.1,9.6,23.4c7.1,5,18.9,5.7,26.9,1.5
					C163.4,126.1,166.2,123.3,168.4,120.3z"/>
				<g>
					<path class="st3" d="M139.2,117.4c-1.3,0-2.4-1.1-2.4-2.4c0-1.3,1.1-2.5,2.4-2.5c1.3,0,2.5,1.1,2.5,2.5
						C141.7,116.3,140.5,117.4,139.2,117.4z M139.2,113.5c-0.8,0-1.5,0.7-1.5,1.5c0,0.8,0.7,1.5,1.5,1.5c0.8,0,1.5-0.7,1.5-1.5
						C140.7,114.2,140,113.5,139.2,113.5z"/>
				</g>
				<g>
					<path class="st3" d="M154.3,125.1c-1.3,0-2.3-1.1-2.3-2.3c0-1.3,1.1-2.3,2.3-2.3c1.3,0,2.3,1.1,2.3,2.3
						C156.7,124,155.6,125.1,154.3,125.1z M154.3,121.3c-0.8,0-1.4,0.7-1.4,1.4c0,0.8,0.7,1.4,1.4,1.4c0.8,0,1.4-0.7,1.4-1.4
						C155.8,122,155.1,121.3,154.3,121.3z"/>
				</g>
				<g>
					<path class="st3" d="M144.4,107.8c-1.3,0-2.5-1.1-2.5-2.5c0-1.3,1.1-2.4,2.5-2.4c1.3,0,2.4,1.1,2.4,2.4
						C146.9,106.7,145.7,107.8,144.4,107.8z M144.4,103.9c-0.8,0-1.5,0.7-1.5,1.5c0,0.8,0.7,1.5,1.5,1.5c0.8,0,1.5-0.7,1.5-1.5
						C145.9,104.5,145.2,103.9,144.4,103.9z"/>
				</g>
				<g>
					<path class="st3" d="M158.2,118.2c-1.3,0-2.5-1.1-2.5-2.5c0-1.3,1.1-2.4,2.5-2.4c1.3,0,2.4,1.1,2.4,2.4
						C160.6,117.1,159.5,118.2,158.2,118.2z M158.2,114.2c-0.8,0-1.5,0.7-1.5,1.5c0,0.8,0.7,1.5,1.5,1.5c0.8,0,1.5-0.7,1.5-1.5
						C159.7,114.9,159,114.2,158.2,114.2z"/>
				</g>
				<g>
					<path class="st3" d="M156.7,110.3c-1.3,0-2.5-1.1-2.5-2.5c0-1.3,1.1-2.4,2.5-2.4c1.3,0,2.4,1.1,2.4,2.4
						C159.1,109.1,158,110.3,156.7,110.3z M156.7,106.3c-0.8,0-1.5,0.7-1.5,1.5c0,0.8,0.7,1.5,1.5,1.5c0.8,0,1.5-0.7,1.5-1.5
						C158.2,107,157.5,106.3,156.7,106.3z"/>
				</g>
				<g>
					<path class="st3" d="M159.7,93.6c-1.3,0-2.5-1.1-2.5-2.5c0-1.3,1.1-2.4,2.5-2.4c1.3,0,2.4,1.1,2.4,2.4
						C162.2,92.5,161,93.6,159.7,93.6z M159.7,89.7c-0.8,0-1.5,0.7-1.5,1.5c0,0.8,0.7,1.5,1.5,1.5c0.8,0,1.5-0.7,1.5-1.5
						C161.2,90.4,160.5,89.7,159.7,89.7z"/>
				</g>
				<g>
					<path class="st3" d="M166.5,103.1c-1.1,0-2.1-1-2.1-2.1c0-1.1,1-2.1,2.1-2.1c1.1,0,2.1,1,2.1,2.1
						C168.6,102.1,167.7,103.1,166.5,103.1z"/>
				</g>
				<g>
					<path class="st3" d="M169.1,118.1c-1.1,0-2.1-1-2.1-2.1c0-1.1,1-2.1,2.1-2.1c1.1,0,2.1,1,2.1,2.1
						C171.2,117.1,170.2,118.1,169.1,118.1z"/>
				</g>
				<g>
					<path class="st3" d="M150,118.7c-1.1,0-2.1-1-2.1-2.1c0-1.1,1-2.1,2.1-2.1c1.1,0,2.1,1,2.1,2.1
						C152.1,117.8,151.2,118.7,150,118.7z"/>
				</g>
				<g>
					<path class="st3" d="M131.4,102.7c-1.3,0-2.4-1.1-2.4-2.4c0-1.3,1.1-2.5,2.4-2.5c1.3,0,2.5,1.1,2.5,2.5
						C133.9,101.6,132.7,102.7,131.4,102.7z M131.4,98.8c-0.8,0-1.5,0.7-1.5,1.5c0,0.8,0.7,1.5,1.5,1.5c0.8,0,1.5-0.7,1.5-1.5
						C132.9,99.4,132.2,98.8,131.4,98.8z"/>
				</g>
				<path class="st3" d="M153.2,121.2c-1.1-1.4-2.2-2.9-3.2-4.4c-0.2-0.2-0.6-0.2-0.6,0.2c0.1,0.9,0.8,1.7,1.2,2.4
					c0.6,0.9,1.2,1.8,1.8,2.6C152.9,122.5,153.6,121.7,153.2,121.2z"/>
				<path class="st3" d="M130.3,98.6c-0.3-1.1-1.2-1.8-1.9-2.6c-1-1.1-1.7-2.4-2.1-3.9c-0.2-0.7-1.1-0.4-1,0.3
					c0.4,2.7,2.6,4.5,4.1,6.6C129.7,99.4,130.5,99.2,130.3,98.6z"/>
				<path class="st3" d="M136.2,114.7c-4.1-0.2-8.1-0.6-12.2-1c-0.2,0-0.2,0.2-0.1,0.3c1.4,1.1,3.3,1.1,5.1,1.4
					c2.4,0.3,4.8,0.5,7.2,0.6C137,115.9,137,114.7,136.2,114.7z"/>
				<path class="st3" d="M137.3,82.4c-0.1,0-0.2,0-0.2,0c-0.2,0-0.2,0.2,0,0.2c0.1,0,0.2,0,0.2,0C137.4,82.7,137.4,82.4,137.3,82.4z
					"/>
				<path class="st3" d="M143.7,97.1c-0.2-2-0.2-4.3-0.7-6.2c-0.8-3.1-3.7-6.2-5.7-8.6c-0.2-0.3-0.7,0.1-0.5,0.4
					c1.7,2.8,4.9,5.8,5.3,9.1c0.5,3.8,0.9,7.7,1.3,11.6c0.1,0.7,1.1,0.7,1.1,0C144.2,101.2,143.9,99.1,143.7,97.1z"/>
				<path class="st3" d="M142.3,124.5c-1.8,0.3-3.5,0.5-5.3,0.8c-2.3,0.3-5.4,1.2-6.7-1.3c-0.1-0.2-0.4-0.1-0.4,0.1
					c0.2,1.6,1.5,2.7,3.2,2.8c3.2,0.1,6.5-0.7,9.6-1.2C143.4,125.5,143,124.4,142.3,124.5z"/>
				<path class="st3" d="M142.7,123.3c-1.2,0.4-2,2.9-0.7,3.5c0.1,0.1,0.1,0.1,0.2,0.2c1.2,1,3.1,0.1,3.3-1.4
					C145.6,124.1,144.2,122.8,142.7,123.3z M142.8,126.5c0-0.2-0.1-0.5-0.4-0.6c-0.3,0,0.1-1,0.1-1.2c0.1-0.4,0.4-0.6,0.7-0.7
					c0.9-0.2,1.5,0.6,1.5,1.3C144.6,126.4,143.6,126.9,142.8,126.5z"/>
				<path class="st3" d="M165.9,101c-1.4-0.3-2.9-0.4-4.4-0.4c-1.7-0.1-3.6,0.2-5.2-0.3c-0.2-0.1-0.5,0.1-0.5,0.4
					c0.1,1.6,0.1,3.1,0.1,4.7c0,0.3,0.5,0.3,0.5,0c0.1-1.4,0.1-2.8,0.1-4.2c1.1,0.3,2.4,0.2,3.6,0.3c1.9,0.1,3.8,0.4,5.7,0.4
					C166.2,101.8,166.4,101.1,165.9,101z"/>
				<path class="st3" d="M151.9,93.5c0-3.3,0.2-6.7-0.3-9.9c-0.4-2.2-2.2-4.2-4.5-3.9c-0.3,0-0.3,0.5,0,0.5c4.6,0.3,3.8,6.2,3.8,9.4
					c0,0.5,0.3,2.8,0.1,3.8c-0.7,0.1-1.3,0.5-1.8,1.4c-1.2,2.5,2.8,4,3.8,2.1c0.1-0.1,0.2-0.2,0.3-0.3
					C154.4,95.4,153.3,93.9,151.9,93.5z"/>
				<path class="st3" d="M167.6,116.1c-1.2-0.2-2.4-0.2-3.6-0.2c-0.6,0-1.2,0-1.7,0c-0.7,0-1.6,0.2-2.2-0.1
					c-0.2-0.1-0.3,0.1-0.2,0.3c0.6,0.6,1.6,0.6,2.4,0.7c1.7,0.2,3.5,0.4,5.2,0.3C167.9,116.9,168.1,116.1,167.6,116.1z"/>
				<path class="st3" d="M172.1,90.1c-0.1-0.7-1.1-0.4-1,0.3c0,0.2,0,0.4,0.1,0.7c-3.1-0.1-6.1-0.1-9.2-0.1c-0.4,0-0.4,0.5,0,0.6
					c3.3,0.3,6.5,0.4,9.8,0.6c0.3,0,0.5-0.2,0.5-0.5C172.2,90.8,172.2,90.8,172.1,90.1z"/>
			</g>
		</g>
		<path class="st8" d="M117,189c10.6-26.3,30.9-29.4,51-9.9c24.4,23.6,10.1,72.1,3.3,101.6c-3.6,15.4-10.1,25.7-28.2,15.6
			c-12.2-6.8-5.7-11.2-9.8-25.9C124.6,240,103,223.7,117,189z"/>
		<g>
			<g>
				<g>
					<path class="st8" d="M160.3,146.4c4.9,7.6,11.2,13.2,18.9,16.8c42.1,7.8,13.5-102.2-11-82.2
						C155.6,91.4,149.8,133.2,160.3,146.4z"/>
				</g>
			</g>
			<path class="st8" d="M192.7,134.4h-13.5l17.9-23.3l8.4,21.9c0.3,0.7-0.3,1.5-1,1.5H192.7z"/>
		</g>
		<g>
			<path class="st8" d="M267.8,252.8c-2.6-1.9-8.7,1.7-11.2,3.1c-4.4,2.4-9.1,4.3-13.6,6.5c-10.5,5.2-20.4,11.3-30.2,17.8
				c-2.6,1.7-8.6,5.7-7.2,9.7c0.3,0.9,1,1.5,1.7,2.1c6.3,4.8,12.4,1.6,18.4-1.5c6.5-3.4,12.1-8.2,18-12.5
				c6.7-4.9,13.5-9.8,20.2-14.7c2.2-1.6,5.1-3.7,5.3-6.7C269.1,254.5,268.6,253.4,267.8,252.8z"/>
		</g>
		<path class="st199" d="M162,123.1c6.3-4.8,9.6-10.6,9.4-16.6c-0.1-3-1.1-6.1-3-9c-1.3-2.1-3.1-4.1-5.9-5.9c-9.5-6-31-7.8-44-5
			c-15.6,3.4-18.6,2-20.7,16.6c-1,7,2.1,17.2,12.6,22.6c10,5.1,26.9,6.6,38.6,3.6C154.4,127.9,158.6,125.6,162,123.1z"/>
		<path class="st8" d="M90.9,292.8c-5.4,7.9-8.8-25.7-9-28c-1.1-10.1-10.2-46.6,4.6-52.3C105,205.3,96.4,284.7,90.9,292.8z"/>
		<path class="st8" d="M199.2,282.7c5.4,7.9,8.8-25.7,9-28c1.1-10.1,10.2-46.6-4.6-52.3C185.2,195.2,193.8,274.5,199.2,282.7z"/>
		<line class="st200" x1="-36.9" y1="200" x2="19.6" y2="166.8"/>
		<line class="st200" x1="18.7" y1="166" x2="41.2" y2="100.5"/>
		<circle class="st201" cx="19.6" cy="165.1" r="7.2"/>
		<line class="st202" x1="42.1" y1="98.7" x2="86" y2="96.9"/>
		<circle class="st201" cx="41.2" cy="99.6" r="7.2"/>
		<path class="st12" d="M206.9,293.4c-3.5-1.7-5.9-3.9-7.5-5.6c-1.6-1.7-1.2-4.4,0.7-5.7l7.4-5.2l10-7.6l1.7,13.1l0.8,9.4
			c0.2,2.2-1.6,4.2-3.8,4.2C213.9,295.8,210.7,295.3,206.9,293.4z"/>
		<line class="st202" x1="328.2" y1="197.3" x2="243.3" y2="255.9"/>
		<path class="st8" d="M84.3,180.5c4.2-2.3,19.1-6,16.1,3.1c-1,3.1-3.4,5.6-4.6,8.7c-1.3,3.3-0.8,8.6-2.8,11.4
			c-4,5.6-16.6,3.8-17.6-3.2C74.2,192.9,77.3,184.3,84.3,180.5z"/>
		<line class="st200" x1="320" y1="44.6" x2="282.9" y2="174.7"/>
		<line class="st202" x1="282" y1="172.7" x2="258.2" y2="178.7"/>
		<circle class="st201" cx="281.4" cy="172" r="7.2"/>
		<line class="st203" x1="216.5" y1="178.7" x2="190.4" y2="178.7"/>
		<line class="st203" x1="219.2" y1="185.9" x2="193.1" y2="185.9"/>
		<line class="st203" x1="220" y1="193.1" x2="194" y2="193.1"/>
		
			<rect x="251.1" y="171" transform="matrix(0.9669 -0.2553 0.2553 0.9669 -37.3462 70.6734)" class="st1" width="5" height="16.5"/>
		<rect x="256" y="171" transform="matrix(0.9669 -0.255 0.255 0.9669 -36.9514 71.4881)" class="st2" width="2.5" height="14.5"/>
		<polygon class="st4" points="251.8,182.2 245.7,183.8 241.3,183.3 241,185.8 246.5,187.4 252.8,186.1 		"/>
		<path class="st8" d="M237.4,172.9c-4.2-2.3-19.1-6-16.1,3.1c1,3.1,3.4,5.6,4.6,8.7c1.3,3.3,0.8,8.6,2.8,11.4
			c4,5.6,16.6,3.8,17.6-3.2C247.5,185.3,244.4,176.7,237.4,172.9z"/>
		<polygon class="st4" points="250.6,177.7 244.5,179.4 240.9,182 239.4,179.9 243.4,175.9 249.6,173.8 		"/>
		<polygon class="st2" points="153.5,51.5 143.1,50.8 145,39.9 154.3,40.5 		"/>
		<polygon class="st4" points="156.4,74 154.6,73.9 154.7,60.9 158,61.1 		"/>
		<path class="st204" d="M158.5,36.1c0.2-5.7-4.2-10.5-9.9-10.7c-5.7-0.2-10.5,4.2-10.7,9.9"/>
		<path class="st204" d="M132.4,36.6c-2.7-5-9-6.8-14-4.1s-6.8,9-4.1,14"/>
		<polygon class="st1" points="162.1,34.3 160.3,61.2 158.1,61.1 154.7,60.9 152.4,60.7 152.9,52.4 153.7,40.9 154.2,33.7 
			155.8,33.8 158,34 		"/>
		<line class="st202" x1="26.8" y1="61.6" x2="137.1" y2="45.1"/>
		<circle class="st201" cx="137.1" cy="45.1" r="7.2"/>
		<polygon class="st1" points="219.3,254 221.4,255 225.4,256.8 227.6,257.7 229.3,254 232.5,246.7 234,243.3 233,242.9 
			226.7,240.1 225.7,239.6 		"/>
		
			<rect x="218.4" y="256.9" transform="matrix(0.4073 -0.9133 0.9133 0.4073 -105.1161 356.3099)" class="st5" width="7.2" height="4.4"/>
		<polygon class="st4" points="217.6,270.4 221.7,262.9 219.4,261.9 216.5,269.9 		"/>
		<path class="st3" d="M226.7,240.1l6.3,2.8l0.9-2.1c0.8-1.8,0-3.8-1.8-4.6c-0.9-0.4-1.8-0.4-2.7-0.1c-0.8,0.3-1.5,1-1.9,1.8
			L226.7,240.1z"/>
		<path class="st2" d="M229.3,254l4.8,2.1c-0.1-1.3,0-2.7,0.6-4c0.6-1.3,1.4-2.4,2.5-3.3l-4.6-2.1L229.3,254z"/>
		<circle class="st205" cx="243.3" cy="255.9" r="7.2"/>
		
			<rect x="88.3" y="88.9" transform="matrix(0.9992 -4.052240e-02 4.052240e-02 0.9992 -3.8637 3.7594)" class="st1" width="5" height="16.5"/>
		
			<rect x="85.8" y="90.1" transform="matrix(0.9992 -4.024504e-02 4.024504e-02 0.9992 -3.8468 3.582)" class="st2" width="2.5" height="14.5"/>
		<polygon class="st4" points="93.2,94.7 99.5,94.4 103.7,95.8 104.5,93.5 99.5,90.7 93,90.6 		"/>
	</g>
</g>
</svg>
