<?xml version="1.0" encoding="utf-8"?>
<!-- Generator: Adobe Illustrator 22.0.1, SVG Export Plug-In . SVG Version: 6.00 Build 0)  -->
<svg version="1.1" id="Layer_1" xmlns="http://www.w3.org/2000/svg" xmlns:xlink="http://www.w3.org/1999/xlink" x="0px" y="0px"
	 viewBox="0 0 2424.2 933.5" style="enable-background:new 0 0 2424.2 933.5;" xml:space="preserve">
<style type="text/css">
	.st0{fill:#E8E8E8;}
	.st1{fill:#6B30B7;}
	.st2{fill:#825FC0;}
	.st3{fill:#CFC3E8;}
	.st4{fill:#E6E6E6;}
	.st5{fill:#F2F2F2;}
	.st6{fill:#291347;}
	.st7{opacity:0.15;}
	.st8{opacity:0.1;fill:#6B30B7;}
	.st9{opacity:0.3;fill:#6B30B7;}
	.st10{opacity:0.6;fill:#6B30B7;}
	.st11{opacity:0.8;fill:#6B30B7;}
	.st12{fill:none;stroke:#6B30B7;stroke-width:3;stroke-miterlimit:10;}
	.st13{fill:#FFFFFF;}
	.st14{fill:#E11F21;}
	.st15{fill:#0B6FB6;}
	.st16{fill:#646464;}
	.st17{fill:url(#path1948_1_);}
	.st18{fill:url(#path1950_1_);}
	.st19{opacity:0.4438;fill:url(#path1894_1_);enable-background:new    ;}
	.st20{fill:#007ACC;}
	.st21{fill:#00599C;}
	.st22{fill:#004482;}
	.st23{fill:#659AD2;}
	.st24{fill:#A9B9CB;}
	.st25{fill:#7F8B99;}
	.st26{fill:none;stroke:#E6E6E6;stroke-miterlimit:10;}
	.st27{clip-path:url(#SVGID_3_);}
	.st28{opacity:0.3;fill:#291347;}
	.st29{opacity:0.2;}
	.st30{clip-path:url(#SVGID_6_);}
	.st31{fill:#FAFBFB;}
	.st32{fill:url(#SVGID_7_);}
	.st33{fill:url(#SVGID_8_);}
	.st34{fill:#FFBE98;}
	.st35{fill:url(#SVGID_9_);}
	.st36{clip-path:url(#SVGID_11_);fill:#F2F2F2;}
	.st37{fill:#FFA726;}
	.st38{fill:#263238;}
	.st39{clip-path:url(#SVGID_14_);}
	.st40{clip-path:url(#SVGID_17_);fill:url(#);}
	.st41{clip-path:url(#SVGID_17_);}
	.st42{opacity:0.1;fill:#CFC3E8;}
	.st43{fill:#56AEEC;}
	.st44{opacity:0.65;fill:#2C65CC;}
	.st45{clip-path:url(#SVGID_20_);}
	.st46{fill:#D4DBD1;}
	.st47{fill:#CCD3C8;}
	.st48{clip-path:url(#SVGID_23_);}
	.st49{fill:none;stroke:#291347;stroke-width:1.7941;stroke-linecap:round;stroke-linejoin:round;stroke-miterlimit:10;}
	.st50{fill:none;stroke:#825FC0;stroke-width:1.7941;stroke-linecap:round;stroke-linejoin:round;stroke-miterlimit:10;}
	.st51{opacity:0.18;fill:#6F00FF;}
	.st52{fill:#FFDD92;stroke:#291347;stroke-width:7.1763;stroke-miterlimit:10;}
	.st53{fill:#CFC3E8;stroke:#291347;stroke-width:7.1763;stroke-miterlimit:10;}
	.st54{fill:none;stroke:#291347;stroke-width:7.1763;stroke-miterlimit:10;}
	
		.st55{fill:none;stroke:#825FC0;stroke-width:1.7941;stroke-linecap:round;stroke-linejoin:round;stroke-miterlimit:10;stroke-dasharray:3.5881,3.5881;}
	.st56{fill:none;stroke:#F2F2F2;stroke-width:3.5881;stroke-miterlimit:10;}
	.st57{fill:#CFC3E8;stroke:#291446;stroke-width:7.1763;stroke-miterlimit:10;}
</style>
<g class="st7">
	<g>
		<circle class="st8" cx="2107.1" cy="547" r="376.9"/>
		<circle class="st9" cx="2107.1" cy="547" r="316.4"/>
		<circle class="st10" cx="2107.1" cy="547" r="229.8"/>
		<circle class="st11" cx="2107.1" cy="547" r="154.6"/>
	</g>
	<g>
		<circle class="st8" cx="1545.1" cy="780" r="143.2"/>
		<circle class="st9" cx="1545.1" cy="780" r="120.2"/>
		<circle class="st10" cx="1545.1" cy="780" r="87.3"/>
		<circle class="st11" cx="1545.1" cy="780" r="58.8"/>
	</g>
	<g>
		<circle class="st8" cx="764.1" cy="643" r="172.2"/>
		<circle class="st9" cx="764.1" cy="643" r="144.5"/>
		<circle class="st10" cx="764.1" cy="643" r="105"/>
		<circle class="st11" cx="764.1" cy="643" r="70.6"/>
	</g>
	<g>
		<circle class="st8" cx="299.1" cy="353" r="289.2"/>
		<circle class="st9" cx="299.1" cy="353" r="242.7"/>
		<circle class="st10" cx="299.1" cy="353" r="176.3"/>
		<circle class="st11" cx="299.1" cy="353" r="118.7"/>
	</g>
	<g>
		<circle class="st8" cx="469.1" cy="850" r="102.2"/>
		<circle class="st9" cx="469.1" cy="850" r="85.8"/>
		<circle class="st10" cx="469.1" cy="850" r="62.3"/>
		<circle class="st11" cx="469.1" cy="850" r="41.9"/>
	</g>
	<g>
		<circle class="st8" cx="1702.1" cy="132" r="80.9"/>
		<circle class="st9" cx="1702.1" cy="132" r="67.9"/>
		<circle class="st10" cx="1702.1" cy="132" r="49.3"/>
		<circle class="st11" cx="1702.1" cy="132" r="33.2"/>
	</g>
	<line class="st12" x1="300" y1="339.8" x2="763" y2="642.8"/>
	<line class="st12" x1="300" y1="347.8" x2="469" y2="850.8"/>
	<line class="st12" x1="1702" y1="131.8" x2="2107" y2="546.8"/>
	<line class="st12" x1="1546" y1="776.8" x2="2102" y2="546.8"/>
	<line class="st12" x1="763" y1="642.8" x2="1546" y2="779.8"/>
	<g>
		<circle class="st8" cx="1960.1" cy="34" r="29.9"/>
		<circle class="st9" cx="1960.1" cy="34" r="25.1"/>
		<circle class="st10" cx="1960.1" cy="34" r="18.2"/>
		<circle class="st11" cx="1960.1" cy="34" r="12.3"/>
	</g>
	<g>
		<circle class="st8" cx="1184.4" cy="868.9" r="29.9"/>
		<circle class="st9" cx="1184.4" cy="868.9" r="25.1"/>
		<circle class="st10" cx="1184.4" cy="868.9" r="18.2"/>
		<circle class="st11" cx="1184.4" cy="868.9" r="12.3"/>
	</g>
	<g>
		<circle class="st8" cx="1596.3" cy="586.9" r="24"/>
		<circle class="st9" cx="1596.3" cy="586.9" r="20.2"/>
		<circle class="st10" cx="1596.3" cy="586.9" r="14.7"/>
		<circle class="st11" cx="1596.3" cy="586.9" r="9.9"/>
	</g>
	<g>
		<circle class="st8" cx="691.3" cy="424.9" r="24"/>
		<circle class="st9" cx="691.3" cy="424.9" r="20.2"/>
		<circle class="st10" cx="691.3" cy="424.9" r="14.7"/>
		<circle class="st11" cx="691.3" cy="424.9" r="9.9"/>
	</g>
	<g>
		<circle class="st8" cx="531.1" cy="64" r="29.9"/>
		<circle class="st9" cx="531.1" cy="64" r="25.1"/>
		<circle class="st10" cx="531.1" cy="64" r="18.2"/>
		<circle class="st11" cx="531.1" cy="64" r="12.3"/>
	</g>
	<g>
		<circle class="st8" cx="1059.1" cy="611" r="14.9"/>
		<circle class="st9" cx="1059.1" cy="611" r="12.5"/>
		<circle class="st10" cx="1059.1" cy="611" r="9.1"/>
		<circle class="st11" cx="1059.1" cy="611" r="6.1"/>
	</g>
	<g>
		<circle class="st8" cx="1693.1" cy="334" r="14.9"/>
		<circle class="st9" cx="1693.1" cy="334" r="12.5"/>
		<circle class="st10" cx="1693.1" cy="334" r="9.1"/>
		<circle class="st11" cx="1693.1" cy="334" r="6.1"/>
	</g>
</g>
<circle class="st13" cx="299.1" cy="353" r="32.5"/>
<circle class="st13" cx="764.1" cy="643" r="19.4"/>
<circle class="st13" cx="1545.1" cy="780" r="16.1"/>
<circle class="st13" cx="2107.1" cy="547" r="42.4"/>
<circle class="st13" cx="1702.1" cy="132" r="9.1"/>
<circle class="st13" cx="469.1" cy="850" r="11.5"/>
</svg>
