<?xml version="1.0" encoding="utf-8"?>
<!-- Generator: Adobe Illustrator 22.0.1, SVG Export Plug-In . SVG Version: 6.00 Build 0)  -->
<svg version="1.1" id="Layer_1" xmlns="http://www.w3.org/2000/svg" xmlns:xlink="http://www.w3.org/1999/xlink" x="0px" y="0px"
	 viewBox="0 0 320 320" style="enable-background:new 0 0 320 320;" xml:space="preserve">
<style type="text/css">
	.st0{fill:#E8E8E8;}
	.st1{fill:#6B30B7;}
	.st2{fill:#825FC0;}
	.st3{fill:#CFC3E8;}
	.st4{fill:#E6E6E6;}
	.st5{fill:#F2F2F2;}
	.st6{fill:#291347;}
	.st7{fill:#FFFFFF;stroke:#6B30B7;stroke-width:23.2527;stroke-miterlimit:10;}
	.st8{fill:#FFFFFF;}
	.st9{opacity:0.15;}
	.st10{opacity:0.1;fill:#6B30B7;}
	.st11{opacity:0.3;fill:#6B30B7;}
	.st12{opacity:0.6;fill:#6B30B7;}
	.st13{opacity:0.8;fill:#6B30B7;}
	.st14{fill:none;stroke:#6B30B7;stroke-width:3;stroke-miterlimit:10;}
	.st15{fill:#E11F21;}
	.st16{fill:#0B6FB6;}
	.st17{fill:#646464;}
	.st18{fill:url(#path1948_1_);}
	.st19{fill:url(#path1950_1_);}
	.st20{opacity:0.4438;fill:url(#path1894_1_);enable-background:new    ;}
	.st21{fill:#007ACC;}
	.st22{fill:#00599C;}
	.st23{fill:#004482;}
	.st24{fill:#659AD2;}
	.st25{fill:#A9B9CB;}
	.st26{fill:#7F8B99;}
	.st27{fill:none;stroke:#E6E6E6;stroke-miterlimit:10;}
	.st28{clip-path:url(#SVGID_3_);}
	.st29{opacity:0.3;fill:#291347;}
	.st30{opacity:0.2;}
	.st31{clip-path:url(#SVGID_6_);}
	.st32{fill:#FAFBFB;}
	.st33{fill:url(#SVGID_7_);}
	.st34{fill:url(#SVGID_8_);}
	.st35{fill:#FFBE98;}
	.st36{fill:url(#SVGID_9_);}
	.st37{clip-path:url(#SVGID_11_);fill:#F2F2F2;}
	.st38{fill:#FFA726;}
	.st39{fill:#263238;}
	.st40{clip-path:url(#SVGID_14_);}
	.st41{filter:url(#Adobe_OpacityMaskFilter);}
	.st42{filter:url(#Adobe_OpacityMaskFilter_1_);}
	.st43{mask:url(#SVGID_15_);fill:url(#SVGID_16_);}
	.st44{opacity:0.24;fill:#CFC3E8;}
	.st45{opacity:0.29;}
	.st46{fill:none;stroke:#FFFFFF;stroke-width:2;stroke-miterlimit:10;}
	.st47{opacity:0.7;}
	.st48{opacity:0.4;fill:url(#SVGID_17_);}
	.st49{opacity:0.4;}
	.st50{opacity:0.4;fill:url(#SVGID_18_);}
	.st51{fill:#312A91;}
	.st52{opacity:0.9;}
	.st53{opacity:0.4;fill:#FFFFFF;}
	.st54{opacity:0.4;fill:url(#SVGID_19_);}
	.st55{opacity:0.4;fill:url(#SVGID_20_);}
	.st56{opacity:0.7;fill:#291347;}
	.st57{opacity:0.7;fill:#825FC0;}
	.st58{opacity:0.7;fill:#6B30B7;}
	.st59{opacity:0.3;fill:#42E8E0;}
	.st60{opacity:0.4;fill:url(#SVGID_21_);}
	.st61{opacity:0.3;fill:#825FC0;}
	.st62{opacity:0.3;fill:#CFC3E8;}
	.st63{opacity:0.5;fill:#F2F2F2;}
	.st64{opacity:0.5;fill:#CFC3E8;}
	.st65{opacity:0.7;fill:url(#SVGID_22_);}
	.st66{opacity:0.9;fill:#FFFFFF;}
	.st67{opacity:0.3;fill:#FFFFFF;}
	.st68{opacity:0.2;fill:#FFFFFF;}
	.st69{opacity:0.4;fill:url(#SVGID_23_);}
	.st70{opacity:0.4;fill:url(#SVGID_24_);}
	.st71{opacity:0.4;fill:url(#SVGID_25_);}
	.st72{opacity:0.4;fill:url(#SVGID_26_);}
	.st73{opacity:0.4;fill:url(#SVGID_27_);}
	.st74{opacity:0.7;fill:url(#SVGID_28_);}
	.st75{opacity:0.4;fill:url(#SVGID_29_);}
	.st76{opacity:0.4;fill:url(#SVGID_30_);}
	.st77{opacity:0.4;fill:url(#SVGID_31_);}
	.st78{opacity:0.4;fill:url(#SVGID_32_);}
	.st79{opacity:0.4;fill:url(#SVGID_33_);}
	.st80{opacity:0.7;fill:url(#SVGID_34_);}
	.st81{opacity:0.4;fill:url(#SVGID_35_);}
	.st82{opacity:0.4;fill:url(#SVGID_36_);}
	.st83{opacity:0.4;fill:url(#SVGID_37_);}
	.st84{opacity:0.4;fill:url(#SVGID_38_);}
	.st85{opacity:0.4;fill:url(#SVGID_39_);}
	.st86{opacity:0.7;fill:url(#SVGID_40_);}
	.st87{opacity:0.4;fill:url(#SVGID_41_);}
	.st88{opacity:0.4;fill:url(#SVGID_42_);}
	.st89{opacity:0.4;fill:url(#SVGID_43_);}
	.st90{opacity:0.4;fill:url(#SVGID_44_);}
	.st91{opacity:0.4;fill:url(#SVGID_45_);}
	.st92{opacity:0.7;fill:url(#SVGID_46_);}
	.st93{opacity:0.4;fill:url(#SVGID_47_);}
	.st94{opacity:0.4;fill:url(#SVGID_48_);}
	.st95{opacity:0.4;fill:url(#SVGID_49_);}
	.st96{opacity:0.4;fill:url(#SVGID_50_);}
	.st97{opacity:0.4;fill:url(#SVGID_51_);}
	.st98{opacity:0.7;fill:url(#SVGID_52_);}
	.st99{opacity:0.48;fill:url(#SVGID_53_);}
	.st100{opacity:0.48;fill:url(#SVGID_54_);}
	.st101{opacity:5.000000e-02;}
	.st102{clip-path:url(#SVGID_57_);}
	.st103{opacity:0.75;}
	.st104{clip-path:url(#SVGID_60_);}
	.st105{filter:url(#Adobe_OpacityMaskFilter_2_);}
	.st106{filter:url(#Adobe_OpacityMaskFilter_3_);}
	.st107{mask:url(#SVGID_61_);fill:url(#SVGID_62_);}
	.st108{opacity:0.4;fill:url(#SVGID_63_);}
	.st109{opacity:0.4;fill:url(#SVGID_64_);}
	.st110{opacity:0.4;fill:url(#SVGID_65_);}
	.st111{opacity:0.4;fill:url(#SVGID_66_);}
	.st112{opacity:0.4;fill:url(#SVGID_67_);}
	.st113{opacity:0.7;fill:url(#SVGID_68_);}
	.st114{opacity:0.4;fill:url(#SVGID_69_);}
	.st115{opacity:0.4;fill:url(#SVGID_70_);}
	.st116{opacity:0.4;fill:url(#SVGID_71_);}
	.st117{opacity:0.4;fill:url(#SVGID_72_);}
	.st118{opacity:0.4;fill:url(#SVGID_73_);}
	.st119{opacity:0.7;fill:url(#SVGID_74_);}
	.st120{opacity:0.4;fill:url(#SVGID_75_);}
	.st121{opacity:0.4;fill:url(#SVGID_76_);}
	.st122{opacity:0.4;fill:url(#SVGID_77_);}
	.st123{opacity:0.4;fill:url(#SVGID_78_);}
	.st124{opacity:0.4;fill:url(#SVGID_79_);}
	.st125{opacity:0.7;fill:url(#SVGID_80_);}
	.st126{opacity:0.4;fill:url(#SVGID_81_);}
	.st127{opacity:0.4;fill:url(#SVGID_82_);}
	.st128{opacity:0.4;fill:url(#SVGID_83_);}
	.st129{opacity:0.4;fill:url(#SVGID_84_);}
	.st130{opacity:0.4;fill:url(#SVGID_85_);}
	.st131{opacity:0.7;fill:url(#SVGID_86_);}
	.st132{opacity:0.4;fill:url(#SVGID_87_);}
	.st133{opacity:0.4;fill:url(#SVGID_88_);}
	.st134{opacity:0.4;fill:url(#SVGID_89_);}
	.st135{opacity:0.4;fill:url(#SVGID_90_);}
	.st136{opacity:0.4;fill:url(#SVGID_91_);}
	.st137{opacity:0.7;fill:url(#SVGID_92_);}
	.st138{opacity:0.4;fill:url(#SVGID_93_);}
	.st139{opacity:0.4;fill:url(#SVGID_94_);}
	.st140{opacity:0.4;fill:url(#SVGID_95_);}
	.st141{opacity:0.4;fill:url(#SVGID_96_);}
	.st142{opacity:0.4;fill:url(#SVGID_97_);}
	.st143{opacity:0.7;fill:url(#SVGID_98_);}
	.st144{opacity:0.48;fill:url(#SVGID_99_);}
	.st145{opacity:0.48;fill:url(#SVGID_100_);}
	.st146{clip-path:url(#SVGID_103_);}
	.st147{clip-path:url(#SVGID_106_);}
	.st148{fill:none;stroke:#CFC3E8;stroke-width:5;stroke-miterlimit:10;}
	.st149{opacity:0.76;fill:#291347;}
	.st150{filter:url(#Adobe_OpacityMaskFilter_4_);}
	.st151{filter:url(#Adobe_OpacityMaskFilter_5_);}
	.st152{clip-path:url(#SVGID_109_);mask:url(#SVGID_110_);fill:url(#SVGID_111_);}
	.st153{opacity:0.24;clip-path:url(#SVGID_109_);fill:#CFC3E8;}
	.st154{opacity:0.29;clip-path:url(#SVGID_109_);}
	.st155{clip-path:url(#SVGID_109_);}
	.st156{opacity:0.4;fill:url(#SVGID_112_);}
	.st157{opacity:0.4;fill:url(#SVGID_113_);}
	.st158{opacity:0.4;fill:url(#SVGID_114_);}
	.st159{opacity:0.4;fill:url(#SVGID_115_);}
	.st160{opacity:0.4;fill:url(#SVGID_116_);}
	.st161{opacity:0.7;fill:url(#SVGID_117_);}
	.st162{opacity:0.4;fill:url(#SVGID_118_);}
	.st163{opacity:0.4;fill:url(#SVGID_119_);}
	.st164{opacity:0.4;fill:url(#SVGID_120_);}
	.st165{opacity:0.4;fill:url(#SVGID_121_);}
	.st166{opacity:0.4;fill:url(#SVGID_122_);}
	.st167{opacity:0.7;fill:url(#SVGID_123_);}
	.st168{opacity:0.4;fill:url(#SVGID_124_);}
	.st169{opacity:0.4;fill:url(#SVGID_125_);}
	.st170{opacity:0.4;fill:url(#SVGID_126_);}
	.st171{opacity:0.4;fill:url(#SVGID_127_);}
	.st172{opacity:0.4;fill:url(#SVGID_128_);}
	.st173{opacity:0.7;fill:url(#SVGID_129_);}
	.st174{opacity:0.4;fill:url(#SVGID_130_);}
	.st175{opacity:0.4;fill:url(#SVGID_131_);}
	.st176{opacity:0.4;fill:url(#SVGID_132_);}
	.st177{opacity:0.4;fill:url(#SVGID_133_);}
	.st178{opacity:0.4;fill:url(#SVGID_134_);}
	.st179{opacity:0.7;fill:url(#SVGID_135_);}
	.st180{opacity:0.75;clip-path:url(#SVGID_109_);}
	.st181{fill:none;stroke:#CFC3E8;stroke-width:4.9727;stroke-miterlimit:10;}
	.st182{opacity:0.4;fill:url(#SVGID_136_);}
	.st183{opacity:0.4;fill:url(#SVGID_137_);}
	.st184{opacity:0.4;fill:url(#SVGID_138_);}
	.st185{opacity:0.4;fill:url(#SVGID_139_);}
	.st186{opacity:0.4;fill:url(#SVGID_140_);}
	.st187{opacity:0.7;fill:url(#SVGID_141_);}
	.st188{clip-path:url(#SVGID_144_);fill:url(#);}
	.st189{clip-path:url(#SVGID_144_);}
	.st190{opacity:0.1;fill:#CFC3E8;}
	.st191{fill:#56AEEC;}
	.st192{opacity:0.65;fill:#2C65CC;}
	.st193{clip-path:url(#SVGID_147_);}
	.st194{fill:#D4DBD1;}
	.st195{fill:#CCD3C8;}
	.st196{clip-path:url(#SVGID_150_);}
	.st197{fill:none;stroke:#291347;stroke-width:1.7941;stroke-linecap:round;stroke-linejoin:round;stroke-miterlimit:10;}
	.st198{fill:none;stroke:#825FC0;stroke-width:1.7941;stroke-linecap:round;stroke-linejoin:round;stroke-miterlimit:10;}
	.st199{opacity:0.18;fill:#6F00FF;}
	.st200{fill:#FFDD92;stroke:#291347;stroke-width:7.1763;stroke-miterlimit:10;}
	.st201{fill:#CFC3E8;stroke:#291347;stroke-width:7.1763;stroke-miterlimit:10;}
	.st202{fill:none;stroke:#291347;stroke-width:7.1763;stroke-miterlimit:10;}
	
		.st203{fill:none;stroke:#825FC0;stroke-width:1.7941;stroke-linecap:round;stroke-linejoin:round;stroke-miterlimit:10;stroke-dasharray:3.5881,3.5881;}
	.st204{fill:none;stroke:#F2F2F2;stroke-width:3.5881;stroke-miterlimit:10;}
	.st205{fill:#CFC3E8;stroke:#291446;stroke-width:7.1763;stroke-miterlimit:10;}
	.st206{fill:none;stroke:#FFFFFF;stroke-miterlimit:10;}
	.st207{clip-path:url(#SVGID_153_);fill:url(#);}
	.st208{clip-path:url(#SVGID_153_);}
	.st209{clip-path:url(#SVGID_156_);}
	.st210{clip-path:url(#SVGID_159_);}
	.st211{fill:url(#SVGID_160_);}
	.st212{fill:url(#SVGID_161_);}
	.st213{fill:url(#SVGID_162_);}
	.st214{clip-path:url(#SVGID_164_);fill:#F2F2F2;}
	.st215{filter:url(#Adobe_OpacityMaskFilter_6_);}
	.st216{filter:url(#Adobe_OpacityMaskFilter_7_);}
	.st217{clip-path:url(#SVGID_167_);mask:url(#SVGID_168_);fill:url(#SVGID_169_);}
	.st218{opacity:0.24;clip-path:url(#SVGID_167_);fill:#CFC3E8;}
	.st219{opacity:0.29;clip-path:url(#SVGID_167_);}
	.st220{clip-path:url(#SVGID_167_);}
	.st221{opacity:0.4;fill:url(#SVGID_170_);}
	.st222{opacity:0.4;fill:url(#SVGID_171_);}
	.st223{opacity:0.4;fill:url(#SVGID_172_);}
	.st224{opacity:0.4;fill:url(#SVGID_173_);}
	.st225{opacity:0.4;fill:url(#SVGID_174_);}
	.st226{opacity:0.7;fill:url(#SVGID_175_);}
	.st227{opacity:0.4;fill:url(#SVGID_176_);}
	.st228{opacity:0.4;fill:url(#SVGID_177_);}
	.st229{opacity:0.4;fill:url(#SVGID_178_);}
	.st230{opacity:0.4;fill:url(#SVGID_179_);}
	.st231{opacity:0.4;fill:url(#SVGID_180_);}
	.st232{opacity:0.7;fill:url(#SVGID_181_);}
	.st233{opacity:0.4;fill:url(#SVGID_182_);}
	.st234{opacity:0.4;fill:url(#SVGID_183_);}
	.st235{opacity:0.4;fill:url(#SVGID_184_);}
	.st236{opacity:0.4;fill:url(#SVGID_185_);}
	.st237{opacity:0.4;fill:url(#SVGID_186_);}
	.st238{opacity:0.7;fill:url(#SVGID_187_);}
	.st239{opacity:0.4;fill:url(#SVGID_188_);}
	.st240{opacity:0.4;fill:url(#SVGID_189_);}
	.st241{opacity:0.4;fill:url(#SVGID_190_);}
	.st242{opacity:0.4;fill:url(#SVGID_191_);}
	.st243{opacity:0.4;fill:url(#SVGID_192_);}
	.st244{opacity:0.7;fill:url(#SVGID_193_);}
	.st245{opacity:0.75;clip-path:url(#SVGID_167_);}
	.st246{opacity:0.4;fill:url(#SVGID_194_);}
	.st247{opacity:0.4;fill:url(#SVGID_195_);}
	.st248{opacity:0.4;fill:url(#SVGID_196_);}
	.st249{opacity:0.4;fill:url(#SVGID_197_);}
	.st250{opacity:0.4;fill:url(#SVGID_198_);}
	.st251{opacity:0.7;fill:url(#SVGID_199_);}
	.st252{clip-path:url(#SVGID_202_);}
	.st253{clip-path:url(#SVGID_205_);}
</style>
<g>
	<defs>
		<circle id="SVGID_203_" cx="160" cy="160" r="160"/>
	</defs>
	<linearGradient id="SVGID_2_" gradientUnits="userSpaceOnUse" x1="160" y1="-4.933812e-06" x2="160" y2="320">
		<stop  offset="0" style="stop-color:#CFC3E8"/>
		<stop  offset="0.5" style="stop-color:#6B30B7"/>
		<stop  offset="1" style="stop-color:#291347"/>
	</linearGradient>
	<use xlink:href="#SVGID_203_"  style="overflow:visible;fill:url(#SVGID_2_);"/>
	<clipPath id="SVGID_3_">
		<use xlink:href="#SVGID_203_"  style="overflow:visible;"/>
	</clipPath>
	<g class="st28">
		<g>
			<g>
				
					<ellipse transform="matrix(0.7071 -0.7071 0.7071 0.7071 -40.4322 149.2959)" class="st3" cx="160" cy="123.5" rx="123.1" ry="123.1"/>
				<path class="st8" d="M260.2,140.2c0,0-0.8,0.3-1.4-0.3c-0.7-0.6-1.6-0.3-2.7-0.2c-1.1,0.1,0.3-0.8,0.5-1.8c0.2-1-2.1-0.7-3.1-1
					c-1-0.3-0.9-0.4-1-1.3c-0.1-0.9-0.6-1.1-1.2-1.6c-0.5-0.5,0.8-0.3,1.6-0.2c0.9,0.1,0.2,0.8,1,1.7c0.8,0.9,1.6-0.7,2-0.9
					c0.9-0.4,2.9,1.1,4.2,1.4c1.3,0.3,0.6,0.8,0.5,1.7c-0.1,0.9,2.6,1.6,3.1,1.9c0.5,0.3-1.3,0.2-2.5-0.2
					C260,139,260.2,140.2,260.2,140.2z M244.9,134.6c0.9,0.4,2.2-1.3,2.7-1.9c0.5-0.6-0.4-0.5-1.4,0.3c-1,0.8-1.7,0-1.7,0
					c-1-0.4-2.4,2-2.3,3.2c0.1,1.2-0.4,0.9-0.8,1.1c-0.3,0.3,0.2,0.6,1.1,0.3c0.9-0.3,1.2,0.1,1.8,0.2c0.6,0.1-0.6-1.5-0.1-1.6
					c0.6-0.1,0.2-0.7-0.3-1.1C243.4,134.7,244,134.2,244.9,134.6z M255,106.7c0,0,2-1.2,3.9-1.4c2-0.3,2.9,0.1,2.7-1.3
					c-0.2-1.4-0.9-2-0.9-2l-1.6,0.2c-0.2,0.1-0.1,0.5-2.1,1.4c-2.1,1-3.5,0.7-3.6,1.9S255,106.7,255,106.7z M228,134.6
					c0.5,1.4,1.4,1.8,2.1,2.3c0.7,0.4,0.9,1,1.1-0.7c0.2-1.7-0.1-1.2-0.7-2c-0.6-0.8,0.1-0.8-0.7-1.5c-0.8-0.7-0.4-0.5-1.5-0.7
					c-1.1-0.2-1.9-0.2-1.6,0.5C226.7,132.4,227.5,133.2,228,134.6z M227,129.5c-0.5-0.9-0.5-1.2-1.5-1.3c-1-0.1-1.1-0.2-1.5-0.4
					c-0.4-0.2,0.3,0.7,1.1,1.7c0.8,1,0.7,0.8,1.4,0.9C226.6,130.5,227.5,130.4,227,129.5z M240,136.1c0.2-1.3,0.3-2.2,1.2-2.5
					c0.9-0.3,1.8-0.5,1-0.9c-0.8-0.4-1.3-0.7-1.1-1.3c0.2-0.6,1.6-0.9,1.1-1.3c-0.5-0.3-0.7-0.2-1.1-0.7c-0.4-0.5-1.1,0-1.1,0
					c0,0.2-1.4,0.6-2,1.6c-0.6,1-2,1.4-2,1.4s-1.4-1.1-1.6-0.3c-0.2,0.8,0,3.5,0.9,3.8c0.9,0.2,1.6,0.2,2.4,0.6
					C238.5,136.8,239.8,137.4,240,136.1z M157.6,73.9c0.8,3.1,2.8,1.4,2.8,4.7c0,3.4,3.8,1.6,4.5-1.3c0.7-2.9-2.3-3.2,0.8-7.1
					s8-6.7,6.4-4.4c-1.6,2.3-5.9,6.1-4,7.9c1.9,1.7,4.3,2,4.3,2s-2.1,4.5-5.2,5.8s-11.2,2.5-14.1,5.2c-2.9,2.7-2.8,3-3.7,6.7
					c-0.9,3.7-5.8,7.4-3.6,7.9c2.2,0.5,9.3-3.7,12.1-5.6c2.9-1.9,7.5,0.5,10.6,1.2s5.2-4.2,8-3.8c2.8,0.3,6,5.7,4.5,6.1
					c-1.5,0.5-6.5-2-7.1,0.2c-0.6,2.2-0.1,4.2,3.5,3.8c3.6-0.3-0.8,4,0.9,3.7c1.7-0.3,5.3-5.7,6.9-5.3l6,9.3c0,0,13.5,0.9,14.7,3.5
					c1.2,2.5,4.2,13.9,5.1,12.5c0.9-1.4,2.9-3.4,2.7-5.3c-0.2-2,6-3.7,6.1-5.6c0.1-1.9,4.6,1.2,5.3,1.6c0.7,0.5-2.1,1.4,0,2.3
					c2.1,0.9,6.8,0.6,6.9,2.4c0.1,1.9-0.9,4.6,0.5,3.7c1.4-0.9,3.8-3.1,2.8-4.4c-1-1.3-1-4.5-1-4.5s7.4,0.6,8.4-1.9
					c1-2.4,4-5.7,2.7-8c-1.4-2.3-2.7-5.7-2.7-5.7l7.5-3.1l6.9-3.4c0,0,5.9-11,3.5-11.6c-2.4-0.6-4.5-0.5-3.8-1.9
					c0.7-1.4,4.3-6.2,5.4-5.8c0.9,0.3,4.8,0.6,7.1,0.1c-3.7-8.4-8.4-16.3-13.8-23.6c-0.5,0.2-0.9,0.5-1.3,0.8
					c-2.3,2.4-3.9-1.7-6.5-3.2c-2.5-1.5-7.6-2.9-10.1-2.1c-2.4,0.8-1.5-2.8-1.5-2.8l0.2-7.6c0,0-20.2,6.1-21.6,9.3s-6,9.8-6,9.8
					s-0.5,0-1.4,0.1c-0.2-0.8-0.6-1.6-1-2.3c-2-3.1,0.7-2.5-0.3-5.2c-1-2.7-1.3,0.6-3,3c-1.6,2.3,0.4,2.2,0.8,5
					c-4.3,0.6-10.5,1.8-14.3,3.9c-6.4,3.5-10.3,4.2-11.5,1.9c-1.2-2.3,2.5,0.1,3.2-0.8c0.7-0.9-0.7-3-2.7-4.3
					c-2-1.3-8.6-2.2-11.6-0.2c-3.1,2-2.8,4.2-6,8.9C158.1,71.3,156.8,70.8,157.6,73.9z M77.2,121.2c2.2-0.8,3.2,1.6,5.2,1.7
					c2,0.1,3.1,5.6,3.1,3.2c0-2.3-0.2-5.3-1.5-5.7c-1.3-0.3-2.9-1.2-2.3-2.5c0.6-1.4,0.1-1.2-0.8-1.5c-0.9-0.3-2.3,2.4-3.5,2
					c-1.2-0.5-1.7-0.3-2.2-3.5c-0.5-3.1,0.2-4.6,3.7-5.9c3.5-1.3,8.1,0.1,8.9-0.9c0.8-1,9.8-12.4,11-14c1.2-1.6-2.2-2.4-1.7-4.4
					c0.5-2,8.5-3.1,9.6-4c1-0.9-5.1-8-5.6-7.9c-0.5,0.1-1.9,0.3-2.9-0.8c-1-1.2-0.8-2.7-2.4-3.7c-1.6-1-4.7-2.3-4.5-0.3
					c0.2,2,0.7,4,0.8,5.4c0.1,1.4-1.5,4.9-1.5,4.9s0,2.8-1.3,3.6c-1.3,0.8-2.3-1.5-2.5-3.6c-0.2-2.1-7.9-5.3-9.4-7.6
					c-1.5-2.3,5-9,6.8-10.6c1.9-1.6,1.5-3.4,0-5.2c-1.5-1.9-6.5,0.7-9.3,1.7c-1.9,0.7-9.2-1-15.3-2.7C55.1,66,51.1,73.7,48,81.9
					c2.3,3.3,4.5,6.8,5.3,7.7c1.6,1.9,0.1,4.2,0.3,8.1c0.2,3.9,4,8.3,5.6,9.7c1.5,1.4,2.5,6.1,3.6,6.2c1,0.1-0.7-3.5-1.2-5.3
					c-0.5-1.9,2.7,1.9,5,4.4c2.3,2.5,1.4,3.9,3.1,5.2S75,122,77.2,121.2z M160.7,147c1.3,2.3,4,16.5,5.6,15.6
					c1.5-0.9,12.4-10.2,12.4-10.2s0.8-4.7,2.7-5.8c1.9-1,1.2-8.2,1.2-8.2s10.5-13.1,8.6-14.1c-0.8-0.4-2.2-0.8-3.6-1.2
					c0.3-3.5,3.6-2.4,6-2.9c2.4-0.5,3.1-4,2.4-5.1c-0.2-0.4-0.6-0.2-1,0.3c-1.3,1.5-3.1,2.4-5.1,2.6c-2,0.2-4.2,0.7-5.2,1.7
					c0,0,0,0,0,0c-0.7,0.7-2,0.6-2.4-0.4c-2.3-4.5-6.9-12.7-8.9-12.3c-2.7,0.6-10.4,2.3-12.1-0.5s-0.9-4-3.9-4c-3,0-8-0.5-13,5.6
					c-0.3,0.3-6.5,6.7-5.9,8.8c0.6,2.1,4.7,12.1,6.6,11.9c1.9-0.2,12-3.2,13.2-1.4c1.2,1.9-1.6,4.2,0,5.8c1.6,1.6,4.7,4.6,4,6.9
					C161.5,142.6,159.4,144.7,160.7,147z M203,40.2c1.4-1.5-0.1-3.6-2.5-2.1c-0.9,0.5-5.7,2.4-7.5,7.4c-1.9,5-3.2,5.9-0.8,7.3
					c2.4,1.4,3.7,1.6,2.9-0.6c-0.8-2.2-2.3-2.5,0.6-6C198.5,42.8,201.6,41.7,203,40.2z M82.7,37.5c0.5,2.9,4.5,0.1,6.6,1.3
					c2.1,1.2,1.3-1.9,1.3-5.7s1.3-4.3,4.6-6.2c1.6-0.9,3-3.4,4-5.7c-4.5,2.7-8.9,5.6-13,8.9c0,0.4,0,0.8,0.1,1.3
					C86.4,33.6,82.2,34.7,82.7,37.5z M236.4,138.5c-1-0.6-1-0.1-1.9-0.3c-0.9-0.2-2-1.2-2.4-0.8c-0.5,0.4-1,0.8-0.3,0.9
					c0.7,0.2,1.9,0.1,2.8,0.7c0.9,0.6,1.9,1.2,2.6,1.2c0.8,0,1.5-0.1,0.5-0.9C237.7,139.3,237.4,139.1,236.4,138.5z M187.1,144.7
					c-0.8,1-1.7,2.4-1.8,3.6c-0.1,0.9-0.1,2.2-0.1,3.3c0,0.8,0.9,1.1,1.4,0.5l1.4-1.7c0,0,2.4-3.8,2.2-5.1c0-0.2-0.1-0.4-0.3-0.6
					C189.3,143.7,187.8,143.8,187.1,144.7z M63.3,53.7c0.4,0.9-0.7,1.7,0.1,3.8c1.2,2.7,4.5,0.5,6.9,1.2c2.4,0.7,1.3-0.9,0.6-2.4
					c-0.7-1.5-1.4-2-0.7-3.4c0.7-1.4-0.9-2.3-2.5-3c-1.6-0.7-0.9,2.3-0.9,2.3s-0.7-0.5-1.5-1.1C64.7,51.9,64,52.8,63.3,53.7z
					 M77.2,53.9c-0.8,0.2-1.6,2.9,0,3.1c1.6,0.2,2.5,0.2,2.5,0.2l-0.9-3.5L77.2,53.9z M98.7,28.6c-2.8,2.7-1.1,6.2-0.5,9.1
					c0.6,3,4,2.2,5.7,2c1.7-0.2,7.2,15.4,8.1,16.7c0.9,1.2-0.6,4-2.2,5.6s4.5,11.6,6.2,12.3c1.7,0.7,1.9-4.5,2.8-7.1
					c0.9-2.6,2.2-2.4,4.4-2.8c2.3-0.3,1.3-4.1,3.2-5.4c1.9-1.3,6.5-1.9,7.2-3.9c0.7-2-1.6-3.8-2.7-5.3c-1.1-1.5,3.3-5.6,3.6-7.4
					c0.3-1.8,0.1-2.7-0.9-4.4c-1-1.7,2-10,2-10s3.6-7.5,4.3-9.5c0.6-1.8-7.5-7.6-10.9-9.9c-7,1.9-13.8,4.4-20.3,7.5
					C105.4,20.4,100.5,26.9,98.7,28.6z M265.2,168.9c-0.5-0.3-1.2-0.5-1.2,0.1c0,0,0,2.5,0.8,2c0.8-0.5,2.8-2.4,2-2.7
					C266,168,265.7,169.2,265.2,168.9z M271.6,80.8c-0.1,0.4-0.1,0.8,0,1c0.4,0.8,0.9,1.9,1.4,2.7C272.5,83.3,272.1,82.1,271.6,80.8
					z M254.2,159c0.6,0.5,1.3,1.4,1.9,2.1c0.6,0.8,1.6,1.2,2.7,1l0.8-0.1c0,0,1.3,3.9,2.4,3.9c1.1,0.1,6.3,0.2,6.9-1.2
					c0.6-1.4,2.7-7.3,2.7-9.7c0.1-2.3-1.7-2.4-4.4-5.5c-2.7-3.1-3.3-4.5-4-5.7c-0.7-1.3-1.3-1.2-1.7-0.7c0,0,0.3,5.4-0.8,4.9
					c-1-0.5-4-2.9-4-2.9s1.4-2.4-0.3-2c-1.7,0.5-3.7,0.7-4.2,1.4c-0.5,0.8-1.7,1.9-1.7,1c0-1,0.3-2.8-1.2-0.9
					c-1.4,2-2.2,4.1-4.7,4.9c-2.5,0.8-3.9,1.3-4.4,2.3c-0.5,1,0.8,2.8,0.8,4.6c0,1.8-0.1,5.3-0.1,5.3s5.3,0.1,7.2-1.4
					C249.9,159,253,157.9,254.2,159z M102.9,65.3c1.7-0.9-0.3-3-3.8-4.6c-3.5-1.6-4.2-4.4-5.4-7.9c-1.3-3.5-3.6-2-4.7-2.2
					c-2.5-0.3-0.7-3.5-2.9-4C83.8,46,85.7,49,86.5,52c0.8,3-3,1.2-3.9,2.5c-0.8,1.4,3.7,2.1,6.5,2c2.8-0.1,4.2,4.4,4.2,4.4l0.1,5.8
					c0,0,4.6,3.4,6.6,3.9c2,0.6-0.5-3-1.3-5.3C97.9,63,101.2,66.2,102.9,65.3z M93.8,178.9c0.7,0.9,4,5.7,3.9,4
					c-0.1-1.6,3.9-13.7,3.9-13.7s6.9-4,6.9-5.8c0-1.7,5.1-10.2,7.2-11.1c2.1-0.9,4.9-1.2,4.7-4.6c-0.1-3.5,5.4-7.6,3.6-9.8
					c-1.9-2.2-10.9-1.3-11.6-3.7c-0.7-2.4,0.8-3.7-2-4.6c-2.8-0.9-10.5-4.3-12.4-3.9c-1.9,0.3-2.5-2-3.9-1.2c-1.4,0.8-3.9,3-3.4,5.1
					c0,0,1.4,2.1,0,2.9c-1.4,0.8-4,2.5-2.9,4.7c1.2,2.2,3,7.6,4.3,7.8c1.3,0.1,4.6,2,4.3,3.8C96.2,150.7,93.1,178,93.8,178.9z
					 M73.7,48.1c-0.6,0.7-0.9,1.5-0.2,1.9c1.5,0.8,2.4-0.1,3.7-0.1c1.3,0,2.1,0.3,1.8-1.3c-0.1-0.5-0.5-0.9-0.9-1.2
					C76.7,46.4,74.8,46.8,73.7,48.1z M80.6,51.9c1.4,0.5,2.9,2.4,2.7,0c-0.2-2.4,1.3-3.8,0-4.4c-1.3-0.6-1.7,1-1.7,1
					C81.3,48.7,79.2,51.4,80.6,51.9z M82,45.7c1.6-0.4,2.4-2,4-1.8c1.6,0.1,2.3-0.2,1.9-1.5c-0.5-1.3-2-3.4-3-1.9s-2.8,2.9-4.2,1.6
					c-1.4-1.3-1-2.5-2-3.1c-0.9-0.6-1.2,0-1.2,0c-0.2,0.4-1,4,0.9,4.7C80.5,44.5,80.4,46.2,82,45.7z"/>
			</g>
			<g>
				<g>
					<path class="st1" d="M224.7,57.6c-0.1,0-0.2,0-0.2-0.1c0,0-0.5-0.5-1.5-1.4c-0.1-0.1-0.2-0.3,0-0.5c0.1-0.1,0.3-0.2,0.5,0
						c1,0.9,1.5,1.4,1.6,1.4c0.1,0.1,0.1,0.4,0,0.5C224.9,57.5,224.8,57.6,224.7,57.6z M221.5,54.8c-0.1,0-0.2,0-0.2-0.1
						c-0.5-0.4-1-0.8-1.6-1.3c-0.2-0.1-0.2-0.3-0.1-0.5c0.1-0.2,0.3-0.2,0.5-0.1c0.6,0.5,1.1,0.9,1.6,1.3c0.1,0.1,0.2,0.3,0,0.5
						C221.7,54.8,221.6,54.8,221.5,54.8z M218.3,52.2c-0.1,0-0.1,0-0.2-0.1c-0.5-0.4-1.1-0.8-1.7-1.2c-0.2-0.1-0.2-0.3-0.1-0.5
						c0.1-0.2,0.3-0.2,0.5-0.1c0.6,0.4,1.2,0.8,1.7,1.2c0.2,0.1,0.2,0.3,0.1,0.5C218.5,52.2,218.4,52.2,218.3,52.2z M135.5,51
						c-0.1,0-0.2,0-0.3-0.1c-0.1-0.2-0.1-0.4,0.1-0.5c0.6-0.4,1.1-0.8,1.7-1.3c0.2-0.1,0.4-0.1,0.5,0.1c0.1,0.2,0.1,0.4-0.1,0.5
						c-0.6,0.4-1.1,0.8-1.7,1.2C135.7,51,135.6,51,135.5,51z M214.8,49.8c-0.1,0-0.1,0-0.2-0.1c-0.6-0.4-1.1-0.8-1.7-1.1
						c-0.2-0.1-0.2-0.3-0.1-0.5c0.1-0.2,0.3-0.2,0.5-0.1c0.6,0.4,1.2,0.8,1.8,1.1c0.2,0.1,0.2,0.3,0.1,0.5
						C215.1,49.8,215,49.8,214.8,49.8z M138.9,48.6c-0.1,0-0.2-0.1-0.3-0.1c-0.1-0.2-0.1-0.4,0.1-0.5c0.6-0.4,1.2-0.8,1.7-1.2
						c0.2-0.1,0.4-0.1,0.5,0.1c0.1,0.2,0.1,0.4-0.1,0.5c-0.6,0.4-1.1,0.8-1.7,1.2C139,48.5,138.9,48.6,138.9,48.6z M211.3,47.6
						c-0.1,0-0.1,0-0.2,0c-0.6-0.4-1.2-0.7-1.8-1.1c-0.2-0.1-0.2-0.3-0.1-0.5c0.1-0.2,0.3-0.2,0.5-0.1c0.6,0.4,1.2,0.7,1.8,1.1
						c0.2,0.1,0.2,0.3,0.1,0.5C211.6,47.5,211.4,47.6,211.3,47.6z M142.3,46.3c-0.1,0-0.2-0.1-0.3-0.2c-0.1-0.2-0.1-0.4,0.1-0.5
						c0.6-0.4,1.2-0.7,1.8-1.1c0.2-0.1,0.4,0,0.5,0.1c0.1,0.2,0,0.4-0.1,0.5c-0.6,0.3-1.2,0.7-1.8,1.1
						C142.5,46.3,142.4,46.3,142.3,46.3z M207.7,45.5c-0.1,0-0.1,0-0.2,0c-0.6-0.3-1.2-0.6-1.8-1c-0.2-0.1-0.2-0.3-0.2-0.5
						c0.1-0.2,0.3-0.2,0.5-0.2c0.6,0.3,1.2,0.6,1.9,1c0.2,0.1,0.2,0.3,0.1,0.5C208,45.5,207.8,45.5,207.7,45.5z M146,44.2
						c-0.1,0-0.2-0.1-0.3-0.2c-0.1-0.2,0-0.4,0.1-0.5c0.6-0.3,1.2-0.7,1.9-1c0.2-0.1,0.4,0,0.5,0.2c0.1,0.2,0,0.4-0.2,0.5
						c-0.6,0.3-1.2,0.6-1.8,1C146.1,44.2,146,44.2,146,44.2z M204,43.6c-0.1,0-0.1,0-0.1,0c-0.6-0.3-1.2-0.6-1.9-0.9
						c-0.2-0.1-0.3-0.3-0.2-0.5c0.1-0.2,0.3-0.3,0.5-0.2c0.6,0.3,1.3,0.6,1.9,0.9c0.2,0.1,0.2,0.3,0.2,0.5
						C204.2,43.6,204.1,43.6,204,43.6z M149.7,42.3c-0.1,0-0.3-0.1-0.3-0.2c-0.1-0.2,0-0.4,0.2-0.5c0.6-0.3,1.3-0.6,1.9-0.9
						c0.2-0.1,0.4,0,0.5,0.2c0.1,0.2,0,0.4-0.2,0.5c-0.6,0.3-1.3,0.5-1.9,0.8C149.8,42.3,149.7,42.3,149.7,42.3z M200.2,41.9
						c0,0-0.1,0-0.1,0c-0.6-0.3-1.3-0.5-1.9-0.8c-0.2-0.1-0.3-0.3-0.2-0.4c0.1-0.2,0.3-0.3,0.4-0.2c0.7,0.3,1.3,0.5,1.9,0.8
						c0.2,0.1,0.3,0.3,0.2,0.5C200.5,41.9,200.3,41.9,200.2,41.9z M153.5,40.7c-0.1,0-0.3-0.1-0.3-0.2c-0.1-0.2,0-0.4,0.2-0.4
						c0.7-0.3,1.3-0.5,2-0.7c0.2-0.1,0.4,0,0.4,0.2c0.1,0.2,0,0.4-0.2,0.4c-0.6,0.2-1.3,0.5-1.9,0.7
						C153.6,40.7,153.5,40.7,153.5,40.7z M196.3,40.5c0,0-0.1,0-0.1,0c-0.6-0.2-1.3-0.4-2-0.7c-0.2-0.1-0.3-0.3-0.2-0.4
						c0.1-0.2,0.3-0.3,0.4-0.2c0.7,0.2,1.3,0.4,2,0.7c0.2,0.1,0.3,0.3,0.2,0.4C196.6,40.4,196.4,40.5,196.3,40.5z M157.4,39.3
						c-0.1,0-0.3-0.1-0.3-0.2c-0.1-0.2,0-0.4,0.2-0.4c0.7-0.2,1.3-0.4,2-0.6c0.2,0,0.4,0.1,0.4,0.2c0.1,0.2-0.1,0.4-0.2,0.4
						c-0.7,0.2-1.3,0.4-2,0.6C157.5,39.3,157.5,39.3,157.4,39.3z M192.3,39.2C192.3,39.2,192.3,39.2,192.3,39.2
						c-0.8-0.2-1.4-0.4-2.1-0.6c-0.2,0-0.3-0.2-0.3-0.4c0-0.2,0.2-0.3,0.4-0.3c0.7,0.2,1.4,0.4,2,0.5c0.2,0.1,0.3,0.2,0.2,0.4
						C192.6,39.1,192.5,39.2,192.3,39.2z M161.5,38.2c-0.2,0-0.3-0.1-0.3-0.3c0-0.2,0.1-0.4,0.3-0.4c0.7-0.2,1.4-0.3,2-0.4
						c0.2,0,0.4,0.1,0.4,0.3c0,0.2-0.1,0.4-0.3,0.4C162.9,37.9,162.2,38.1,161.5,38.2C161.5,38.2,161.5,38.2,161.5,38.2z
						 M188.3,38.2C188.3,38.2,188.2,38.2,188.3,38.2c-0.7-0.2-1.4-0.3-2.1-0.4c-0.2,0-0.3-0.2-0.3-0.4c0-0.2,0.2-0.3,0.4-0.3
						c0.7,0.1,1.4,0.3,2.1,0.4c0.2,0,0.3,0.2,0.3,0.4C188.6,38.1,188.4,38.2,188.3,38.2z M165.5,37.4c-0.2,0-0.3-0.1-0.3-0.3
						c0-0.2,0.1-0.4,0.3-0.4c0.7-0.1,1.4-0.2,2.1-0.3c0.2,0,0.4,0.1,0.4,0.3c0,0.2-0.1,0.4-0.3,0.4C167,37.2,166.3,37.3,165.5,37.4
						C165.6,37.4,165.6,37.4,165.5,37.4z M184.2,37.4C184.2,37.4,184.2,37.4,184.2,37.4c-0.7-0.1-1.4-0.2-2.1-0.3
						c-0.2,0-0.3-0.2-0.3-0.4c0-0.2,0.2-0.3,0.4-0.3c0.7,0.1,1.4,0.2,2.1,0.3c0.2,0,0.3,0.2,0.3,0.4
						C184.5,37.3,184.4,37.4,184.2,37.4z M169.7,36.9c-0.2,0-0.3-0.1-0.3-0.3c0-0.2,0.1-0.4,0.3-0.4c0.7-0.1,1.4-0.1,2.1-0.1
						c0.2,0,0.4,0.1,0.4,0.3c0,0.2-0.1,0.4-0.3,0.4C171.1,36.8,170.4,36.8,169.7,36.9C169.7,36.9,169.7,36.9,169.7,36.9z
						 M180.1,36.9C180.1,36.9,180,36.9,180.1,36.9c-0.7-0.1-1.4-0.1-2.1-0.1c-0.2,0-0.3-0.2-0.3-0.4c0-0.2,0.2-0.3,0.4-0.3
						c0.7,0,1.4,0.1,2.1,0.1c0.2,0,0.3,0.2,0.3,0.4C180.4,36.8,180.2,36.9,180.1,36.9z M175.9,36.7
						C175.9,36.7,175.9,36.7,175.9,36.7c-0.7,0-1.4,0-2.1,0c-0.2,0-0.3-0.1-0.4-0.3c0-0.2,0.1-0.3,0.3-0.4c0.7,0,1.4,0,2.1,0
						c0.2,0,0.3,0.2,0.3,0.4C176.2,36.5,176.1,36.7,175.9,36.7z"/>
				</g>
				<g>
					<path class="st1" d="M104.9,139.1c-0.1,0-0.2,0-0.2-0.1c-0.1-0.1-0.2-0.3,0-0.5c0.4-0.5,0.9-1.1,1.4-1.6c0.1-0.1,0.3-0.2,0.5,0
						c0.1,0.1,0.2,0.3,0,0.5c-0.4,0.5-0.9,1-1.3,1.6C105.1,139,105,139.1,104.9,139.1z M107.7,135.9c-0.1,0-0.2,0-0.2-0.1
						c-0.1-0.1-0.1-0.4,0-0.5c0.5-0.5,1-1,1.5-1.5c0.1-0.1,0.4-0.1,0.5,0c0.1,0.1,0.1,0.4,0,0.5c-0.5,0.5-1,1-1.5,1.5
						C107.9,135.9,107.8,135.9,107.7,135.9z M110.7,133.1c-0.1,0-0.2,0-0.3-0.1c-0.1-0.1-0.1-0.4,0-0.5c0.5-0.5,1.1-0.9,1.6-1.3
						c0.2-0.1,0.4-0.1,0.5,0.1c0.1,0.1,0.1,0.4-0.1,0.5c-0.5,0.4-1.1,0.9-1.6,1.3C110.9,133,110.8,133.1,110.7,133.1z M171.5,130.9
						c-0.1,0-0.2-0.1-0.3-0.2c-0.2-0.4-0.4-0.8-0.6-1.2c0,0.3,0,0.6,0.1,0.9c0,0,0,0.1,0,0.1c0,0.2-0.1,0.3-0.3,0.3
						c-0.1,0-0.1,0-0.2-0.1c0,0-0.4-0.2-0.9-0.5c-0.2-0.1-0.2-0.3-0.1-0.5c0.1-0.2,0.3-0.2,0.5-0.1c0.2,0.1,0.3,0.2,0.4,0.2
						c0-0.1,0-0.2,0-0.3c0-0.2,0.1-0.4,0.3-0.4c0.1,0,0.1,0,0.2,0c-0.1-0.1-0.1-0.2-0.2-0.3c-0.1-0.2,0-0.4,0.1-0.5
						c0.2-0.1,0.4,0,0.5,0.1c0.3,0.6,0.7,1.2,1,1.8c0.1,0.2,0,0.4-0.1,0.5C171.6,130.8,171.5,130.9,171.5,130.9z M113.9,130.5
						c-0.1,0-0.2,0-0.3-0.1c-0.1-0.2-0.1-0.4,0.1-0.5c0.6-0.4,1.2-0.8,1.7-1.2c0.2-0.1,0.4-0.1,0.5,0.1c0.1,0.2,0.1,0.4-0.1,0.5
						c-0.6,0.4-1.1,0.8-1.7,1.2C114.1,130.4,114,130.5,113.9,130.5z M167.4,129.4c-0.1,0-0.1,0-0.2,0c-0.6-0.3-1.2-0.6-1.9-0.9
						c-0.2-0.1-0.3-0.3-0.2-0.5c0.1-0.2,0.3-0.3,0.5-0.2c0.7,0.3,1.3,0.6,1.9,0.9c0.2,0.1,0.2,0.3,0.2,0.5
						C167.7,129.3,167.6,129.4,167.4,129.4z M117.4,128.2c-0.1,0-0.2-0.1-0.3-0.2c-0.1-0.2,0-0.4,0.1-0.5c0.6-0.4,1.2-0.7,1.8-1
						c0.2-0.1,0.4,0,0.5,0.1c0.1,0.2,0,0.4-0.1,0.5c-0.6,0.3-1.2,0.6-1.8,1C117.6,128.2,117.5,128.2,117.4,128.2z M163.6,127.7
						c0,0-0.1,0-0.1,0c-0.6-0.3-1.3-0.5-1.9-0.8c-0.2-0.1-0.3-0.3-0.2-0.4c0.1-0.2,0.3-0.3,0.4-0.2c0.7,0.3,1.3,0.5,1.9,0.8
						c0.2,0.1,0.3,0.3,0.2,0.5C163.9,127.6,163.8,127.7,163.6,127.7z M121.1,126.3c-0.1,0-0.3-0.1-0.3-0.2c-0.1-0.2,0-0.4,0.2-0.5
						c0.6-0.3,1.3-0.6,1.9-0.8c0.2-0.1,0.4,0,0.5,0.2c0.1,0.2,0,0.4-0.2,0.5c-0.6,0.3-1.3,0.5-1.9,0.8
						C121.2,126.3,121.2,126.3,121.1,126.3z M159.7,126.2c0,0-0.1,0-0.1,0c-0.6-0.2-1.3-0.4-2-0.7c-0.2-0.1-0.3-0.3-0.2-0.4
						c0.1-0.2,0.3-0.3,0.4-0.2c0.7,0.2,1.3,0.4,2,0.7c0.2,0.1,0.3,0.3,0.2,0.4C160,126.1,159.9,126.2,159.7,126.2z M155.8,124.9
						C155.7,124.9,155.7,124.9,155.8,124.9c-0.7-0.2-1.4-0.4-2.1-0.6c-0.2,0-0.3-0.2-0.3-0.4c0-0.2,0.2-0.3,0.4-0.3
						c0.7,0.2,1.4,0.4,2,0.5c0.2,0.1,0.3,0.2,0.2,0.4C156.1,124.8,155.9,124.9,155.8,124.9z M125,124.7c-0.1,0-0.3-0.1-0.3-0.2
						c-0.1-0.2,0-0.4,0.2-0.4c0.7-0.2,1.3-0.4,2-0.6c0.2-0.1,0.4,0.1,0.4,0.2c0.1,0.2-0.1,0.4-0.2,0.4c-0.7,0.2-1.3,0.4-2,0.6
						C125.1,124.7,125,124.7,125,124.7z M151.7,123.9C151.7,123.9,151.7,123.9,151.7,123.9c-0.7-0.2-1.4-0.3-2.1-0.4
						c-0.2,0-0.3-0.2-0.3-0.4c0-0.2,0.2-0.3,0.4-0.3c0.7,0.1,1.4,0.3,2.1,0.4c0.2,0,0.3,0.2,0.3,0.4
						C152,123.8,151.9,123.9,151.7,123.9z M170.1,123.6C170.1,123.6,170.1,123.6,170.1,123.6c-0.2,0-0.4-0.2-0.3-0.4
						c0-0.7,0.1-1.4,0.2-2.1c0-0.2,0.2-0.3,0.4-0.3c0.2,0,0.3,0.2,0.3,0.4c-0.1,0.7-0.1,1.4-0.2,2.1
						C170.5,123.5,170.3,123.6,170.1,123.6z M170.3,127.3C170.3,127.3,170.3,127.3,170.3,127.3c-0.2,0-0.4-0.1-0.4-0.3
						c-0.1-0.7-0.1-1.4-0.1-2.1c0-0.2,0.1-0.4,0.3-0.4c0.2,0,0.4,0.1,0.4,0.3c0,0.7,0.1,1.4,0.1,2.1
						C170.6,127.1,170.5,127.3,170.3,127.3z M129,123.6c-0.2,0-0.3-0.1-0.3-0.3c0-0.2,0.1-0.4,0.3-0.4c0.7-0.2,1.4-0.3,2.1-0.4
						c0.2,0,0.4,0.1,0.4,0.3c0,0.2-0.1,0.4-0.3,0.4C130.4,123.3,129.8,123.5,129,123.6C129.1,123.6,129,123.6,129,123.6z
						 M147.6,123.1C147.6,123.1,147.6,123.1,147.6,123.1c-0.7-0.1-1.4-0.2-2.1-0.3c-0.2,0-0.3-0.2-0.3-0.4c0-0.2,0.2-0.3,0.4-0.3
						c0.7,0.1,1.4,0.2,2.1,0.3c0.2,0,0.3,0.2,0.3,0.4C148,123,147.8,123.1,147.6,123.1z M133.1,122.9c-0.2,0-0.3-0.1-0.3-0.3
						c0-0.2,0.1-0.4,0.3-0.4c0.7-0.1,1.4-0.2,2.1-0.2c0.2,0,0.4,0.1,0.4,0.3c0,0.2-0.1,0.4-0.3,0.4
						C134.5,122.7,133.8,122.8,133.1,122.9C133.1,122.9,133.1,122.9,133.1,122.9z M143.5,122.7C143.5,122.7,143.5,122.7,143.5,122.7
						c-0.7-0.1-1.4-0.1-2.1-0.1c-0.2,0-0.3-0.2-0.3-0.4c0-0.2,0.2-0.3,0.4-0.3c0.7,0,1.4,0.1,2.1,0.1c0.2,0,0.3,0.2,0.3,0.4
						C143.8,122.5,143.7,122.7,143.5,122.7z M137.3,122.5c-0.2,0-0.3-0.1-0.3-0.3c0-0.2,0.1-0.4,0.3-0.4c0.7,0,1.4,0,2.1,0
						c0.2,0,0.4,0.2,0.4,0.3c0,0.2-0.1,0.3-0.3,0.3C138.6,122.5,138,122.5,137.3,122.5C137.3,122.5,137.3,122.5,137.3,122.5z
						 M170.6,119.5C170.6,119.5,170.5,119.5,170.6,119.5c-0.2,0-0.4-0.2-0.3-0.4c0.1-0.7,0.3-1.4,0.4-2.1c0-0.2,0.2-0.3,0.4-0.3
						c0.2,0,0.3,0.2,0.3,0.4c-0.2,0.6-0.3,1.3-0.4,2C170.9,119.4,170.8,119.5,170.6,119.5z M171.5,115.4c0,0-0.1,0-0.1,0
						c-0.2-0.1-0.3-0.3-0.2-0.4c0.2-0.7,0.5-1.3,0.7-2c0.1-0.2,0.3-0.3,0.5-0.2c0.2,0.1,0.3,0.3,0.2,0.5c-0.3,0.6-0.5,1.3-0.7,1.9
						C171.8,115.4,171.7,115.4,171.5,115.4z M173.1,111.6c-0.1,0-0.1,0-0.2,0c-0.2-0.1-0.2-0.3-0.1-0.5c0.3-0.6,0.7-1.2,1.1-1.8
						c0.1-0.2,0.3-0.2,0.5-0.1c0.2,0.1,0.2,0.3,0.1,0.5c-0.4,0.6-0.7,1.2-1,1.8C173.4,111.5,173.2,111.6,173.1,111.6z M175.4,108.1
						c-0.1,0-0.2,0-0.2-0.1c-0.1-0.1-0.2-0.3-0.1-0.5c0.4-0.5,0.9-1.1,1.4-1.6c0.1-0.1,0.4-0.1,0.5,0c0.1,0.1,0.1,0.4,0,0.5
						c-0.5,0.5-0.9,1-1.4,1.5C175.6,108.1,175.5,108.1,175.4,108.1z M178.3,105.2c-0.1,0-0.2,0-0.3-0.1c-0.1-0.1-0.1-0.4,0.1-0.5
						c0.5-0.4,1.1-0.9,1.7-1.2c0.2-0.1,0.4-0.1,0.5,0.1c0.1,0.2,0.1,0.4-0.1,0.5c-0.6,0.4-1.1,0.8-1.7,1.2
						C178.4,105.1,178.4,105.2,178.3,105.2z M181.8,102.9c-0.1,0-0.2-0.1-0.3-0.2c-0.1-0.2,0-0.4,0.1-0.5c0.6-0.3,1.3-0.6,1.9-0.9
						c0.2-0.1,0.4,0,0.5,0.2c0.1,0.2,0,0.4-0.2,0.5c-0.6,0.3-1.3,0.6-1.9,0.9C181.9,102.9,181.8,102.9,181.8,102.9z M185.6,101.3
						c-0.1,0-0.3-0.1-0.3-0.2c-0.1-0.2,0-0.4,0.2-0.4c0.7-0.2,1.3-0.4,2-0.6c0.2,0,0.4,0.1,0.4,0.3c0,0.2-0.1,0.4-0.3,0.4
						c-0.7,0.2-1.3,0.3-2,0.5C185.7,101.3,185.6,101.3,185.6,101.3z M189.7,100.4c-0.2,0-0.3-0.1-0.3-0.3c0-0.2,0.1-0.4,0.3-0.4
						c0.7-0.1,1.4-0.2,2.1-0.3c0.2,0,0.4,0.1,0.4,0.3c0,0.2-0.1,0.4-0.3,0.4C191.1,100.2,190.4,100.3,189.7,100.4
						C189.7,100.4,189.7,100.4,189.7,100.4z M193.8,100c-0.2,0-0.3-0.1-0.3-0.3c0-0.2,0.1-0.4,0.3-0.4c0.7,0,1.5,0,2.1,0
						c0.2,0,0.3,0.2,0.3,0.4c0,0.2-0.2,0.3-0.4,0.3C195.2,100,194.6,100,193.8,100C193.8,100,193.8,100,193.8,100z M197.7,94.9
						c-0.1,0-0.2-0.1-0.3-0.2c-0.3-0.6-0.6-1.2-1-1.8c-0.1-0.2,0-0.4,0.1-0.5c0.2-0.1,0.4,0,0.5,0.1c0.3,0.6,0.6,1.2,1,1.9
						c0.1,0.2,0,0.4-0.2,0.5C197.8,94.9,197.8,94.9,197.7,94.9z M195.8,91.2c-0.1,0-0.2-0.1-0.3-0.2c-0.3-0.6-0.7-1.2-1-1.8
						c-0.1-0.2,0-0.4,0.1-0.5c0.2-0.1,0.4,0,0.5,0.1c0.4,0.6,0.7,1.2,1,1.8c0.1,0.2,0,0.4-0.1,0.5C195.9,91.2,195.8,91.2,195.8,91.2
						z M193.6,87.7c-0.1,0-0.2-0.1-0.3-0.2c-0.4-0.6-0.7-1.2-1.1-1.7c-0.1-0.2-0.1-0.4,0.1-0.5c0.2-0.1,0.4-0.1,0.5,0.1
						c0.4,0.6,0.8,1.2,1.1,1.8c0.1,0.2,0.1,0.4-0.1,0.5C193.8,87.6,193.7,87.7,193.6,87.7z M191.3,84.2c-0.1,0-0.2-0.1-0.3-0.1
						c-0.4-0.6-0.8-1.1-1.2-1.7c-0.1-0.2-0.1-0.4,0.1-0.5c0.2-0.1,0.4-0.1,0.5,0.1c0.4,0.6,0.8,1.1,1.2,1.7c0.1,0.2,0.1,0.4-0.1,0.5
						C191.5,84.2,191.4,84.2,191.3,84.2z M60.9,82.6c-0.2,0-0.4-0.2-0.4-0.4c0-0.1,0-0.1,0-0.2c0.1-0.3,0.3-0.5,0.4-0.8
						c0.1-0.2,0.3-0.2,0.5-0.1c0.2,0.1,0.2,0.3,0.1,0.5c0,0,0,0.1-0.1,0.1c0,0,0.1,0,0.1,0l0.3-0.1c0.2,0,0.4,0.1,0.4,0.3
						c0,0.2-0.1,0.4-0.3,0.4l-0.3,0.1C61.1,82.6,61,82.6,60.9,82.6z M188.8,80.9c-0.1,0-0.2,0-0.3-0.1c-0.4-0.5-0.9-1.1-1.3-1.6
						c-0.1-0.1-0.1-0.4,0-0.5c0.1-0.1,0.4-0.1,0.5,0c0.4,0.5,0.9,1.1,1.3,1.6c0.1,0.1,0.1,0.4-0.1,0.5
						C189,80.8,188.9,80.9,188.8,80.9z M62.3,80c-0.1,0-0.1,0-0.2,0c-0.2-0.1-0.2-0.3-0.1-0.5c0.4-0.6,0.7-1.2,1.1-1.8
						c0.1-0.2,0.3-0.2,0.5-0.1c0.2,0.1,0.2,0.3,0.1,0.5c-0.4,0.6-0.7,1.2-1.1,1.8C62.5,80,62.4,80,62.3,80z M255.2,150.4
						c-0.1,0-0.2,0-0.2-0.1c-0.5-0.5-1.1-0.9-1.6-1.3c-0.1-0.1-0.2-0.3,0-0.5c0.1-0.1,0.3-0.2,0.5,0c0.5,0.4,1.1,0.9,1.6,1.3
						c0.1,0.1,0.2,0.3,0,0.5C255.4,150.3,255.3,150.4,255.2,150.4z M252,147.7c-0.1,0-0.1,0-0.2-0.1c-0.5-0.4-1.1-0.8-1.6-1.3
						c-0.2-0.1-0.2-0.3-0.1-0.5c0.1-0.2,0.3-0.2,0.5-0.1c0.6,0.4,1.1,0.8,1.7,1.3c0.2,0.1,0.2,0.3,0.1,0.5
						C252.2,147.7,252.1,147.7,252,147.7z M248.6,145.2c-0.1,0-0.1,0-0.2-0.1c-0.6-0.4-1.1-0.8-1.7-1.2c-0.2-0.1-0.2-0.3-0.1-0.5
						c0.1-0.2,0.3-0.2,0.5-0.1c0.6,0.4,1.1,0.8,1.7,1.2c0.2,0.1,0.2,0.3,0.1,0.5C248.9,145.2,248.8,145.2,248.6,145.2z M245.2,142.9
						c-0.1,0-0.1,0-0.2-0.1c-0.6-0.4-1.2-0.7-1.8-1.1c-0.2-0.1-0.2-0.3-0.1-0.5c0.1-0.2,0.3-0.2,0.5-0.1c0.6,0.4,1.2,0.7,1.8,1.1
						c0.2,0.1,0.2,0.3,0.1,0.5C245.4,142.8,245.3,142.9,245.2,142.9z M241.6,140.7c-0.1,0-0.1,0-0.2,0c-0.6-0.3-1.2-0.7-1.8-1
						c-0.2-0.1-0.2-0.3-0.1-0.5c0.1-0.2,0.3-0.2,0.5-0.1c0.6,0.3,1.2,0.7,1.8,1c0.2,0.1,0.2,0.3,0.1,0.5
						C241.9,140.7,241.8,140.7,241.6,140.7z M238,138.8c-0.1,0-0.1,0-0.2,0c-0.6-0.3-1.2-0.6-1.9-0.9c-0.2-0.1-0.2-0.3-0.2-0.5
						c0.1-0.2,0.3-0.2,0.5-0.2c0.6,0.3,1.2,0.6,1.9,0.9c0.2,0.1,0.2,0.3,0.2,0.5C238.2,138.7,238.1,138.8,238,138.8z M234.2,136.9
						c0,0-0.1,0-0.1,0c-0.6-0.3-1.3-0.6-1.9-0.8c-0.2-0.1-0.3-0.3-0.2-0.5c0.1-0.2,0.3-0.3,0.5-0.2c0.6,0.3,1.3,0.6,1.9,0.8
						c0.2,0.1,0.3,0.3,0.2,0.5C234.5,136.9,234.4,136.9,234.2,136.9z M230.4,135.3c0,0-0.1,0-0.1,0c-0.6-0.3-1.3-0.5-1.9-0.7
						c-0.2-0.1-0.3-0.3-0.2-0.4c0.1-0.2,0.3-0.3,0.4-0.2c0.6,0.2,1.3,0.5,1.9,0.8c0.2,0.1,0.3,0.3,0.2,0.5
						C230.7,135.2,230.5,135.3,230.4,135.3z M226.5,133.8c0,0-0.1,0-0.1,0c-0.7-0.2-1.3-0.4-2-0.7c-0.2-0.1-0.3-0.3-0.2-0.4
						c0.1-0.2,0.3-0.3,0.4-0.2c0.7,0.2,1.3,0.4,2,0.7c0.2,0.1,0.3,0.3,0.2,0.4C226.8,133.8,226.6,133.8,226.5,133.8z M222.5,132.6
						C222.5,132.6,222.5,132.6,222.5,132.6c-0.8-0.2-1.4-0.4-2.1-0.6c-0.2-0.1-0.3-0.2-0.2-0.4c0.1-0.2,0.2-0.3,0.4-0.2
						c0.7,0.2,1.3,0.4,2,0.6c0.2,0.1,0.3,0.2,0.2,0.4C222.8,132.5,222.7,132.6,222.5,132.6z M218.5,131.5
						C218.5,131.5,218.5,131.5,218.5,131.5c-0.8-0.2-1.4-0.3-2.1-0.5c-0.2,0-0.3-0.2-0.3-0.4c0-0.2,0.2-0.3,0.4-0.3
						c0.7,0.2,1.4,0.3,2,0.5c0.2,0,0.3,0.2,0.3,0.4C218.8,131.4,218.7,131.5,218.5,131.5z M171,130.5c-0.2,0-0.3-0.1-0.3-0.3
						c0-0.2,0.1-0.4,0.3-0.4c0.6-0.1,1.3-0.3,2.1-0.4c0.2,0,0.4,0.1,0.4,0.3c0,0.2-0.1,0.4-0.3,0.4
						C172.3,130.3,171.7,130.4,171,130.5C171,130.5,171,130.5,171,130.5z M214.5,130.5C214.4,130.5,214.4,130.5,214.5,130.5
						c-0.8-0.1-1.4-0.3-2.1-0.4c-0.2,0-0.3-0.2-0.3-0.4c0-0.2,0.2-0.3,0.4-0.3c0.7,0.1,1.4,0.3,2.1,0.4c0.2,0,0.3,0.2,0.3,0.4
						C214.8,130.4,214.6,130.5,214.5,130.5z M175.1,129.8c-0.2,0-0.3-0.1-0.3-0.3c0-0.2,0.1-0.4,0.3-0.4c0.7-0.1,1.3-0.2,2.1-0.3
						c0.2,0,0.4,0.1,0.4,0.3c0,0.2-0.1,0.4-0.3,0.4C176.5,129.6,175.8,129.7,175.1,129.8C175.1,129.8,175.1,129.8,175.1,129.8z
						 M210.4,129.8C210.3,129.8,210.3,129.8,210.4,129.8c-0.7-0.1-1.4-0.2-2.1-0.3c-0.2,0-0.3-0.2-0.3-0.4c0-0.2,0.2-0.3,0.4-0.3
						c0.7,0.1,1.4,0.2,2.1,0.3c0.2,0,0.3,0.2,0.3,0.4C210.7,129.7,210.5,129.8,210.4,129.8z M179.2,129.2c-0.2,0-0.3-0.1-0.3-0.3
						c0-0.2,0.1-0.4,0.3-0.4c0.7-0.1,1.4-0.2,2.1-0.2c0.2,0,0.4,0.1,0.4,0.3c0,0.2-0.1,0.4-0.3,0.4
						C180.6,129.1,179.9,129.1,179.2,129.2C179.2,129.2,179.2,129.2,179.2,129.2z M206.2,129.2C206.2,129.2,206.2,129.2,206.2,129.2
						c-0.7-0.1-1.4-0.2-2.1-0.2c-0.2,0-0.3-0.2-0.3-0.4c0-0.2,0.2-0.3,0.4-0.3c0.7,0.1,1.4,0.1,2.1,0.2c0.2,0,0.3,0.2,0.3,0.4
						C206.6,129.1,206.4,129.2,206.2,129.2z M183.4,128.8c-0.2,0-0.3-0.1-0.3-0.3c0-0.2,0.1-0.4,0.3-0.4c0.7-0.1,1.4-0.1,2.1-0.2
						c0.2,0,0.4,0.1,0.4,0.3c0,0.2-0.1,0.4-0.3,0.4C184.8,128.7,184.1,128.7,183.4,128.8C183.4,128.8,183.4,128.8,183.4,128.8z
						 M202.1,128.8C202.1,128.8,202.1,128.8,202.1,128.8c-0.7-0.1-1.4-0.1-2.1-0.2c-0.2,0-0.3-0.2-0.3-0.4c0-0.2,0.2-0.3,0.4-0.3
						c0.7,0,1.4,0.1,2.1,0.2c0.2,0,0.3,0.2,0.3,0.4C202.4,128.6,202.3,128.8,202.1,128.8z M187.5,128.5c-0.2,0-0.3-0.1-0.3-0.3
						c0-0.2,0.1-0.4,0.3-0.4c0.7,0,1.4-0.1,2.1-0.1c0.2,0,0.4,0.1,0.4,0.3c0,0.2-0.1,0.4-0.3,0.4
						C188.9,128.5,188.2,128.5,187.5,128.5C187.5,128.5,187.5,128.5,187.5,128.5z M197.9,128.5C197.9,128.5,197.9,128.5,197.9,128.5
						c-0.7,0-1.4-0.1-2.1-0.1c-0.2,0-0.3-0.2-0.3-0.4c0-0.2,0.2-0.3,0.4-0.3c0.7,0,1.4,0,2.1,0.1c0.2,0,0.3,0.2,0.3,0.4
						C198.3,128.4,198.1,128.5,197.9,128.5z M191.7,128.4c-0.2,0-0.3-0.2-0.3-0.3c0-0.2,0.2-0.3,0.3-0.4c0.4,0,0.9,0,1.3,0l0.8,0
						c0.2,0,0.3,0.2,0.3,0.3c0,0.2-0.2,0.3-0.3,0.3c0,0,0,0,0,0l-0.8,0C192.6,128.4,192.1,128.4,191.7,128.4
						C191.7,128.4,191.7,128.4,191.7,128.4z M186.1,77.7c-0.1,0-0.2,0-0.3-0.1c-0.5-0.5-0.9-1-1.4-1.5c-0.1-0.1-0.1-0.4,0-0.5
						c0.1-0.1,0.4-0.1,0.5,0c0.5,0.5,0.9,1,1.4,1.5c0.1,0.1,0.1,0.4,0,0.5C186.3,77.7,186.2,77.7,186.1,77.7z M64.5,76.5
						c-0.1,0-0.1,0-0.2-0.1c-0.2-0.1-0.2-0.3-0.1-0.5c0.4-0.6,0.8-1.2,1.1-1.7c0.1-0.2,0.3-0.2,0.5-0.1c0.2,0.1,0.2,0.3,0.1,0.5
						c-0.4,0.6-0.8,1.1-1.1,1.7C64.7,76.4,64.6,76.5,64.5,76.5z M183.3,74.7c-0.1,0-0.2,0-0.2-0.1c-0.5-0.5-1-1-1.5-1.4
						c-0.1-0.1-0.1-0.4,0-0.5c0.1-0.1,0.4-0.1,0.5,0c0.5,0.5,1,1,1.5,1.5c0.1,0.1,0.1,0.4,0,0.5C183.4,74.6,183.4,74.7,183.3,74.7z
						 M66.8,73c-0.1,0-0.1,0-0.2-0.1c-0.2-0.1-0.2-0.3-0.1-0.5c0.4-0.6,0.8-1.1,1.2-1.7c0.1-0.2,0.3-0.2,0.5-0.1
						c0.2,0.1,0.2,0.3,0.1,0.5c-0.4,0.5-0.8,1.1-1.2,1.7C67,73,66.9,73,66.8,73z M180.2,71.8c-0.1,0-0.2,0-0.2-0.1
						c-0.5-0.5-1-0.9-1.6-1.3c-0.1-0.1-0.2-0.3,0-0.5c0.1-0.1,0.3-0.2,0.5,0c0.5,0.4,1.1,0.9,1.6,1.4c0.1,0.1,0.2,0.3,0,0.5
						C180.4,71.8,180.3,71.8,180.2,71.8z M69.3,69.7c-0.1,0-0.2,0-0.2-0.1c-0.2-0.1-0.2-0.3-0.1-0.5c0.4-0.6,0.9-1.1,1.3-1.6
						c0.1-0.1,0.3-0.2,0.5,0c0.1,0.1,0.2,0.3,0,0.5c-0.4,0.5-0.9,1.1-1.3,1.6C69.5,69.7,69.4,69.7,69.3,69.7z M177,69.2
						c-0.1,0-0.1,0-0.2-0.1c-0.5-0.4-1.1-0.8-1.7-1.2c-0.2-0.1-0.2-0.3-0.1-0.5c0.1-0.2,0.3-0.2,0.5-0.1c0.6,0.4,1.1,0.8,1.7,1.3
						c0.2,0.1,0.2,0.3,0.1,0.5C177.2,69.1,177.1,69.2,177,69.2z M173.7,66.7c-0.1,0-0.1,0-0.2-0.1c-0.6-0.4-1.2-0.8-1.7-1.1
						c-0.2-0.1-0.2-0.3-0.1-0.5c0.1-0.2,0.3-0.2,0.5-0.1c0.6,0.4,1.2,0.8,1.7,1.2c0.2,0.1,0.2,0.3,0.1,0.5
						C173.9,66.6,173.8,66.7,173.7,66.7z M72,66.5c-0.1,0-0.2,0-0.2-0.1c-0.1-0.1-0.2-0.3,0-0.5c0.5-0.5,0.9-1,1.4-1.5
						c0.1-0.1,0.4-0.1,0.5,0c0.1,0.1,0.1,0.4,0,0.5c-0.5,0.5-0.9,1-1.4,1.5C72.2,66.5,72.1,66.5,72,66.5z M170.2,64.5
						c-0.1,0-0.1,0-0.2,0c-0.6-0.4-1.2-0.7-1.8-1c-0.2-0.1-0.2-0.3-0.1-0.5c0.1-0.2,0.3-0.2,0.5-0.1c0.6,0.3,1.2,0.7,1.8,1
						c0.2,0.1,0.2,0.3,0.1,0.5C170.4,64.4,170.3,64.5,170.2,64.5z M74.8,63.5c-0.1,0-0.2,0-0.2-0.1c-0.1-0.1-0.1-0.4,0-0.5
						c0.5-0.5,1-1,1.5-1.4c0.1-0.1,0.4-0.1,0.5,0c0.1,0.1,0.1,0.4,0,0.5c-0.5,0.5-1,0.9-1.5,1.4C75,63.5,74.9,63.5,74.8,63.5z
						 M166.5,62.4c-0.1,0-0.1,0-0.2,0c-0.6-0.3-1.2-0.6-1.9-0.9c-0.2-0.1-0.2-0.3-0.2-0.5c0.1-0.2,0.3-0.2,0.5-0.2
						c0.6,0.3,1.2,0.6,1.9,0.9c0.2,0.1,0.2,0.3,0.1,0.5C166.8,62.4,166.6,62.4,166.5,62.4z M77.9,60.7c-0.1,0-0.2,0-0.3-0.1
						c-0.1-0.1-0.1-0.4,0-0.5c0.5-0.5,1.1-0.9,1.6-1.3c0.2-0.1,0.4-0.1,0.5,0.1c0.1,0.1,0.1,0.4-0.1,0.5c-0.5,0.4-1.1,0.9-1.6,1.3
						C78,60.6,78,60.7,77.9,60.7z M162.8,60.6c0,0-0.1,0-0.1,0c-0.6-0.3-1.3-0.6-1.9-0.8c-0.2-0.1-0.3-0.3-0.2-0.5
						c0.1-0.2,0.3-0.3,0.5-0.2c0.6,0.3,1.3,0.5,1.9,0.8c0.2,0.1,0.3,0.3,0.2,0.5C163,60.6,162.9,60.6,162.8,60.6z M158.9,59.1
						c0,0-0.1,0-0.1,0c-0.7-0.2-1.3-0.5-2-0.7c-0.2-0.1-0.3-0.3-0.2-0.4c0.1-0.2,0.3-0.3,0.4-0.2c0.7,0.2,1.3,0.5,2,0.7
						c0.2,0.1,0.3,0.3,0.2,0.4C159.2,59,159,59.1,158.9,59.1z M81.1,58.1c-0.1,0-0.2,0-0.3-0.1c-0.1-0.2-0.1-0.4,0.1-0.5
						c0.6-0.4,1.1-0.8,1.7-1.2c0.2-0.1,0.4-0.1,0.5,0.1c0.1,0.2,0.1,0.4-0.1,0.5c-0.6,0.4-1.1,0.8-1.7,1.2
						C81.3,58,81.2,58.1,81.1,58.1z M155,57.7c0,0-0.1,0-0.1,0c-0.7-0.2-1.3-0.4-2-0.6c-0.2-0.1-0.3-0.2-0.2-0.4
						c0.1-0.2,0.2-0.3,0.4-0.2c0.7,0.2,1.3,0.4,2,0.6c0.2,0.1,0.3,0.3,0.2,0.4C155.2,57.6,155.1,57.7,155,57.7z M150.9,56.6
						C150.9,56.6,150.9,56.6,150.9,56.6c-0.8-0.2-1.4-0.3-2.1-0.5c-0.2,0-0.3-0.2-0.3-0.4c0-0.2,0.2-0.3,0.4-0.3
						c0.7,0.1,1.3,0.3,2,0.5c0.2,0,0.3,0.2,0.3,0.4C151.2,56.5,151.1,56.6,150.9,56.6z M84.6,55.7c-0.1,0-0.2-0.1-0.3-0.2
						c-0.1-0.2-0.1-0.4,0.1-0.5c0.6-0.4,1.2-0.7,1.8-1.1c0.2-0.1,0.4,0,0.5,0.1c0.1,0.2,0,0.4-0.1,0.5c-0.6,0.3-1.2,0.7-1.8,1
						C84.7,55.7,84.6,55.7,84.6,55.7z M146.9,55.7C146.8,55.7,146.8,55.7,146.9,55.7c-0.8-0.1-1.4-0.3-2.1-0.4
						c-0.2,0-0.3-0.2-0.3-0.4c0-0.2,0.2-0.3,0.4-0.3c0.7,0.1,1.4,0.2,2.1,0.4c0.2,0,0.3,0.2,0.3,0.4C147.2,55.6,147,55.7,146.9,55.7
						z M142.8,55.1C142.7,55.1,142.7,55.1,142.8,55.1c-0.8-0.1-1.5-0.2-2.1-0.2c-0.2,0-0.3-0.2-0.3-0.4c0-0.2,0.2-0.3,0.4-0.3
						c0.7,0.1,1.4,0.1,2.1,0.2c0.2,0,0.3,0.2,0.3,0.4C143.1,54.9,142.9,55.1,142.8,55.1z M138.6,54.7
						C138.6,54.7,138.6,54.7,138.6,54.7c-0.8-0.1-1.5-0.1-2.1-0.1c-0.2,0-0.3-0.2-0.3-0.4c0-0.2,0.2-0.3,0.4-0.3
						c0.6,0,1.3,0.1,2.1,0.1c0.2,0,0.3,0.2,0.3,0.4C138.9,54.5,138.8,54.7,138.6,54.7z M88.2,53.7c-0.1,0-0.2-0.1-0.3-0.2
						c-0.1-0.2,0-0.4,0.2-0.5c0.6-0.3,1.3-0.6,1.9-0.9c0.2-0.1,0.4,0,0.5,0.2c0.1,0.2,0,0.4-0.2,0.5c-0.6,0.3-1.3,0.6-1.9,0.9
						C88.3,53.7,88.3,53.7,88.2,53.7z M126.6,52c0,0-0.1,0-0.1,0c-0.6-0.2-1.3-0.4-2-0.7c-0.2-0.1-0.3-0.3-0.2-0.4
						c0.1-0.2,0.3-0.3,0.4-0.2c0.7,0.2,1.4,0.5,2,0.7c0.2,0.1,0.3,0.3,0.2,0.4C126.9,51.9,126.8,52,126.6,52z M92,52
						c-0.1,0-0.3-0.1-0.3-0.2c-0.1-0.2,0-0.4,0.2-0.5c0.6-0.3,1.3-0.5,2-0.7c0.2-0.1,0.4,0,0.4,0.2c0.1,0.2,0,0.4-0.2,0.4
						c-0.6,0.2-1.3,0.5-1.9,0.7C92.1,52,92,52,92,52z M122.7,50.7C122.6,50.7,122.6,50.7,122.7,50.7c-0.7-0.2-1.4-0.4-2.1-0.5
						c-0.2,0-0.3-0.2-0.3-0.4c0-0.2,0.2-0.3,0.4-0.3c0.7,0.2,1.4,0.3,2,0.5c0.2,0.1,0.3,0.2,0.2,0.4C123,50.6,122.8,50.7,122.7,50.7
						z M95.9,50.6c-0.2,0-0.3-0.1-0.3-0.2c-0.1-0.2,0.1-0.4,0.2-0.4c0.7-0.2,1.3-0.4,2-0.5c0.2,0,0.4,0.1,0.4,0.3
						c0,0.2-0.1,0.4-0.3,0.4C97.4,50.3,96.7,50.4,95.9,50.6C96,50.6,96,50.6,95.9,50.6z M118.6,49.8
						C118.6,49.8,118.6,49.8,118.6,49.8c-0.7-0.1-1.4-0.3-2.1-0.4c-0.2,0-0.3-0.2-0.3-0.4c0-0.2,0.2-0.3,0.4-0.3
						c0.7,0.1,1.4,0.2,2.1,0.4c0.2,0,0.3,0.2,0.3,0.4C118.9,49.7,118.8,49.8,118.6,49.8z M100,49.7c-0.2,0-0.3-0.1-0.3-0.3
						c0-0.2,0.1-0.4,0.3-0.4c0.7-0.1,1.4-0.3,2.1-0.4c0.2,0,0.4,0.1,0.4,0.3c0,0.2-0.1,0.4-0.3,0.4C101.4,49.4,100.7,49.5,100,49.7
						C100,49.7,100,49.7,100,49.7z M114.5,49.1C114.5,49.1,114.5,49.1,114.5,49.1c-0.7-0.1-1.4-0.1-2.1-0.2c-0.2,0-0.3-0.2-0.3-0.4
						c0-0.2,0.2-0.3,0.4-0.3c0.7,0.1,1.4,0.1,2.1,0.2c0.2,0,0.3,0.2,0.3,0.4C114.8,49,114.7,49.1,114.5,49.1z M104.1,49.1
						c-0.2,0-0.3-0.1-0.3-0.3c0-0.2,0.1-0.4,0.3-0.4c0.7-0.1,1.4-0.1,2.1-0.2c0.2,0,0.4,0.1,0.4,0.3c0,0.2-0.1,0.4-0.3,0.4
						C105.5,48.9,104.8,49,104.1,49.1C104.1,49.1,104.1,49.1,104.1,49.1z M110.3,48.8C110.3,48.8,110.3,48.8,110.3,48.8
						c-0.5,0-1,0-1.5,0c-0.2,0-0.4,0-0.6,0c0,0,0,0,0,0c-0.2,0-0.3-0.2-0.3-0.3c0-0.2,0.2-0.3,0.3-0.4c0.2,0,0.4,0,0.6,0
						c0.5,0,1,0,1.5,0c0.2,0,0.3,0.2,0.3,0.4C110.7,48.7,110.5,48.8,110.3,48.8z"/>
				</g>
				<g>
					<path class="st1" d="M89.2,104.7c-0.2,0-0.3-0.1-0.3-0.3c0,0-0.1-0.8-0.2-2.1c0-0.2,0.1-0.4,0.3-0.4c0.2,0,0.4,0.1,0.4,0.3
						c0.1,1.3,0.2,2,0.2,2C89.6,104.5,89.4,104.7,89.2,104.7C89.2,104.7,89.2,104.7,89.2,104.7z M88.9,100.5c-0.2,0-0.3-0.1-0.3-0.3
						c0-0.6,0-1.3,0-2c0-0.2,0.2-0.4,0.3-0.4c0.2,0,0.3,0.1,0.3,0.3c0,0.8,0,1.5,0,2.1C89.2,100.4,89.1,100.5,88.9,100.5
						C88.9,100.5,88.9,100.5,88.9,100.5z M88.9,96.4C88.9,96.4,88.9,96.4,88.9,96.4c-0.2,0-0.4-0.2-0.3-0.4c0-0.7,0.1-1.4,0.1-2.1
						c0-0.2,0.2-0.3,0.4-0.3c0.2,0,0.3,0.2,0.3,0.4c0,0.7-0.1,1.4-0.1,2.1C89.2,96.2,89.1,96.4,88.9,96.4z M89.2,92.2
						C89.2,92.2,89.2,92.2,89.2,92.2c-0.2,0-0.4-0.2-0.3-0.4c0.1-0.7,0.2-1.4,0.3-2.1c0-0.2,0.2-0.3,0.4-0.3c0.2,0,0.3,0.2,0.3,0.4
						c-0.1,0.7-0.2,1.4-0.2,2.1C89.5,92.1,89.3,92.2,89.2,92.2z M89.8,88.1C89.7,88.1,89.7,88.1,89.8,88.1c-0.2,0-0.4-0.2-0.3-0.4
						c0.1-0.7,0.3-1.4,0.4-2.1c0-0.2,0.2-0.3,0.4-0.3c0.2,0,0.3,0.2,0.3,0.4c-0.1,0.7-0.3,1.4-0.4,2C90.1,87.9,89.9,88.1,89.8,88.1z
						 M90.6,84C90.6,84,90.6,84,90.6,84c-0.3-0.1-0.4-0.2-0.3-0.4c0.2-0.7,0.4-1.3,0.6-2c0.1-0.2,0.2-0.3,0.4-0.2
						c0.2,0.1,0.3,0.3,0.2,0.4c-0.2,0.7-0.4,1.3-0.6,2C90.9,83.9,90.8,84,90.6,84z M91.9,80c0,0-0.1,0-0.1,0
						c-0.2-0.1-0.3-0.3-0.2-0.4c0.2-0.7,0.5-1.3,0.8-2c0.1-0.2,0.3-0.3,0.5-0.2c0.2,0.1,0.3,0.3,0.2,0.5c-0.3,0.6-0.5,1.3-0.7,1.9
						C92.1,79.9,92,80,91.9,80z M93.5,76.2c0,0-0.1,0-0.1,0c-0.2-0.1-0.2-0.3-0.2-0.5c0.3-0.6,0.6-1.3,0.9-1.9
						c0.1-0.2,0.3-0.2,0.5-0.1c0.2,0.1,0.2,0.3,0.1,0.5c-0.3,0.6-0.6,1.2-0.9,1.8C93.7,76.1,93.6,76.2,93.5,76.2z M95.4,72.5
						c-0.1,0-0.1,0-0.2-0.1c-0.2-0.1-0.2-0.3-0.1-0.5c0.4-0.6,0.8-1.2,1.1-1.8c0.1-0.2,0.3-0.2,0.5-0.1c0.2,0.1,0.2,0.3,0.1,0.5
						c-0.4,0.6-0.8,1.1-1.1,1.7C95.7,72.4,95.6,72.5,95.4,72.5z M97.8,69.1c-0.1,0-0.2,0-0.2-0.1c-0.2-0.1-0.2-0.3-0.1-0.5
						c0.4-0.6,0.9-1.1,1.3-1.6c0.1-0.1,0.3-0.2,0.5,0c0.1,0.1,0.2,0.3,0,0.5c-0.5,0.5-0.9,1-1.3,1.6C98,69,97.9,69.1,97.8,69.1z
						 M100.6,66c-0.1,0-0.2,0-0.2-0.1c-0.1-0.1-0.1-0.4,0-0.5c0.5-0.5,1-1,1.5-1.4c0.1-0.1,0.4-0.1,0.5,0c0.1,0.1,0.1,0.4,0,0.5
						c-0.5,0.5-1,0.9-1.5,1.4C100.7,65.9,100.7,66,100.6,66z M103.7,63.2c-0.1,0-0.2,0-0.3-0.1c-0.1-0.2-0.1-0.4,0.1-0.5
						c0.5-0.4,1.1-0.8,1.7-1.2c0.2-0.1,0.4-0.1,0.5,0.1c0.1,0.2,0.1,0.4-0.1,0.5c-0.6,0.4-1.1,0.8-1.7,1.2
						C103.8,63.2,103.8,63.2,103.7,63.2z M107.1,60.9c-0.1,0-0.2-0.1-0.3-0.2c-0.1-0.2,0-0.4,0.1-0.5c0.6-0.4,1.2-0.7,1.8-1
						c0.2-0.1,0.4,0,0.5,0.1c0.1,0.2,0,0.4-0.1,0.5c-0.6,0.3-1.2,0.7-1.8,1C107.2,60.9,107.2,60.9,107.1,60.9z M110.8,58.9
						c-0.1,0-0.3-0.1-0.3-0.2c-0.1-0.2,0-0.4,0.2-0.5c0.6-0.3,1.3-0.6,1.9-0.8c0.2-0.1,0.4,0,0.5,0.2c0.1,0.2,0,0.4-0.2,0.5
						c-0.6,0.3-1.3,0.5-1.9,0.8C110.9,58.9,110.8,58.9,110.8,58.9z M114.6,57.4c-0.1,0-0.3-0.1-0.3-0.2c-0.1-0.2,0-0.4,0.2-0.4
						c0.7-0.2,1.3-0.4,2-0.6c0.2-0.1,0.4,0.1,0.4,0.2c0.1,0.2-0.1,0.4-0.2,0.4c-0.7,0.2-1.3,0.4-2,0.6
						C114.7,57.4,114.7,57.4,114.6,57.4z M118.6,56.2c-0.2,0-0.3-0.1-0.3-0.3c0-0.2,0.1-0.4,0.3-0.4c0.7-0.2,1.3-0.3,2-0.5
						c0.2,0,0.4,0.1,0.4,0.3c0,0.2-0.1,0.4-0.3,0.4C120.1,55.9,119.4,56.1,118.6,56.2C118.7,56.2,118.7,56.2,118.6,56.2z
						 M122.7,55.4c-0.2,0-0.3-0.1-0.3-0.3c0-0.2,0.1-0.4,0.3-0.4c0.7-0.1,1.4-0.2,2.1-0.3c0.2,0,0.4,0.1,0.4,0.3
						c0,0.2-0.1,0.4-0.3,0.4C124.1,55.2,123.4,55.3,122.7,55.4C122.8,55.4,122.7,55.4,122.7,55.4z M131,54.6c-0.2,0-0.3-0.1-0.3-0.3
						c0-0.2,0.1-0.4,0.3-0.4c0.5,0,1,0,1.5,0c0,0,0,0,0,0c0.2,0,0.3,0.2,0.3,0.3c0,0.2-0.2,0.3-0.3,0.4
						C132,54.6,131.5,54.6,131,54.6C131,54.6,131,54.6,131,54.6z"/>
				</g>
				<g>
					<path class="st1" d="M106,133C106,133,106,133,106,133c-0.3-0.1-0.4-0.2-0.3-0.4c0.2-0.7,0.3-1.4,0.5-2c0-0.2,0.2-0.3,0.4-0.3
						c0.2,0,0.3,0.2,0.3,0.4c-0.2,0.7-0.3,1.3-0.5,2C106.3,132.9,106.2,133,106,133z M107.1,128.9C107,128.9,107,128.9,107.1,128.9
						c-0.3-0.1-0.4-0.3-0.3-0.4c0.2-0.7,0.4-1.3,0.6-2c0.1-0.2,0.2-0.3,0.4-0.2c0.2,0.1,0.3,0.2,0.2,0.4c-0.2,0.7-0.4,1.3-0.5,2
						C107.3,128.8,107.2,128.9,107.1,128.9z M108.2,124.9c0,0-0.1,0-0.1,0c-0.2-0.1-0.3-0.2-0.2-0.4c0.2-0.7,0.4-1.3,0.6-2
						c0.1-0.2,0.3-0.3,0.4-0.2c0.2,0.1,0.3,0.3,0.2,0.4c-0.2,0.7-0.4,1.3-0.6,2C108.5,124.8,108.3,124.9,108.2,124.9z M109.5,121
						c0,0-0.1,0-0.1,0c-0.2-0.1-0.3-0.3-0.2-0.4c0.2-0.7,0.5-1.3,0.7-2c0.1-0.2,0.3-0.3,0.4-0.2c0.2,0.1,0.3,0.3,0.2,0.4
						c-0.2,0.6-0.5,1.3-0.7,2C109.7,120.9,109.6,121,109.5,121z M110.9,117.1c0,0-0.1,0-0.1,0c-0.2-0.1-0.3-0.3-0.2-0.4
						c0.2-0.7,0.5-1.3,0.8-1.9c0.1-0.2,0.3-0.3,0.5-0.2c0.2,0.1,0.3,0.3,0.2,0.5c-0.3,0.6-0.5,1.3-0.8,1.9
						C111.1,117,111,117.1,110.9,117.1z M112.4,113.2c0,0-0.1,0-0.1,0c-0.2-0.1-0.3-0.3-0.2-0.5c0.3-0.6,0.6-1.3,0.8-1.9
						c0.1-0.2,0.3-0.3,0.5-0.2c0.2,0.1,0.3,0.3,0.2,0.5c-0.3,0.6-0.6,1.3-0.8,1.9C112.7,113.1,112.5,113.2,112.4,113.2z
						 M114.1,109.4c0,0-0.1,0-0.1,0c-0.2-0.1-0.2-0.3-0.2-0.5c0.3-0.6,0.6-1.3,0.9-1.9c0.1-0.2,0.3-0.2,0.5-0.2
						c0.2,0.1,0.2,0.3,0.2,0.5c-0.3,0.6-0.6,1.2-0.9,1.9C114.4,109.3,114.2,109.4,114.1,109.4z M116,105.7c-0.1,0-0.1,0-0.2,0
						c-0.2-0.1-0.2-0.3-0.1-0.5c0.3-0.6,0.7-1.2,1-1.8c0.1-0.2,0.3-0.2,0.5-0.1c0.2,0.1,0.2,0.3,0.1,0.5c-0.3,0.6-0.7,1.2-1,1.8
						C116.2,105.6,116.1,105.7,116,105.7z M118,102c-0.1,0-0.1,0-0.2,0c-0.2-0.1-0.2-0.3-0.1-0.5c0.4-0.6,0.7-1.2,1.1-1.8
						c0.1-0.2,0.3-0.2,0.5-0.1c0.2,0.1,0.2,0.3,0.1,0.5c-0.4,0.6-0.7,1.2-1.1,1.8C118.2,102,118.1,102,118,102z M120.1,98.5
						c-0.1,0-0.1,0-0.2-0.1c-0.2-0.1-0.2-0.3-0.1-0.5c0.4-0.6,0.8-1.2,1.1-1.7c0.1-0.2,0.3-0.2,0.5-0.1c0.2,0.1,0.2,0.3,0.1,0.5
						c-0.4,0.6-0.8,1.1-1.1,1.7C120.3,98.4,120.2,98.5,120.1,98.5z M122.4,95c-0.1,0-0.1,0-0.2-0.1c-0.2-0.1-0.2-0.3-0.1-0.5
						c0.4-0.6,0.8-1.1,1.2-1.7c0.1-0.2,0.3-0.2,0.5-0.1c0.2,0.1,0.2,0.3,0.1,0.5c-0.4,0.6-0.8,1.1-1.2,1.7
						C122.7,95,122.6,95,122.4,95z M124.9,91.7c-0.1,0-0.1,0-0.2-0.1c-0.2-0.1-0.2-0.3-0.1-0.5c0.4-0.6,0.9-1.1,1.3-1.6
						c0.1-0.1,0.3-0.2,0.5,0c0.1,0.1,0.2,0.3,0,0.5c-0.4,0.5-0.9,1.1-1.3,1.6C125.1,91.6,125,91.7,124.9,91.7z M127.6,88.4
						c-0.1,0-0.2,0-0.2-0.1c-0.1-0.1-0.2-0.3,0-0.5c0.5-0.5,0.9-1.1,1.4-1.6c0.1-0.1,0.3-0.2,0.5,0c0.1,0.1,0.2,0.3,0,0.5
						c-0.5,0.5-0.9,1-1.4,1.6C127.8,88.4,127.7,88.4,127.6,88.4z M130.4,85.4c-0.1,0-0.2,0-0.2-0.1c-0.1-0.1-0.1-0.4,0-0.5
						c0.5-0.5,1-1,1.5-1.5c0.1-0.1,0.4-0.1,0.5,0c0.1,0.1,0.1,0.4,0,0.5c-0.5,0.5-1,1-1.4,1.5C130.5,85.3,130.4,85.4,130.4,85.4z
						 M133.3,82.4c-0.1,0-0.2,0-0.3-0.1c-0.1-0.1-0.1-0.4,0-0.5c0.5-0.5,1-1,1.5-1.4c0.1-0.1,0.4-0.1,0.5,0c0.1,0.1,0.1,0.4,0,0.5
						c-0.5,0.5-1,0.9-1.5,1.4C133.5,82.4,133.4,82.4,133.3,82.4z M136.4,79.6c-0.1,0-0.2,0-0.3-0.1c-0.1-0.1-0.1-0.4,0-0.5
						c0.5-0.5,1.1-0.9,1.6-1.3c0.1-0.1,0.4-0.1,0.5,0c0.1,0.1,0.1,0.4,0,0.5c-0.5,0.4-1.1,0.9-1.6,1.3
						C136.5,79.6,136.5,79.6,136.4,79.6z M139.6,77c-0.1,0-0.2,0-0.3-0.1c-0.1-0.2-0.1-0.4,0.1-0.5c0.6-0.4,1.1-0.9,1.7-1.3
						c0.2-0.1,0.4-0.1,0.5,0.1c0.1,0.2,0.1,0.4-0.1,0.5c-0.6,0.4-1.1,0.8-1.6,1.3C139.7,76.9,139.7,77,139.6,77z M142.9,74.5
						c-0.1,0-0.2-0.1-0.3-0.1c-0.1-0.2-0.1-0.4,0.1-0.5c0.6-0.4,1.1-0.8,1.7-1.2c0.2-0.1,0.4-0.1,0.5,0.1c0.1,0.2,0.1,0.4-0.1,0.5
						c-0.6,0.4-1.1,0.8-1.7,1.2C143.1,74.5,143,74.5,142.9,74.5z M146.4,72.2c-0.1,0-0.2-0.1-0.3-0.2c-0.1-0.2-0.1-0.4,0.1-0.5
						c0.6-0.4,1.2-0.7,1.8-1.1c0.2-0.1,0.4,0,0.5,0.1c0.1,0.2,0,0.4-0.1,0.5c-0.6,0.4-1.2,0.7-1.8,1.1
						C146.5,72.2,146.5,72.2,146.4,72.2z M150,70c-0.1,0-0.2-0.1-0.3-0.2c-0.1-0.2,0-0.4,0.1-0.5c0.6-0.3,1.2-0.7,1.8-1
						c0.2-0.1,0.4,0,0.5,0.1c0.1,0.2,0,0.4-0.1,0.5c-0.6,0.3-1.2,0.7-1.8,1C150.1,70,150,70,150,70z M153.6,68
						c-0.1,0-0.2-0.1-0.3-0.2c-0.1-0.2,0-0.4,0.2-0.5c0.6-0.3,1.2-0.6,1.9-0.9c0.2-0.1,0.4,0,0.5,0.2c0.1,0.2,0,0.4-0.2,0.5
						c-0.6,0.3-1.2,0.6-1.9,0.9C153.7,68,153.7,68,153.6,68z M157.4,66.2c-0.1,0-0.3-0.1-0.3-0.2c-0.1-0.2,0-0.4,0.2-0.5
						c0.6-0.3,1.3-0.6,1.9-0.8c0.2-0.1,0.4,0,0.5,0.2c0.1,0.2,0,0.4-0.2,0.5c-0.6,0.3-1.3,0.6-1.9,0.8
						C157.5,66.2,157.4,66.2,157.4,66.2z M161.2,64.6c-0.1,0-0.3-0.1-0.3-0.2c-0.1-0.2,0-0.4,0.2-0.5c0.6-0.3,1.3-0.5,1.9-0.8
						c0.2-0.1,0.4,0,0.4,0.2c0.1,0.2,0,0.4-0.2,0.4c-0.6,0.2-1.3,0.5-1.9,0.8C161.3,64.6,161.2,64.6,161.2,64.6z M165.1,63.1
						c-0.1,0-0.3-0.1-0.3-0.2c-0.1-0.2,0-0.4,0.2-0.4c0.7-0.2,1.3-0.5,2-0.7c0.2-0.1,0.4,0,0.4,0.2c0.1,0.2,0,0.4-0.2,0.4
						c-0.7,0.2-1.3,0.4-2,0.7C165.2,63.1,165.1,63.1,165.1,63.1z M169,61.8c-0.1,0-0.3-0.1-0.3-0.2c-0.1-0.2,0-0.4,0.2-0.4
						c0.7-0.2,1.3-0.4,2-0.6c0.2-0.1,0.4,0.1,0.4,0.2c0.1,0.2-0.1,0.4-0.2,0.4c-0.7,0.2-1.3,0.4-2,0.6
						C169.1,61.7,169.1,61.8,169,61.8z M173,60.6c-0.2,0-0.3-0.1-0.3-0.3c-0.1-0.2,0.1-0.4,0.2-0.4c0.7-0.2,1.3-0.4,2-0.5
						c0.2,0,0.4,0.1,0.4,0.3c0,0.2-0.1,0.4-0.3,0.4C174.5,60.2,173.8,60.4,173,60.6C173.1,60.6,173.1,60.6,173,60.6z M177.1,59.6
						c-0.2,0-0.3-0.1-0.3-0.3c0-0.2,0.1-0.4,0.3-0.4c0.7-0.2,1.4-0.3,2-0.5c0.2,0,0.4,0.1,0.4,0.3c0,0.2-0.1,0.4-0.3,0.4
						C178.5,59.2,177.8,59.4,177.1,59.6C177.1,59.6,177.1,59.6,177.1,59.6z M181.1,58.7c-0.2,0-0.3-0.1-0.3-0.3
						c0-0.2,0.1-0.4,0.3-0.4c0.7-0.1,1.4-0.3,2.1-0.4c0.2,0,0.4,0.1,0.4,0.3c0,0.2-0.1,0.4-0.3,0.4
						C182.6,58.4,181.9,58.5,181.1,58.7C181.2,58.7,181.2,58.7,181.1,58.7z M185.2,57.9c-0.2,0-0.3-0.1-0.3-0.3
						c0-0.2,0.1-0.4,0.3-0.4c0.7-0.1,1.4-0.2,2.1-0.3c0.2,0,0.4,0.1,0.4,0.3c0,0.2-0.1,0.4-0.3,0.4C186.7,57.7,186,57.8,185.2,57.9
						C185.3,57.9,185.3,57.9,185.2,57.9z M224.7,57.6C224.7,57.6,224.6,57.6,224.7,57.6c-0.1,0-0.8-0.1-2.1-0.3
						c-0.2,0-0.3-0.2-0.3-0.4c0-0.2,0.2-0.3,0.4-0.3c1.3,0.2,2,0.3,2.1,0.3c0.2,0,0.3,0.2,0.3,0.4C225,57.4,224.9,57.6,224.7,57.6z
						 M189.4,57.3c-0.2,0-0.3-0.1-0.3-0.3c0-0.2,0.1-0.4,0.3-0.4c0.7-0.1,1.4-0.2,2.1-0.2c0.2,0,0.4,0.1,0.4,0.3
						c0,0.2-0.1,0.4-0.3,0.4C190.8,57.2,190.1,57.3,189.4,57.3C189.4,57.3,189.4,57.3,189.4,57.3z M220.6,57
						C220.5,57,220.5,57,220.6,57c-0.7-0.1-1.4-0.1-2.1-0.2c-0.2,0-0.3-0.2-0.3-0.4c0-0.2,0.2-0.3,0.4-0.3c0.8,0.1,1.5,0.1,2.1,0.2
						c0.2,0,0.3,0.2,0.3,0.4C220.9,56.9,220.7,57,220.6,57z M193.5,56.9c-0.2,0-0.3-0.1-0.3-0.3c0-0.2,0.1-0.4,0.3-0.4
						c0.7-0.1,1.4-0.1,2.1-0.2c0.2,0,0.4,0.1,0.4,0.3c0,0.2-0.1,0.4-0.3,0.4C194.9,56.8,194.2,56.8,193.5,56.9
						C193.5,56.9,193.5,56.9,193.5,56.9z M216.4,56.6C216.4,56.6,216.4,56.6,216.4,56.6c-0.7,0-1.4-0.1-2.1-0.1
						c-0.2,0-0.3-0.2-0.3-0.4c0-0.2,0.2-0.3,0.4-0.3c0.7,0,1.4,0.1,2.1,0.1c0.2,0,0.3,0.2,0.3,0.4C216.7,56.5,216.6,56.6,216.4,56.6
						z M197.7,56.5c-0.2,0-0.3-0.1-0.3-0.3c0-0.2,0.1-0.4,0.3-0.4c0.7,0,1.4-0.1,2.1-0.1c0.2,0,0.4,0.1,0.4,0.3
						c0,0.2-0.1,0.4-0.3,0.4C199.1,56.5,198.4,56.5,197.7,56.5C197.7,56.5,197.7,56.5,197.7,56.5z M212.2,56.4
						C212.2,56.4,212.2,56.4,212.2,56.4c-0.7,0-1.4-0.1-2.1-0.1c-0.2,0-0.3-0.2-0.3-0.4c0-0.2,0.2-0.3,0.3-0.3c0,0,0,0,0,0
						c0.7,0,1.4,0,2.1,0.1c0.2,0,0.3,0.2,0.3,0.4C212.6,56.2,212.4,56.4,212.2,56.4z M201.8,56.3c-0.2,0-0.3-0.1-0.3-0.3
						c0-0.2,0.1-0.4,0.3-0.4c0.7,0,1.4,0,2.1-0.1c0,0,0,0,0,0c0.2,0,0.3,0.2,0.3,0.3c0,0.2-0.1,0.3-0.3,0.4
						C203.2,56.3,202.5,56.3,201.8,56.3C201.8,56.3,201.8,56.3,201.8,56.3z M208.1,56.3C208.1,56.3,208.1,56.3,208.1,56.3
						c-0.5,0-1,0-1.6,0l-0.5,0c0,0,0,0,0,0c-0.2,0-0.3-0.2-0.3-0.3c0-0.2,0.2-0.3,0.3-0.3l0.5,0c0.5,0,1.1,0,1.6,0
						c0.2,0,0.3,0.2,0.3,0.4C208.4,56.1,208.3,56.3,208.1,56.3z"/>
				</g>
				<g>
					<circle class="st6" cx="224.7" cy="57.2" r="3"/>
				</g>
				<g>
					<circle class="st6" cx="89.2" cy="104.3" r="3"/>
				</g>
				<g>
					<circle class="st6" cx="171.5" cy="130.5" r="3"/>
				</g>
				<g>
					<path class="st6" d="M203.6,97.8c0,1.7-1.4,3-3,3s-3-1.4-3-3c0-1.7,1.4-3,3-3S203.6,96.1,203.6,97.8z"/>
				</g>
				<g>
					<path class="st6" d="M134.4,53.8c0,1.7-1.4,3-3,3s-3-1.4-3-3c0-1.7,1.4-3,3-3S134.4,52.1,134.4,53.8z"/>
				</g>
				<g>
					<circle class="st6" cx="258.9" cy="153.4" r="3"/>
				</g>
			</g>
		</g>
		<circle class="st6" cx="104.4" cy="137.9" r="3"/>
		<circle class="st6" cx="60.8" cy="83.3" r="3"/>
	</g>
	<g class="st28">
		<g>
			<g>
				<path class="st1" d="M200.1,249h-28.9c-0.8,0-1.5-0.7-1.5-1.5v-27.5c0-0.8,0.7-1.5,1.5-1.5h28.9c0.8,0,1.5,0.7,1.5,1.5v27.5
					C201.6,248.4,200.9,249,200.1,249z"/>
				<path class="st29" d="M172.4,231.5v-1.6c0-0.8,0.6-1.4,1.4-1.4h23.7c0.8,0,1.4,0.6,1.4,1.4v1.6c0,0.8-0.6,1.4-1.4,1.4h-23.7
					C173,232.9,172.4,232.3,172.4,231.5z"/>
				<path class="st29" d="M172.4,224.6V223c0-0.8,0.6-1.4,1.4-1.4h23.7c0.8,0,1.4,0.6,1.4,1.4v1.6c0,0.8-0.6,1.4-1.4,1.4h-23.7
					C173,226,172.4,225.4,172.4,224.6z"/>
				<path class="st29" d="M172.4,238.4v-1.6c0-0.8,0.6-1.4,1.4-1.4h23.7c0.8,0,1.4,0.6,1.4,1.4v1.6c0,0.8-0.6,1.4-1.4,1.4h-23.7
					C173,239.8,172.4,239.2,172.4,238.4z"/>
				<path class="st29" d="M172.4,245.3v-1.6c0-0.8,0.6-1.4,1.4-1.4h23.7c0.8,0,1.4,0.6,1.4,1.4v1.6c0,0.8-0.6,1.4-1.4,1.4h-23.7
					C173,246.7,172.4,246.1,172.4,245.3z"/>
				<path class="st8" d="M258.5,249h-54.9c-1.1,0-2-0.9-2-2v-26.4c0-1.1,0.9-2,2-2h54.9c1.1,0,2,0.9,2,2V247
					C260.6,248.1,259.7,249,258.5,249z"/>
				<g class="st30">
					<path class="st6" d="M207.5,247.2h-1.6c-0.8,0-1.4-0.6-1.4-1.4v-23.7c0-0.8,0.6-1.4,1.4-1.4h1.6c0.8,0,1.4,0.6,1.4,1.4v23.7
						C208.9,246.6,208.3,247.2,207.5,247.2z"/>
					<path class="st6" d="M217.3,247.2h-1.6c-0.8,0-1.4-0.6-1.4-1.4v-23.7c0-0.8,0.6-1.4,1.4-1.4h1.6c0.8,0,1.4,0.6,1.4,1.4v23.7
						C218.7,246.6,218,247.2,217.3,247.2z"/>
					<path class="st6" d="M227,247.2h-1.6c-0.8,0-1.4-0.6-1.4-1.4v-23.7c0-0.8,0.6-1.4,1.4-1.4h1.6c0.8,0,1.4,0.6,1.4,1.4v23.7
						C228.4,246.6,227.8,247.2,227,247.2z"/>
					<path class="st6" d="M236.8,247.2h-1.6c-0.8,0-1.4-0.6-1.4-1.4v-23.7c0-0.8,0.6-1.4,1.4-1.4h1.6c0.8,0,1.4,0.6,1.4,1.4v23.7
						C238.2,246.6,237.5,247.2,236.8,247.2z"/>
					<path class="st6" d="M246.5,247.2h-1.6c-0.8,0-1.4-0.6-1.4-1.4v-23.7c0-0.8,0.6-1.4,1.4-1.4h1.6c0.8,0,1.4,0.6,1.4,1.4v23.7
						C247.9,246.6,247.3,247.2,246.5,247.2z"/>
					<path class="st6" d="M256.3,247.2h-1.6c-0.8,0-1.4-0.6-1.4-1.4v-23.7c0-0.8,0.6-1.4,1.4-1.4h1.6c0.8,0,1.4,0.6,1.4,1.4v23.7
						C257.7,246.6,257,247.2,256.3,247.2z"/>
				</g>
				<path class="st6" d="M258.5,218.6h-54.9c-1.1,0-2-0.9-2-2v-26.4c0-1.1,0.9-2,2-2h54.9c1.1,0,2,0.9,2,2v26.4
					C260.6,217.6,259.7,218.6,258.5,218.6z"/>
				<g class="st30">
					<g>
						<g>
							<path class="st8" d="M207.5,216.7h-1.6c-0.8,0-1.4-0.6-1.4-1.4v-23.7c0-0.8,0.6-1.4,1.4-1.4h1.6c0.8,0,1.4,0.6,1.4,1.4v23.7
								C208.9,216.1,208.3,216.7,207.5,216.7z"/>
						</g>
						<g>
							<path class="st8" d="M217.3,216.7h-1.6c-0.8,0-1.4-0.6-1.4-1.4v-23.7c0-0.8,0.6-1.4,1.4-1.4h1.6c0.8,0,1.4,0.6,1.4,1.4v23.7
								C218.7,216.1,218,216.7,217.3,216.7z"/>
						</g>
						<g>
							<path class="st8" d="M227,216.7h-1.6c-0.8,0-1.4-0.6-1.4-1.4v-23.7c0-0.8,0.6-1.4,1.4-1.4h1.6c0.8,0,1.4,0.6,1.4,1.4v23.7
								C228.4,216.1,227.8,216.7,227,216.7z"/>
						</g>
						<g>
							<path class="st8" d="M236.8,216.7h-1.6c-0.8,0-1.4-0.6-1.4-1.4v-23.7c0-0.8,0.6-1.4,1.4-1.4h1.6c0.8,0,1.4,0.6,1.4,1.4v23.7
								C238.2,216.1,237.5,216.7,236.8,216.7z"/>
						</g>
						<g>
							<path class="st8" d="M246.5,216.7h-1.6c-0.8,0-1.4-0.6-1.4-1.4v-23.7c0-0.8,0.6-1.4,1.4-1.4h1.6c0.8,0,1.4,0.6,1.4,1.4v23.7
								C247.9,216.1,247.3,216.7,246.5,216.7z"/>
						</g>
						<g>
							<path class="st8" d="M256.3,216.7h-1.6c-0.8,0-1.4-0.6-1.4-1.4v-23.7c0-0.8,0.6-1.4,1.4-1.4h1.6c0.8,0,1.4,0.6,1.4,1.4v23.7
								C257.7,216.1,257,216.7,256.3,216.7z"/>
						</g>
					</g>
				</g>
			</g>
		</g>
		<path class="st8" d="M152.9,250H58.7c-1.7,0-3.2-1.4-3.2-3.2v-31.5c0-1.7,1.4-3.2,3.2-3.2h94.2c1.7,0,3.2,1.4,3.2,3.2v31.5
			C156,248.6,154.6,250,152.9,250z"/>
		<path class="st8" d="M145.4,222.7H65.5c-1.1,0-2-0.9-2-2v-13.9c0-1.1,0.9-2,2-2h79.8c1.1,0,2,0.9,2,2v13.9
			C147.3,221.8,146.5,222.7,145.4,222.7z"/>
		<path class="st8" d="M135.6,207.4H72.9c-1,0-1.8-0.8-1.8-1.8v-14.4c0-1,0.8-1.8,1.8-1.8h62.7c1,0,1.8,0.8,1.8,1.8v14.4
			C137.3,206.6,136.5,207.4,135.6,207.4z"/>
		<path class="st6" d="M46.9,224.3c0,0,2.9,38.8,5.1,44.3c2.1,5.3,7.2,8.8,12.9,8.8l184.2-7.9l32.1-42.6l-35.5-0.1
			c-6.1,0-11.8,4.5-15,12c-0.1,0.2-0.2,0.4-0.3,0.6c0,0-2,5.4-13.4,4.4l-87.8,0.2c-4.3,0-8.5-2.3-11.7-6.5l-3.9-5
			c-3.9-5.1-9-8-14.2-8L46.9,224.3z"/>
		<circle class="st6" cx="60.6" cy="219.2" r="2.2"/>
		<circle class="st6" cx="70.6" cy="219.2" r="2.2"/>
		<circle class="st6" cx="80.7" cy="219.2" r="2.2"/>
		<circle class="st6" cx="90.7" cy="219.2" r="2.2"/>
		<circle class="st6" cx="100.8" cy="219.2" r="2.2"/>
		<circle class="st6" cx="110.8" cy="219.2" r="2.2"/>
		<circle class="st6" cx="120.8" cy="219.2" r="2.2"/>
		<circle class="st6" cx="130.9" cy="219.2" r="2.2"/>
		<circle class="st6" cx="140.9" cy="219.2" r="2.2"/>
		<circle class="st6" cx="150.9" cy="219.2" r="2.2"/>
		<path class="st6" d="M147.8,239.9h-19.4c-1.7,0-3.2-1.4-3.2-3.2v-5.9c0-1.7,1.4-3.2,3.2-3.2h19.4c1.7,0,3.2,1.4,3.2,3.2v5.9
			C150.9,238.5,149.5,239.9,147.8,239.9z"/>
		<path class="st6" d="M74.9,211.3h-4.1c-0.5,0-0.8-0.4-0.8-0.8V207c0-0.5,0.4-0.8,0.8-0.8h4.1c0.5,0,0.8,0.4,0.8,0.8v3.4
			C75.8,210.9,75.4,211.3,74.9,211.3z"/>
		<path class="st6" d="M88,211.3h-4.1c-0.5,0-0.8-0.4-0.8-0.8V207c0-0.5,0.4-0.8,0.8-0.8H88c0.5,0,0.8,0.4,0.8,0.8v3.4
			C88.8,210.9,88.4,211.3,88,211.3z"/>
		<path class="st6" d="M101,211.3h-4.1c-0.5,0-0.8-0.4-0.8-0.8V207c0-0.5,0.4-0.8,0.8-0.8h4.1c0.5,0,0.8,0.4,0.8,0.8v3.4
			C101.8,210.9,101.4,211.3,101,211.3z"/>
		<path class="st6" d="M84.9,203h-8.4c-0.9,0-1.7-0.8-1.7-1.7v-7.1c0-0.9,0.8-1.7,1.7-1.7h8.4c0.9,0,1.7,0.8,1.7,1.7v7.1
			C86.6,202.3,85.8,203,84.9,203z"/>
		<path class="st6" d="M108.4,203H100c-0.9,0-1.7-0.8-1.7-1.7v-7.1c0-0.9,0.8-1.7,1.7-1.7h8.4c0.9,0,1.7,0.8,1.7,1.7v7.1
			C110.1,202.3,109.3,203,108.4,203z"/>
		<path class="st6" d="M131.9,203h-8.4c-0.9,0-1.7-0.8-1.7-1.7v-7.1c0-0.9,0.8-1.7,1.7-1.7h8.4c0.9,0,1.7,0.8,1.7,1.7v7.1
			C133.7,202.3,132.9,203,131.9,203z"/>
		<path class="st6" d="M114,211.3h-4.1c-0.5,0-0.8-0.4-0.8-0.8V207c0-0.5,0.4-0.8,0.8-0.8h4.1c0.5,0,0.8,0.4,0.8,0.8v3.4
			C114.8,210.9,114.4,211.3,114,211.3z"/>
		<path class="st6" d="M127,211.3h-4.1c-0.5,0-0.8-0.4-0.8-0.8V207c0-0.5,0.4-0.8,0.8-0.8h4.1c0.5,0,0.8,0.4,0.8,0.8v3.4
			C127.8,210.9,127.4,211.3,127,211.3z"/>
		<path class="st6" d="M140,211.3h-4.1c-0.5,0-0.8-0.4-0.8-0.8V207c0-0.5,0.4-0.8,0.8-0.8h4.1c0.5,0,0.8,0.4,0.8,0.8v3.4
			C140.8,210.9,140.5,211.3,140,211.3z"/>
		<circle class="st8" cx="62.8" cy="242.2" r="5.5"/>
		<circle class="st6" cx="62.8" cy="242.2" r="2.9"/>
		<circle class="st8" cx="79.3" cy="242.2" r="5.5"/>
		<circle class="st6" cx="79.3" cy="242.2" r="2.9"/>
		<circle class="st8" cx="95.8" cy="242.2" r="5.5"/>
		<circle class="st6" cx="95.8" cy="242.2" r="2.9"/>
	</g>
	<g class="st28">
		<path class="st1" d="M285,264.4L285,264.4c-7.4,1.8-15.1,1.8-22.5,0h0c-7.4-1.8-15.1-1.8-22.5,0l0,0c-7.4,1.8-15.1,1.8-22.5,0h0
			c-7.4-1.8-15.1-1.8-22.5,0h0c-7.4,1.8-15.1,1.8-22.5,0h0c-7.4-1.8-15.1-1.8-22.5,0h0c-7.4,1.8-15.1,1.8-22.5,0h0
			c-7.4-1.8-15.1-1.8-22.5,0l0,0c-7.4,1.8-15.1,1.8-22.5,0h0c-7.4-1.8-15.1-1.8-22.5,0h0c-7.4,1.8-15.1,1.8-22.5,0h0
			c-7.4-1.8-15.1-1.8-22.5,0l-6.1,1.4v7.3v47.5v9.2h54.3h16.2h28.9H124h28.9h16.2h28.9h16.2H243h16.2h28.9h16.2h9.2v-9.2v-47.5v-7.3
			l-6.1-1.4C300.1,262.6,292.4,262.6,285,264.4z"/>
	</g>
</g>
</svg>
