<?xml version="1.0" encoding="UTF-8" standalone="no"?>
<!DOCTYPE svg PUBLIC "-//W3C//DTD SVG 1.1//EN" "http://www.w3.org/Graphics/SVG/1.1/DTD/svg11.dtd">
<svg version="1.1" xmlns="http://www.w3.org/2000/svg" xmlns:xlink="http://www.w3.org/1999/xlink" preserveAspectRatio="xMidYMid meet" viewBox="0 0 640 640" width="640" height="640"><defs><path d="M320 489.41C256 489.41 198.02 465.32 154.35 424.66C154.35 439.01 154.35 510.8 154.35 640L75.29 640L75.29 119.72L154.35 119.72C154.35 194.71 154.35 236.37 154.35 244.71C154.35 335.81 228.89 410.35 320 410.35C411.11 410.35 485.65 336.56 485.65 244.71C485.65 153.6 411.86 79.06 320 79.06C320 71.15 320 7.91 320 0C454.78 0 564.71 109.93 564.71 244.71C564.71 379.48 454.78 489.41 320 489.41Z" id="cq5t5KQPP"></path></defs><g><g><g><use xlink:href="#cq5t5KQPP" opacity="1" fill="#000000" fill-opacity="1"></use><g><use xlink:href="#cq5t5KQPP" opacity="1" fill-opacity="0" stroke="#000000" stroke-width="1" stroke-opacity="0"></use></g></g></g></g></svg>