<svg xmlns="http://www.w3.org/2000/svg" xmlns:xlink="http://www.w3.org/1999/xlink" viewBox="0 0 260.3 266.55"><defs><style>.cls-1{fill:url(#linear-gradient);}</style><linearGradient id="linear-gradient" x1="0.08" y1="175.82" x2="266.08" y2="95.82" gradientUnits="userSpaceOnUse"><stop offset="0" stop-color="#5b04b7"/><stop offset="1" stop-color="#8c40e0"/></linearGradient></defs><title>Asset 1</title><g id="Layer_2" data-name="Layer 2"><g id="Layer_1-2" data-name="Layer 1"><path class="cls-1" d="M237.3,136.29c-7.58,1.3-37,2.71-64.32,3.79a51.74,51.74,0,0,1-7.67,29.07c24.54,15.66,51.23,33.8,57,42a35.24,35.24,0,1,1-57.86,40.25c-5.55-8-16.36-35.27-25.8-60.62A52,52,0,0,1,93.56,186c-13.92,21.49-29.44,43.93-37,49.67a35.24,35.24,0,0,1-42.63-56.13c7.54-5.72,33.12-14.8,57.38-22.6a52,52,0,0,1-2-19.91c-17.23-1.85-32.95-3.9-36.36-5.47a16.42,16.42,0,1,1,13.8-29.8C50,103.24,62,109.68,75.44,117A52.18,52.18,0,0,1,95.32,96.73c-15.2-27.25-31.73-58.13-33-65.8a26.48,26.48,0,1,1,52.22-8.87c1.27,7.43,3,39,4.31,67.92a51.26,51.26,0,0,1,13.28,1.13c4.42-19,9.07-37.11,11.66-41.48A21.09,21.09,0,0,1,180,71.19c-2.51,4.22-13.36,17.43-25.09,31.3a51.67,51.67,0,0,1,10.5,12.34C191.19,99.5,220.08,83.11,228,81.76a27.66,27.66,0,1,1,9.34,54.53Z"/></g></g></svg>