<?xml version="1.0" encoding="utf-8"?>
<!-- Generator: Adobe Illustrator 22.0.1, SVG Export Plug-In . SVG Version: 6.00 Build 0)  -->
<svg version="1.1" id="Layer_1" xmlns="http://www.w3.org/2000/svg" xmlns:xlink="http://www.w3.org/1999/xlink" x="0px" y="0px"
	 viewBox="0 0 200 130" style="enable-background:new 0 0 200 130;" xml:space="preserve">
<style type="text/css">
	.st0{fill:#E8E8E8;}
	.st1{fill:#6B30B7;}
	.st2{fill:#825FC0;}
	.st3{fill:#CFC3E8;}
	.st4{fill:#E6E6E6;}
	.st5{fill:#F2F2F2;}
	.st6{fill:#291347;}
	.st7{fill:#FFFFFF;stroke:#6B30B7;stroke-width:23.2527;stroke-miterlimit:10;}
	.st8{fill:#FFFFFF;}
	.st9{opacity:0.15;}
	.st10{opacity:0.1;fill:#6B30B7;}
	.st11{opacity:0.3;fill:#6B30B7;}
	.st12{opacity:0.6;fill:#6B30B7;}
	.st13{opacity:0.8;fill:#6B30B7;}
	.st14{fill:none;stroke:#6B30B7;stroke-width:3;stroke-miterlimit:10;}
	.st15{fill:#E11F21;}
	.st16{fill:#0B6FB6;}
	.st17{fill:#646464;}
	.st18{fill:url(#path1948_1_);}
	.st19{fill:url(#path1950_1_);}
	.st20{opacity:0.4438;fill:url(#path1894_1_);enable-background:new    ;}
	.st21{fill:url(#path1948_3_);}
	.st22{fill:url(#path1950_3_);}
	.st23{opacity:0.4438;fill:url(#path1894_3_);enable-background:new    ;}
	.st24{fill:#007ACC;}
	.st25{fill:#00599C;}
	.st26{fill:#004482;}
	.st27{fill:#659AD2;}
	.st28{fill:#A9B9CB;}
	.st29{fill:#7F8B99;}
	.st30{fill:none;stroke:#E6E6E6;stroke-miterlimit:10;}
	.st31{clip-path:url(#SVGID_3_);}
	.st32{opacity:0.3;fill:#291347;}
	.st33{opacity:0.2;}
	.st34{clip-path:url(#SVGID_6_);}
	.st35{fill:#FAFBFB;}
	.st36{fill:url(#SVGID_7_);}
	.st37{fill:url(#SVGID_8_);}
	.st38{fill:#FFBE98;}
	.st39{fill:url(#SVGID_9_);}
	.st40{clip-path:url(#SVGID_11_);fill:#F2F2F2;}
	.st41{fill:#FFA726;}
	.st42{fill:#263238;}
	.st43{clip-path:url(#SVGID_14_);}
	.st44{filter:url(#Adobe_OpacityMaskFilter);}
	.st45{filter:url(#Adobe_OpacityMaskFilter_1_);}
	.st46{mask:url(#SVGID_15_);fill:url(#SVGID_16_);}
	.st47{opacity:0.24;fill:#CFC3E8;}
	.st48{opacity:0.29;}
	.st49{fill:none;stroke:#FFFFFF;stroke-width:2;stroke-miterlimit:10;}
	.st50{opacity:0.7;}
	.st51{opacity:0.4;fill:url(#SVGID_17_);}
	.st52{opacity:0.4;}
	.st53{opacity:0.4;fill:url(#SVGID_18_);}
	.st54{fill:#312A91;}
	.st55{opacity:0.9;}
	.st56{opacity:0.4;fill:#FFFFFF;}
	.st57{opacity:0.4;fill:url(#SVGID_19_);}
	.st58{opacity:0.4;fill:url(#SVGID_20_);}
	.st59{opacity:0.7;fill:#291347;}
	.st60{opacity:0.7;fill:#825FC0;}
	.st61{opacity:0.7;fill:#6B30B7;}
	.st62{opacity:0.3;fill:#42E8E0;}
	.st63{opacity:0.4;fill:url(#SVGID_21_);}
	.st64{opacity:0.3;fill:#825FC0;}
	.st65{opacity:0.3;fill:#CFC3E8;}
	.st66{opacity:0.5;fill:#F2F2F2;}
	.st67{opacity:0.5;fill:#CFC3E8;}
	.st68{opacity:0.7;fill:url(#SVGID_22_);}
	.st69{opacity:0.9;fill:#FFFFFF;}
	.st70{opacity:0.3;fill:#FFFFFF;}
	.st71{opacity:0.2;fill:#FFFFFF;}
	.st72{opacity:0.4;fill:url(#SVGID_23_);}
	.st73{opacity:0.4;fill:url(#SVGID_24_);}
	.st74{opacity:0.4;fill:url(#SVGID_25_);}
	.st75{opacity:0.4;fill:url(#SVGID_26_);}
	.st76{opacity:0.4;fill:url(#SVGID_27_);}
	.st77{opacity:0.7;fill:url(#SVGID_28_);}
	.st78{opacity:0.4;fill:url(#SVGID_29_);}
	.st79{opacity:0.4;fill:url(#SVGID_30_);}
	.st80{opacity:0.4;fill:url(#SVGID_31_);}
	.st81{opacity:0.4;fill:url(#SVGID_32_);}
	.st82{opacity:0.4;fill:url(#SVGID_33_);}
	.st83{opacity:0.7;fill:url(#SVGID_34_);}
	.st84{opacity:0.4;fill:url(#SVGID_35_);}
	.st85{opacity:0.4;fill:url(#SVGID_36_);}
	.st86{opacity:0.4;fill:url(#SVGID_37_);}
	.st87{opacity:0.4;fill:url(#SVGID_38_);}
	.st88{opacity:0.4;fill:url(#SVGID_39_);}
	.st89{opacity:0.7;fill:url(#SVGID_40_);}
	.st90{opacity:0.4;fill:url(#SVGID_41_);}
	.st91{opacity:0.4;fill:url(#SVGID_42_);}
	.st92{opacity:0.4;fill:url(#SVGID_43_);}
	.st93{opacity:0.4;fill:url(#SVGID_44_);}
	.st94{opacity:0.4;fill:url(#SVGID_45_);}
	.st95{opacity:0.7;fill:url(#SVGID_46_);}
	.st96{opacity:0.4;fill:url(#SVGID_47_);}
	.st97{opacity:0.4;fill:url(#SVGID_48_);}
	.st98{opacity:0.4;fill:url(#SVGID_49_);}
	.st99{opacity:0.4;fill:url(#SVGID_50_);}
	.st100{opacity:0.4;fill:url(#SVGID_51_);}
	.st101{opacity:0.7;fill:url(#SVGID_52_);}
	.st102{opacity:0.48;fill:url(#SVGID_53_);}
	.st103{opacity:0.48;fill:url(#SVGID_54_);}
	.st104{opacity:5.000000e-02;}
	.st105{clip-path:url(#SVGID_57_);}
	.st106{opacity:0.75;}
	.st107{clip-path:url(#SVGID_60_);}
	.st108{filter:url(#Adobe_OpacityMaskFilter_2_);}
	.st109{filter:url(#Adobe_OpacityMaskFilter_3_);}
	.st110{mask:url(#SVGID_61_);fill:url(#SVGID_62_);}
	.st111{opacity:0.4;fill:url(#SVGID_63_);}
	.st112{opacity:0.4;fill:url(#SVGID_64_);}
	.st113{opacity:0.4;fill:url(#SVGID_65_);}
	.st114{opacity:0.4;fill:url(#SVGID_66_);}
	.st115{opacity:0.4;fill:url(#SVGID_67_);}
	.st116{opacity:0.7;fill:url(#SVGID_68_);}
	.st117{opacity:0.4;fill:url(#SVGID_69_);}
	.st118{opacity:0.4;fill:url(#SVGID_70_);}
	.st119{opacity:0.4;fill:url(#SVGID_71_);}
	.st120{opacity:0.4;fill:url(#SVGID_72_);}
	.st121{opacity:0.4;fill:url(#SVGID_73_);}
	.st122{opacity:0.7;fill:url(#SVGID_74_);}
	.st123{opacity:0.4;fill:url(#SVGID_75_);}
	.st124{opacity:0.4;fill:url(#SVGID_76_);}
	.st125{opacity:0.4;fill:url(#SVGID_77_);}
	.st126{opacity:0.4;fill:url(#SVGID_78_);}
	.st127{opacity:0.4;fill:url(#SVGID_79_);}
	.st128{opacity:0.7;fill:url(#SVGID_80_);}
	.st129{opacity:0.4;fill:url(#SVGID_81_);}
	.st130{opacity:0.4;fill:url(#SVGID_82_);}
	.st131{opacity:0.4;fill:url(#SVGID_83_);}
	.st132{opacity:0.4;fill:url(#SVGID_84_);}
	.st133{opacity:0.4;fill:url(#SVGID_85_);}
	.st134{opacity:0.7;fill:url(#SVGID_86_);}
	.st135{opacity:0.4;fill:url(#SVGID_87_);}
	.st136{opacity:0.4;fill:url(#SVGID_88_);}
	.st137{opacity:0.4;fill:url(#SVGID_89_);}
	.st138{opacity:0.4;fill:url(#SVGID_90_);}
	.st139{opacity:0.4;fill:url(#SVGID_91_);}
	.st140{opacity:0.7;fill:url(#SVGID_92_);}
	.st141{opacity:0.4;fill:url(#SVGID_93_);}
	.st142{opacity:0.4;fill:url(#SVGID_94_);}
	.st143{opacity:0.4;fill:url(#SVGID_95_);}
	.st144{opacity:0.4;fill:url(#SVGID_96_);}
	.st145{opacity:0.4;fill:url(#SVGID_97_);}
	.st146{opacity:0.7;fill:url(#SVGID_98_);}
	.st147{opacity:0.48;fill:url(#SVGID_99_);}
	.st148{opacity:0.48;fill:url(#SVGID_100_);}
	.st149{clip-path:url(#SVGID_103_);}
	.st150{clip-path:url(#SVGID_106_);}
	.st151{fill:none;stroke:#CFC3E8;stroke-width:5;stroke-miterlimit:10;}
	.st152{opacity:0.76;fill:#291347;}
	.st153{filter:url(#Adobe_OpacityMaskFilter_4_);}
	.st154{filter:url(#Adobe_OpacityMaskFilter_5_);}
	.st155{clip-path:url(#SVGID_109_);mask:url(#SVGID_110_);fill:url(#SVGID_111_);}
	.st156{opacity:0.24;clip-path:url(#SVGID_109_);fill:#CFC3E8;}
	.st157{opacity:0.29;clip-path:url(#SVGID_109_);}
	.st158{clip-path:url(#SVGID_109_);}
	.st159{opacity:0.4;fill:url(#SVGID_112_);}
	.st160{opacity:0.4;fill:url(#SVGID_113_);}
	.st161{opacity:0.4;fill:url(#SVGID_114_);}
	.st162{opacity:0.4;fill:url(#SVGID_115_);}
	.st163{opacity:0.4;fill:url(#SVGID_116_);}
	.st164{opacity:0.7;fill:url(#SVGID_117_);}
	.st165{opacity:0.4;fill:url(#SVGID_118_);}
	.st166{opacity:0.4;fill:url(#SVGID_119_);}
	.st167{opacity:0.4;fill:url(#SVGID_120_);}
	.st168{opacity:0.4;fill:url(#SVGID_121_);}
	.st169{opacity:0.4;fill:url(#SVGID_122_);}
	.st170{opacity:0.7;fill:url(#SVGID_123_);}
	.st171{opacity:0.4;fill:url(#SVGID_124_);}
	.st172{opacity:0.4;fill:url(#SVGID_125_);}
	.st173{opacity:0.4;fill:url(#SVGID_126_);}
	.st174{opacity:0.4;fill:url(#SVGID_127_);}
	.st175{opacity:0.4;fill:url(#SVGID_128_);}
	.st176{opacity:0.7;fill:url(#SVGID_129_);}
	.st177{opacity:0.4;fill:url(#SVGID_130_);}
	.st178{opacity:0.4;fill:url(#SVGID_131_);}
	.st179{opacity:0.4;fill:url(#SVGID_132_);}
	.st180{opacity:0.4;fill:url(#SVGID_133_);}
	.st181{opacity:0.4;fill:url(#SVGID_134_);}
	.st182{opacity:0.7;fill:url(#SVGID_135_);}
	.st183{opacity:0.75;clip-path:url(#SVGID_109_);}
	.st184{fill:none;stroke:#CFC3E8;stroke-width:4.9727;stroke-miterlimit:10;}
	.st185{opacity:0.4;fill:url(#SVGID_136_);}
	.st186{opacity:0.4;fill:url(#SVGID_137_);}
	.st187{opacity:0.4;fill:url(#SVGID_138_);}
	.st188{opacity:0.4;fill:url(#SVGID_139_);}
	.st189{opacity:0.4;fill:url(#SVGID_140_);}
	.st190{opacity:0.7;fill:url(#SVGID_141_);}
	.st191{clip-path:url(#SVGID_144_);fill:url(#);}
	.st192{clip-path:url(#SVGID_144_);}
	.st193{opacity:0.1;fill:#CFC3E8;}
	.st194{fill:#56AEEC;}
	.st195{opacity:0.65;fill:#2C65CC;}
	.st196{clip-path:url(#SVGID_147_);}
	.st197{fill:#D4DBD1;}
	.st198{fill:#CCD3C8;}
	.st199{clip-path:url(#SVGID_150_);}
	.st200{fill:none;stroke:#291347;stroke-width:1.7941;stroke-linecap:round;stroke-linejoin:round;stroke-miterlimit:10;}
	.st201{fill:none;stroke:#825FC0;stroke-width:1.7941;stroke-linecap:round;stroke-linejoin:round;stroke-miterlimit:10;}
	.st202{opacity:0.18;fill:#6F00FF;}
	.st203{fill:#FFDD92;stroke:#291347;stroke-width:7.1763;stroke-miterlimit:10;}
	.st204{fill:#CFC3E8;stroke:#291347;stroke-width:7.1763;stroke-miterlimit:10;}
	.st205{fill:none;stroke:#291347;stroke-width:7.1763;stroke-miterlimit:10;}
	
		.st206{fill:none;stroke:#825FC0;stroke-width:1.7941;stroke-linecap:round;stroke-linejoin:round;stroke-miterlimit:10;stroke-dasharray:3.5881,3.5881;}
	.st207{fill:none;stroke:#F2F2F2;stroke-width:3.5881;stroke-miterlimit:10;}
	.st208{fill:#CFC3E8;stroke:#291446;stroke-width:7.1763;stroke-miterlimit:10;}
	.st209{fill:none;stroke:#FFFFFF;stroke-miterlimit:10;}
	.st210{clip-path:url(#SVGID_153_);fill:url(#);}
	.st211{clip-path:url(#SVGID_153_);}
	.st212{clip-path:url(#SVGID_156_);}
	.st213{clip-path:url(#SVGID_159_);}
	.st214{fill:url(#SVGID_160_);}
	.st215{fill:url(#SVGID_161_);}
	.st216{fill:url(#SVGID_162_);}
	.st217{clip-path:url(#SVGID_164_);fill:#F2F2F2;}
	.st218{filter:url(#Adobe_OpacityMaskFilter_6_);}
	.st219{filter:url(#Adobe_OpacityMaskFilter_7_);}
	.st220{clip-path:url(#SVGID_167_);mask:url(#SVGID_168_);fill:url(#SVGID_169_);}
	.st221{opacity:0.24;clip-path:url(#SVGID_167_);fill:#CFC3E8;}
	.st222{opacity:0.29;clip-path:url(#SVGID_167_);}
	.st223{clip-path:url(#SVGID_167_);}
	.st224{opacity:0.4;fill:url(#SVGID_170_);}
	.st225{opacity:0.4;fill:url(#SVGID_171_);}
	.st226{opacity:0.4;fill:url(#SVGID_172_);}
	.st227{opacity:0.4;fill:url(#SVGID_173_);}
	.st228{opacity:0.4;fill:url(#SVGID_174_);}
	.st229{opacity:0.7;fill:url(#SVGID_175_);}
	.st230{opacity:0.4;fill:url(#SVGID_176_);}
	.st231{opacity:0.4;fill:url(#SVGID_177_);}
	.st232{opacity:0.4;fill:url(#SVGID_178_);}
	.st233{opacity:0.4;fill:url(#SVGID_179_);}
	.st234{opacity:0.4;fill:url(#SVGID_180_);}
	.st235{opacity:0.7;fill:url(#SVGID_181_);}
	.st236{opacity:0.4;fill:url(#SVGID_182_);}
	.st237{opacity:0.4;fill:url(#SVGID_183_);}
	.st238{opacity:0.4;fill:url(#SVGID_184_);}
	.st239{opacity:0.4;fill:url(#SVGID_185_);}
	.st240{opacity:0.4;fill:url(#SVGID_186_);}
	.st241{opacity:0.7;fill:url(#SVGID_187_);}
	.st242{opacity:0.4;fill:url(#SVGID_188_);}
	.st243{opacity:0.4;fill:url(#SVGID_189_);}
	.st244{opacity:0.4;fill:url(#SVGID_190_);}
	.st245{opacity:0.4;fill:url(#SVGID_191_);}
	.st246{opacity:0.4;fill:url(#SVGID_192_);}
	.st247{opacity:0.7;fill:url(#SVGID_193_);}
	.st248{opacity:0.75;clip-path:url(#SVGID_167_);}
	.st249{opacity:0.4;fill:url(#SVGID_194_);}
	.st250{opacity:0.4;fill:url(#SVGID_195_);}
	.st251{opacity:0.4;fill:url(#SVGID_196_);}
	.st252{opacity:0.4;fill:url(#SVGID_197_);}
	.st253{opacity:0.4;fill:url(#SVGID_198_);}
	.st254{opacity:0.7;fill:url(#SVGID_199_);}
	.st255{clip-path:url(#SVGID_202_);}
	.st256{clip-path:url(#SVGID_205_);}
</style>
<g id="g2303_2_">
	<path id="path46_2_" class="st17" d="M75.4,60.7c0-6.1-1.7-9.3-5.2-9.4c-1.4-0.1-2.7,0.2-4.1,0.7c-1.1,0.4-1.8,0.8-2.1,1.1v14.6
		c2.2,1.4,4.2,2.1,5.9,2C73.6,69.4,75.4,66.4,75.4,60.7z M79.8,60.9c0,3.1-0.7,5.7-2.2,7.7c-1.6,2.3-3.9,3.5-6.8,3.6
		c-2.2,0.1-4.4-0.6-6.8-2v13.3l-3.7-1.3V52.7c0.6-0.8,1.4-1.4,2.4-2c2.2-1.3,4.9-2,8.1-2l0.1,0.1c2.9,0,5.2,1.2,6.7,3.6
		C79,54.6,79.8,57.5,79.8,60.9z"/>
	<path id="path48_2_" class="st17" d="M102.7,69.7c0,4.2-0.4,7.1-1.3,8.7c-0.8,1.6-2.4,2.9-4.8,3.8c-1.9,0.8-4,1.2-6.2,1.2l-0.6-2.4
		c2.3-0.3,3.8-0.6,4.8-0.9c1.8-0.6,3.1-1.6,3.7-2.8c0.5-1,0.8-3,0.8-5.9v-1c-2.6,1.2-5.2,1.7-8.1,1.7c-1.8,0-3.5-0.6-4.9-1.7
		c-1.6-1.3-2.4-2.9-2.4-4.8V50l3.7-1.3v15.7c0,1.7,0.5,3,1.6,3.9c1.1,0.9,2.5,1.3,4.2,1.3c1.7,0,3.6-0.7,5.5-2V49.3h3.7V69.7z"/>
	<path id="path50_2_" class="st17" d="M117.3,72.1c-0.4,0-0.9,0.1-1.2,0.1c-2.1,0-3.8-0.5-5-1.5c-1.2-1-1.8-2.4-1.8-4.2V51.7h-2.6
		v-2.4h2.6V43l3.7-1.3v7.6h4.2v2.4h-4.2v14.7c0,1.4,0.4,2.4,1.1,3c0.6,0.5,1.7,0.8,3.1,0.8V72.1z"/>
	<path id="path52_2_" class="st17" d="M140,71.8h-3.7V57.3c0-1.5-0.3-2.7-1-3.8c-0.8-1.2-1.9-1.8-3.3-1.8c-1.7,0-3.9,0.9-6.4,2.7
		v17.3h-3.7V37.2l3.7-1.2v15.7c2.4-1.7,5-2.6,7.9-2.6c2,0,3.6,0.7,4.8,2c1.2,1.3,1.8,3,1.8,5V71.8L140,71.8z"/>
	<path id="path54_2_" class="st17" d="M159.9,60.1c0-2.4-0.4-4.3-1.3-5.8c-1.1-1.9-2.7-2.9-4.9-3c-4.1,0.2-6.2,3.2-6.2,8.8
		c0,2.6,0.4,4.7,1.3,6.5c1.1,2.2,2.7,3.3,4.9,3.3C157.8,69.8,159.9,66.6,159.9,60.1z M164,60.1c0,3.3-0.9,6.1-2.6,8.4
		c-1.9,2.5-4.5,3.7-7.8,3.7c-3.3,0-5.9-1.3-7.7-3.7c-1.7-2.2-2.5-5-2.5-8.4c0-3.1,0.9-5.8,2.7-8c1.9-2.3,4.4-3.4,7.5-3.4
		c3.1,0,5.6,1.1,7.6,3.4C163.1,54.3,164,57,164,60.1z"/>
	<path id="path56_2_" class="st17" d="M185.5,71.8h-3.7V56.5c0-1.7-0.5-3-1.5-3.9c-1-0.9-2.4-1.4-4-1.4c-1.8,0-3.5,0.6-5.1,1.7v18.8
		h-3.7V52.5c2.2-1.6,4.1-2.6,6-3.1c1.7-0.4,3.2-0.7,4.5-0.7c0.9,0,1.7,0.1,2.5,0.3c1.5,0.3,2.7,1,3.6,1.9c1,1,1.5,2.3,1.5,3.7V71.8z
		"/>
	
		<linearGradient id="path1948_1_" gradientUnits="userSpaceOnUse" x1="-721.0294" y1="-9717.7041" x2="-675.1741" y2="-9757.1563" gradientTransform="matrix(0.5625 0 0 -0.568 404.6044 -5480.7007)">
		<stop  offset="0" style="stop-color:#5A9FD4"/>
		<stop  offset="1" style="stop-color:#306998"/>
	</linearGradient>
	<path id="path1948_2_" class="st18" d="M23.2,37.3c-1.9,0-3.8,0.2-5.4,0.5c-4.8,0.8-5.6,2.6-5.6,5.9V48h11.3v1.4H12.2H8
		c-3.3,0-6.1,2-7,5.7c-1,4.3-1.1,7,0,11.5c0.8,3.3,2.7,5.7,6,5.7h3.9v-5.2c0-3.7,3.2-7,7-7h11.3c3.1,0,5.6-2.6,5.6-5.7V43.7
		c0-3.1-2.6-5.4-5.6-5.9C27.2,37.5,25.2,37.3,23.2,37.3z M17.1,40.8c1.2,0,2.1,1,2.1,2.2c0,1.2-1,2.1-2.1,2.1c-1.2,0-2.1-1-2.1-2.1
		C15,41.8,16,40.8,17.1,40.8z"/>
	
		<linearGradient id="path1950_1_" gradientUnits="userSpaceOnUse" x1="-657.4462" y1="-9781.0342" x2="-673.821" y2="-9757.8662" gradientTransform="matrix(0.5625 0 0 -0.568 404.6044 -5480.7007)">
		<stop  offset="0" style="stop-color:#FFD43B"/>
		<stop  offset="1" style="stop-color:#FFE873"/>
	</linearGradient>
	<path id="path1950_2_" class="st19" d="M36.2,49.4v5c0,3.9-3.3,7.2-7,7.2H17.9c-3.1,0-5.6,2.6-5.6,5.7V78c0,3.1,2.7,4.9,5.6,5.7
		c3.6,1,7,1.2,11.3,0c2.8-0.8,5.6-2.5,5.6-5.7v-4.3H23.5v-1.4h11.3h5.6c3.3,0,4.5-2.3,5.6-5.7c1.2-3.5,1.1-6.9,0-11.5
		c-0.8-3.3-2.4-5.7-5.6-5.7H36.2z M29.8,76.6c1.2,0,2.1,1,2.1,2.1c0,1.2-0.9,2.2-2.1,2.2c-1.2,0-2.1-1-2.1-2.2
		C27.7,77.5,28.7,76.6,29.8,76.6z"/>
	<path id="text3004_2_" class="st17" d="M192.8,46h0.7v-4.1h1.6v-0.5h-3.8v0.5h1.6V46 M195.6,46h0.6v-3.8l1.2,3.8h0.6l1.3-3.8V46
		h0.6v-4.6H199l-1.4,4l-1.2-4h-0.9V46"/>
	
		<radialGradient id="path1894_1_" cx="-14835.5137" cy="-1687.2271" r="15.1071" gradientTransform="matrix(1.414070e-08 -0.194 -0.8527 -3.065374e-07 -1415.0331 -2786.9106)" gradientUnits="userSpaceOnUse">
		<stop  offset="0" style="stop-color:#B8B8B8;stop-opacity:0.498"/>
		<stop  offset="1" style="stop-color:#7F7F7F;stop-opacity:0"/>
	</radialGradient>
	<path id="path1894_2_" class="st20" d="M38.7,91.1c0,1.6-6.8,2.9-15.1,2.9S8.5,92.7,8.5,91.1c0-1.6,6.8-2.9,15.1-2.9
		S38.7,89.4,38.7,91.1z"/>
</g>
</svg>
