<?xml version="1.0" encoding="utf-8"?>
<!-- Generator: Adobe Illustrator 22.0.1, SVG Export Plug-In . SVG Version: 6.00 Build 0)  -->
<svg version="1.1" id="Layer_1" xmlns="http://www.w3.org/2000/svg" xmlns:xlink="http://www.w3.org/1999/xlink" x="0px" y="0px"
	 viewBox="0 0 200 130" style="enable-background:new 0 0 200 130;" xml:space="preserve">
<style type="text/css">
	.st0{fill:#E8E8E8;}
	.st1{fill:#6B30B7;}
	.st2{fill:#825FC0;}
	.st3{fill:#CFC3E8;}
	.st4{fill:#E6E6E6;}
	.st5{fill:#F2F2F2;}
	.st6{fill:#291347;}
	.st7{fill:#FFFFFF;stroke:#6B30B7;stroke-width:23.2527;stroke-miterlimit:10;}
	.st8{fill:#FFFFFF;}
	.st9{opacity:0.15;}
	.st10{opacity:0.1;fill:#6B30B7;}
	.st11{opacity:0.3;fill:#6B30B7;}
	.st12{opacity:0.6;fill:#6B30B7;}
	.st13{opacity:0.8;fill:#6B30B7;}
	.st14{fill:none;stroke:#6B30B7;stroke-width:3;stroke-miterlimit:10;}
	.st15{fill:#E11F21;}
	.st16{fill:#0B6FB6;}
	.st17{fill:#646464;}
	.st18{fill:url(#path1948_1_);}
	.st19{fill:url(#path1950_1_);}
	.st20{opacity:0.4438;fill:url(#path1894_1_);enable-background:new    ;}
	.st21{fill:url(#path1948_3_);}
	.st22{fill:url(#path1950_3_);}
	.st23{opacity:0.4438;fill:url(#path1894_3_);enable-background:new    ;}
	.st24{fill:#007ACC;}
	.st25{fill:#00599C;}
	.st26{fill:#004482;}
	.st27{fill:#659AD2;}
	.st28{fill:#A9B9CB;}
	.st29{fill:#7F8B99;}
	.st30{fill:none;stroke:#E6E6E6;stroke-miterlimit:10;}
	.st31{clip-path:url(#SVGID_3_);}
	.st32{opacity:0.3;fill:#291347;}
	.st33{opacity:0.2;}
	.st34{clip-path:url(#SVGID_6_);}
	.st35{fill:#FAFBFB;}
	.st36{fill:url(#SVGID_7_);}
	.st37{fill:url(#SVGID_8_);}
	.st38{fill:#FFBE98;}
	.st39{fill:url(#SVGID_9_);}
	.st40{clip-path:url(#SVGID_11_);fill:#F2F2F2;}
	.st41{fill:#FFA726;}
	.st42{fill:#263238;}
	.st43{clip-path:url(#SVGID_14_);}
	.st44{filter:url(#Adobe_OpacityMaskFilter);}
	.st45{filter:url(#Adobe_OpacityMaskFilter_1_);}
	.st46{mask:url(#SVGID_15_);fill:url(#SVGID_16_);}
	.st47{opacity:0.24;fill:#CFC3E8;}
	.st48{opacity:0.29;}
	.st49{fill:none;stroke:#FFFFFF;stroke-width:2;stroke-miterlimit:10;}
	.st50{opacity:0.7;}
	.st51{opacity:0.4;fill:url(#SVGID_17_);}
	.st52{opacity:0.4;}
	.st53{opacity:0.4;fill:url(#SVGID_18_);}
	.st54{fill:#312A91;}
	.st55{opacity:0.9;}
	.st56{opacity:0.4;fill:#FFFFFF;}
	.st57{opacity:0.4;fill:url(#SVGID_19_);}
	.st58{opacity:0.4;fill:url(#SVGID_20_);}
	.st59{opacity:0.7;fill:#291347;}
	.st60{opacity:0.7;fill:#825FC0;}
	.st61{opacity:0.7;fill:#6B30B7;}
	.st62{opacity:0.3;fill:#42E8E0;}
	.st63{opacity:0.4;fill:url(#SVGID_21_);}
	.st64{opacity:0.3;fill:#825FC0;}
	.st65{opacity:0.3;fill:#CFC3E8;}
	.st66{opacity:0.5;fill:#F2F2F2;}
	.st67{opacity:0.5;fill:#CFC3E8;}
	.st68{opacity:0.7;fill:url(#SVGID_22_);}
	.st69{opacity:0.9;fill:#FFFFFF;}
	.st70{opacity:0.3;fill:#FFFFFF;}
	.st71{opacity:0.2;fill:#FFFFFF;}
	.st72{opacity:0.4;fill:url(#SVGID_23_);}
	.st73{opacity:0.4;fill:url(#SVGID_24_);}
	.st74{opacity:0.4;fill:url(#SVGID_25_);}
	.st75{opacity:0.4;fill:url(#SVGID_26_);}
	.st76{opacity:0.4;fill:url(#SVGID_27_);}
	.st77{opacity:0.7;fill:url(#SVGID_28_);}
	.st78{opacity:0.4;fill:url(#SVGID_29_);}
	.st79{opacity:0.4;fill:url(#SVGID_30_);}
	.st80{opacity:0.4;fill:url(#SVGID_31_);}
	.st81{opacity:0.4;fill:url(#SVGID_32_);}
	.st82{opacity:0.4;fill:url(#SVGID_33_);}
	.st83{opacity:0.7;fill:url(#SVGID_34_);}
	.st84{opacity:0.4;fill:url(#SVGID_35_);}
	.st85{opacity:0.4;fill:url(#SVGID_36_);}
	.st86{opacity:0.4;fill:url(#SVGID_37_);}
	.st87{opacity:0.4;fill:url(#SVGID_38_);}
	.st88{opacity:0.4;fill:url(#SVGID_39_);}
	.st89{opacity:0.7;fill:url(#SVGID_40_);}
	.st90{opacity:0.4;fill:url(#SVGID_41_);}
	.st91{opacity:0.4;fill:url(#SVGID_42_);}
	.st92{opacity:0.4;fill:url(#SVGID_43_);}
	.st93{opacity:0.4;fill:url(#SVGID_44_);}
	.st94{opacity:0.4;fill:url(#SVGID_45_);}
	.st95{opacity:0.7;fill:url(#SVGID_46_);}
	.st96{opacity:0.4;fill:url(#SVGID_47_);}
	.st97{opacity:0.4;fill:url(#SVGID_48_);}
	.st98{opacity:0.4;fill:url(#SVGID_49_);}
	.st99{opacity:0.4;fill:url(#SVGID_50_);}
	.st100{opacity:0.4;fill:url(#SVGID_51_);}
	.st101{opacity:0.7;fill:url(#SVGID_52_);}
	.st102{opacity:0.48;fill:url(#SVGID_53_);}
	.st103{opacity:0.48;fill:url(#SVGID_54_);}
	.st104{opacity:5.000000e-02;}
	.st105{clip-path:url(#SVGID_57_);}
	.st106{opacity:0.75;}
	.st107{clip-path:url(#SVGID_60_);}
	.st108{filter:url(#Adobe_OpacityMaskFilter_2_);}
	.st109{filter:url(#Adobe_OpacityMaskFilter_3_);}
	.st110{mask:url(#SVGID_61_);fill:url(#SVGID_62_);}
	.st111{opacity:0.4;fill:url(#SVGID_63_);}
	.st112{opacity:0.4;fill:url(#SVGID_64_);}
	.st113{opacity:0.4;fill:url(#SVGID_65_);}
	.st114{opacity:0.4;fill:url(#SVGID_66_);}
	.st115{opacity:0.4;fill:url(#SVGID_67_);}
	.st116{opacity:0.7;fill:url(#SVGID_68_);}
	.st117{opacity:0.4;fill:url(#SVGID_69_);}
	.st118{opacity:0.4;fill:url(#SVGID_70_);}
	.st119{opacity:0.4;fill:url(#SVGID_71_);}
	.st120{opacity:0.4;fill:url(#SVGID_72_);}
	.st121{opacity:0.4;fill:url(#SVGID_73_);}
	.st122{opacity:0.7;fill:url(#SVGID_74_);}
	.st123{opacity:0.4;fill:url(#SVGID_75_);}
	.st124{opacity:0.4;fill:url(#SVGID_76_);}
	.st125{opacity:0.4;fill:url(#SVGID_77_);}
	.st126{opacity:0.4;fill:url(#SVGID_78_);}
	.st127{opacity:0.4;fill:url(#SVGID_79_);}
	.st128{opacity:0.7;fill:url(#SVGID_80_);}
	.st129{opacity:0.4;fill:url(#SVGID_81_);}
	.st130{opacity:0.4;fill:url(#SVGID_82_);}
	.st131{opacity:0.4;fill:url(#SVGID_83_);}
	.st132{opacity:0.4;fill:url(#SVGID_84_);}
	.st133{opacity:0.4;fill:url(#SVGID_85_);}
	.st134{opacity:0.7;fill:url(#SVGID_86_);}
	.st135{opacity:0.4;fill:url(#SVGID_87_);}
	.st136{opacity:0.4;fill:url(#SVGID_88_);}
	.st137{opacity:0.4;fill:url(#SVGID_89_);}
	.st138{opacity:0.4;fill:url(#SVGID_90_);}
	.st139{opacity:0.4;fill:url(#SVGID_91_);}
	.st140{opacity:0.7;fill:url(#SVGID_92_);}
	.st141{opacity:0.4;fill:url(#SVGID_93_);}
	.st142{opacity:0.4;fill:url(#SVGID_94_);}
	.st143{opacity:0.4;fill:url(#SVGID_95_);}
	.st144{opacity:0.4;fill:url(#SVGID_96_);}
	.st145{opacity:0.4;fill:url(#SVGID_97_);}
	.st146{opacity:0.7;fill:url(#SVGID_98_);}
	.st147{opacity:0.48;fill:url(#SVGID_99_);}
	.st148{opacity:0.48;fill:url(#SVGID_100_);}
	.st149{clip-path:url(#SVGID_103_);}
	.st150{clip-path:url(#SVGID_106_);}
	.st151{fill:none;stroke:#CFC3E8;stroke-width:5;stroke-miterlimit:10;}
	.st152{opacity:0.76;fill:#291347;}
	.st153{filter:url(#Adobe_OpacityMaskFilter_4_);}
	.st154{filter:url(#Adobe_OpacityMaskFilter_5_);}
	.st155{clip-path:url(#SVGID_109_);mask:url(#SVGID_110_);fill:url(#SVGID_111_);}
	.st156{opacity:0.24;clip-path:url(#SVGID_109_);fill:#CFC3E8;}
	.st157{opacity:0.29;clip-path:url(#SVGID_109_);}
	.st158{clip-path:url(#SVGID_109_);}
	.st159{opacity:0.4;fill:url(#SVGID_112_);}
	.st160{opacity:0.4;fill:url(#SVGID_113_);}
	.st161{opacity:0.4;fill:url(#SVGID_114_);}
	.st162{opacity:0.4;fill:url(#SVGID_115_);}
	.st163{opacity:0.4;fill:url(#SVGID_116_);}
	.st164{opacity:0.7;fill:url(#SVGID_117_);}
	.st165{opacity:0.4;fill:url(#SVGID_118_);}
	.st166{opacity:0.4;fill:url(#SVGID_119_);}
	.st167{opacity:0.4;fill:url(#SVGID_120_);}
	.st168{opacity:0.4;fill:url(#SVGID_121_);}
	.st169{opacity:0.4;fill:url(#SVGID_122_);}
	.st170{opacity:0.7;fill:url(#SVGID_123_);}
	.st171{opacity:0.4;fill:url(#SVGID_124_);}
	.st172{opacity:0.4;fill:url(#SVGID_125_);}
	.st173{opacity:0.4;fill:url(#SVGID_126_);}
	.st174{opacity:0.4;fill:url(#SVGID_127_);}
	.st175{opacity:0.4;fill:url(#SVGID_128_);}
	.st176{opacity:0.7;fill:url(#SVGID_129_);}
	.st177{opacity:0.4;fill:url(#SVGID_130_);}
	.st178{opacity:0.4;fill:url(#SVGID_131_);}
	.st179{opacity:0.4;fill:url(#SVGID_132_);}
	.st180{opacity:0.4;fill:url(#SVGID_133_);}
	.st181{opacity:0.4;fill:url(#SVGID_134_);}
	.st182{opacity:0.7;fill:url(#SVGID_135_);}
	.st183{opacity:0.75;clip-path:url(#SVGID_109_);}
	.st184{fill:none;stroke:#CFC3E8;stroke-width:4.9727;stroke-miterlimit:10;}
	.st185{opacity:0.4;fill:url(#SVGID_136_);}
	.st186{opacity:0.4;fill:url(#SVGID_137_);}
	.st187{opacity:0.4;fill:url(#SVGID_138_);}
	.st188{opacity:0.4;fill:url(#SVGID_139_);}
	.st189{opacity:0.4;fill:url(#SVGID_140_);}
	.st190{opacity:0.7;fill:url(#SVGID_141_);}
	.st191{clip-path:url(#SVGID_144_);fill:url(#);}
	.st192{clip-path:url(#SVGID_144_);}
	.st193{opacity:0.1;fill:#CFC3E8;}
	.st194{fill:#56AEEC;}
	.st195{opacity:0.65;fill:#2C65CC;}
	.st196{clip-path:url(#SVGID_147_);}
	.st197{fill:#D4DBD1;}
	.st198{fill:#CCD3C8;}
	.st199{clip-path:url(#SVGID_150_);}
	.st200{fill:none;stroke:#291347;stroke-width:1.7941;stroke-linecap:round;stroke-linejoin:round;stroke-miterlimit:10;}
	.st201{fill:none;stroke:#825FC0;stroke-width:1.7941;stroke-linecap:round;stroke-linejoin:round;stroke-miterlimit:10;}
	.st202{opacity:0.18;fill:#6F00FF;}
	.st203{fill:#FFDD92;stroke:#291347;stroke-width:7.1763;stroke-miterlimit:10;}
	.st204{fill:#CFC3E8;stroke:#291347;stroke-width:7.1763;stroke-miterlimit:10;}
	.st205{fill:none;stroke:#291347;stroke-width:7.1763;stroke-miterlimit:10;}
	
		.st206{fill:none;stroke:#825FC0;stroke-width:1.7941;stroke-linecap:round;stroke-linejoin:round;stroke-miterlimit:10;stroke-dasharray:3.5881,3.5881;}
	.st207{fill:none;stroke:#F2F2F2;stroke-width:3.5881;stroke-miterlimit:10;}
	.st208{fill:#CFC3E8;stroke:#291446;stroke-width:7.1763;stroke-miterlimit:10;}
	.st209{fill:none;stroke:#FFFFFF;stroke-miterlimit:10;}
	.st210{clip-path:url(#SVGID_153_);fill:url(#);}
	.st211{clip-path:url(#SVGID_153_);}
	.st212{clip-path:url(#SVGID_156_);}
	.st213{clip-path:url(#SVGID_159_);}
	.st214{fill:url(#SVGID_160_);}
	.st215{fill:url(#SVGID_161_);}
	.st216{fill:url(#SVGID_162_);}
	.st217{clip-path:url(#SVGID_164_);fill:#F2F2F2;}
	.st218{filter:url(#Adobe_OpacityMaskFilter_6_);}
	.st219{filter:url(#Adobe_OpacityMaskFilter_7_);}
	.st220{clip-path:url(#SVGID_167_);mask:url(#SVGID_168_);fill:url(#SVGID_169_);}
	.st221{opacity:0.24;clip-path:url(#SVGID_167_);fill:#CFC3E8;}
	.st222{opacity:0.29;clip-path:url(#SVGID_167_);}
	.st223{clip-path:url(#SVGID_167_);}
	.st224{opacity:0.4;fill:url(#SVGID_170_);}
	.st225{opacity:0.4;fill:url(#SVGID_171_);}
	.st226{opacity:0.4;fill:url(#SVGID_172_);}
	.st227{opacity:0.4;fill:url(#SVGID_173_);}
	.st228{opacity:0.4;fill:url(#SVGID_174_);}
	.st229{opacity:0.7;fill:url(#SVGID_175_);}
	.st230{opacity:0.4;fill:url(#SVGID_176_);}
	.st231{opacity:0.4;fill:url(#SVGID_177_);}
	.st232{opacity:0.4;fill:url(#SVGID_178_);}
	.st233{opacity:0.4;fill:url(#SVGID_179_);}
	.st234{opacity:0.4;fill:url(#SVGID_180_);}
	.st235{opacity:0.7;fill:url(#SVGID_181_);}
	.st236{opacity:0.4;fill:url(#SVGID_182_);}
	.st237{opacity:0.4;fill:url(#SVGID_183_);}
	.st238{opacity:0.4;fill:url(#SVGID_184_);}
	.st239{opacity:0.4;fill:url(#SVGID_185_);}
	.st240{opacity:0.4;fill:url(#SVGID_186_);}
	.st241{opacity:0.7;fill:url(#SVGID_187_);}
	.st242{opacity:0.4;fill:url(#SVGID_188_);}
	.st243{opacity:0.4;fill:url(#SVGID_189_);}
	.st244{opacity:0.4;fill:url(#SVGID_190_);}
	.st245{opacity:0.4;fill:url(#SVGID_191_);}
	.st246{opacity:0.4;fill:url(#SVGID_192_);}
	.st247{opacity:0.7;fill:url(#SVGID_193_);}
	.st248{opacity:0.75;clip-path:url(#SVGID_167_);}
	.st249{opacity:0.4;fill:url(#SVGID_194_);}
	.st250{opacity:0.4;fill:url(#SVGID_195_);}
	.st251{opacity:0.4;fill:url(#SVGID_196_);}
	.st252{opacity:0.4;fill:url(#SVGID_197_);}
	.st253{opacity:0.4;fill:url(#SVGID_198_);}
	.st254{opacity:0.7;fill:url(#SVGID_199_);}
	.st255{clip-path:url(#SVGID_202_);}
	.st256{clip-path:url(#SVGID_205_);}
</style>
<g>
	<path id="path3_3_" d="M155.2,63.6l-4.7-2.9c0-0.5-0.1-0.9-0.1-1.4l4-3.8c0.4-0.4,0.6-1,0.5-1.5c-0.1-0.6-0.5-1-1-1.2l-5.2-1.9
		c-0.1-0.4-0.3-0.9-0.4-1.3l3.2-4.5c0.3-0.5,0.4-1,0.2-1.6c-0.2-0.5-0.7-0.9-1.2-1l-5.4-0.9c-0.2-0.4-0.4-0.8-0.7-1.2l2.3-5
		c0.2-0.5,0.2-1.1-0.1-1.6c-0.3-0.5-0.8-0.7-1.4-0.7l-5.5,0.2c-0.3-0.4-0.6-0.7-0.9-1.1l1.3-5.4c0.1-0.5,0-1.1-0.4-1.5
		c-0.4-0.4-1-0.6-1.5-0.4l-5.4,1.3c-0.3-0.3-0.7-0.6-1.1-0.9l0.2-5.5c0-0.6-0.3-1.1-0.7-1.4c-0.5-0.3-1.1-0.4-1.6-0.1l-5,2.3
		c-0.4-0.2-0.8-0.4-1.2-0.7l-0.9-5.4c-0.1-0.6-0.5-1-1-1.2c-0.5-0.2-1.1-0.1-1.6,0.2l-4.5,3.2c-0.4-0.1-0.9-0.3-1.3-0.4l-1.9-5.2
		c-0.2-0.5-0.6-0.9-1.2-1c-0.6-0.1-1.1,0.1-1.5,0.5l-3.8,4c-0.5-0.1-0.9-0.1-1.4-0.1l-2.9-4.7C101.1,9.3,100.6,9,100,9
		c-0.6,0-1.1,0.3-1.4,0.8l-2.9,4.7c-0.5,0-0.9,0.1-1.4,0.1l-3.8-4c-0.4-0.4-0.9-0.6-1.5-0.5c-0.6,0.1-1,0.5-1.2,1l-1.9,5.2
		c-0.4,0.1-0.9,0.3-1.3,0.4l-4.5-3.2c-0.5-0.3-1-0.4-1.6-0.2c-0.5,0.2-0.9,0.7-1,1.2l-0.9,5.4c-0.4,0.2-0.8,0.4-1.2,0.7l-5-2.3
		c-0.5-0.2-1.1-0.2-1.6,0.1c-0.5,0.3-0.7,0.8-0.7,1.4l0.2,5.5c-0.4,0.3-0.7,0.6-1.1,0.9L61.9,25c-0.5-0.1-1.1,0-1.5,0.4
		c-0.4,0.4-0.6,1-0.4,1.5l1.3,5.4c-0.3,0.3-0.6,0.7-0.9,1.1l-5.5-0.2c-0.6,0-1.1,0.3-1.4,0.7c-0.3,0.5-0.4,1.1-0.1,1.6l2.3,5
		c-0.2,0.4-0.4,0.8-0.7,1.2l-5.4,0.9c-0.6,0.1-1,0.5-1.2,1c-0.2,0.5-0.1,1.1,0.2,1.6l3.2,4.5c-0.1,0.4-0.3,0.9-0.4,1.3l-5.2,1.9
		c-0.5,0.2-0.9,0.6-1,1.2c-0.1,0.6,0.1,1.1,0.5,1.5l4,3.8c-0.1,0.5-0.1,0.9-0.1,1.4l-4.7,2.9C44.3,63.9,44,64.4,44,65
		c0,0.6,0.3,1.1,0.8,1.4l4.7,2.9c0,0.5,0.1,0.9,0.1,1.4l-4,3.8c-0.4,0.4-0.6,0.9-0.5,1.5c0.1,0.6,0.5,1,1,1.2l5.2,1.9
		c0.1,0.4,0.3,0.9,0.4,1.3l-3.2,4.5c-0.3,0.5-0.4,1-0.2,1.6c0.2,0.5,0.7,0.9,1.2,1l5.4,0.9c0.2,0.4,0.4,0.8,0.7,1.2l-2.3,5
		c-0.2,0.5-0.2,1.1,0.1,1.6c0.3,0.5,0.8,0.7,1.4,0.7l5.5-0.2c0.3,0.4,0.6,0.7,0.9,1.1l-1.3,5.4c-0.1,0.5,0,1.1,0.4,1.5
		c0.4,0.4,1,0.6,1.5,0.4l5.4-1.3c0.3,0.3,0.7,0.6,1.1,0.9l-0.2,5.5c0,0.6,0.3,1.1,0.7,1.4c0.5,0.3,1.1,0.4,1.6,0.1l5-2.3
		c0.4,0.2,0.8,0.4,1.2,0.7l0.9,5.4c0.1,0.6,0.5,1,1,1.2c0.5,0.2,1.1,0.1,1.6-0.2l4.5-3.2c0.4,0.1,0.9,0.3,1.3,0.4l1.9,5.2
		c0.2,0.5,0.6,0.9,1.2,1c0.6,0.1,1.1-0.1,1.5-0.5l3.8-4c0.5,0.1,0.9,0.1,1.4,0.1l2.9,4.7c0.3,0.5,0.8,0.8,1.4,0.8
		c0.6,0,1.1-0.3,1.4-0.8l2.9-4.7c0.5,0,0.9-0.1,1.4-0.1l3.8,4c0.4,0.4,0.9,0.6,1.5,0.5c0.6-0.1,1-0.5,1.2-1l1.9-5.2
		c0.4-0.1,0.9-0.3,1.3-0.4l4.5,3.2c0.5,0.3,1,0.4,1.6,0.2c0.5-0.2,0.9-0.7,1-1.2l0.9-5.4c0.4-0.2,0.8-0.4,1.2-0.7l5,2.3
		c0.5,0.2,1.1,0.2,1.6-0.1c0.5-0.3,0.7-0.8,0.7-1.4l-0.2-5.5c0.4-0.3,0.7-0.6,1.1-0.9l5.4,1.3c0.5,0.1,1.1,0,1.5-0.4
		c0.4-0.4,0.6-1,0.4-1.5l-1.3-5.4c0.3-0.3,0.6-0.7,0.9-1.1l5.5,0.2c0.6,0,1.1-0.3,1.4-0.7c0.3-0.5,0.4-1.1,0.1-1.6l-2.3-5
		c0.2-0.4,0.4-0.8,0.7-1.2l5.4-0.9c0.6-0.1,1-0.5,1.2-1c0.2-0.5,0.1-1.1-0.2-1.6l-3.2-4.5c0.1-0.4,0.3-0.9,0.4-1.3l5.2-1.9
		c0.5-0.2,0.9-0.6,1-1.2c0.1-0.6-0.1-1.1-0.5-1.5l-4-3.8c0-0.5,0.1-0.9,0.1-1.4l4.7-2.9c0.5-0.3,0.8-0.8,0.8-1.4
		C156,64.4,155.7,63.9,155.2,63.6L155.2,63.6z M123.8,102.6c-1.8-0.4-2.9-2.2-2.6-4c0.4-1.8,2.2-2.9,3.9-2.6c1.8,0.4,2.9,2.2,2.6,4
		C127.3,101.9,125.6,103,123.8,102.6z M122.2,91.8c-1.6-0.4-3.2,0.7-3.6,2.3l-1.7,7.8c-5.2,2.3-10.9,3.6-16.9,3.6
		c-6.2,0-12-1.4-17.3-3.8L81.1,94c-0.4-1.6-2-2.7-3.6-2.3l-6.9,1.5c-1.3-1.3-2.5-2.7-3.6-4.2h33.5c0.4,0,0.6-0.1,0.6-0.4V76.7
		c0-0.3-0.3-0.4-0.6-0.4h-9.8v-7.5h10.6c1,0,5.2,0.3,6.5,5.6c0.4,1.7,1.3,7,2,8.7c0.6,1.9,3.2,5.8,5.9,5.8h16.7c0.2,0,0.4,0,0.6-0.1
		c-1.2,1.6-2.4,3.1-3.8,4.4L122.2,91.8L122.2,91.8z M75.9,102.5c-1.8,0.4-3.6-0.8-3.9-2.6c-0.4-1.8,0.8-3.6,2.6-4
		c1.8-0.4,3.6,0.8,3.9,2.6C78.8,100.3,77.7,102.1,75.9,102.5z M63.2,51c0.7,1.7,0,3.7-1.7,4.4c-1.7,0.7-3.6,0-4.4-1.7
		c-0.7-1.7,0-3.6,1.7-4.4C60.5,48.6,62.4,49.3,63.2,51z M59.3,60.2l7.2-3.2c1.5-0.7,2.2-2.5,1.5-4l-1.5-3.3h5.8v26.2H60.6
		c-1-3.6-1.6-7.3-1.6-11.2C59.1,63.2,59.1,61.7,59.3,60.2z M90.7,57.7V50h13.8c0.7,0,5,0.8,5,4.1c0,2.7-3.3,3.6-6,3.6L90.7,57.7
		L90.7,57.7z M140.9,64.6c0,1,0,2-0.1,3h-4.2c-0.4,0-0.6,0.3-0.6,0.7v1.9c0,4.5-2.6,5.5-4.8,5.8c-2.1,0.2-4.5-0.9-4.8-2.2
		c-1.3-7.1-3.4-8.6-6.7-11.2c4.1-2.6,8.4-6.5,8.4-11.6c0-5.6-3.8-9.1-6.4-10.8c-3.7-2.4-7.7-2.9-8.8-2.9H69.5
		c5.9-6.6,13.9-11.2,22.9-12.9l5.1,5.4c1.2,1.2,3.1,1.3,4.3,0.1l5.7-5.5c12,2.2,22.2,9.7,28,20l-3.9,8.9c-0.7,1.5,0,3.3,1.5,4
		l7.6,3.4C140.9,61.9,140.9,63.3,140.9,64.6L140.9,64.6z M97.5,19.8c1.3-1.3,3.4-1.2,4.7,0.1c1.3,1.3,1.2,3.4-0.1,4.7
		c-1.3,1.3-3.4,1.2-4.7-0.1C96.2,23.2,96.2,21.1,97.5,19.8z M136.5,51.2c0.7-1.7,2.7-2.4,4.4-1.7c1.7,0.7,2.4,2.7,1.7,4.4
		c-0.7,1.7-2.7,2.4-4.4,1.7C136.5,54.8,135.7,52.8,136.5,51.2z"/>
</g>
</svg>
